<?xml version="1.0" standalone="no"?>
<!DOCTYPE svg PUBLIC "-//W3C//DTD SVG 20010904//EN"
 "http://www.w3.org/TR/2001/REC-SVG-20010904/DTD/svg10.dtd">
<svg version="1.0" xmlns="http://www.w3.org/2000/svg"
 width="564.000000pt" height="564.000000pt" viewBox="0 0 564.000000 564.000000"
 preserveAspectRatio="xMidYMid meet">

<g transform="translate(0.000000,564.000000) scale(0.100000,-0.100000)"
fill="#000000" stroke="none">
<path d="M1326 3610 c-37 -5 -91 -14 -120 -21 -191 -45 -491 -186 -470 -220 9
-16 42 -9 186 37 192 61 265 76 383 76 146 -1 227 -25 430 -129 472 -241 504
-256 554 -261 47 -4 53 -2 86 31 33 33 36 41 33 84 l-3 48 -100 52 c-167 87
-571 263 -649 283 -89 23 -236 32 -330 20z"/>
<path d="M4082 3610 c-35 -5 -88 -16 -119 -25 -70 -21 -323 -131 -550 -240
-146 -70 -173 -87 -179 -109 -11 -45 4 -93 38 -121 27 -23 39 -26 78 -23 54 6
201 72 388 176 311 172 427 213 597 214 116 0 186 -14 384 -76 188 -60 230
-60 161 -2 -67 56 -324 159 -472 190 -96 20 -246 27 -326 16z"/>
<path d="M990 2715 c0 -31 -5 -47 -15 -51 -8 -4 -12 -10 -9 -15 3 -5 -23 -23
-58 -39 -41 -20 -53 -28 -33 -25 27 5 27 3 -10 -15 -22 -11 -47 -20 -55 -20
-13 0 -13 -1 0 -10 8 -5 24 -7 35 -4 12 3 10 -1 -8 -11 -16 -9 -25 -21 -21
-27 4 -6 3 -8 -4 -4 -6 3 -13 2 -16 -3 -3 -5 -23 -12 -43 -16 -31 -6 -35 -8
-20 -17 13 -7 32 -5 64 6 63 22 76 20 28 -4 -43 -21 -12 -17 44 6 19 8 36 13
38 10 4 -3 -35 -21 -112 -52 l-30 -12 35 -2 35 -1 -25 -14 c-32 -19 -25 -18
39 1 29 8 58 13 64 11 12 -4 -91 -57 -111 -57 -6 0 -14 -5 -18 -12 -13 -21 95
0 162 31 35 17 64 33 64 36 0 3 -14 -2 -31 -10 -17 -9 -33 -14 -37 -11 -3 3 0
6 6 6 6 0 41 21 79 47 37 25 62 39 54 30 -7 -10 -10 -17 -5 -17 4 0 -3 -11
-16 -25 -13 -14 -20 -25 -16 -25 19 0 -22 -34 -73 -61 -31 -16 -46 -27 -34
-24 12 3 31 8 43 10 12 2 39 16 59 31 l36 27 -30 -32 c-16 -17 -51 -39 -77
-48 -25 -10 -45 -21 -42 -25 3 -4 -14 -12 -36 -19 -57 -17 -42 -23 24 -9 32 6
80 28 116 51 34 22 59 35 55 29 -9 -14 8 -13 25 3 8 6 -1 -5 -20 -26 -19 -22
-57 -52 -85 -69 -27 -16 -39 -26 -25 -22 71 19 130 67 182 148 47 73 50 63 4
-18 -40 -70 -94 -127 -151 -156 l-40 -21 33 6 c17 3 47 8 65 11 24 4 28 3 17
-5 -11 -8 -12 -11 -2 -11 8 0 10 -5 6 -12 -5 -8 -2 -9 12 -3 10 4 38 14 61 22
23 8 61 31 85 50 24 19 12 5 -25 -31 -45 -43 -86 -72 -120 -85 -39 -15 -46
-20 -26 -20 46 -1 127 48 190 117 61 66 62 66 38 23 -13 -25 -48 -71 -78 -103
-61 -67 -53 -79 11 -16 24 23 50 43 58 44 8 2 16 8 18 13 2 6 9 11 16 11 7 0
25 27 41 60 16 33 31 58 33 55 2 -2 -10 -34 -27 -70 -20 -44 -35 -64 -42 -59
-8 4 -9 3 -5 -5 4 -6 1 -23 -8 -36 -9 -13 -16 -27 -16 -30 0 -13 20 8 49 52
17 25 31 42 31 37 0 -18 -57 -100 -85 -122 -15 -12 -23 -22 -17 -22 19 0 96
64 129 109 38 49 41 47 13 -9 -11 -22 -18 -40 -15 -40 3 0 -2 -12 -11 -27 -16
-27 -15 -27 10 2 14 17 44 64 66 105 45 85 47 80 20 -44 -11 -49 -18 -91 -16
-93 2 -3 7 9 11 26 4 17 10 29 14 26 5 -2 6 7 3 22 -4 19 -2 24 8 18 9 -6 11
1 6 26 -4 24 -3 28 3 14 l9 -20 4 20 c3 11 4 7 2 -10 -2 -16 0 -43 5 -60 6
-25 9 -15 15 55 11 125 27 178 21 70 -2 -47 0 -92 5 -100 7 -11 10 3 11 45 2
102 17 121 20 25 2 -74 3 -79 9 -40 4 25 8 35 8 23 3 -31 20 -38 25 -11 3 15
5 8 7 -17 2 -38 3 -36 16 25 l13 65 -3 -61 c-2 -34 0 -68 5 -75 6 -9 9 1 9 31
0 63 19 90 21 30 l2 -45 7 45 7 45 2 -40 c3 -35 4 -37 10 -15 l8 25 5 -25 c3
-16 6 -7 7 25 2 38 4 45 11 30 6 -14 9 1 10 50 1 86 15 69 24 -31 11 -113 26
-145 21 -44 -3 56 -2 76 4 60 8 -21 9 -16 12 30 2 50 3 47 9 -30 7 -78 7 -75
6 42 -1 69 0 125 1 124 2 -1 14 -42 28 -91 15 -50 35 -98 46 -108 19 -18 20
-18 13 10 -3 15 -10 42 -15 58 -4 17 -11 55 -13 85 l-6 55 15 -64 c16 -69 32
-99 22 -41 -4 19 -9 55 -12 80 -7 62 10 25 25 -52 6 -32 14 -58 17 -58 2 0 2
15 -1 33 -5 27 -3 24 18 -18 35 -72 31 -51 -10 55 -19 51 -33 99 -32 109 2 9
14 -13 26 -49 12 -36 27 -72 33 -80 12 -16 12 -20 -6 40 -6 20 0 17 34 -20 25
-26 40 -37 36 -25 -18 52 -36 128 -32 138 3 7 8 -1 12 -18 12 -44 54 -139 60
-133 3 3 1 18 -5 34 -9 27 -9 28 5 9 17 -21 17 -18 -6 99 -12 60 -5 71 11 19
7 -21 17 -42 22 -48 10 -9 7 4 -10 55 -3 9 1 7 10 -4 15 -19 16 -18 27 17 20
59 75 61 150 6 23 -16 41 -26 41 -23 0 22 -58 76 -105 100 -83 40 -153 32
-386 -44 -307 -101 -437 -105 -604 -23 -88 44 -203 136 -250 199 -16 23 -33
42 -37 42 -5 0 -8 -20 -8 -45z m787 -407 c-2 -18 -4 -4 -4 32 0 36 2 50 4 33
2 -18 2 -48 0 -65z m-558 40 c-17 -31 -109 -128 -134 -140 -11 -5 -1 7 22 27
23 19 58 58 78 85 39 53 54 65 34 28z m94 -18 c-9 -16 -40 -51 -67 -77 l-50
-48 45 50 c25 28 54 63 63 78 25 37 32 34 9 -3z m224 -112 c-3 -7 -5 -2 -5 12
0 14 2 19 5 13 2 -7 2 -19 0 -25z m-207 -5 c0 -5 -10 -19 -21 -33 l-20 -25 16
33 c15 30 25 41 25 25z"/>
<path d="M4601 2712 c-100 -118 -245 -211 -370 -238 -135 -28 -233 -14 -491
73 -212 71 -292 79 -375 38 -47 -23 -105 -77 -105 -99 0 -3 18 7 41 23 77 57
132 53 151 -10 11 -40 12 -40 24 -17 18 32 17 5 -1 -38 -8 -19 -10 -32 -5 -29
4 3 16 28 25 55 19 56 31 67 21 18 -16 -73 -22 -137 -13 -131 5 3 6 -4 2 -18
-16 -52 17 0 45 72 34 85 38 74 11 -26 l-19 -70 40 45 c41 45 42 44 20 -20 -3
-8 -2 -12 2 -9 4 4 20 40 36 80 16 41 29 65 30 54 0 -11 -14 -55 -31 -99 -16
-43 -28 -80 -26 -83 3 -2 11 13 18 34 10 32 13 35 19 18 5 -15 9 -7 14 30 8
59 26 96 26 55 0 -14 -7 -56 -15 -94 -21 -98 -11 -94 13 6 12 48 21 70 21 53
0 -16 -8 -63 -18 -102 -18 -68 -18 -72 -2 -63 11 5 27 41 40 87 35 122 36 121
35 -14 0 -71 1 -94 3 -53 2 41 7 78 11 82 4 4 6 -16 5 -45 -2 -42 0 -47 7 -27
7 18 8 0 5 -60 -5 -102 10 -79 21 31 11 114 22 137 23 49 2 -70 3 -73 16 -50
13 24 13 23 8 -19 -4 -32 -3 -42 5 -37 7 4 13 1 13 -6 1 -7 5 5 9 27 l7 40 2
-42 c0 -23 5 -44 10 -48 6 -3 7 9 4 31 -4 27 -3 35 5 30 7 -4 12 -25 12 -47 0
-24 4 -38 10 -34 5 3 8 33 5 68 l-4 62 10 -55 c15 -79 29 -107 23 -45 -5 50
-5 50 10 20 l14 -30 3 35 c2 34 2 33 9 -10 6 -38 7 -32 10 45 3 99 1 103 29
-70 8 -51 9 -42 6 65 -4 133 7 115 21 -35 6 -63 9 -74 16 -55 5 13 7 40 5 60
-2 19 -2 26 0 16 4 -16 7 -17 14 -5 6 9 7 2 3 -21 -4 -28 -3 -32 6 -20 9 12
11 10 7 -12 -2 -15 -1 -25 3 -23 4 3 11 -11 15 -31 3 -20 8 -34 11 -31 3 2 -4
45 -16 96 -28 127 -26 133 20 44 23 -43 52 -91 66 -108 22 -25 24 -26 12 -5
-7 14 -13 30 -13 35 -1 6 -9 24 -18 42 -26 49 -20 49 16 2 33 -45 110 -109
129 -109 6 0 -1 9 -15 20 -27 22 -87 107 -87 124 0 6 16 -13 36 -42 20 -30 38
-51 41 -49 2 3 -3 16 -11 30 -9 13 -14 33 -10 43 5 15 4 16 -5 4 -8 -12 -16
-1 -41 52 -40 90 -37 99 5 18 19 -36 34 -61 35 -56 0 5 12 -1 26 -15 14 -13
27 -22 29 -19 2 3 12 -6 23 -20 11 -14 35 -34 53 -44 31 -18 29 -14 -21 41
-30 34 -66 81 -79 105 -22 41 -21 40 37 -22 62 -68 147 -121 192 -119 21 0 19
3 -12 14 -52 19 -115 64 -168 121 l-45 48 42 -36 c44 -39 77 -60 90 -56 4 1
22 -6 40 -15 37 -19 47 -21 38 -7 -3 6 0 10 7 10 10 0 9 3 -2 11 -11 8 -8 9
15 5 17 -4 46 -8 65 -11 l35 -5 -46 25 c-25 13 -61 41 -81 63 -41 45 -93 130
-85 138 3 3 11 -5 18 -18 37 -73 121 -144 189 -163 15 -4 7 4 -20 20 -49 29
-110 83 -110 98 0 5 6 4 13 -2 8 -6 16 -8 19 -6 3 3 29 -10 58 -30 28 -19 57
-35 64 -36 6 0 18 -2 26 -4 8 -1 33 -6 55 -9 39 -6 39 -6 -8 9 -26 9 -46 19
-43 23 3 4 -17 15 -42 25 -26 9 -61 31 -77 49 l-30 32 38 -28 c20 -15 45 -29
55 -31 9 -2 28 -7 42 -10 14 -4 1 7 -29 24 -63 36 -83 52 -76 59 3 3 -5 16
-17 29 -45 48 -25 51 40 6 37 -25 66 -49 65 -53 -4 -12 76 -41 131 -47 36 -5
47 -3 42 5 -4 7 -12 12 -17 12 -17 0 -121 52 -115 57 5 5 69 -8 112 -23 17 -6
17 -5 -1 9 -19 16 -19 16 10 17 25 1 18 6 -43 32 -83 36 -92 47 -13 17 30 -11
55 -18 58 -15 2 2 -16 12 -42 21 -66 26 -49 29 23 4 42 -14 66 -18 78 -11 13
7 7 11 -30 21 -25 6 -46 16 -46 21 0 5 -12 16 -27 25 -18 10 -21 14 -8 11 11
-3 27 -1 35 4 13 9 13 10 0 11 -8 0 -33 9 -55 20 -36 17 -37 19 -10 14 20 -3
8 5 -33 25 -35 16 -61 34 -58 39 4 5 1 11 -6 13 -6 2 -14 26 -17 53 l-6 50
-44 -53z m-734 -414 c-2 -24 -4 -7 -4 37 0 44 2 63 4 43 2 -21 2 -57 0 -80z
m566 53 c15 -22 52 -65 84 -96 32 -32 49 -53 38 -47 -29 15 -120 113 -139 150
-23 44 -14 40 17 -7z m-29 -101 c25 -29 19 -25 -17 13 -31 31 -61 67 -67 80
-6 12 2 6 17 -13 15 -19 45 -55 67 -80z m-297 -22 c-3 -8 -6 -5 -6 6 -1 11 2
17 5 13 3 -3 4 -12 1 -19z m223 -28 c11 -22 18 -40 15 -40 -2 0 -14 18 -25 40
-11 22 -18 40 -15 40 2 0 14 -18 25 -40z"/>
<path d="M4576 2443 c11 -10 31 -26 45 -36 l24 -18 -25 6 -25 6 25 -20 c28
-23 157 -77 165 -69 3 3 -21 15 -52 26 -32 12 -67 28 -78 37 -19 16 -19 16 5
9 15 -4 4 7 -29 30 -66 45 -83 54 -55 29z"/>
<path d="M1031 2430 c-13 -11 -19 -20 -13 -20 5 0 20 9 33 20 13 10 20 19 14
19 -5 0 -21 -9 -34 -19z"/>
<path d="M1014 2390 c-6 -6 -46 -26 -90 -45 -91 -40 -85 -47 8 -10 61 25 124
64 103 65 -6 0 -16 -5 -21 -10z"/>
<path d="M1030 2287 c-25 -17 -67 -39 -95 -49 -27 -10 -41 -17 -30 -18 28 0
136 53 159 79 25 28 19 26 -34 -12z"/>
<path d="M4575 2300 c23 -26 131 -80 160 -80 11 1 -2 8 -30 18 -27 10 -72 33
-100 51 -38 26 -45 29 -30 11z"/>
<path d="M1970 2266 c0 -8 4 -17 9 -20 5 -4 7 3 4 14 -6 23 -13 26 -13 6z"/>
<path d="M3871 2094 c0 -11 3 -14 6 -6 3 7 2 16 -1 19 -3 4 -6 -2 -5 -13z"/>
<path d="M1761 2074 c0 -11 3 -14 6 -6 3 7 2 16 -1 19 -3 4 -6 -2 -5 -13z"/>
</g>
</svg>
