<?xml version="1.0" encoding="utf-8"?>
<!-- Svg Vector Icons : http://www.onlinewebfonts.com/icon -->
<!DOCTYPE svg PUBLIC "-//W3C//DTD SVG 1.1//EN" "http://www.w3.org/Graphics/SVG/1.1/DTD/svg11.dtd">
<svg version="1.1" xmlns="http://www.w3.org/2000/svg" xmlns:xlink="http://www.w3.org/1999/xlink" x="0px" y="0px" viewBox="0 0 1000 1000" enable-background="new 0 0 1000 1000" xml:space="preserve">
<metadata> Svg Vector Icons : http://www.onlinewebfonts.com/icon </metadata>
<g><g><path d="M541.7,200c-133.9,38.6-150.1,156.5-163.4,217.8c-13.3,61.4-35.8,139.9-19.7,188.3c-29.5-21.2-22.7-55.2-22.7-55.2S158.2,812.6,467.6,942.7c-21.2,25.8-122.5-15-122.5-15s-6.8,56.7,62,39.3c-111.9,96.9-229.9-143.7-229.9-143.7l15.1,68.2c0,0-39.4,10.5-98.3-323.7c-59-334.4,167.9-506.9,223.9-528c56-21.2,151.3-27.2,201.2,0c113.5-86.3,226.5,39.1,252.6,78.7c26.1,39.7,108.9,157.4,124.1,237.5c15.1,80.1,89.2,624-190.6,549.2c98.3-28,98.3-202.8,98.3-202.8s-76.4,78.7-99.8,46.9c99.8-46.9,103.6-250.3,40.9-364.6C695.5,292.8,589.9,220,541.7,200z"/></g><g></g><g></g><g></g><g></g><g></g><g></g><g></g><g></g><g></g><g></g><g></g><g></g><g></g><g></g><g></g></g>
</svg>