<?xml version="1.0" encoding="UTF-8" standalone="no"?>
<!-- Created with Inkscape (http://www.inkscape.org/) -->

<svg
   width="220.03416mm"
   height="259.26169mm"
   viewBox="0 0 220.03416 259.26169"
   version="1.1"
   id="svg5"
   inkscape:version="1.1.1 (3bf5ae0d25, 2021-09-20)"
   xmlns:inkscape="http://www.inkscape.org/namespaces/inkscape"
   xmlns:sodipodi="http://sodipodi.sourceforge.net/DTD/sodipodi-0.dtd"
   xmlns="http://www.w3.org/2000/svg"
   xmlns:svg="http://www.w3.org/2000/svg">
  <sodipodi:namedview
     id="namedview7"
     pagecolor="#ffffff"
     bordercolor="#666666"
     borderopacity="1.0"
     inkscape:pageshadow="2"
     inkscape:pageopacity="0.0"
     inkscape:pagecheckerboard="0"
     inkscape:document-units="mm"
     showgrid="false"
     inkscape:zoom="0.37059484"
     inkscape:cx="1049.6638"
     inkscape:cy="497.84827"
     inkscape:window-width="1920"
     inkscape:window-height="1017"
     inkscape:window-x="-8"
     inkscape:window-y="-8"
     inkscape:window-maximized="1"
     inkscape:current-layer="g45" />
  <defs
     id="defs2" />
  <g
     inkscape:label="Katman 1"
     inkscape:groupmode="layer"
     id="layer1"
     transform="translate(2.2117969,-17.441271)">
    <g
       id="g45"
       transform="matrix(0.26458333,0,0,0.26458333,-24.513976,14.764923)">
      <g
         id="g13"
         style="fill:#ffffff">
        <path
           d="M 541.7,200 C 407.8,238.6 391.6,356.5 378.3,417.8 365,479.2 342.5,557.7 358.6,606.1 c -29.5,-21.2 -22.7,-55.2 -22.7,-55.2 0,0 -177.7,261.7 131.7,391.8 -21.2,25.8 -122.5,-15 -122.5,-15 0,0 -6.8,56.7 62,39.3 C 295.2,1063.9 177.2,823.3 177.2,823.3 l 15.1,68.2 c 0,0 -39.4,10.5 -98.3,-323.7 -59,-334.4 167.9,-506.9 223.9,-528 56,-21.2 151.3,-27.2 201.2,0 113.5,-86.3 226.5,39.1 252.6,78.7 26.1,39.7 108.9,157.4 124.1,237.5 15.1,80.1 89.2,624 -190.6,549.2 98.3,-28 98.3,-202.8 98.3,-202.8 0,0 -76.4,78.7 -99.8,46.9 C 803.5,702.4 807.3,499 744.6,384.7 695.5,292.8 589.9,220 541.7,200 Z"
           id="path11"
           style="fill:#ffffff" />
      </g>
      <g
         id="g15" />
      <g
         id="g17" />
      <g
         id="g19" />
      <g
         id="g21" />
      <g
         id="g23" />
      <g
         id="g25" />
      <g
         id="g27" />
      <g
         id="g29" />
      <g
         id="g31" />
      <g
         id="g33" />
      <g
         id="g35" />
      <g
         id="g37" />
      <g
         id="g39" />
      <g
         id="g41" />
      <g
         id="g43" />
    </g>
  </g>
</svg>
