<?xml version="1.0" standalone="no"?>
<!DOCTYPE svg PUBLIC "-//W3C//DTD SVG 20010904//EN"
 "http://www.w3.org/TR/2001/REC-SVG-20010904/DTD/svg10.dtd">
<svg version="1.0" xmlns="http://www.w3.org/2000/svg"
 width="981.000000pt" height="782.000000pt" viewBox="0 0 981.000000 782.000000"
 preserveAspectRatio="xMidYMid meet">

<g transform="translate(0.000000,782.000000) scale(0.100000,-0.100000)"
fill="#ffff" stroke="none">
<path d="M3105 7781 c-49 -28 -153 -128 -216 -206 -53 -66 -192 -283 -255
-397 -32 -59 -66 -110 -74 -113 -8 -4 -91 -10 -185 -15 -284 -16 -429 -39
-619 -100 -408 -131 -953 -587 -1254 -1050 -240 -368 -357 -927 -337 -1606 l7
-240 -62 -158 c-88 -226 -103 -288 -103 -426 0 -135 16 -198 114 -442 125
-311 139 -376 112 -490 -14 -58 -18 -115 -17 -278 0 -221 16 -374 59 -563 30
-135 62 -206 121 -269 59 -63 100 -152 214 -469 124 -341 172 -462 239 -604
60 -125 140 -269 147 -263 2 2 8 110 14 239 21 469 40 665 85 845 43 171 88
270 228 494 138 221 142 232 142 375 0 148 -21 219 -98 325 -29 40 -69 95 -89
124 -97 134 -117 314 -72 641 80 578 361 1206 590 1323 97 50 153 57 419 57
333 -1 527 -27 1340 -180 692 -130 897 -159 1104 -153 l136 3 63 42 c77 52
140 76 307 118 354 90 867 139 1460 139 380 0 552 -9 812 -45 297 -41 412 -93
596 -268 305 -291 530 -741 657 -1314 133 -604 206 -1380 219 -2339 l6 -498
217 503 c120 276 236 547 258 602 170 421 265 871 320 1519 7 83 19 154 35
200 40 120 49 213 50 481 0 476 -79 874 -226 1127 -69 117 -190 218 -265 218
-20 0 -21 6 -27 163 -9 254 -40 396 -120 552 -33 64 -67 106 -174 216 -80 84
-142 157 -157 188 -15 28 -64 166 -111 308 -93 281 -160 432 -224 504 -37 43
-95 79 -107 67 -2 -3 9 -72 26 -154 28 -140 38 -262 24 -298 -9 -23 -37 -20
-62 7 -11 12 -77 113 -146 224 -68 111 -155 249 -192 305 -227 344 -453 583
-586 619 -22 5 -42 9 -44 7 -2 -2 39 -61 89 -131 168 -230 384 -599 399 -682
7 -34 10 -35 -180 82 -645 398 -1420 792 -1917 976 -571 211 -905 236 -1410
107 -412 -105 -901 -318 -1322 -576 l-103 -63 0 82 c0 197 97 430 242 583 l51
54 -49 0 c-36 0 -63 -8 -99 -29z"/>
</g>
</svg>
