<?xml version="1.0" encoding="UTF-8" standalone="no"?>
<!-- Created with Inkscape (http://www.inkscape.org/) -->

<svg
   width="40"
   height="40"
   viewBox="0 0 22.518072 26.854156"
   version="1.1"
   id="svg5"
   inkscape:version="1.1.1 (3bf5ae0d25, 2021-09-20)"
   sodipodi:docname="fue.svg"
   xmlns:inkscape="http://www.inkscape.org/namespaces/inkscape"
   xmlns:sodipodi="http://sodipodi.sourceforge.net/DTD/sodipodi-0.dtd"
   xmlns="http://www.w3.org/2000/svg"
   xmlns:svg="http://www.w3.org/2000/svg">
  <sodipodi:namedview
     id="namedview7"
     pagecolor="#ffffff"
     bordercolor="#666666"
     borderopacity="1.0"
     inkscape:pageshadow="2"
     inkscape:pageopacity="0.0"
     inkscape:pagecheckerboard="0"
     inkscape:document-units="mm"
     showgrid="false"
     inkscape:zoom="3.4082396"
     inkscape:cx="93.156596"
     inkscape:cy="73.79176"
     inkscape:window-width="1920"
     inkscape:window-height="1017"
     inkscape:window-x="-8"
     inkscape:window-y="-8"
     inkscape:window-maximized="1"
     inkscape:current-layer="g2813"
     showguides="false" />
  <defs
     id="defs2" />
  <g
     inkscape:label="Katman 1"
     inkscape:groupmode="layer"
     id="layer1"
     transform="translate(-73.393482,-82.69657)">
    <g
       id="g57"
       transform="translate(-4.2836543,-17.848558)">
      <path
         style="fill:#333333;fill-opacity:1;stroke-width:0.0846667"
         d="m 128.60127,156.07672 c 0,-0.0176 0.0667,-0.0842 0.14817,-0.14817 0.13429,-0.10531 0.13728,-0.10232 0.032,0.032 -0.11061,0.14103 -0.18014,0.18589 -0.18014,0.1162 z"
         id="path59" />
      <g
         id="g807"
         transform="translate(-0.83580437,-0.96220769)" />
      <g
         transform="matrix(0.00274022,0,0,-0.00274022,75.235073,114.27363)"
         id="g2813">
        <path
           d="M 7670.4,4686.2 C 7149.6,4298 7009.1,4184.9 6747.7,3941.1 5277,2567.8 4063.7,162.7 3868.6,-1766.5 c -35.1,-345.2 -17.5,-842.7 39,-1016.3 113.1,-357 351.1,-651.5 632,-782.2 452.6,-208.7 1049.4,-70.2 1336.2,308.2 214.6,284.8 267.2,608.6 165.8,1039.7 -27.3,119 -70.2,333.5 -95.6,477.9 -249.7,1420 29.3,3039.1 797.8,4632.7 310.2,641.8 548.2,1022.2 1047.6,1679.6 181.4,239.9 327.7,436.9 323.8,436.9 -3.9,0 -204.8,-146.3 -444.8,-323.8 z"
           id="path2809" />
        <path
           d="M 2376.4,-2414.1 C 1929.7,-2459 925.1,-2626.7 892,-2661.8 c -11.7,-11.7 107.3,-542.3 126.8,-561.8 5.9,-7.8 113.1,7.8 236,31.2 481.8,97.5 1351.8,214.6 1484.4,200.9 58.5,-5.8 62.4,-11.7 107.3,-185.3 105.3,-405.7 292.6,-739.3 573.5,-1022.1 282.8,-284.8 589.1,-452.5 998.7,-550.1 156.1,-35.1 238,-41 581.3,-41 343.3,0 425.2,5.9 581.3,41 413.6,97.5 715.9,265.3 1008.5,561.8 314.1,316 444.7,571.5 606.6,1176.2 9.8,33.2 97.5,29.3 491.6,-15.6 351.1,-39 805.6,-111.2 1106,-175.6 97.5,-19.5 181.4,-29.3 187.2,-23.4 19.5,21.5 138.5,552 126.8,563.7 -17.5,17.6 -518.9,113.1 -889.5,169.7 -474,72.2 -883.6,109.2 -1230.8,109.2 h -306.3 l -11.7,-52.7 c -5.8,-31.2 -15.6,-111.2 -21.5,-181.4 -70.2,-696.4 -380.4,-1203.5 -877.8,-1435.7 -450.6,-208.7 -1090.4,-208.7 -1541,0 -497.4,232.1 -807.6,739.3 -877.8,1435.7 -5.8,70.2 -15.6,150.2 -21.5,181.4 l -11.7,52.7 -343.3,-2 c -189.1,-1.8 -458.2,-13.5 -598.7,-29.1 z"
           id="path2811" />
      </g>
    </g>
  </g>
</svg>
