<?xml version="1.0" encoding="UTF-8" standalone="no"?>
<!-- Created with Inkscape (http://www.inkscape.org/) -->

<svg
   width="127.5932mm"
   height="72.304909mm"
   viewBox="0 0 127.5932 72.304907"
   version="1.1"
   id="svg5"
   inkscape:version="1.1.1 (3bf5ae0d25, 2021-09-20)"
   sodipodi:docname="hair_strand_w.svg"
   xmlns:inkscape="http://www.inkscape.org/namespaces/inkscape"
   xmlns:sodipodi="http://sodipodi.sourceforge.net/DTD/sodipodi-0.dtd"
   xmlns="http://www.w3.org/2000/svg"
   xmlns:svg="http://www.w3.org/2000/svg">
  <sodipodi:namedview
     id="namedview7"
     pagecolor="#ffffff"
     bordercolor="#666666"
     borderopacity="1.0"
     inkscape:pageshadow="2"
     inkscape:pageopacity="0.0"
     inkscape:pagecheckerboard="0"
     inkscape:document-units="mm"
     showgrid="false"
     inkscape:zoom="0.74118967"
     inkscape:cx="178.76666"
     inkscape:cy="118.05345"
     inkscape:window-width="1920"
     inkscape:window-height="1017"
     inkscape:window-x="-8"
     inkscape:window-y="-8"
     inkscape:window-maximized="1"
     inkscape:current-layer="g57" />
  <defs
     id="defs2" />
  <g
     inkscape:label="Katman 1"
     inkscape:groupmode="layer"
     id="layer1"
     transform="translate(-35.577034,-71.295618)">
    <g
       id="g57"
       transform="translate(-4.2836543,-17.848558)">
      <path
         style="fill:#b9b9b9;fill-opacity:1;stroke-width:0.0846667"
         d="m 69.58918,159.56534 c -2.105307,-0.30042 -3.769486,-1.64613 -4.827338,-3.90352 -0.744931,-1.58965 -1.023427,-3.20126 -0.854415,-4.94437 0.173322,-1.78753 0.609118,-3.2255 1.632466,-5.38653 0.282181,-0.5959 0.487301,-1.1092 0.455822,-1.14068 -0.05084,-0.0508 -9.033035,-0.21742 -21.976449,-0.40757 -2.44475,-0.0359 -4.31165,-0.0923 -4.148667,-0.12528 0.162983,-0.033 2.239434,-0.0857 4.614334,-0.11713 2.3749,-0.0314 8.509,-0.12681 13.631334,-0.21196 5.122334,-0.0851 9.330166,-0.13904 9.350739,-0.11975 0.06449,0.0605 -0.163912,0.61766 -0.862897,2.10514 -1.320659,2.81043 -1.657619,3.95055 -1.732768,5.86287 -0.05509,1.40179 0.04404,2.17323 0.416001,3.23731 0.623538,1.7838 1.568492,2.99592 2.870655,3.6823 0.735688,0.38778 1.414451,0.53944 2.700604,0.6034 1.88497,0.0937 2.854196,-0.27356 4.148667,-1.57226 1.259977,-1.26409 2.030768,-2.74956 2.336519,-4.50297 0.200778,-1.15141 0.123168,-3.32078 -0.166126,-4.64365 -0.117111,-0.53552 -0.29133,-1.33562 -0.387154,-1.778 -0.205554,-0.94897 -0.39823,-2.69965 -0.319653,-2.90442 0.05128,-0.13364 0.626784,-0.14358 8.312758,-0.14358 4.616038,0 8.257657,0.0324 8.257657,0.0735 0,0.0404 -0.227347,0.61398 -0.505215,1.2745 -1.232216,2.92913 -1.69388,5.19772 -1.518501,7.46182 0.162201,2.09399 1.057823,4.20926 2.264014,5.34712 0.968768,0.9139 1.938259,1.29149 3.57044,1.39062 2.115724,0.1285 3.697073,-0.69693 4.968743,-2.5936 1.13915,-1.69901 1.67347,-3.32579 1.78805,-5.44387 0.0864,-1.59637 -0.0166,-2.91273 -0.40186,-5.13947 -0.18934,-1.09431 -0.34428,-2.07539 -0.3443,-2.18016 l -4e-5,-0.1905 h 10.11767 c 6.42936,0 10.11767,0.0297 10.11767,0.0815 0,0.14701 -0.30936,0.86863 -1.01417,2.36572 -1.22544,2.60298 -1.63917,4.16151 -1.63165,6.14641 0.005,1.30797 0.22782,2.30671 0.77554,3.47551 0.657,1.40199 1.49585,2.34484 2.56543,2.88347 0.76422,0.38485 1.41914,0.52896 2.69151,0.59224 1.82093,0.0906 2.89552,-0.30913 4.10733,-1.52775 1.68163,-1.69109 2.49535,-3.74946 2.49634,-6.31468 8.4e-4,-1.19738 -0.10897,-1.99694 -0.56158,-4.10349 -0.25326,-1.17874 -0.39868,-2.08776 -0.43114,-2.69519 l -0.049,-0.91657 1.38886,0.049 c 0.76387,0.0269 8.5326,0.12671 17.26385,0.22169 8.73125,0.095 16.1417,0.20364 16.46767,0.24146 0.50645,0.0588 0.3956,0.0702 -0.762,0.0788 -5.11233,0.038 -30.98105,0.3661 -32.02517,0.40613 l -1.29117,0.0495 v 0.27923 c 0,0.28688 0.12807,0.95158 0.59528,3.0896 0.22784,1.04264 0.27492,1.46001 0.31243,2.76926 0.0493,1.71929 -0.0359,2.54425 -0.37368,3.62107 -0.4918,1.56779 -1.24683,2.81168 -2.39095,3.93901 -0.81001,0.79811 -1.37848,1.17011 -2.30575,1.50883 -0.59265,0.21648 -0.69248,0.22658 -2.18733,0.22131 -1.80047,-0.006 -2.23548,-0.0901 -3.38666,-0.65184 -1.65322,-0.80676 -3.05845,-2.80063 -3.65572,-5.18713 -0.15962,-0.63773 -0.18959,-0.9835 -0.18695,-2.15651 0.005,-2.11647 0.35208,-3.49272 1.5224,-6.03263 0.30572,-0.6635 0.57592,-1.25399 0.60045,-1.3122 0.0355,-0.0843 -1.75941,-0.10583 -8.81212,-0.10583 -4.87121,0 -8.85673,0.027 -8.85673,0.0601 0,0.0331 0.11296,0.70933 0.25102,1.50284 0.42842,2.46232 0.50931,3.77114 0.33849,5.4766 -0.22645,2.26088 -0.95331,4.13647 -2.29104,5.91176 -1.30957,1.73794 -2.908161,2.54641 -5.021847,2.53976 -2.88249,-0.009 -4.750166,-1.1053 -5.997417,-3.52022 -1.270304,-2.45954 -1.549516,-5.13646 -0.858691,-8.23265 0.20894,-0.93643 0.688019,-2.43413 1.042279,-3.25836 0.09673,-0.22505 0.175872,-0.42508 0.175872,-0.4445 0,-0.0194 -3.181351,-0.0353 -7.069668,-0.0353 h -7.069667 l 7.62e-4,0.23283 c 4.24e-4,0.12806 0.115682,0.78528 0.256167,1.4605 0.519708,2.4979 0.588237,2.88782 0.679691,3.86746 0.09884,1.0588 0.05459,2.07844 -0.139574,3.21593 -0.426664,2.49955 -2.245463,5.14579 -4.199668,6.11026 -0.387029,0.19102 -0.951338,0.40517 -1.254022,0.4759 -0.615101,0.14375 -2.314426,0.16053 -3.216754,0.0318 z m 0.750722,-2.94428 c -1.332826,-0.13837 -2.090836,-0.7251 -2.783742,-2.15472 -0.55225,-1.13941 -0.718907,-1.96897 -0.647987,-3.22544 0.08756,-1.55138 0.350979,-2.43408 1.389801,-4.65721 1.266795,-2.71101 1.157415,-2.34454 2.68586,-8.99879 1.66979,-7.2696 2.536868,-10.66663 3.59977,-14.10313 2.82263,-9.12594 7.145483,-17.24277 12.789938,-24.015086 1.081126,-1.297154 2.362885,-2.744512 2.463138,-2.781367 0.04443,-0.01633 -0.248951,0.421815 -0.65197,0.973667 -5.722299,7.835506 -9.101535,15.398226 -11.93018,26.699706 -1.730894,6.91554 -2.781389,14.09286 -2.788218,19.05 -0.002,1.46256 0.02623,1.86889 0.179485,2.58233 0.627024,2.91891 0.708121,3.3777 0.755772,4.27567 0.118812,2.23894 -0.434334,3.92179 -1.769129,5.38227 -0.794241,0.86903 -1.702452,1.13717 -3.292538,0.9721 z m 26.108346,-0.0132 c -1.201149,-0.13969 -1.934074,-0.69301 -2.55573,-1.92943 -0.534565,-1.06319 -0.776624,-1.99388 -0.82837,-3.18499 -0.09137,-2.10313 0.253404,-3.54396 1.631529,-6.8183 0.765018,-1.81763 1.196963,-3.08508 1.470367,-4.31448 0.09838,-0.44239 0.499754,-2.27119 0.891939,-4.064 3.073607,-14.05052 4.806197,-20.10419 7.674357,-26.81412 3.04412,-7.12158 6.79211,-13.33118 11.46234,-18.990553 0.92405,-1.119749 2.67756,-3.132667 2.72897,-3.132667 0.0569,0 0.0254,0.04527 -1.07349,1.542521 -5.35763,7.299836 -9.056,14.730289 -11.85809,23.824289 -1.04193,3.38153 -2.22098,7.89127 -2.95559,11.30484 -1.35202,6.28256 -2.2395,13.26766 -2.24146,17.64202 l -9.5e-4,2.11667 0.37488,2.032 c 0.36989,2.00498 0.37484,2.05619 0.37217,3.85233 -0.003,1.70375 -0.0173,1.87456 -0.23003,2.667 -0.41961,1.56291 -1.412433,3.19698 -2.324665,3.82613 -0.417682,0.28807 -1.226257,0.54199 -1.666107,0.52322 -0.141558,-0.006 -0.533988,-0.0431 -0.872066,-0.0825 z m 29.457592,0.0106 c -1.48997,-0.1689 -2.41529,-1.0494 -3.09283,-2.94305 -0.25683,-0.71782 -0.26522,-0.78554 -0.25975,-2.09645 0.005,-1.19243 0.0325,-1.45218 0.22962,-2.16885 0.23506,-0.85452 0.77398,-2.18417 1.34798,-3.32581 0.51261,-1.01952 1.04615,-2.44255 1.28892,-3.43767 0.11928,-0.48895 0.67675,-2.88925 1.23885,-5.334 1.89169,-8.22768 2.71368,-11.35934 4.01127,-15.28234 2.77529,-8.3905 6.78519,-15.82667 11.89326,-22.055511 1.03125,-1.257518 2.82673,-3.305752 2.86462,-3.267868 0.0161,0.01614 -0.4771,0.737039 -1.09608,1.601992 -5.45584,7.623817 -8.65531,14.867167 -11.41296,25.838057 -1.56763,6.23657 -2.42943,11.57217 -2.80003,17.33579 -0.13882,2.15887 -0.0694,3.52232 0.25759,5.05854 0.14371,0.67522 0.34215,1.60867 0.44098,2.07434 0.25385,1.1962 0.25539,3.27192 0.003,4.20249 -0.21594,0.79656 -0.63429,1.64082 -1.15882,2.3386 -0.98138,1.30551 -1.91803,1.67006 -3.75575,1.46174 z"
         id="path71" />
      <path
         style="fill:#a3a3a3;fill-opacity:1;stroke-width:0.0846667"
         d="m 69.774263,159.57842 c -2.417653,-0.33441 -4.161172,-1.80874 -5.225039,-4.41832 -0.471008,-1.15535 -0.65366,-2.11821 -0.655229,-3.45408 -0.0026,-2.18773 0.555878,-4.21529 1.894057,-6.8768 0.233756,-0.46492 0.300919,-0.67215 0.225294,-0.69513 -0.05926,-0.018 -5.898946,-0.12187 -12.977079,-0.23077 -7.078134,-0.10892 -12.602635,-0.22526 -12.276668,-0.25854 0.584647,-0.0597 26.638632,-0.48366 26.703392,-0.43453 0.05952,0.0452 -0.256724,0.80203 -0.972061,2.32643 -1.106211,2.35736 -1.490002,3.59901 -1.6375,5.29767 -0.219563,2.52861 0.682712,5.12119 2.287779,6.5737 1.043457,0.94427 2.0481,1.26721 3.971392,1.27658 1.161651,0.006 1.377374,-0.0161 1.878791,-0.18933 1.44025,-0.49765 2.741064,-1.7939 3.626979,-3.61428 0.610116,-1.25367 0.764392,-1.932 0.819081,-3.60141 0.05149,-1.57189 -0.01947,-2.27623 -0.406515,-4.03446 -0.35717,-1.62255 -0.474242,-2.31471 -0.545076,-3.22263 l -0.0611,-0.78317 h 8.308255 c 4.56954,0 8.308254,0.018 8.308254,0.0399 0,0.022 -0.09835,0.26008 -0.218549,0.52917 -2.089029,4.67652 -2.403597,8.05029 -1.046631,11.22516 0.448905,1.0503 0.805465,1.61365 1.401158,2.2138 0.574221,0.57851 1.398969,1.05585 2.192355,1.26886 0.796277,0.21378 2.418036,0.26468 3.123076,0.098 0.735484,-0.17387 1.630681,-0.64122 2.190171,-1.1434 1.31285,-1.17839 2.49485,-3.50183 2.80534,-5.51446 0.31333,-2.03103 0.25528,-3.36396 -0.28377,-6.51571 -0.18716,-1.09432 -0.34064,-2.03729 -0.34106,-2.0955 -5.9e-4,-0.0841 2.07881,-0.10584 10.11691,-0.10584 5.56472,0 10.11767,0.0138 10.11767,0.0307 0,0.0778 -0.54741,1.32064 -1.1239,2.55164 -0.74652,1.59407 -1.19267,2.85513 -1.36289,3.85233 -0.40758,2.38769 -0.18289,4.01789 0.82274,5.969 0.34419,0.6678 0.57948,0.99153 1.11371,1.53237 1.08185,1.09519 1.97942,1.44405 3.937,1.53016 1.91945,0.0844 2.84074,-0.26604 4.14867,-1.57824 1.28821,-1.29241 2.03011,-2.74497 2.33221,-4.56618 0.20726,-1.2494 0.13386,-3.22191 -0.172,-4.62278 -0.58153,-2.66348 -0.65202,-3.07534 -0.66506,-3.88537 l -0.0135,-0.83737 1.18533,0.0106 c 10.07822,0.0902 32.29592,0.3722 32.93534,0.41807 0.47789,0.0343 -6.30758,0.14553 -15.57867,0.25542 -9.03393,0.10709 -16.69187,0.20275 -17.01762,0.21259 l -0.59229,0.0179 0.0273,0.33773 c 0.0308,0.38034 0.22028,1.36769 0.60924,3.17408 0.31417,1.45897 0.42591,3.51389 0.25913,4.76511 -0.2822,2.11699 -1.20316,3.97753 -2.71276,5.48031 -1.52336,1.51649 -3.1511,1.99248 -5.7826,1.69096 -1.81677,-0.20816 -3.44766,-1.22141 -4.42634,-2.75005 -1.21802,-1.90246 -1.72604,-4.03064 -1.4874,-6.23092 0.1868,-1.72232 0.60355,-3.07404 1.61395,-5.2349 0.28107,-0.60111 0.51104,-1.11519 0.51104,-1.14239 0,-0.0272 -3.98145,-0.0494 -8.84766,-0.0494 -7.02222,0 -8.84747,0.0218 -8.84668,0.10583 5.1e-4,0.0582 0.11283,0.74078 0.2495,1.51683 0.33168,1.88325 0.45933,3.36602 0.3924,4.558 -0.16312,2.90479 -0.9635,5.07712 -2.61643,7.10133 -0.86309,1.05694 -2.101913,1.82451 -3.38948,2.10009 -0.871672,0.18657 -2.65228,0.10608 -3.570383,-0.16139 -1.856122,-0.54075 -3.197473,-1.83356 -4.118204,-3.96922 -1.278186,-2.96478 -1.176911,-6.35241 0.304497,-10.18538 0.212177,-0.54898 0.385777,-1.01344 0.385777,-1.03212 0,-0.0187 -3.186779,-0.034 -7.081729,-0.034 H 77.43845 l 0.05307,0.50773 c 0.02919,0.27925 0.188074,1.12499 0.353081,1.87942 0.460946,2.1075 0.548595,2.78237 0.548966,4.22692 3.39e-4,1.46938 -0.135476,2.45099 -0.4784,3.45667 -0.627792,1.8411 -1.95937,3.62854 -3.393779,4.55564 -0.28206,0.1823 -0.831056,0.43948 -1.219992,0.57149 -0.617253,0.20951 -0.852467,0.2428 -1.850155,0.26187 -0.62865,0.012 -1.383302,-0.0114 -1.677005,-0.052 z m 0.745671,-2.95385 c -1.024177,-0.097 -1.489475,-0.29629 -2.077116,-0.88937 -1.186094,-1.19708 -1.743367,-3.10364 -1.487042,-5.08751 0.172638,-1.33618 0.514044,-2.29793 1.773245,-4.99534 0.736317,-1.5773 0.985351,-2.44601 2.087349,-7.28133 3.024308,-13.26999 4.53513,-18.19515 7.574632,-24.69271 2.665831,-5.69876 5.892594,-10.65218 10.085049,-15.481626 1.134461,-1.306828 1.570279,-1.738484 1.090334,-1.079922 -5.76738,7.913768 -8.872029,14.481488 -11.648032,24.640818 -1.64067,6.00435 -2.700464,11.61822 -3.200243,16.95211 -0.393011,4.1944 -0.385482,5.85729 0.03546,7.83166 0.143957,0.67522 0.343011,1.60867 0.442341,2.07434 0.256114,1.20066 0.254173,3.26637 -0.004,4.21527 -0.231377,0.85055 -0.741837,1.82613 -1.319897,2.52254 -0.927658,1.11761 -1.736222,1.42421 -3.352119,1.27107 z m 26.052715,-0.007 c -0.826186,-0.0818 -1.613039,-0.44762 -2.057282,-0.95653 -0.384079,-0.43998 -0.979579,-1.66775 -1.219982,-2.51528 -0.115141,-0.40592 -0.197286,-1.00152 -0.227708,-1.651 -0.08913,-1.90279 0.298202,-3.61926 1.41539,-6.2724 1.192802,-2.83271 1.426952,-3.56043 1.986412,-6.1736 3.05593,-14.27384 4.897671,-21.10974 7.367971,-27.34733 2.67623,-6.7576 6.12055,-13.016706 10.0171,-18.203339 1.49084,-1.984443 3.5113,-4.44567 4.79579,-5.842 0.36237,-0.393926 0.34755,-0.37215 -1.62712,2.391437 -3.45163,4.830622 -6.30148,10.028042 -8.53071,15.557902 -0.82443,2.0451 -1.69399,4.47878 -2.31533,6.48007 -2.99995,9.66255 -4.81967,19.00314 -5.34368,27.42897 -0.0507,0.81492 -0.10622,1.67217 -0.12343,1.905 -0.0533,0.72174 0.11171,2.44282 0.38421,4.00665 0.52066,2.98793 0.60391,4.1836 0.40485,5.81468 -0.27441,2.24859 -1.588825,4.54097 -2.954527,5.15276 -0.560197,0.25095 -1.090928,0.31125 -1.971954,0.22405 z m 29.423491,-0.007 c -1.30762,-0.12638 -2.05931,-0.66418 -2.72987,-1.95307 -0.52113,-1.00168 -0.68043,-1.57805 -0.73387,-2.65518 -0.0856,-1.72567 0.25208,-3.00342 1.50498,-5.69469 0.94155,-2.02245 1.22266,-2.85948 1.76983,-5.26965 2.11419,-9.3126 3.23749,-13.80481 4.36372,-17.45099 2.77821,-8.99453 7.01522,-17.05072 12.44074,-23.654678 1.04128,-1.267445 2.7832,-3.25829 2.8193,-3.222185 0.0148,0.01485 -0.33097,0.517318 -0.7685,1.116594 -4.80946,6.587439 -8.06988,13.331299 -10.51452,21.748259 -2.27405,7.82958 -3.43091,13.94575 -3.97961,21.03967 -0.24562,3.17543 -0.18052,4.25804 0.42157,7.01086 0.16501,0.75444 0.3422,1.77163 0.39375,2.26043 0.17305,1.64054 -0.14876,3.37913 -0.83478,4.51003 -0.7742,1.27628 -1.51621,1.9397 -2.43323,2.17556 -0.54295,0.13964 -0.65284,0.14214 -1.71951,0.039 z"
         id="path69" />
      <path
         style="fill:#8c8c8c;fill-opacity:1;stroke-width:0.0846667"
         d="m 69.82653,159.57638 c -2.712982,-0.31636 -4.613848,-2.16028 -5.625937,-5.45736 -0.220481,-0.71826 -0.234149,-0.85677 -0.238116,-2.413 -0.0033,-1.28257 0.02992,-1.8116 0.148735,-2.37067 0.22917,-1.07833 0.68371,-2.34276 1.381943,-3.84424 0.344407,-0.74061 0.6162,-1.35427 0.603986,-1.36369 -0.02333,-0.018 -22.305713,-0.37903 -24.279208,-0.39339 -0.995033,-0.007 -1.071757,-0.017 -0.592667,-0.0756 0.636575,-0.0779 26.136564,-0.47271 26.203524,-0.40575 0.05666,0.0567 -0.289702,0.89099 -0.996203,2.3997 -0.765112,1.63388 -1.052563,2.38464 -1.292606,3.37599 -0.588488,2.43039 -0.418535,4.45093 0.535013,6.36068 0.853632,1.70964 1.983194,2.72423 3.494112,3.13847 0.254005,0.0696 1.014278,0.14894 1.689495,0.17623 1.373068,0.0555 1.92167,-0.038 2.78723,-0.47497 1.547125,-0.78105 3.038449,-2.82165 3.564052,-4.87674 0.445352,-1.74132 0.387012,-3.51418 -0.206789,-6.28405 -0.378825,-1.76707 -0.430629,-2.09309 -0.510823,-3.21477 l -0.04389,-0.61384 h 8.305501 c 6.613017,0 8.295926,0.0216 8.258513,0.10584 -1.312789,2.95686 -1.798995,4.57119 -2.008127,6.6675 -0.206895,2.07389 0.149593,3.90974 1.122226,5.77927 0.706587,1.35814 1.657715,2.20082 2.988178,2.64744 0.899255,0.30187 2.596339,0.38908 3.423811,0.17593 1.347625,-0.34713 2.403617,-1.16281 3.354487,-2.59114 0.85067,-1.27781 1.33258,-2.48124 1.61211,-4.02579 0.19538,-1.07954 0.20015,-3.69052 0.009,-4.82205 -0.0709,-0.4191 -0.24866,-1.46141 -0.39509,-2.31626 -0.14643,-0.85483 -0.25112,-1.56937 -0.23265,-1.58784 0.0185,-0.0185 4.57299,-0.0239 10.12115,-0.0121 l 10.08755,0.0215 -0.40981,0.93133 c -0.2254,0.51223 -0.62065,1.38853 -0.87831,1.94733 -1.01734,2.20626 -1.35907,3.57446 -1.36399,5.461 -0.003,0.98508 0.0332,1.37351 0.18075,1.9657 0.53697,2.15446 1.70411,3.82435 3.20016,4.57867 0.81555,0.4112 1.39795,0.51519 2.91495,0.52046 1.24765,0.004 1.4507,-0.0154 1.89926,-0.18467 1.70981,-0.64515 3.27391,-2.42508 3.99989,-4.55182 0.6579,-1.9273 0.61832,-4.03548 -0.13911,-7.40834 -0.261,-1.16222 -0.50526,-3.16634 -0.39887,-3.27271 0.0715,-0.0715 32.49061,0.29316 33.50084,0.3768 0.39581,0.0328 -6.74794,0.15002 -15.875,0.26056 -9.12707,0.11054 -16.62011,0.22484 -16.65119,0.254 -0.0779,0.0731 0.10986,1.25481 0.43053,2.70944 0.64393,2.92097 0.69044,4.79267 0.16965,6.82625 -0.44555,1.73975 -1.77711,3.79919 -3.08317,4.76852 -1.26341,0.93768 -2.34863,1.24365 -4.14916,1.16982 -1.93628,-0.0794 -3.2079,-0.53094 -4.33702,-1.54004 -0.92014,-0.82234 -1.82351,-2.36818 -2.25591,-3.86031 -0.79518,-2.74396 -0.31408,-5.63585 1.56321,-9.39681 0.1774,-0.35538 0.29865,-0.67004 0.26945,-0.69924 -0.0292,-0.0292 -4.02786,-0.0521 -8.88591,-0.0508 l -8.83282,0.002 v 0.19637 c 0,0.108 0.0933,0.70739 0.20723,1.33198 0.40553,2.22228 0.51083,3.61903 0.3897,5.16919 -0.1821,2.33034 -0.73135,3.98228 -1.91541,5.76089 -1.6269,2.4438 -3.660043,3.3941 -6.510453,3.04302 -2.933086,-0.36127 -4.825466,-2.25905 -5.754975,-5.77142 -0.675448,-2.55233 -0.329682,-5.71373 0.975112,-8.91558 0.135782,-0.3332 0.247009,-0.65217 0.247168,-0.70881 2.54e-4,-0.08 -1.577336,-0.10329 -7.081532,-0.10435 l -7.081822,-0.001 0.04834,0.57001 c 0.02659,0.31351 0.185516,1.17961 0.35317,1.92468 0.435533,1.93553 0.554131,2.83908 0.554131,4.22168 0,2.95543 -0.869888,5.17094 -2.780449,7.0815 -1.232841,1.23284 -2.60206,1.78543 -4.373885,1.76522 -0.465667,-0.005 -1.101549,-0.0394 -1.413071,-0.0757 z m 0.664207,-2.9676 c -1.430689,-0.14228 -2.23088,-0.72478 -2.917116,-2.12352 -0.604957,-1.23306 -0.788858,-2.36387 -0.612407,-3.76572 0.179098,-1.42287 0.452253,-2.22349 1.570875,-4.60425 0.84305,-1.79426 1.130191,-2.66537 1.689648,-5.12597 2.821082,-12.40764 3.928608,-16.56572 5.690987,-21.3662 2.527917,-6.8857 6.037274,-13.25933 10.259127,-18.63244 0.940531,-1.197 3.263929,-3.932367 3.521349,-4.145726 0.08233,-0.06824 -0.247756,0.427065 -0.733516,1.100666 -6.001448,8.32219 -9.452404,16.39128 -12.292004,28.7414 -1.354892,5.89277 -2.195488,12.23504 -2.205041,16.637 -0.0041,1.88045 0.0087,2.04777 0.233149,3.048 0.657495,2.93031 0.675138,3.04197 0.682311,4.318 0.01096,1.9502 -0.386594,3.22596 -1.41359,4.53625 -0.956585,1.22044 -1.78564,1.5504 -3.473772,1.38251 z m 55.655203,0.005 c -1.50445,-0.14417 -2.21665,-0.65298 -2.96257,-2.11652 -0.49036,-0.96215 -0.63596,-1.62275 -0.63378,-2.87569 0.003,-1.74179 0.26332,-2.68128 1.43041,-5.16278 1.2245,-2.60355 1.08917,-2.14387 2.71735,-9.23055 1.75718,-7.64823 2.88607,-11.9391 4.07066,-15.47242 2.76407,-8.24448 6.81531,-15.68412 11.92991,-21.907916 0.95745,-1.165079 2.45928,-2.887068 2.5866,-2.965752 0.0474,-0.02928 -0.21323,0.359341 -0.5791,0.863595 -4.25378,5.862643 -7.23299,11.630093 -9.50071,18.392413 -1.63743,4.88283 -3.25635,11.4003 -4.10301,16.51808 -0.72004,4.35233 -1.21701,9.94882 -1.0545,11.87492 0.0845,1.00118 0.10043,1.09381 0.50974,2.95936 0.40472,1.84455 0.51889,3.02589 0.4072,4.21302 -0.1466,1.55801 -0.69622,2.79131 -1.73441,3.89184 -0.86613,0.91814 -1.6002,1.16057 -3.08379,1.0184 z m -30.163819,-0.089 c -1.212487,-0.28565 -2.063326,-1.35361 -2.658475,-3.33687 -0.207439,-0.69126 -0.228576,-0.88776 -0.227693,-2.11667 0.0015,-2.11672 0.251698,-3.10275 1.625874,-6.40806 0.968651,-2.3299 1.168344,-2.96266 1.705107,-5.40294 2.251039,-10.23388 3.288461,-14.61585 4.356816,-18.40275 3.73894,-13.25312 9.42502,-23.810282 17.89956,-33.233525 0.324,-0.360277 0.064,0.02527 -0.91909,1.362793 -4.56357,6.208952 -8.04119,12.807232 -10.61064,20.132142 -1.74945,4.9873 -3.50808,11.56304 -4.62399,17.28967 -0.99867,5.12499 -1.81069,12.05871 -1.8075,15.434 0.001,1.47404 0.0519,1.90118 0.57542,4.86834 0.62758,3.55681 0.2161,6.2441 -1.27882,8.35161 -0.83161,1.17239 -1.557094,1.55972 -2.89543,1.54588 -0.452278,-0.005 -0.965791,-0.0423 -1.141139,-0.0836 z"
         id="path67" />
      <path
         style="fill:#767676;fill-opacity:1;stroke-width:0.0846667"
         d="m 70.181268,159.61123 c -1.328131,-0.11693 -2.634332,-0.63876 -3.519588,-1.40609 -0.658005,-0.57034 -0.997346,-0.99174 -1.498913,-1.86137 -0.862493,-1.49541 -1.2439,-2.91227 -1.245721,-4.62765 -0.0022,-2.02426 0.462658,-3.83935 1.603342,-6.26112 0.336263,-0.71391 0.598597,-1.30953 0.582966,-1.32358 -0.02638,-0.0237 -11.505694,-0.22368 -20.814088,-0.36256 -2.742132,-0.0409 -3.779229,-0.0796 -3.259667,-0.12147 0.924789,-0.0746 25.343097,-0.45083 25.402536,-0.39139 0.05467,0.0547 -0.08007,0.37407 -0.975522,2.31245 -1.297656,2.80902 -1.625273,4.00853 -1.641648,6.01057 -0.01126,1.37649 0.128583,2.13066 0.604409,3.25967 0.947337,2.24775 2.274193,3.44181 4.197778,3.77762 0.930346,0.16242 2.421392,0.15778 3.053976,-0.01 1.799639,-0.47588 3.471688,-2.21135 4.292931,-4.45575 0.734472,-2.00726 0.739771,-3.9031 0.02015,-7.21069 -0.284936,-1.30966 -0.402057,-2.05395 -0.432502,-2.74852 l -0.04175,-0.9525 h 8.262646 8.262646 l -0.174223,0.40217 c -1.307307,3.01773 -1.772008,4.69745 -1.905631,6.88814 -0.158555,2.59945 0.867656,5.56197 2.39964,6.9274 0.969084,0.86373 2.231604,1.27712 3.894828,1.27529 1.59614,-0.002 2.547449,-0.3881 3.627367,-1.47314 1.3985,-1.40512 2.30953,-3.25403 2.67372,-5.42619 0.0708,-0.42219 0.11026,-1.29925 0.10479,-2.32833 -0.008,-1.55538 -0.0314,-1.78308 -0.39931,-3.93159 -0.2148,-1.25432 -0.37843,-2.2927 -0.36362,-2.30751 0.0148,-0.0148 4.56626,-0.0172 10.11433,-0.005 l 10.0874,0.0215 -0.41312,0.93133 c -0.22722,0.51223 -0.6456,1.43286 -0.92973,2.04583 -1.00601,2.17028 -1.31492,3.45493 -1.30985,5.44717 0.003,1.06476 0.037,1.43493 0.18164,1.96218 0.2746,1.00083 0.67781,1.89351 1.2243,2.71052 0.72626,1.08577 1.63185,1.76356 2.85882,2.13967 0.62372,0.1912 2.74039,0.27465 3.41158,0.13451 1.62731,-0.33979 3.19598,-1.78223 4.16165,-3.82679 0.61066,-1.29294 0.73838,-1.89891 0.78255,-3.71276 0.0415,-1.70612 0.0179,-1.89827 -0.59293,-4.826 -0.1603,-0.76835 -0.31873,-1.76847 -0.35206,-2.2225 l -0.0606,-0.8255 1.7224,0.005 c 4.55138,0.0129 31.48448,0.39199 31.53639,0.4439 0.0326,0.0326 -0.79485,0.0591 -1.83871,0.059 -1.76722,0 -27.57289,0.31474 -29.54162,0.36053 l -0.889,0.0207 0.026,0.42333 c 0.0143,0.23283 0.17624,1.12818 0.3599,1.98967 0.45443,2.13167 0.58678,3.0865 0.58678,4.23333 0,2.86712 -0.93585,5.24901 -2.7914,7.10456 -1.04046,1.04047 -2.36994,1.66118 -3.76894,1.75966 -1.41234,0.0994 -3.10556,-0.18659 -4.10608,-0.69359 -2.00788,-1.01746 -3.51378,-3.5458 -3.80754,-6.39263 -0.22104,-2.1422 0.29756,-4.39066 1.69282,-7.33936 0.2685,-0.56744 0.46667,-1.05321 0.44038,-1.0795 -0.0263,-0.0263 -4.0229,-0.0478 -8.88136,-0.0478 h -8.83355 l 10e-4,0.1905 c 5.9e-4,0.10478 0.11792,0.8382 0.26075,1.62983 0.3418,1.8944 0.4308,4.44868 0.20794,5.96725 -0.35139,2.39432 -1.4809,4.67894 -3.0503,6.1697 -0.68554,0.65121 -1.29273,1.01821 -2.22375,1.34408 -0.611837,0.21416 -0.746398,0.22924 -1.969049,0.22067 -1.039683,-0.007 -1.449304,-0.0458 -1.971609,-0.18529 -1.347142,-0.35977 -2.557297,-1.17929 -3.31177,-2.2427 -0.795206,-1.12083 -1.455034,-2.75408 -1.713521,-4.24143 -0.187382,-1.07819 -0.120616,-3.38379 0.134991,-4.66161 0.192049,-0.96009 0.763734,-2.78236 1.139296,-3.63157 0.153174,-0.34636 0.184322,-0.49342 0.110468,-0.52159 -0.05657,-0.0216 -3.265155,-0.0294 -7.130189,-0.0174 l -7.027334,0.0219 0.0292,0.381 c 0.02803,0.36566 0.208984,1.29329 0.660647,3.38667 0.152123,0.70506 0.223527,1.35349 0.258835,2.35048 0.07925,2.23768 -0.191929,3.6179 -1.033898,5.26238 -1.016161,1.98468 -2.446354,3.32076 -4.146336,3.8735 -0.543993,0.17687 -0.87285,0.22495 -1.652785,0.2416 -0.535517,0.0114 -1.145117,0.006 -1.354667,-0.0127 z m -0.341017,-3.10535 c -0.853352,-0.19155 -1.412157,-0.6174 -1.965468,-1.49786 -0.688737,-1.09595 -1.045935,-2.49185 -0.953286,-3.72533 0.12291,-1.63636 0.390715,-2.5071 1.523334,-4.953 0.431271,-0.93134 0.90039,-2.03624 1.042487,-2.45534 0.142096,-0.4191 0.740111,-2.8575 1.328923,-5.41866 2.247437,-9.77574 3.246577,-13.5361 4.712944,-17.73767 1.077406,-3.08708 2.099779,-5.48071 3.724797,-8.72067 2.128216,-4.24323 4.368645,-7.78059 7.13208,-11.26067 1.431595,-1.802844 4.12907,-4.885523 3.137667,-3.585727 -4.143268,5.432107 -7.665261,12.172437 -9.969647,19.079737 -3.044429,9.12554 -5.075519,19.89919 -5.091777,27.00866 l -0.0049,2.159 0.396346,1.778 c 0.217991,0.9779 0.440333,2.18758 0.494095,2.68817 0.178995,1.66667 -0.145471,3.40582 -0.859949,4.60936 -0.402734,0.6784 -1.300682,1.60941 -1.804829,1.87126 -0.378001,0.19634 -0.540027,0.22455 -1.401097,0.24391 -0.553534,0.0125 -1.175613,-0.0234 -1.441683,-0.0832 z m 26.079685,-0.0241 c -0.978089,-0.25997 -1.661205,-0.95295 -2.209468,-2.24134 -0.483872,-1.13709 -0.608625,-1.77473 -0.611809,-3.12707 -0.0048,-2.0476 0.314738,-3.31986 1.59692,-6.35784 0.386694,-0.91623 0.83926,-2.07985 1.005703,-2.58584 0.166443,-0.50599 0.738003,-2.90187 1.270133,-5.32417 2.15019,-9.78788 3.231695,-14.15795 4.620635,-18.67073 3.12725,-10.16069 7.79195,-19.141036 13.9176,-26.793753 0.79584,-0.99424 3.09015,-3.683 3.14269,-3.683 0.0199,0 -0.31775,0.485775 -0.75038,1.0795 -5.13767,7.050688 -8.462,13.482613 -11.19156,21.653503 -2.67325,8.00231 -4.63219,16.74377 -5.49285,24.511 -0.35109,3.16848 -0.50011,5.21087 -0.50039,6.858 -2.5e-4,1.6175 0.023,1.8185 0.5765,4.97013 0.61729,3.51516 0.23151,6.08058 -1.23296,8.19901 -0.873305,1.26328 -1.557842,1.65151 -2.895107,1.64196 -0.428995,-0.003 -0.98954,-0.0613 -1.245657,-0.12936 z m 29.627544,0.0537 c -0.98049,-0.17663 -1.79465,-0.88918 -2.36587,-2.07062 -0.50535,-1.04518 -0.63154,-1.61462 -0.63013,-2.8435 0.002,-1.66326 0.31084,-2.76149 1.47323,-5.23733 1.04461,-2.225 1.2149,-2.76638 2.13267,-6.78028 2.32111,-10.15128 3.39915,-14.27344 4.81729,-18.42005 2.27137,-6.64142 5.60136,-13.12449 9.43415,-18.36709 1.29254,-1.76797 3.38987,-4.336939 4.5321,-5.551249 0.40189,-0.427248 0.38613,-0.40189 -0.60495,0.973666 -4.55962,6.328443 -7.71415,12.873523 -10.10116,20.958073 -2.45291,8.30776 -3.7634,15.50562 -4.19536,23.04293 -0.11342,1.97915 -0.044,2.71062 0.48287,5.08671 0.39595,1.78571 0.39847,1.80703 0.40287,3.40562 0.004,1.45736 -0.0142,1.66839 -0.19396,2.24367 -0.45119,1.44424 -1.43324,2.8155 -2.39599,3.34558 -0.42069,0.23162 -0.52435,0.25098 -1.4273,0.26665 -0.53552,0.009 -1.14773,-0.0145 -1.36046,-0.0528 z"
         id="path65" />
      <path
         style="fill:#606060;fill-opacity:1;stroke-width:0.0846667"
         d="m 69.989586,159.57028 c -2.009886,-0.19375 -3.654465,-1.26867 -4.750595,-3.10509 -1.157057,-1.93849 -1.554845,-4.10108 -1.194664,-6.49484 0.229119,-1.5227 0.627085,-2.71018 1.575391,-4.70075 0.288336,-0.60524 0.506377,-1.11831 0.484534,-1.14015 -0.02184,-0.0218 -5.428525,-0.12628 -12.01485,-0.23208 -7.335729,-0.11783 -11.647121,-0.21592 -11.128469,-0.25318 0.465666,-0.0335 4.923367,-0.1202 9.906,-0.19275 4.982634,-0.0726 10.308972,-0.1561 11.836307,-0.18565 l 2.776973,-0.0537 -0.179978,0.45813 c -0.09899,0.25198 -0.467108,1.06774 -0.818048,1.81281 -1.123472,2.3852 -1.481516,3.51724 -1.653686,5.22846 -0.230359,2.28958 0.408857,4.50463 1.797286,6.22807 0.454651,0.56434 1.483395,1.28142 2.130292,1.4849 1.047033,0.32933 2.931827,0.44634 3.795855,0.23564 1.214209,-0.29609 2.26991,-1.05574 3.228235,-2.32295 1.276389,-1.68778 1.870109,-3.77831 1.736965,-6.11599 -0.0556,-0.97626 -0.209284,-1.90393 -0.644673,-3.89146 -0.151087,-0.68971 -0.281965,-1.58361 -0.313007,-2.13784 l -0.05335,-0.9525 h 8.25854 8.258539 l -0.534869,1.26326 c -1.042621,2.46246 -1.455711,4.11602 -1.535152,6.14508 -0.102496,2.6179 0.715306,5.09052 2.172774,6.56938 1.059919,1.07546 2.234861,1.51957 4.064,1.5361 1.875839,0.017 3.186814,-0.64634 4.361404,-2.2067 0.98017,-1.30208 1.70881,-2.97294 2.0001,-4.58645 0.16405,-0.90871 0.14381,-3.86714 -0.0336,-4.91067 -0.0752,-0.44238 -0.23348,-1.37583 -0.35173,-2.07433 -0.11824,-0.6985 -0.23395,-1.37477 -0.25713,-1.50283 l -0.0421,-0.23284 h 10.11075 10.11075 l -0.23856,0.5715 c -0.1312,0.31433 -0.53392,1.20015 -0.89492,1.9685 -1.20813,2.57133 -1.62895,4.28198 -1.5413,6.26534 0.0565,1.27753 0.25367,2.08792 0.77687,3.19241 1.20084,2.53499 2.73819,3.49476 5.63284,3.51657 0.91879,0.007 1.14391,-0.0203 1.70733,-0.20657 1.2359,-0.40855 2.26516,-1.2699 3.16763,-2.65088 0.82261,-1.25877 1.23179,-2.45314 1.3897,-4.05632 0.15297,-1.5532 0.0216,-2.67992 -0.67689,-5.80655 -0.0988,-0.44238 -0.20185,-1.25822 -0.22893,-1.81296 l -0.0492,-1.00865 3.33536,0.0539 c 1.83444,0.0296 8.66936,0.1133 15.18869,0.18595 6.51933,0.0727 12.27243,0.15939 12.78467,0.19277 0.55268,0.036 -4.16324,0.12208 -11.59934,0.21171 -6.89186,0.0831 -13.95351,0.17499 -15.69253,0.20427 l -3.16187,0.0533 0.0565,0.47305 c 0.0311,0.26018 0.22238,1.25411 0.42517,2.20872 0.66477,3.12929 0.71616,4.80348 0.20857,6.79447 -0.56637,2.22152 -2.30908,4.58963 -3.98142,5.41018 -1.09934,0.53942 -1.49359,0.62339 -2.87338,0.61203 -1.3927,-0.0115 -2.06783,-0.11462 -2.92572,-0.447 -1.45175,-0.56247 -2.52992,-1.61765 -3.38245,-3.31034 -0.6797,-1.34952 -0.97316,-2.60156 -0.97316,-4.1519 0,-2.18796 0.44032,-3.83435 1.76939,-6.61571 0.23756,-0.49717 0.43194,-0.92579 0.43194,-0.9525 0,-0.06 -17.73502,-0.0653 -17.79504,-0.005 -0.0238,0.0238 0.0914,0.79532 0.25596,1.7145 0.28827,1.61011 0.29928,1.74712 0.30112,3.74558 0.002,2.2629 -0.10452,3.05339 -0.59638,4.42245 -0.77223,2.14944 -2.30275,4.17134 -3.71333,4.90552 -1.064169,0.55388 -1.709927,0.706 -2.963331,0.69805 -2.844921,-0.0181 -4.679488,-1.07413 -5.905573,-3.39953 -0.83154,-1.57707 -1.248761,-3.28901 -1.248761,-5.12385 0,-2.18132 0.437917,-4.09871 1.566368,-6.85826 0.05772,-0.14116 -0.299031,-0.14755 -7.081624,-0.127 l -7.142411,0.0217 0.02745,0.42334 c 0.0151,0.23283 0.193726,1.20466 0.396952,2.15962 0.444417,2.08833 0.549422,2.87352 0.548764,4.10349 -0.0015,2.83974 -0.938778,5.21133 -2.791899,7.06445 -1.478868,1.47887 -3.014036,1.94145 -5.61195,1.69103 z m 0.04164,-3.0398 c -1.033336,-0.15067 -1.757562,-0.73862 -2.374363,-1.92756 -0.618398,-1.19203 -0.822429,-2.32974 -0.677402,-3.77731 0.14024,-1.39977 0.433265,-2.24976 1.783426,-5.17326 0.301083,-0.65193 0.647814,-1.49013 0.770512,-1.86266 0.122698,-0.37254 0.639791,-2.48709 1.149096,-4.699 1.345992,-5.84567 1.458275,-6.32057 2.120767,-8.97 1.505011,-6.01881 2.728208,-9.79635 4.552519,-14.05934 2.873439,-6.71455 6.474138,-12.47744 11.188447,-17.906999 1.003811,-1.15611 1.235075,-1.398617 0.928526,-0.973667 -0.117573,0.162983 -0.475101,0.658283 -0.794508,1.100667 -0.708428,0.981183 -2.450173,3.629789 -3.145782,4.783669 -3.717919,6.1673 -6.424584,13.24261 -8.653648,22.62092 -1.381969,5.81434 -2.125799,10.83161 -2.464098,16.62078 -0.109072,1.86651 -0.02954,2.69962 0.481049,5.03897 0.341953,1.56671 0.392927,1.93519 0.428959,3.10077 0.05248,1.69765 -0.07619,2.40093 -0.659368,3.60408 -0.34266,0.70694 -0.536978,0.98406 -1.075332,1.53355 -0.831023,0.84823 -1.271592,1.03783 -2.374771,1.02203 -0.405711,-0.006 -0.938525,-0.0398 -1.184029,-0.0756 z m 26.184192,0.003 c -0.926288,-0.13622 -1.737508,-0.77815 -2.239114,-1.77182 -0.76732,-1.52005 -1.019789,-2.89876 -0.849198,-4.63738 0.164754,-1.67913 0.559654,-2.98971 1.693558,-5.62054 0.641301,-1.48791 1.185914,-3.12245 1.436749,-4.31209 1.931693,-9.16146 3.762177,-16.7465 5.169417,-21.42067 3.13997,-10.42951 7.8465,-19.583115 14.03947,-27.304998 1.03947,-1.296085 3.06029,-3.683 3.11813,-3.683 0.0222,0 -0.0391,0.104775 -0.1361,0.232833 -0.097,0.128059 -0.6274,0.861484 -1.17862,1.629834 -6.29648,8.776692 -10.09195,17.379951 -13.25999,30.056671 -1.63981,6.56162 -2.62968,12.43183 -3.13379,18.58433 -0.29351,3.58221 -0.26896,4.58442 0.17416,7.112 0.44729,2.5513 0.48461,2.87703 0.48505,4.23334 7.6e-4,2.46943 -0.49253,4.06409 -1.771398,5.72607 -0.844258,1.09718 -1.83921,1.42677 -3.548324,1.17542 z m 29.460182,0.004 c -0.56045,-0.0881 -1.11433,-0.33823 -1.50125,-0.67794 -0.45835,-0.40244 -1.02815,-1.37472 -1.34233,-2.29052 -0.25769,-0.7511 -0.27564,-0.87718 -0.27129,-1.905 0.008,-1.77652 0.23032,-2.56938 1.48707,-5.29166 0.4192,-0.90805 0.86869,-1.93916 0.99886,-2.29135 0.13017,-0.35218 0.77753,-2.97987 1.43855,-5.8393 2.04722,-8.85566 3.02963,-12.63221 4.21705,-16.21102 2.72521,-8.21364 6.61683,-15.46814 11.64991,-21.717 1.38815,-1.723471 3.23793,-3.842323 2.65027,-3.035772 -5.98438,8.213372 -9.32131,15.612212 -12.15648,26.954102 -1.66407,6.65698 -2.55616,12.48889 -2.85577,18.669 -0.0677,1.39696 0.0211,2.15229 0.53259,4.52967 0.72499,3.36956 0.59125,5.29792 -0.49449,7.13063 -0.39989,0.67502 -1.31727,1.5926 -1.81795,1.81835 -0.3229,0.14559 -0.59875,0.19063 -1.26007,0.20575 -0.46567,0.0106 -1.03927,-0.0109 -1.27467,-0.0479 z"
         id="path63" />
      <path
         style="fill:#ffffff;fill-opacity:1;stroke-width:0.0846667"
         d="m 70.181268,159.57013 c -1.826688,-0.16186 -3.265842,-0.90307 -4.341092,-2.23582 -0.566267,-0.70188 -1.36835,-2.35305 -1.644137,-3.38462 -0.203417,-0.76088 -0.226307,-0.99252 -0.225894,-2.286 6.77e-4,-2.18329 0.335449,-3.50248 1.568967,-6.183 0.332172,-0.72184 0.583513,-1.33286 0.558535,-1.35785 -0.04157,-0.0416 -7.744241,-0.18698 -18.514478,-0.3495 -2.848476,-0.043 -4.042465,-0.0854 -3.563903,-0.12655 0.395817,-0.034 4.910667,-0.12127 10.033001,-0.19384 5.122333,-0.0726 10.23614,-0.15603 11.364015,-0.18548 l 2.050682,-0.0535 -0.282958,0.66887 c -0.155628,0.36788 -0.558163,1.2575 -0.894523,1.97694 -1.165786,2.49349 -1.488286,3.77014 -1.476861,5.84626 0.009,1.63387 0.13627,2.23167 0.751806,3.53108 1.162071,2.45316 2.569217,3.39233 5.300095,3.53745 0.907719,0.0482 1.14337,0.0321 1.713993,-0.11756 1.004349,-0.26336 1.610631,-0.62314 2.433889,-1.44433 0.866328,-0.86414 1.439021,-1.70709 1.867119,-2.7482 0.504446,-1.22679 0.626502,-1.96316 0.618621,-3.73211 -0.0071,-1.60165 -0.009,-1.61549 -0.585428,-4.318 -0.171946,-0.80616 -0.328983,-1.82109 -0.356979,-2.30716 l -0.04998,-0.86784 h 8.225423 c 4.523984,0 8.225424,0.0307 8.225424,0.0682 0,0.0375 -0.20469,0.54289 -0.454867,1.123 -0.622174,1.44269 -1.104299,2.90404 -1.324875,4.01576 -0.233121,1.17496 -0.314669,3.1346 -0.171349,4.11762 0.188777,1.29479 0.845405,3.01862 1.527425,4.0099 0.655398,0.95259 1.859032,1.77296 2.969137,2.02371 1.459779,0.32974 2.895032,0.22906 4.01232,-0.28143 1.728974,-0.78998 3.361904,-3.22653 3.961384,-5.91092 0.24956,-1.11748 0.27304,-4.17088 0.0422,-5.48288 -0.39408,-2.23946 -0.57034,-3.31846 -0.5705,-3.4925 l -1.7e-4,-0.1905 h 10.033 c 6.60932,0 10.033,0.0288 10.033,0.0844 0,0.0863 -0.3527,0.88728 -1.25042,2.83965 -0.96265,2.09358 -1.27784,3.27547 -1.34938,5.05975 -0.0558,1.39225 0.0475,2.14938 0.4456,3.26473 0.41356,1.15873 0.91211,1.98358 1.6462,2.72365 1.04109,1.04957 2.03943,1.45 3.89467,1.5621 2.16774,0.13101 3.62246,-0.57946 5.02324,-2.45326 1.6942,-2.26631 2.13206,-5.04157 1.36249,-8.636 -0.11964,-0.5588 -0.29138,-1.3589 -0.38166,-1.778 -0.0903,-0.4191 -0.18867,-1.19624 -0.21864,-1.72699 l -0.0545,-0.96499 2.40503,0.0543 c 1.32277,0.0298 7.81523,0.11315 14.4277,0.18511 14.36202,0.15629 16.27826,0.22796 8.509,0.31824 -13.19377,0.15331 -24.41653,0.3183 -24.45778,0.35956 -0.071,0.071 0.12135,1.23739 0.44938,2.72533 0.41865,1.89899 0.49594,2.50306 0.50123,3.91779 0.007,1.93778 -0.27611,3.22836 -1.03131,4.69742 -0.74757,1.45424 -2.00193,2.85827 -3.05498,3.41955 -1.20397,0.64171 -2.21858,0.82799 -3.78209,0.69436 -1.36939,-0.11702 -1.6925,-0.1974 -2.63569,-0.65566 -1.37049,-0.66587 -2.41771,-1.85177 -3.16457,-3.58367 -0.46725,-1.08351 -0.67545,-2.00145 -0.72971,-3.21734 -0.099,-2.21742 0.34518,-4.05408 1.63593,-6.76498 0.29714,-0.62406 0.54025,-1.16699 0.54025,-1.2065 0,-0.0395 -4.02431,-0.0719 -8.94292,-0.0719 h -8.94291 l 0.056,0.27517 c 0.0308,0.15134 0.17733,0.98001 0.32565,1.8415 0.24607,1.42913 0.26972,1.72577 0.27005,3.38666 4.2e-4,2.07347 -0.10759,2.85584 -0.59608,4.318 -0.51598,1.54449 -1.37392,2.95319 -2.44929,4.02167 -1.32255,1.31408 -2.90956,1.84352 -4.949311,1.65117 -1.098021,-0.10355 -1.732085,-0.26318 -2.453375,-0.61768 -1.450976,-0.71312 -2.458344,-1.92296 -3.212549,-3.85825 -0.504605,-1.29481 -0.700082,-2.23835 -0.747883,-3.60991 -0.07972,-2.28733 0.271976,-3.93687 1.54878,-7.26417 0.05183,-0.13507 -0.39694,-0.14416 -7.117827,-0.14416 h -7.173149 l 0.05818,0.48683 c 0.032,0.26776 0.224104,1.26789 0.426896,2.2225 0.543548,2.55868 0.654039,3.85195 0.463138,5.42089 -0.270695,2.22474 -1.165847,4.06723 -2.738659,5.637 -0.652458,0.65118 -0.897263,0.83188 -1.576713,1.16376 -0.583829,0.28518 -1.01047,0.42781 -1.556257,0.52028 -0.813547,0.13785 -1.032709,0.14104 -2.253743,0.0328 z m -0.0076,-3.03566 c -1.355028,-0.17122 -2.258962,-1.06175 -2.902012,-2.859 -0.256835,-0.71782 -0.265225,-0.78554 -0.259751,-2.09645 0.005,-1.19243 0.03248,-1.45218 0.22962,-2.16885 0.235054,-0.85452 0.773975,-2.18417 1.34798,-3.32581 0.512383,-1.01908 1.046063,-2.44227 1.289087,-3.43767 0.119375,-0.48895 0.543911,-2.31775 0.943415,-4.064 1.791329,-7.82999 2.621175,-11.14336 3.584751,-14.31299 2.978699,-9.79827 7.272377,-17.92114 13.200163,-24.972349 1.6722,-1.989111 1.880277,-2.188335 1.017999,-0.974687 -5.586389,7.862796 -8.78858,15.233106 -11.587808,26.671026 -1.506156,6.1543 -2.288031,11.28141 -2.633708,17.2704 -0.111675,1.93481 -0.02724,2.89428 0.43448,4.93687 0.40612,1.79664 0.508029,2.51424 0.508029,3.57737 0,1.61833 -0.309139,2.7871 -1.0337,3.90814 -0.446602,0.69098 -1.204099,1.4256 -1.722086,1.67006 -0.477283,0.22526 -1.465856,0.29805 -2.416462,0.17794 z m 26.169579,0.005 c -1.264301,-0.17654 -2.053662,-0.9088 -2.677726,-2.48403 -0.388416,-0.98042 -0.538401,-1.7995 -0.538673,-2.94174 -4.24e-4,-1.7646 0.304542,-3.17419 1.117373,-5.16466 0.2377,-0.58209 0.653781,-1.60153 0.924626,-2.26544 0.601916,-1.47543 0.886676,-2.44904 1.343231,-4.59256 1.676121,-7.86938 3.228242,-14.38703 4.445852,-18.669 3.14363,-11.05517 7.86573,-20.535017 14.25486,-28.61734 0.93661,-1.184827 2.97291,-3.598333 3.03595,-3.598333 0.0238,0 -0.051,0.123825 -0.16631,0.275167 -1.84395,2.420982 -4.31164,6.260959 -5.95515,9.266861 -3.72461,6.812085 -6.75452,15.401135 -8.96917,25.425305 -1.47527,6.67757 -2.44282,14.0329 -2.44464,18.58434 -7.6e-4,1.83902 0.0147,2.03209 0.27802,3.47133 0.43662,2.38669 0.51302,3.04154 0.51478,4.41274 0.003,2.36209 -0.44908,3.91899 -1.59217,5.4828 -0.759951,1.03964 -1.407034,1.42155 -2.470186,1.45788 -0.34925,0.0119 -0.84455,-0.008 -1.100667,-0.0433 z m 29.413533,-0.006 c -1.0662,-0.14996 -1.85452,-0.74568 -2.42354,-1.83142 -0.6481,-1.23661 -0.8622,-2.35083 -0.73211,-3.80999 0.12526,-1.40503 0.43164,-2.30295 1.78774,-5.2393 0.30109,-0.65193 0.64733,-1.49013 0.76943,-1.86267 0.23648,-0.72151 0.23664,-0.72219 1.15704,-4.74133 2.25912,-9.86497 3.12142,-13.15986 4.58668,-17.526 2.3349,-6.95749 5.75409,-13.60037 9.81111,-19.06128 1.00579,-1.35384 2.38977,-3.07745 3.40709,-4.243222 0.74447,-0.853109 1.04419,-1.133943 0.63252,-0.592666 -1.34846,1.77299 -3.3179,4.831058 -4.67566,7.260168 -2.97402,5.3207 -5.21114,11.26455 -7.18589,19.09233 -1.55962,6.18226 -2.40813,11.35159 -2.81424,17.145 -0.17716,2.52714 -0.12907,3.70162 0.21841,5.334 0.53616,2.51891 0.59374,2.85855 0.64586,3.81 0.12301,2.24551 -0.4716,4.02273 -1.80309,5.38919 -0.64698,0.66397 -1.17418,0.89598 -2.10321,0.92554 -0.4191,0.0133 -0.99427,-0.008 -1.27814,-0.0483 z"
         id="path61" />
      <path
         style="fill:#333333;fill-opacity:1;stroke-width:0.0846667"
         d="m 128.60127,156.07672 c 0,-0.0176 0.0667,-0.0842 0.14817,-0.14817 0.13429,-0.10531 0.13728,-0.10232 0.032,0.032 -0.11061,0.14103 -0.18014,0.18589 -0.18014,0.1162 z"
         id="path59" />
    </g>
  </g>
</svg>
