<?xml version="1.0" encoding="UTF-8" standalone="no"?>
<!-- Created with Inkscape (http://www.inkscape.org/) -->

<svg
   width="40"
   height="40"

   viewBox="0 0 69.735786 69.715857"
   version="1.1"
   id="svg5"
   inkscape:version="1.1.1 (3bf5ae0d25, 2021-09-20)"
   sodipodi:docname="no-shave.svg"
   xmlns:inkscape="http://www.inkscape.org/namespaces/inkscape"
   xmlns:sodipodi="http://sodipodi.sourceforge.net/DTD/sodipodi-0.dtd"
   xmlns="http://www.w3.org/2000/svg"
   xmlns:svg="http://www.w3.org/2000/svg">
  <sodipodi:namedview
     id="namedview7"
     pagecolor="#ffffff"
     bordercolor="#666666"
     borderopacity="1.0"
     inkscape:pageshadow="2"
     inkscape:pageopacity="0.0"
     inkscape:pagecheckerboard="0"
     inkscape:document-units="mm"
     showgrid="false"
     inkscape:zoom="2.096401"
     inkscape:cx="154.31208"
     inkscape:cy="125.6916"
     inkscape:window-width="1920"
     inkscape:window-height="1017"
     inkscape:window-x="-8"
     inkscape:window-y="-8"
     inkscape:window-maximized="1"
     inkscape:current-layer="g807" />
  <defs
     id="defs2" />
  <g
     inkscape:label="Katman 1"
     inkscape:groupmode="layer"
     id="layer1"
     transform="translate(-62.810149,-72.113235)">
    <g
       id="g57"
       transform="translate(-4.2836543,-17.848558)">
      <path
         style="fill:#333333;fill-opacity:1;stroke-width:0.0846667"
         d="m 128.60127,156.07672 c 0,-0.0176 0.0667,-0.0842 0.14817,-0.14817 0.13429,-0.10531 0.13728,-0.10232 0.032,0.032 -0.11061,0.14103 -0.18014,0.18589 -0.18014,0.1162 z"
         id="path59" />
      <g
         id="g807"
         transform="translate(-0.83580437,-0.96220769)">
        <path
           style="fill:#000000"
           d="m 99.674814,160.55199 c -5.75228,-0.60856 -11.27846,-2.56522 -15.88698,-5.62513 -2.32175,-1.54155 -3.55748,-2.56109 -5.65535,-4.66588 -4.59343,-4.60859 -7.8709,-10.57531 -9.25832,-16.855 -0.69227,-3.13338 -0.82311,-4.3657 -0.81822,-7.70677 0.004,-2.78494 0.0463,-3.37807 0.37569,-5.28146 0.97871,-5.65502 2.89314,-10.36433 6.00421,-14.76977 3.04994,-4.3189 7.18397,-7.986014 11.88647,-10.543984 3.7597,-2.04512 7.40892,-3.22319 12.41039,-4.006425 1.663776,-0.260549 6.873726,-0.219796 8.797996,0.06882 6.54089,0.981045 12.07691,3.359615 17.20689,7.393015 1.374,1.08029 4.50752,4.247584 5.59602,5.656344 4.67381,6.04891 7.14967,12.81938 7.43221,20.32404 0.21367,5.67564 -0.90024,11.0431 -3.35448,16.16375 -1.84466,3.84876 -3.80646,6.60834 -6.89017,9.69205 -2.9695,2.9695 -5.56319,4.84288 -9.22928,6.66618 -3.24478,1.61377 -6.46282,2.63453 -10.15327,3.22063 -1.999,0.31747 -6.61996,0.46466 -8.463806,0.26959 z m 6.150846,-5.86919 c 3.4732,-0.38533 6.82397,-1.3589 9.86191,-2.86538 1.8317,-0.90832 4.35078,-2.48935 5.12291,-3.21526 l 0.38971,-0.36637 -7.75502,-7.75591 c -4.26526,-4.26576 -7.81948,-7.75592 -7.89826,-7.75592 -0.15255,0 -1.29096,2.65222 -1.29028,3.00604 2.7e-4,0.11538 0.39593,0.46983 0.87937,0.78766 2.17478,1.42984 3.52045,3.96721 3.52498,6.64665 0.004,2.2556 -0.73691,4.03634 -2.35544,5.66253 -1.64784,1.65563 -3.49645,2.44389 -5.73139,2.44389 -2.233296,0 -4.102146,-0.79244 -5.743706,-2.4355 -1.71536,-1.71692 -2.53937,-3.77867 -2.41193,-6.0349 0.11649,-2.06239 0.81771,-3.56542 2.58112,-5.53251 1.77273,-1.97749 2.63992,-3.54421 3.05565,-5.52049 0.25162,-1.19618 0.15387,-1.37966 -0.66843,-1.25462 -1.05796,0.16088 -2.79014,0.82384 -3.79196,1.4513 -0.55018,0.34459 -1.55275,1.12151 -2.22795,1.7265 -2.47915,2.22137 -5.0927,3.03995 -7.644,2.39415 -3.06346,-0.77544 -5.50376,-3.29254 -6.14807,-6.34156 -0.88635,-4.19442 1.85685,-8.51045 6.03256,-9.49134 1.27153,-0.29869 3.34258,-0.19838 4.53468,0.21964 1.6784,0.58853 3.61218,2.18163 4.32767,3.56524 0.11,0.21271 0.30584,0.38701 0.4352,0.38735 0.39347,9.5e-4 3.03146,-1.11093 3.03146,-1.27779 0,-0.0858 -3.50247,-3.65448 -7.78326,-7.93046 l -7.78326,-7.77452 -0.41239,0.47741 c -1.60862,1.86227 -3.67217,5.70767 -4.65766,8.67953 -1.06966,3.22565 -1.46071,5.67374 -1.46071,9.14459 0,7.91524 2.93096,14.99508 8.51901,20.57797 4.75024,4.74586 10.74163,7.62869 17.39755,8.37103 1.470676,0.16403 4.639126,0.1698 6.069936,0.011 z m -3.88508,-7.73128 c 0.95721,-0.30915 2.04611,-1.30884 2.45112,-2.25032 0.86906,-2.02017 -0.025,-4.4109 -2.01506,-5.38813 -1.01339,-0.49764 -2.480386,-0.53517 -3.456026,-0.0884 -1.78009,0.81512 -2.75923,2.65755 -2.41695,4.54794 0.45261,2.49967 2.97448,3.97419 5.436916,3.17892 z m 24.32279,-3.93945 c 4.88338,-6.60237 6.72472,-15.00307 5.07053,-23.13304 -1.10467,-5.42919 -3.95369,-10.70796 -7.90381,-14.64445 -5.55992,-5.540744 -12.75846,-8.520994 -20.58176,-8.520994 -4.536096,0 -8.737106,0.96734 -12.709006,2.92644 -1.73733,0.856924 -4.16765,2.373494 -5.11511,3.191944 l -0.47741,0.4124 8.52477,8.53346 c 4.68863,4.69341 8.591506,8.53347 8.673056,8.53347 0.0815,0 0.69059,-1.24298 1.35343,-2.76216 2.83408,-6.49557 3.73098,-8.42551 4.36111,-9.38423 0.91815,-1.39692 2.88757,-3.34064 4.34552,-4.28882 1.37341,-0.89319 3.21571,-1.70021 3.88972,-1.70389 0.61583,-0.003 1.38449,0.74208 1.38449,1.34265 0,0.22969 -1.13555,3.21436 -2.52345,6.6326 -1.3879,3.41823 -2.52345,6.27482 -2.52345,6.34797 0,0.0731 0.0599,0.133 0.13314,0.133 0.0732,0 2.92645,-1.13556 6.34051,-2.52346 3.41405,-1.3879 6.35894,-2.52345 6.54418,-2.52345 0.79835,0 1.44088,0.63426 1.44088,1.42234 0,0.45535 -0.57735,1.97273 -1.11421,2.92836 -1.37243,2.44296 -3.81118,4.84285 -6.11515,6.01772 -0.5284,0.26945 -3.07366,1.40015 -9.4459,4.19621 -0.80648,0.35387 -1.46633,0.7048 -1.46633,0.77985 0,0.22449 16.82758,16.98325 17.04995,16.98023 0.11276,-0.002 0.5017,-0.4039 0.8643,-0.89415 z M 87.125984,131.95435 c 0.44065,-0.14578 0.9127,-0.46012 1.38076,-0.91947 2.67137,-2.62162 0.86442,-7.09593 -2.86872,-7.10345 -2.25978,-0.005 -3.98444,1.59479 -4.13046,3.83033 -0.0854,1.30752 0.21976,2.21159 1.04394,3.09271 1.28036,1.3688 2.71726,1.71429 4.57448,1.09988 z"
           id="path1365" />
      </g>
    </g>
  </g>
</svg>
