<svg 
	xmlns="http://www.w3.org/2000/svg"
	xmlns:svg="http://www.w3.org/2000/svg"
	width="40" height="40" viewBox="0 0 40 40">
	<defs>
		<clipPath>
			<rect width="40" height="40"></rect>
		</clipPath>
	</defs>
		<g>
			<path d="M-212.172,436.981c.151-1.009.286-1.959.437-2.906.614-3.842,1.225-7.685,1.866-11.523a1.873,1.873,0,0,1,.5-.951q7.7-7.686,15.422-15.343a3.335,3.335,0,0,1,.691-.582c-.087.143-.171.289-.262.43a36.1,36.1,0,0,0-4.258,8.29,7.829,7.829,0,0,0-.482,3.6,2.431,2.431,0,0,0,1.932,2.24,10.288,10.288,0,0,0,2.878.173,26.587,26.587,0,0,0,10.472-3.507,59.927,59.927,0,0,0,9.907-6.864,4.028,4.028,0,0,1,.9-.62,3.933,3.933,0,0,1-.273.341q-12.193,12.267-24.4,24.518a2.108,2.108,0,0,1-1.1.489c-4.487.733-8.978,1.438-13.468,2.148C-211.642,436.948-211.868,436.954-212.172,436.981Zm14.822-14.513c-1.436.843-2.968,1.8-4.558,2.658a5.37,5.37,0,0,1-4.532.205c-.293-.107-.582-.224-.948-.366a5.657,5.657,0,0,1,.516,4.608,23.677,23.677,0,0,1-1.656,3.25c-.429.756-.962,1.453-1.448,2.176a1.747,1.747,0,0,0,.558-.269c1.388-.833,2.757-1.7,4.176-2.479a4.523,4.523,0,0,1,3.126-.48c.747.153,1.477.389,2.243.6a6.059,6.059,0,0,1,.334-6.4C-198.8,424.745-198.026,423.545-197.35,422.468Z" transform="translate(212.171 -401.675)">
			</path>
		</g>
</svg>