<?xml version="1.0" encoding="UTF-8" standalone="no"?>
<svg
   viewBox="0 0 400 400"
   id="svg30775"
   xmlns="http://www.w3.org/2000/svg"
   xmlns:svg="http://www.w3.org/2000/svg"
   stroke="gold" stroke-width="5" fill="none">

    <path
       d="m 308.495,315.495 c 3.248,3.242 5.905,6.098 5.905,6.347 0,0.438 -6.067,6.173 -7.76,7.335 -0.462,0.317 -0.93,0.686 -1.04,0.821 -0.49,0.598 -8.944,6.88 -12.238,9.094 -7.224,4.856 -18.998,11.404 -24.962,13.883 -0.99,0.412 -2.93,1.261 -4.31,1.887 -1.381,0.626 -2.746,1.138 -3.033,1.138 -0.288,0 -0.643,0.119 -0.789,0.265 -0.892,0.892 -16.075,5.662 -16.54,5.196 -0.138,-0.137 0.272,-0.657 0.911,-1.154 2.374,-1.848 7.511,-6.987 10.29,-10.294 1.578,-1.877 2.961,-3.503 3.073,-3.613 2.617,-2.569 12.398,-19.252 12.398,-21.145 0,-0.233 0.765,-0.626 1.7,-0.874 11.904,-3.157 20.882,-7.516 27.9,-13.546 2.051,-1.762 2.075,-1.749 8.495,4.66"
       id="path30981" />
    <path
       d="m 102.42,312.855 c 3.796,2.872 9.755,6.207 14.98,8.385 2.009,0.837 8.393,2.76 9.164,2.76 1.602,0 2.564,1.189 5.21,6.439 1.453,2.882 3.179,6.02 3.834,6.973 0.656,0.953 1.192,1.831 1.192,1.952 0,0.328 3.85,5.621 6.572,9.036 1.316,1.65 4.697,5.295 7.514,8.1 2.818,2.805 4.843,5.1 4.502,5.1 -1.232,0 -15.443,-4.722 -16.056,-5.335 -0.146,-0.146 -0.501,-0.265 -0.789,-0.265 -0.287,0 -1.652,-0.512 -3.033,-1.138 a 250.23,250.23 0 0 0 -4.3,-1.9 c -3.328,-1.416 -12.989,-6.449 -16.339,-8.512 -1.832,-1.127 -3.413,-2.05 -3.516,-2.05 -0.102,0 -1.834,-1.125 -3.848,-2.5 -6.929,-4.73 -6.306,-4.271 -12.868,-9.462 -1.781,-1.41 -3.329,-2.672 -3.439,-2.806 -0.11,-0.134 -1.415,-1.298 -2.9,-2.587 -1.485,-1.288 -2.707,-2.546 -2.716,-2.794 -0.038,-1.043 12.573,-12.587 13.228,-12.109 0.346,0.252 1.97,1.473 3.608,2.713"
       id="path30979" />
    <path
       d="m 209.656,304.067 c 7.892,9.426 22.463,17.73 35.544,20.256 1.21,0.234 3.159,0.617 4.331,0.851 1.171,0.234 2.656,0.426 3.3,0.426 1.424,0 1.43,0.133 0.116,2.4 -0.574,0.99 -1.385,2.396 -1.803,3.125 -4.262,7.443 -14.753,18.189 -23.477,24.048 -2.413,1.621 -9.163,5.627 -9.481,5.627 -0.082,0 -1.373,0.56 -2.868,1.243 -1.495,0.684 -3.078,1.388 -3.518,1.563 -2.807,1.121 -4.14,1.521 -4.355,1.306 C 207.043,364.51 207.16,302 207.563,302 c 0.199,0 1.141,0.93 2.093,2.067"
       id="path30977" />
    <path
       d="m 192.8,333.576 c 0,17.367 -0.142,31.664 -0.315,31.771 -0.173,0.107 -2.018,-0.482 -4.1,-1.31 -12.993,-5.166 -24.058,-13.125 -32.711,-23.531 -5.229,-6.287 -10.52,-14.402 -9.572,-14.678 0.274,-0.08 1.848,-0.351 3.498,-0.604 16.069,-2.459 26.777,-7.732 38,-18.715 2.53,-2.476 4.735,-4.503 4.9,-4.505 0.165,-0.002 0.3,14.205 0.3,31.572"
       id="path30975" />
    <path
       d="m 306.4,277.347 c 0,0.783 -1.586,4.542 -2.807,6.653 -0.573,0.99 -1.146,2.07 -1.274,2.4 -2.04,5.271 -12.777,15.106 -21.012,19.247 -5.04,2.534 -5.397,2.581 -4.921,0.65 1.276,-5.166 2.111,-14.336 1.956,-21.492 l -0.142,-6.595 7.459,0.134 c 6.844,0.122 12.75,-0.281 16.341,-1.117 2.354,-0.548 4.4,-0.492 4.4,0.12"
       id="path30973" />
    <path
       d="m 97.43,276.961 c 7.928,1.246 11.347,1.515 17.526,1.38 l 6.444,-0.141 0.273,10 c 0.151,5.5 0.466,11.17 0.7,12.6 1.303,7.938 1.624,7.647 -4.757,4.319 -10.851,-5.661 -21.98,-18.343 -24.235,-27.619 -0.313,-1.284 -0.52,-1.257 4.049,-0.539"
       id="path30971" />
    <path
       d="m 361.268,245.898 a 642.59,642.59 0 0 0 -1.294,4.302 c -0.458,1.54 -0.982,3.16 -1.163,3.6 A 48.69,48.69 0 0 0 358,256 c -0.264,0.77 -0.626,1.76 -0.804,2.2 -0.177,0.44 -0.804,2.06 -1.393,3.6 -6.087,15.923 -19.416,37.596 -30.074,48.9 -0.775,0.822 -0.879,0.741 -7.424,-5.795 -7.22,-7.21 -6.748,-6.295 -4.762,-9.227 4.136,-6.107 6.914,-12.741 9.283,-22.175 l 0.476,-1.897 6.049,-2.955 c 10.652,-5.202 18.663,-10.974 27.049,-19.484 5.344,-5.424 5.578,-5.582 4.868,-3.269"
       id="path30969" />
    <path
       d="m 38.4,242.78 c 0,1.33 12.711,13.244 18.843,17.662 4.627,3.334 16.451,9.949 17.795,9.956 0.87,0.004 1.641,1.458 2.324,4.381 0.756,3.232 2.322,8.187 3.295,10.421 1.45,3.334 4.256,8.611 5.738,10.793 0.883,1.3 1.605,2.515 1.605,2.701 C 88,299.164 75.434,311.6 74.959,311.6 73.805,311.6 56,287.788 56,286.244 c 0,-0.089 -0.749,-1.394 -1.663,-2.9 -1.968,-3.238 -6.672,-12.383 -7.688,-14.944 -0.707,-1.782 -1.223,-2.99 -2.515,-5.9 -2.628,-5.912 -6.957,-20.1 -6.134,-20.1 0.22,0 0.4,0.171 0.4,0.38"
       id="path30967" />
    <path
       d="m 239.34,229.412 c 4.381,4.367 7.61,8.229 10.579,12.651 1.891,2.818 2.577,3.974 5.065,8.537 1.984,3.638 4.754,10.878 6.123,16 1.332,4.988 1.518,5.975 2.528,13.4 0.865,6.362 -0.02,17.866 -2.016,26.2 -0.211,0.88 -0.505,2.14 -0.655,2.8 -0.458,2.026 -0.806,2.2 -4.382,2.2 -3.089,0 -4.275,-0.156 -9.582,-1.258 -8.426,-1.75 -17.136,-6.472 -23.749,-12.874 -2.417,-2.34 -7.251,-7.956 -7.251,-8.423 0,-0.12 -0.675,-1.267 -1.5,-2.548 -1.322,-2.054 -2.648,-4.74 -3.752,-7.597 -0.192,-0.495 -0.51,-1.305 -0.709,-1.8 -2.088,-5.21 -2.839,-11.743 -2.839,-24.7 v -11.585 l 1.1,-0.226 c 9.045,-1.857 17.461,-7.024 23.595,-14.485 l 1.394,-1.695 1.104,0.786 c 0.607,0.432 2.833,2.51 4.947,4.617"
       id="path30965" />
    <path
       d="m 168.2,226.056 c 4.329,5.874 17.477,13.944 22.719,13.944 2.87,0 2.747,22.491 -0.182,33.4 -3.822,14.232 -14.036,26.423 -27.598,32.938 -1.903,0.914 -3.712,1.662 -4.02,1.662 -0.307,0 -0.73,0.149 -0.939,0.33 -0.359,0.313 -1.849,0.778 -5.28,1.652 -2.941,0.748 -7.943,1.292 -10.642,1.156 l -2.742,-0.138 -0.497,-1.6 c -2.59,-8.336 -3.86,-23.869 -2.594,-31.754 3.44,-21.443 12.514,-38.48 27.544,-51.716 2.408,-2.12 2.58,-2.115 4.231,0.126"
       id="path30963" />
    <path
       d="m 265.433,209.213 c 9.167,1.602 14.95,3.856 21.967,8.565 10.115,6.788 18.521,18.993 20.952,30.422 0.234,1.1 0.61,2.845 0.837,3.877 0.226,1.033 0.411,3.404 0.411,5.269 v 3.392 l -1.3,0.398 c -5.744,1.759 -17.111,3.12 -22.765,2.725 -10.505,-0.734 -10.309,-0.661 -11.351,-4.201 -0.788,-2.673 -1.342,-4.362 -1.793,-5.46 -0.181,-0.44 -0.655,-1.61 -1.053,-2.6 -2.868,-7.128 -9.484,-18.464 -13.889,-23.796 l -2.641,-3.2 c -1.626,-1.973 -8.449,-8.709 -10.708,-10.571 -2.363,-1.948 -2.601,-2.65 -1,-2.945 0.605,-0.112 2.18,-0.475 3.5,-0.808 1.32,-0.332 3.3,-0.776 4.4,-0.987 2.771,-0.53 11.573,-0.579 14.433,-0.08"
       id="path30961" />
    <path
       d="m 148.354,209.23 c 4.98,0.81 9.246,2.022 9.246,2.626 0,0.265 -1.035,1.342 -2.3,2.393 -10.216,8.488 -20.145,21.972 -25.885,35.151 -1.417,3.254 -1.686,3.979 -3.417,9.2 l -1.459,4.4 -2.97,0.389 c -8.274,1.082 -18.645,0.399 -27.679,-1.824 -1.711,-0.421 -3.212,-0.765 -3.336,-0.765 -0.27,0 0.073,-8.016 0.428,-10 a 44.2,44.2 0 0 1 0.679,-3 c 5.558,-20.769 20.882,-34.655 42.539,-38.546 2.866,-0.515 11.049,-0.529 14.154,-0.024"
       id="path30959" />
    <path
       d="m 365.401,207.9 a 24.899,24.899 0 0 0 -0.601,1.751 c -1.027,3.413 -5.332,11.866 -8.466,16.623 -7.611,11.554 -17.351,20.714 -28.772,27.06 -3.108,1.727 -3.562,1.79 -3.562,0.497 0,-0.534 -0.19,-1.929 -0.421,-3.1 l -0.817,-4.131 c -2.706,-13.687 -11.51,-28.427 -22.1,-37 -1.223,-0.99 -2.232,-1.935 -2.243,-2.1 -0.01,-0.165 15.12,-0.3 33.624,-0.3 31.882,0 33.628,0.037 33.358,0.7"
       id="path30957" />
    <path
       d="m 101.6,207.412 c 0,0.117 -0.675,0.788 -1.5,1.492 -6.481,5.527 -11.959,11.958 -15.585,18.296 -1.809,3.161 -2.383,4.298 -3.891,7.7 -0.984,2.219 -2.535,7.204 -3.212,10.321 a 886.587,886.587 0 0 1 -1.029,4.685 c -0.211,0.938 -0.383,2.333 -0.383,3.1 0,1.756 -0.511,1.779 -3.282,0.147 -14.423,-8.49 -25.371,-19.905 -32.667,-34.059 -2.322,-4.506 -4.857,-10.457 -4.853,-11.394 0.002,-0.396 6.91,-0.5 33.202,-0.5 18.26,0 33.2,0.095 33.2,0.212"
       id="path30955" />
    <path
       d="m 206.8,174.182 c 8.43,2.402 16.074,9.814 18.376,17.818 0.284,0.99 0.676,2.322 0.871,2.96 0.815,2.676 0.252,10.013 -1.047,13.64 -9.466,26.427 -48.176,22.21 -51.401,-5.6 -2.145,-18.495 15.545,-33.85 33.201,-28.818"
       id="path30953" />
    <path
       d="m 74.4,147.394 c 0,0.547 0.172,1.762 0.383,2.7 0.21,0.938 0.674,3.047 1.029,4.685 2.852,13.141 10.404,25.361 22.088,35.743 0.935,0.83 1.7,1.684 1.7,1.897 0,0.246 -11.585,0.349 -31.9,0.283 l -31.9,-0.102 0.117,-1 c 0.065,-0.55 0.265,-1.36 0.447,-1.8 0.181,-0.44 0.507,-1.25 0.725,-1.8 6.138,-15.502 19.058,-30.803 33.711,-39.926 3.067,-1.909 3.6,-2.01 3.6,-0.68"
       id="path30951" />
    <path
       d="m 328.749,147.504 c 15.911,9.653 28.672,24.559 34.838,40.696 0.168,0.44 0.528,1.271 0.799,1.847 1.295,2.752 3.865,2.541 -32.391,2.656 -17.927,0.057 -32.841,0.01 -33.143,-0.105 -0.355,-0.136 1.025,-1.706 3.923,-4.463 10.761,-10.239 17.438,-21.843 19.987,-34.735 l 0.817,-4.131 c 0.231,-1.171 0.421,-2.578 0.421,-3.126 0,-1.283 0.738,-1.072 4.749,1.361"
       id="path30949" />
    <path
       d="m 296.833,136.371 4.967,0.847 c 3.158,0.538 6.812,1.418 7.405,1.785 0.217,0.134 0.395,1.57 0.395,3.19 0,2.741 -0.163,3.937 -1.258,9.207 -0.577,2.777 -1.791,6.341 -3.173,9.318 -0.643,1.385 -1.169,2.581 -1.169,2.659 0,0.078 -0.724,1.333 -1.608,2.789 -11.605,19.101 -33.932,28.531 -55.592,23.478 -5.118,-1.194 -5.187,-1.321 -2.118,-3.898 10.113,-8.491 18.435,-19.192 24.378,-31.346 3.211,-6.567 4.319,-9.382 6.455,-16.4 0.518,-1.702 14.602,-2.779 21.318,-1.629"
       id="path30947" />
    <path
       d="m 123.656,136.62 1.856,0.254 0.871,2.863 c 0.948,3.115 1.5,4.769 2.057,6.163 l 0.719,1.8 c 1.816,4.548 5.54,11.961 7.588,15.102 0.359,0.551 0.833,1.292 1.053,1.646 4.203,6.776 10.303,13.819 17.86,20.621 3.014,2.712 2.936,2.806 -3.66,4.448 -27.347,6.809 -56.33,-11.019 -61.967,-38.117 -0.274,-1.32 -0.664,-3.155 -0.866,-4.077 -0.748,-3.419 -0.479,-7.298 0.533,-7.68 1.48,-0.56 3.567,-1.14 5.9,-1.64 1.21,-0.26 2.851,-0.637 3.646,-0.838 0.796,-0.201 2.146,-0.383 3,-0.405 0.855,-0.022 2.004,-0.192 2.554,-0.378 1.079,-0.364 15.804,-0.178 18.856,0.238"
       id="path30945" />
    <path
       d="m 281.189,94.026 c 9.518,4.61 18.703,13.871 23.183,23.374 a 240.8,240.8 0 0 0 1.674,3.495 c 0.195,0.382 0.354,1.081 0.354,1.554 0,0.938 0.198,0.942 -6,-0.124 -1.21,-0.208 -6.52,-0.472 -11.8,-0.586 l -9.6,-0.209 0.144,-7.665 c 0.146,-7.774 -0.279,-12.592 -1.781,-20.165 -0.249,-1.259 0.727,-1.175 3.826,0.326"
       id="path30943" />
    <path
       d="m 124.212,92.9 c -0.142,0.935 -0.42,2.6 -0.618,3.7 -0.975,5.429 -1.194,8.435 -1.194,16.377 v 8.623 h -9.333 c -5.134,0 -10.399,0.191 -11.7,0.425 -4.516,0.81 -8.372,1.565 -9.267,1.816 -0.984,0.276 -1.21,-0.454 -0.54,-1.746 0.198,-0.382 1.097,-2.279 1.999,-4.215 4.834,-10.382 13.729,-19.322 24.041,-24.163 6.857,-3.219 6.979,-3.234 6.612,-0.817"
       id="path30941" />
    <path
       d="m 261.547,90.6 c 0.302,0.88 0.687,2.23 0.856,3 2.211,10.096 2.91,18.799 2.02,25.123 a 3572.93,3572.93 0 0 0 -0.848,6.077 c -0.259,1.87 -0.719,4.345 -1.023,5.5 l -1.16,4.4 c -0.525,1.986 -1.383,4.472 -2.588,7.5 -4.704,11.818 -13.025,23.472 -22.784,31.914 -2.696,2.332 -2.289,2.398 -4.966,-0.814 -5.632,-6.756 -12.209,-10.716 -22.654,-13.64 l -1,-0.28 0.023,-12.99 c 0.024,-13.118 0.207,-15.378 1.667,-20.59 3.347,-11.951 11.911,-23.231 22.534,-29.679 3.075,-1.867 7.709,-4.121 8.471,-4.121 0.3,0 0.716,-0.143 0.925,-0.318 0.49,-0.411 2.649,-1.093 5.18,-1.638 1.1,-0.236 2.72,-0.597 3.6,-0.802 0.88,-0.204 3.76,-0.342 6.399,-0.307 l 4.799,0.065 0.549,1.6"
       id="path30939" />
    <path
       d="m 148.469,89.232 c 29.296,5.94 47.474,32.658 41.48,60.968 -1.265,5.976 -3.597,11.392 -4.911,11.404 -2.331,0.023 -10.665,5.7 -15.038,10.244 -3.868,4.02 -3.181,3.969 -6.93,0.514 -18.444,-16.995 -29.49,-46.538 -25.843,-69.116 0.749,-4.635 1.994,-11.012 2.352,-12.046 0.19,-0.55 0.447,-1.315 0.571,-1.7 0.27,-0.84 4.781,-0.986 8.319,-0.268"
       id="path30937" />
    <path
       d="m 327.389,91.02 c 9.488,11.211 17.137,22.858 23.366,35.58 1.79,3.655 3.929,8.436 4.832,10.8 0.168,0.44 0.492,1.25 0.719,1.8 0.227,0.55 0.63,1.63 0.894,2.4 0.264,0.77 0.631,1.76 0.814,2.2 0.376,0.902 1.5,4.29 2.747,8.284 1.53,4.893 1.251,4.918 -3.124,0.273 -2.179,-2.314 -5.554,-5.545 -7.5,-7.181 -1.945,-1.636 -3.627,-3.07 -3.737,-3.187 -0.485,-0.515 -8.323,-5.989 -8.575,-5.989 -0.155,0 -1.033,-0.513 -1.953,-1.14 -0.92,-0.627 -4.111,-2.332 -7.092,-3.787 l -5.419,-2.647 -0.906,-3.713 c -0.499,-2.042 -1.063,-4.073 -1.255,-4.513 -0.191,-0.44 -0.744,-1.97 -1.228,-3.4 -1.223,-3.613 -5.23,-11.265 -7.596,-14.508 -1.087,-1.49 -1.976,-2.868 -1.976,-3.062 0,-0.516 12.422,-12.43 12.96,-12.43 0.251,0 2.064,1.899 4.029,4.22"
       id="path30935" />
    <path
       d="m 83.165,92.165 5.755,5.765 -1.885,2.508 c -5.096,6.78 -9.62,16.694 -11.388,24.962 -0.236,1.1 -0.526,2.494 -0.645,3.098 -0.176,0.893 -0.757,1.36 -3.109,2.497 -12.328,5.962 -25.393,16.162 -32.398,25.293 -1.773,2.31 -2.58,1.906 -1.537,-0.769 0.197,-0.506 0.585,-1.729 0.861,-2.719 1.021,-3.661 3.953,-12.253 5.016,-14.7 A 380.978,380.978 0 0 0 46.01,133 c 0.663,-1.617 6.439,-13.25 7.349,-14.8 0.517,-0.88 1.88,-3.22 3.029,-5.2 1.15,-1.98 2.714,-4.449 3.476,-5.487 a 302.162,302.162 0 0 0 3.461,-4.869 c 2.656,-3.816 6.172,-8.399 8.012,-10.444 0.791,-0.88 2.209,-2.536 3.151,-3.681 2.317,-2.816 2.162,-2.881 8.677,3.646"
       id="path30933" />
    <path
       d="m 246.972,38.797 c 9.328,3.012 13.703,4.545 14.096,4.938 0.146,0.146 0.5,0.265 0.787,0.265 0.287,0 1.472,0.43 2.633,0.955 1.162,0.526 3.012,1.348 4.112,1.828 13.945,6.08 31.164,17.258 42.977,27.899 l 1.423,1.281 -6.195,6.219 c -7.248,7.274 -6.074,6.92 -11.255,3.395 -4.021,-2.736 -12.446,-7.177 -13.615,-7.177 -0.316,0 -0.746,-0.149 -0.955,-0.33 -0.209,-0.182 -1.19,-0.563 -2.18,-0.847 -0.99,-0.284 -2.25,-0.655 -2.8,-0.824 a 100,100 0 0 0 -2.701,-0.77 c -1.644,-0.446 -1.763,-0.591 -3.561,-4.345 -2.575,-5.38 -9.193,-16.067 -10.95,-17.684 -0.119,-0.11 -1.314,-1.55 -2.656,-3.2 -1.341,-1.65 -4.44,-4.948 -6.885,-7.33 -5.24,-5.102 -5.323,-5.258 -2.275,-4.273"
       id="path30931" />
    <path
       d="m 154.98,40.079 c -7.748,6.769 -14.63,15.271 -20.159,24.904 -1.793,3.124 -4.421,8.41 -4.421,8.891 0,0.502 -1.443,1.301 -2.372,1.313 -0.534,0.007 -1.524,0.181 -2.2,0.386 -0.675,0.205 -2.038,0.591 -3.028,0.858 -7.239,1.949 -12.811,4.479 -19.493,8.85 l -3.694,2.416 -3.106,-2.808 C 92.549,81.313 87.6,76.203 87.6,75.693 c 0,-0.488 5.92,-5.573 10.65,-9.147 10.309,-7.79 23.447,-15.613 33.35,-19.859 0.77,-0.331 2.39,-1.038 3.6,-1.573 1.21,-0.535 2.83,-1.202 3.6,-1.484 0.77,-0.281 1.76,-0.66 2.2,-0.842 1.537,-0.636 6.812,-2.469 8.2,-2.85 0.77,-0.211 2.03,-0.565 2.8,-0.786 5.608,-1.616 5.817,-1.551 2.98,0.927"
       id="path30929" />
    <path
       d="m 192.702,67.183 c 0.057,17.695 -0.035,32.31 -0.204,32.479 -0.169,0.169 -1.709,-1.294 -3.422,-3.25 C 182.69,89.118 167.255,78.4 163.136,78.4 c -0.317,0 -0.747,-0.143 -0.956,-0.318 -0.391,-0.328 -1.911,-0.835 -4.88,-1.628 -3.421,-0.914 -4.76,-1.208 -7.7,-1.692 -1.65,-0.272 -3.058,-0.537 -3.128,-0.589 -0.522,-0.389 5.109,-9.105 8.896,-13.769 5.974,-7.359 14.985,-14.954 23.315,-19.654 4.885,-2.757 12.276,-5.994 13.317,-5.832 0.527,0.082 0.613,4.028 0.702,32.265"
       id="path30927" />
    <path
       d="m 209.081,34.85 c 1.152,0.463 2.251,0.893 3.819,1.496 13.85,5.32 28.606,17.321 37.533,30.523 4.605,6.81 4.821,7.527 2.267,7.538 -1.592,0.007 -6.048,0.729 -9.7,1.571 -11.574,2.669 -23.296,9.391 -31.695,18.177 C 209.283,96.27 207.532,98 207.414,98 207.297,98 207.2,83.69 207.2,66.2 c 0,-19.887 0.143,-31.8 0.381,-31.8 0.21,0 0.885,0.202 1.5,0.45"
       id="path30925" />
    <path
       d="m 300,310.835 c -7.018,6.03 -15.996,10.389 -27.9,13.546 -0.935,0.248 -1.7,0.641 -1.7,0.874 0,1.893 -9.781,18.576 -12.398,21.145 -0.112,0.11 -1.495,1.736 -3.073,3.613 -2.779,3.307 -7.916,8.446 -10.29,10.294 -0.639,0.497 -1.049,1.017 -0.911,1.154 0.465,0.466 15.648,-4.304 16.54,-5.196 0.146,-0.146 0.501,-0.265 0.789,-0.265 0.287,0 1.652,-0.512 3.033,-1.138 1.38,-0.626 3.32,-1.475 4.31,-1.887 5.964,-2.479 17.738,-9.027 24.962,-13.883 3.294,-2.214 11.748,-8.496 12.238,-9.094 0.11,-0.135 0.578,-0.504 1.04,-0.821 1.693,-1.162 7.76,-6.897 7.76,-7.335 0,-0.689 -11.725,-12.244 -12.405,-12.226 -0.327,0.009 -1.225,0.558 -1.995,1.219"
       id="path30921" />
    <path
       d="m 91.876,315.742 c -7.306,7.016 -7.032,6.304 -3.576,9.303 1.485,1.289 2.79,2.453 2.9,2.587 0.11,0.134 1.658,1.396 3.439,2.806 6.562,5.191 5.939,4.732 12.868,9.462 2.014,1.375 3.746,2.5 3.848,2.5 0.103,0 1.684,0.923 3.516,2.05 3.35,2.063 13.011,7.096 16.339,8.512 0.984,0.419 2.92,1.274 4.3,1.9 1.381,0.626 2.746,1.138 3.033,1.138 0.288,0 0.643,0.119 0.789,0.265 0.613,0.613 14.824,5.335 16.056,5.335 0.341,0 -1.684,-2.295 -4.502,-5.1 -2.817,-2.805 -6.198,-6.45 -7.514,-8.1 -2.722,-3.415 -6.572,-8.708 -6.572,-9.036 0,-0.121 -0.536,-0.999 -1.192,-1.952 -0.655,-0.953 -2.381,-4.091 -3.834,-6.973 -2.646,-5.25 -3.608,-6.439 -5.21,-6.439 -0.771,0 -7.155,-1.923 -9.164,-2.76 -5.225,-2.178 -11.184,-5.513 -14.98,-8.385 a 477.662,477.662 0 0 0 -3.608,-2.713 c -0.524,-0.383 -1.673,0.545 -6.936,5.6"
       id="path30919" />
    <path
       d="m 207.2,333.333 c 0,17.234 0.11,31.444 0.245,31.579 0.215,0.215 1.548,-0.185 4.355,-1.306 0.44,-0.175 2.023,-0.879 3.518,-1.563 1.495,-0.683 2.786,-1.243 2.868,-1.243 0.318,0 7.068,-4.006 9.481,-5.627 8.724,-5.859 19.215,-16.605 23.477,-24.048 0.418,-0.729 1.229,-2.135 1.803,-3.125 1.314,-2.267 1.308,-2.4 -0.116,-2.4 -0.644,0 -2.129,-0.192 -3.3,-0.426 a 886.321,886.321 0 0 0 -4.331,-0.851 c -13.081,-2.526 -27.652,-10.83 -35.544,-20.256 -0.952,-1.137 -1.894,-2.067 -2.093,-2.067 -0.214,0 -0.363,12.856 -0.363,31.333"
       id="path30917" />
    <path
       d="m 187.6,306.509 c -11.223,10.983 -21.931,16.256 -38,18.715 -1.65,0.253 -3.224,0.524 -3.498,0.604 -0.948,0.276 4.343,8.391 9.572,14.678 8.653,10.406 19.718,18.365 32.711,23.531 2.082,0.828 3.927,1.417 4.1,1.31 0.402,-0.248 0.417,-63.348 0.015,-63.343 -0.165,0.002 -2.37,2.029 -4.9,4.505"
       id="path30915" />
    <path
       d="m 302,277.227 c -3.591,0.836 -9.497,1.239 -16.341,1.117 l -7.459,-0.134 0.142,6.595 c 0.155,7.156 -0.68,16.326 -1.956,21.492 -0.476,1.931 -0.119,1.884 4.921,-0.65 8.235,-4.141 18.972,-13.976 21.012,-19.247 0.128,-0.33 0.701,-1.41 1.274,-2.4 1.221,-2.111 2.807,-5.87 2.807,-6.653 0,-0.612 -2.046,-0.668 -4.4,-0.12"
       id="path30913" />
    <path
       d="m 93.381,277.5 c 2.255,9.276 13.384,21.958 24.235,27.619 6.381,3.328 6.06,3.619 4.757,-4.319 -0.234,-1.43 -0.549,-7.1 -0.7,-12.6 l -0.273,-10 -6.444,0.141 c -6.179,0.135 -9.598,-0.134 -17.526,-1.38 -4.569,-0.718 -4.362,-0.745 -4.049,0.539"
       id="path30911" />
    <path
       d="m 356.4,249.167 c -8.386,8.51 -16.397,14.282 -27.049,19.484 l -6.049,2.955 -0.476,1.897 c -2.369,9.434 -5.147,16.068 -9.283,22.175 -1.986,2.932 -2.458,2.017 4.762,9.227 6.545,6.536 6.649,6.617 7.424,5.795 5.25,-5.569 14.389,-18.317 20,-27.9 2.972,-5.075 7.967,-15.488 10.074,-21 0.589,-1.54 1.216,-3.16 1.393,-3.6 0.178,-0.44 0.54,-1.43 0.804,-2.2 0.264,-0.77 0.629,-1.76 0.811,-2.2 0.181,-0.44 0.705,-2.06 1.163,-3.6 a 642.59,642.59 0 0 1 1.294,-4.302 c 0.71,-2.313 0.476,-2.155 -4.868,3.269"
       id="path30909" />
    <path
       d="m 37.6,242.624 c 0,1.209 5.007,16.44 6.534,19.876 1.292,2.91 1.808,4.118 2.515,5.9 1.016,2.561 5.72,11.706 7.688,14.944 0.914,1.506 1.663,2.811 1.663,2.9 0,0.276 7.756,11.834 9.365,13.956 3.298,4.35 9.231,11.4 9.594,11.4 0.475,0 13.041,-12.436 13.041,-12.906 0,-0.186 -0.722,-1.401 -1.605,-2.701 -1.482,-2.182 -4.288,-7.459 -5.738,-10.793 -0.973,-2.234 -2.539,-7.189 -3.295,-10.421 -0.683,-2.923 -1.454,-4.377 -2.324,-4.381 C 73.694,270.391 61.87,263.776 57.243,260.442 51.111,256.024 38.4,244.11 38.4,242.78 c 0,-0.209 -0.18,-0.38 -0.4,-0.38 -0.22,0 -0.4,0.101 -0.4,0.224"
       id="path30907" />
    <path
       d="m 231.895,225.704 c -6.134,7.461 -14.55,12.628 -23.595,14.485 l -1.1,0.226 V 252 c 0,12.957 0.751,19.49 2.839,24.7 0.199,0.495 0.517,1.305 0.709,1.8 1.104,2.857 2.43,5.543 3.752,7.597 0.825,1.281 1.5,2.428 1.5,2.548 0,0.467 4.834,6.083 7.251,8.423 6.613,6.402 15.323,11.124 23.749,12.874 5.307,1.102 6.493,1.258 9.582,1.258 3.576,0 3.924,-0.174 4.382,-2.2 0.15,-0.66 0.444,-1.92 0.655,-2.8 1.996,-8.334 2.881,-19.838 2.016,-26.2 -1.01,-7.425 -1.196,-8.412 -2.528,-13.4 -1.369,-5.122 -4.139,-12.362 -6.123,-16 -2.488,-4.563 -3.174,-5.719 -5.065,-8.537 -3.806,-5.67 -11.935,-14.711 -15.526,-17.268 l -1.104,-0.786 -1.394,1.695"
       id="path30905" />
    <path
       d="m 163.969,225.93 c -15.03,13.236 -24.104,30.273 -27.544,51.716 -1.266,7.885 0.004,23.418 2.594,31.754 l 0.497,1.6 2.742,0.138 c 2.699,0.136 7.701,-0.408 10.642,-1.156 3.431,-0.874 4.921,-1.339 5.28,-1.652 0.209,-0.181 0.632,-0.33 0.939,-0.33 0.308,0 2.117,-0.748 4.02,-1.662 13.562,-6.515 23.776,-18.706 27.598,-32.938 1.605,-5.976 2.069,-10.932 2.066,-22.071 C 192.8,240.72 192.68,240 190.919,240 c -5.242,0 -18.39,-8.07 -22.719,-13.944 -1.651,-2.241 -1.823,-2.246 -4.231,-0.126"
       id="path30903" />
    <path
       d="m 251,209.293 c -1.1,0.211 -3.08,0.655 -4.4,0.987 -1.32,0.333 -2.895,0.696 -3.5,0.808 -1.601,0.295 -1.363,0.997 1,2.945 2.259,1.862 9.082,8.598 10.708,10.571 l 2.641,3.2 c 4.405,5.332 11.021,16.668 13.889,23.796 0.398,0.99 0.872,2.16 1.053,2.6 0.451,1.098 1.005,2.787 1.793,5.46 1.042,3.54 0.846,3.467 11.351,4.201 5.654,0.395 17.021,-0.966 22.765,-2.725 l 1.3,-0.398 v -3.392 c 0,-1.865 -0.185,-4.236 -0.411,-5.269 a 698.378,698.378 0 0 1 -0.837,-3.877 c -4.797,-22.553 -26.604,-39.604 -50.319,-39.345 -2.768,0.03 -5.933,0.228 -7.033,0.438"
       id="path30901" />
    <path
       d="m 134.2,209.254 c -21.657,3.891 -36.981,17.777 -42.539,38.546 a 44.2,44.2 0 0 0 -0.679,3 c -0.355,1.984 -0.698,10 -0.428,10 0.124,0 1.625,0.344 3.336,0.765 9.034,2.223 19.405,2.906 27.679,1.824 l 2.97,-0.389 1.459,-4.4 c 5.894,-17.777 16.33,-33.573 29.302,-44.351 3.26,-2.709 3.259,-2.71 -2.9,-4.24 -4.834,-1.201 -13.676,-1.568 -18.2,-0.755"
       id="path30899" />
    <path
       d="m 298.419,207.5 c 0.011,0.165 1.02,1.11 2.243,2.1 10.59,8.573 19.394,23.313 22.1,37 l 0.817,4.131 c 0.231,1.171 0.421,2.566 0.421,3.1 0,4.04 18.622,-9.891 27.042,-20.232 5.364,-6.587 12.019,-18.171 13.758,-23.948 0.174,-0.578 0.445,-1.366 0.601,-1.751 0.27,-0.663 -1.476,-0.7 -33.358,-0.7 -18.504,0 -33.634,0.135 -33.624,0.3"
       id="path30897" />
    <path
       d="m 35.198,207.7 c -0.004,0.937 2.531,6.888 4.853,11.394 7.296,14.154 18.244,25.569 32.667,34.059 2.771,1.632 3.282,1.609 3.282,-0.147 0,-0.767 0.172,-2.162 0.383,-3.1 0.21,-0.938 0.674,-3.047 1.029,-4.685 1.386,-6.385 3.468,-11.668 7.103,-18.021 3.626,-6.338 9.104,-12.769 15.585,-18.296 0.825,-0.704 1.5,-1.375 1.5,-1.492 0,-0.117 -14.94,-0.212 -33.2,-0.212 -26.292,0 -33.2,0.104 -33.202,0.5"
       id="path30895" />
    <path
       d="m 196.8,173.641 c -17.857,1.432 -28.81,21.655 -20.651,38.129 10.358,20.912 40.935,18.928 48.851,-3.17 1.299,-3.627 1.862,-10.964 1.047,-13.64 -0.195,-0.638 -0.587,-1.97 -0.871,-2.96 -2.302,-8.004 -9.946,-15.416 -18.376,-17.818 -1.787,-0.51 -6.928,-0.788 -10,-0.541"
       id="path30893" />
    <path
       d="M 70.8,148.074 C 56.147,157.197 43.227,172.498 37.089,188 c -0.218,0.55 -0.544,1.36 -0.725,1.8 -0.182,0.44 -0.382,1.25 -0.447,1.8 l -0.117,1 31.9,0.102 c 20.315,0.066 31.9,-0.037 31.9,-0.283 0,-0.213 -0.765,-1.067 -1.7,-1.897 C 86.216,180.14 78.664,167.92 75.812,154.779 a 886.587,886.587 0 0 0 -1.029,-4.685 c -0.211,-0.938 -0.383,-2.153 -0.383,-2.7 0,-1.33 -0.533,-1.229 -3.6,0.68"
       id="path30891" />
    <path
       d="m 324,146.143 c 0,0.548 -0.19,1.955 -0.421,3.126 l -0.817,4.131 c -2.549,12.892 -9.226,24.496 -19.987,34.735 -2.898,2.757 -4.278,4.327 -3.923,4.463 0.302,0.115 15.216,0.162 33.143,0.105 36.256,-0.115 33.686,0.096 32.391,-2.656 A 33.182,33.182 0 0 1 363.587,188.2 C 357.421,172.063 344.66,157.157 328.749,147.504 324.738,145.071 324,144.86 324,146.143"
       id="path30889" />
    <path
       d="m 278.41,136.549 c -2.231,0.388 -2.633,0.59 -2.895,1.451 -2.136,7.018 -3.244,9.833 -6.455,16.4 -5.943,12.154 -14.265,22.855 -24.378,31.346 -3.069,2.577 -3,2.704 2.118,3.898 21.66,5.053 43.987,-4.377 55.592,-23.478 0.884,-1.456 1.608,-2.711 1.608,-2.789 0,-0.078 0.526,-1.274 1.169,-2.659 1.382,-2.977 2.596,-6.541 3.173,-9.318 1.095,-5.27 1.258,-6.466 1.258,-9.207 0,-1.62 -0.178,-3.056 -0.395,-3.19 -0.593,-0.367 -4.247,-1.247 -7.405,-1.785 l -4.967,-0.847 c -2.925,-0.501 -15.208,-0.382 -18.423,0.178"
       id="path30887" />
    <path
       d="m 104.8,136.382 c -0.55,0.186 -1.699,0.356 -2.554,0.378 -0.854,0.022 -2.204,0.204 -3,0.405 -0.795,0.201 -2.436,0.578 -3.646,0.838 -2.333,0.5 -4.42,1.08 -5.9,1.64 -1.012,0.382 -1.281,4.261 -0.533,7.68 0.202,0.922 0.592,2.757 0.866,4.077 5.637,27.098 34.62,44.926 61.967,38.117 6.596,-1.642 6.674,-1.736 3.66,-4.448 -7.557,-6.802 -13.657,-13.845 -17.86,-20.621 -0.22,-0.354 -0.694,-1.095 -1.053,-1.646 -2.048,-3.141 -5.772,-10.554 -7.588,-15.102 l -0.719,-1.8 c -0.557,-1.394 -1.109,-3.048 -2.057,-6.163 l -0.871,-2.863 -1.856,-0.254 c -3.052,-0.416 -17.777,-0.602 -18.856,-0.238"
       id="path30885" />
    <path
       d="m 277.363,93.7 c 1.502,7.573 1.927,12.391 1.781,20.165 l -0.144,7.665 9.6,0.209 c 5.28,0.114 10.59,0.378 11.8,0.586 6.198,1.066 6,1.062 6,0.124 0,-0.473 -0.159,-1.172 -0.354,-1.554 a 240.8,240.8 0 0 1 -1.674,-3.495 c -4.48,-9.503 -13.665,-18.764 -23.183,-23.374 -3.099,-1.501 -4.075,-1.585 -3.826,-0.326"
       id="path30883" />
    <path
       d="m 122,91.688 c -13.908,6.029 -22.915,14.324 -28.441,26.192 -0.902,1.936 -1.801,3.833 -1.999,4.215 -0.67,1.292 -0.444,2.022 0.54,1.746 0.895,-0.251 4.751,-1.006 9.267,-1.816 1.301,-0.234 6.566,-0.425 11.7,-0.425 h 9.333 v -8.623 c 0,-7.942 0.219,-10.948 1.194,-16.377 1.062,-5.908 1.018,-6.045 -1.594,-4.912"
       id="path30881" />
    <path
       d="m 249.8,89.242 c -0.88,0.205 -2.5,0.566 -3.6,0.802 -2.531,0.545 -4.69,1.227 -5.18,1.638 -0.209,0.175 -0.625,0.318 -0.925,0.318 -0.762,0 -5.396,2.254 -8.471,4.121 -10.623,6.448 -19.187,17.728 -22.534,29.679 -1.46,5.212 -1.643,7.472 -1.667,20.59 l -0.023,12.99 1,0.28 c 10.445,2.924 17.022,6.884 22.654,13.64 2.677,3.212 2.27,3.146 4.966,0.814 9.759,-8.442 18.08,-20.096 22.784,-31.914 1.205,-3.028 2.063,-5.514 2.588,-7.5 l 1.16,-4.4 c 0.304,-1.155 0.764,-3.63 1.023,-5.5 0.259,-1.87 0.641,-4.605 0.848,-6.077 0.89,-6.324 0.191,-15.027 -2.02,-25.123 -0.169,-0.77 -0.554,-2.12 -0.856,-3 L 260.998,89 256.199,88.935 C 253.56,88.9 250.68,89.038 249.8,89.242"
       id="path30879" />
    <path
       d="m 140.15,89.5 c -0.124,0.385 -0.381,1.15 -0.571,1.7 -0.358,1.034 -1.603,7.411 -2.352,12.046 -3.647,22.578 7.399,52.121 25.843,69.116 3.749,3.455 3.062,3.506 6.93,-0.514 4.373,-4.544 12.707,-10.221 15.038,-10.244 1.032,-0.01 2.582,-3.059 4.067,-8.004 C 196.732,128.21 181.713,99.617 156.4,91.339 148.573,88.78 140.669,87.885 140.15,89.5"
       id="path30877" />
    <path
       d="m 316.652,92.839 c -7.222,6.975 -6.786,6.012 -4.276,9.453 2.366,3.243 6.373,10.895 7.596,14.508 0.484,1.43 1.037,2.96 1.228,3.4 0.192,0.44 0.756,2.471 1.255,4.513 l 0.906,3.713 5.419,2.647 c 2.981,1.455 6.172,3.16 7.092,3.787 0.92,0.627 1.798,1.14 1.953,1.14 0.252,0 8.09,5.474 8.575,5.989 0.11,0.117 1.792,1.551 3.737,3.187 1.946,1.636 5.321,4.867 7.5,7.181 4.375,4.645 4.654,4.62 3.124,-0.273 -1.247,-3.994 -2.371,-7.382 -2.747,-8.284 -0.183,-0.44 -0.55,-1.43 -0.814,-2.2 a 51.7,51.7 0 0 0 -0.894,-2.4 c -0.227,-0.55 -0.551,-1.36 -0.719,-1.8 -3.682,-9.636 -11.076,-23.272 -17.908,-33.024 C 332.367,96.793 324.226,86.8 323.36,86.8 c -0.251,0 -3.269,2.717 -6.708,6.039"
       id="path30875" />
    <path
       d="M 74.488,88.519 A 135.549,135.549 0 0 1 71.337,92.2 c -1.84,2.045 -5.356,6.628 -8.012,10.444 a 302.162,302.162 0 0 1 -3.461,4.869 c -0.762,1.038 -2.326,3.507 -3.476,5.487 -1.149,1.98 -2.512,4.32 -3.029,5.2 -0.91,1.55 -6.686,13.183 -7.349,14.8 -0.382,0.929 -1.366,3.237 -2.175,5.1 -1.063,2.447 -3.995,11.039 -5.016,14.7 -0.276,0.99 -0.664,2.213 -0.861,2.719 -1.043,2.675 -0.236,3.079 1.537,0.769 7.005,-9.131 20.07,-19.331 32.398,-25.293 2.352,-1.137 2.933,-1.604 3.109,-2.497 2.123,-10.77 6.223,-20.331 12.033,-28.06 L 88.92,97.93 83.165,92.165 c -6.515,-6.527 -6.36,-6.462 -8.677,-3.646"
       id="path30873" />
    <path
       d="m 244.8,38.57 c 0,0.094 2.001,2.119 4.447,4.5 2.445,2.382 5.544,5.68 6.885,7.33 1.342,1.65 2.537,3.09 2.656,3.2 1.757,1.617 8.375,12.304 10.95,17.684 1.798,3.754 1.917,3.899 3.561,4.345 a 100,100 0 0 1 2.701,0.77 c 0.55,0.169 1.81,0.54 2.8,0.824 0.99,0.284 1.971,0.665 2.18,0.847 0.209,0.181 0.639,0.33 0.955,0.33 1.169,0 9.594,4.441 13.615,7.177 5.181,3.525 4.007,3.879 11.255,-3.395 L 313,75.963 311.577,74.682 C 299.764,64.041 282.545,52.863 268.6,46.783 267.5,46.303 265.65,45.481 264.488,44.955 263.327,44.43 262.142,44 261.855,44 c -0.287,0 -0.641,-0.119 -0.787,-0.265 -0.393,-0.393 -4.768,-1.926 -14.096,-4.938 -1.297,-0.419 -2.172,-0.51 -2.172,-0.227"
       id="path30871" />
    <path
       d="m 154.6,38.415 c -0.66,0.183 -1.83,0.515 -2.6,0.737 -0.77,0.221 -2.03,0.575 -2.8,0.786 -1.388,0.381 -6.663,2.214 -8.2,2.85 -0.44,0.182 -1.43,0.561 -2.2,0.842 -0.77,0.282 -2.39,0.949 -3.6,1.484 -1.21,0.535 -2.83,1.242 -3.6,1.573 -9.903,4.246 -23.041,12.069 -33.35,19.859 -4.73,3.574 -10.65,8.659 -10.65,9.147 0,0.51 4.949,5.62 8.907,9.196 l 3.106,2.808 3.694,-2.416 c 6.682,-4.371 12.254,-6.901 19.493,-8.85 0.99,-0.267 2.353,-0.653 3.028,-0.858 0.676,-0.205 1.666,-0.379 2.2,-0.386 0.929,-0.012 2.372,-0.811 2.372,-1.313 0,-0.481 2.628,-5.767 4.421,-8.891 5.529,-9.633 12.411,-18.135 20.159,-24.904 2.415,-2.11 2.345,-2.42 -0.38,-1.664"
       id="path30869" />
    <path
       d="M 188.152,36.16 C 172.854,42.45 159.79,53.158 150.526,67 c -2.349,3.509 -4.311,6.981 -4.054,7.173 0.07,0.052 1.478,0.317 3.128,0.589 2.94,0.484 4.279,0.778 7.7,1.692 2.969,0.793 4.489,1.3 4.88,1.628 0.209,0.175 0.639,0.318 0.956,0.318 4.119,0 19.554,10.718 25.94,18.012 1.713,1.956 3.253,3.419 3.422,3.25 0.652,-0.652 0.16,-64.642 -0.498,-64.744 -0.33,-0.051 -2.061,0.508 -3.848,1.242"
       id="path30867" />
    <path
       d="m 207.2,66.2 c 0,17.49 0.097,31.8 0.214,31.8 0.118,0 1.869,-1.73 3.891,-3.845 8.399,-8.786 20.121,-15.508 31.695,-18.177 3.652,-0.842 8.108,-1.564 9.7,-1.571 2.554,-0.011 2.338,-0.728 -2.267,-7.538 C 241.506,53.667 226.75,41.666 212.9,36.346 a 260.646,260.646 0 0 1 -3.819,-1.496 c -0.615,-0.248 -1.29,-0.45 -1.5,-0.45 -0.238,0 -0.381,11.913 -0.381,31.8"
       id="path30865" />
</svg>
