<?xml version="1.0" encoding="UTF-8" standalone="no"?>
<!-- Created with Inkscape (http://www.inkscape.org/) -->

<svg
   width="272.27576mm"
   height="82.321007mm"
   viewBox="0 0 272.27576 82.321007"
   version="1.1"
   id="svg5"
   sodipodi:docname="logo_stripless.svg"
   inkscape:version="1.1.1 (3bf5ae0d25, 2021-09-20)"
   xmlns:inkscape="http://www.inkscape.org/namespaces/inkscape"
   xmlns:sodipodi="http://sodipodi.sourceforge.net/DTD/sodipodi-0.dtd"
   xmlns="http://www.w3.org/2000/svg"
   xmlns:svg="http://www.w3.org/2000/svg">
  <sodipodi:namedview
     id="namedview7"
     pagecolor="#ffffff"
     bordercolor="#666666"
     borderopacity="1.0"
     inkscape:pageshadow="2"
     inkscape:pageopacity="0.0"
     inkscape:pagecheckerboard="0"
     inkscape:document-units="mm"
     showgrid="false"
     inkscape:zoom="1"
     inkscape:cx="533.5"
     inkscape:cy="154.5"
     inkscape:window-width="1920"
     inkscape:window-height="1017"
     inkscape:window-x="-8"
     inkscape:window-y="-8"
     inkscape:window-maximized="1"
     inkscape:current-layer="g655" />
  <defs
     id="defs2" />
  <g
     inkscape:label="Katman 1"
     inkscape:groupmode="layer"
     id="layer1"
     transform="translate(136.0548,-95.243508)">
    <g
       inkscape:label="Image"
       id="g15"
       transform="matrix(0.26458333,0,0,0.26458333,-694.00372,-278.61108)">
      <g
         id="g655"
         transform="translate(86.824909,-1524.1058)">
        <path
           style="fill:#aa8800;stroke-width:0.165992"
           d="m 2171.9454,3248.0785 c -26.0726,-0.8157 -51.6071,-8.3727 -74.4531,-22.0346 -16.9308,-10.1247 -32.4682,-24.1234 -44.341,-39.95 -6.0241,-8.03 -10.9726,-16.0474 -15.1631,-24.5668 -9.2225,-18.7492 -14.1188,-36.7736 -15.8047,-58.1802 -0.3364,-4.2718 -0.285,-18.2734 0.083,-22.575 1.8049,-21.1014 6.7557,-39.0599 15.7414,-57.1013 7.0474,-14.1496 15.3809,-26.1284 26.1687,-37.6156 7.4468,-7.9296 12.8629,-12.6261 24.3522,-21.1166 5.0173,-3.7079 14.7479,-9.3827 21.8655,-12.7518 18.0272,-8.5334 34.7862,-13.0052 55.4038,-14.7833 4.7445,-0.4092 17.7506,-0.4041 22.9069,0.01 21.4758,1.72 40.3616,6.939 58.6783,16.2155 21.8247,11.0531 40.3395,26.6985 55.1806,46.6288 8.3056,11.1536 15.2011,23.6994 20.2998,36.9338 3.5883,9.3139 6.455,19.8827 8.1025,29.8709 2.3012,13.9515 2.6596,27.0391 1.1436,41.7634 -2.8907,28.0766 -13.3452,54.5863 -30.5051,77.3524 -3.5284,4.6811 -7.3612,9.2273 -10.939,12.9748 -0.9357,0.9803 -1.7014,1.8606 -1.7014,1.9564 0,0.096 -0.088,0.1741 -0.1947,0.1741 -0.1071,0 -1.545,1.3278 -3.1953,2.9506 -3.5156,3.457 -4.9676,4.7649 -9.0859,8.1844 -9.3423,7.7568 -19.5889,14.4027 -30.4331,19.7387 -17.9334,8.8242 -36.2753,13.8863 -56.2713,15.53 -2.7149,0.2232 -11.787,0.5956 -13.1964,0.5417 -0.3195,-0.012 -2.4086,-0.079 -4.6422,-0.1492 z m -0.6696,-41.5223 v -27.5925 l -0.5386,0.6603 c -3.73,4.5719 -8.7863,8.9517 -13.9857,12.1143 -7.2419,4.4049 -15.4443,7.1549 -23.5708,7.9025 -1.1869,0.1092 -2.181,0.2163 -2.2092,0.2381 -0.082,0.063 1.5826,3.0032 2.6444,4.6719 7.7319,12.151 18.5556,21.5093 31.5905,27.3137 1.432,0.6376 5.6814,2.2662 5.945,2.2784 0.068,0 0.1244,-12.4108 0.1244,-27.5867 z m 14.7345,26.4954 c 7.426,-2.6881 14.8125,-6.9694 21.0369,-12.1934 5.4058,-4.537 10.5744,-10.4257 14.268,-16.2561 1.0816,-1.7073 2.7462,-4.5871 2.7462,-4.751 0,-0.035 -0.3197,-0.063 -0.7105,-0.063 -1.1326,0 -4.5257,-0.4581 -6.7692,-0.914 -9.367,-1.9034 -17.0859,-5.5228 -24.5377,-11.5058 -2.0745,-1.6657 -5.609,-5.1105 -7.0738,-6.8944 -0.6391,-0.7783 -1.218,-1.4196 -1.2864,-1.4249 -0.068,-0.01 -0.1245,12.315 -0.1245,27.3788 0,18.4365 0.055,27.3887 0.1686,27.3887 0.093,0 1.1198,-0.3443 2.2824,-0.7651 z m -45.5363,-2.3521 c -0.2796,-0.2484 -1.371,-1.216 -2.4253,-2.1504 -5.0105,-4.44 -10.0553,-10.3553 -14.1232,-16.5604 -2.0138,-3.0717 -3.2607,-5.3027 -5.2415,-9.3785 -0.9539,-1.9629 -1.745,-3.5837 -1.7579,-3.6019 -0.013,-0.018 -0.768,-0.1941 -1.678,-0.3909 -4.6998,-1.0166 -10.2139,-3.0896 -14.4359,-5.4271 -2.4618,-1.363 -6.5844,-4.1372 -8.4221,-5.6674 -0.889,-0.7403 -1.6629,-1.346 -1.7197,-1.346 -0.1355,0 -11.1052,10.8114 -11.1052,10.9449 0,0.3125 7.0005,6.326 10.3745,8.9118 13.029,9.9852 27.0203,17.475 41.996,22.4811 4.2934,1.4352 8.1992,2.6126 8.7146,2.6271 0.2861,0.01 0.2617,-0.053 -0.1763,-0.4423 z m 76.3412,-0.2963 c 11.3308,-3.2017 23.2275,-8.3573 33.9214,-14.7005 3.4975,-2.0746 9.11,-5.8286 12.2499,-8.1936 4.3402,-3.2689 5.4081,-4.1594 12.0877,-10.0785 l 0.6938,-0.6148 -5.4768,-5.4854 c -3.0123,-3.017 -5.5405,-5.4854 -5.6183,-5.4854 -0.078,0 -0.6011,0.399 -1.1629,0.8868 -2.0151,1.7494 -5.6993,4.3484 -8.3345,5.8794 -4.6975,2.7292 -10.3929,4.913 -15.9033,6.0976 l -1.3053,0.2806 -0.5944,1.3539 c -3.1222,7.1113 -7.7018,14.3362 -12.9581,20.443 -1.9898,2.3119 -6.7384,7.0143 -8.8658,8.7797 -0.9783,0.8119 -1.7788,1.5028 -1.7788,1.5354 0,0.1359 0.4948,0.023 3.0454,-0.6982 z m -140.2059,-47.7441 5.6776,-5.6757 -0.9384,-1.3375 c -2.8863,-4.1137 -5.3827,-9.1476 -7.0828,-14.2822 -0.6326,-1.9107 -1.6619,-5.9515 -1.8431,-7.2361 l -0.1072,-0.7598 -2.5565,-1.1286 c -7.8254,-3.4546 -15.4338,-8.4777 -22.1886,-14.6489 -2.3079,-2.1084 -5.8993,-5.8992 -7.7524,-8.1827 -0.5557,-0.6847 -1.0765,-1.2675 -1.1574,-1.295 -0.1572,-0.054 -0.1229,0.083 1.0747,4.2829 4.9652,17.4126 13.9289,34.8533 25.179,48.9909 1.9027,2.3909 5.7847,6.9485 5.9187,6.9485 0.054,0 2.6538,-2.5541 5.7764,-5.6758 z m 209.5551,3.2688 c 13.4978,-15.7714 23.3305,-33.9153 29.035,-53.5774 0.4519,-1.5577 0.7942,-2.8597 0.7606,-2.8933 -0.034,-0.034 -0.8361,0.8192 -1.7833,1.8951 -8.0876,9.1864 -17.9149,16.3637 -29.146,21.2868 l -2.3567,1.033 -0.1863,0.9397 c -1.3409,6.7642 -3.9139,13.184 -7.6597,19.1113 -0.7612,1.2045 -1.496,2.3765 -1.633,2.6047 -0.2478,0.4128 -0.2232,0.4402 5.4574,6.057 3.1385,3.1033 5.761,5.5808 5.8278,5.5057 0.067,-0.075 0.8247,-0.9583 1.6842,-1.9626 z m -152.5688,1.4078 c 16.3934,-2.2505 30.22,-13.8057 35.5038,-29.6712 0.6904,-2.0734 1.2617,-4.37 1.7053,-6.8553 0.3503,-1.9632 0.3712,-2.5889 0.4294,-12.8807 l 0.061,-10.8172 -0.9642,-0.1937 c -7.7526,-1.5575 -15.2921,-6.2238 -20.3263,-12.5801 -0.5576,-0.7041 -1.0684,-1.3014 -1.135,-1.3275 -0.2085,-0.082 -4.1479,3.4762 -6.1496,5.5539 -4.0758,4.2305 -7.4275,8.6201 -10.2727,13.4539 -1.3621,2.3141 -3.8477,7.3759 -4.7092,9.5903 -1.5954,4.1008 -3.2411,9.8425 -3.9286,13.7073 -1.1631,6.5378 -1.313,14.2465 -0.408,20.985 0.5747,4.2795 2.1213,11.0858 2.5912,11.4034 0.3174,0.2145 5.0154,-0.013 7.6026,-0.3681 z m 95.5464,0.2896 c 0.1714,-0.1714 1.5815,-6.1073 1.9607,-8.254 1.258,-7.1207 1.4243,-14.2981 0.4924,-21.247 -2.1879,-16.3142 -10.646,-32.0386 -23.137,-43.0135 -1.2325,-1.0829 -2.3156,-1.9659 -2.4069,-1.9621 -0.091,0 -0.5302,0.4904 -0.9752,1.0814 -2.0127,2.6724 -5.2821,5.676 -8.4478,7.7608 -3.0501,2.0086 -7.7529,4.0154 -11.1156,4.7432 -0.8885,0.1923 -1.659,0.3496 -1.7122,0.3496 -0.053,0 -0.068,4.874 -0.033,10.831 0.06,10.2992 0.082,10.9329 0.4319,12.9059 1.2266,6.9073 3.4439,12.4608 7.1245,17.8442 1.7329,2.5346 2.9525,4.0041 5.1775,6.2386 7.3575,7.3891 16.7344,11.7685 27.3114,12.7556 1.5343,0.1432 5.1758,0.1202 5.3297,-0.034 z m 14.9421,-3.2022 c 5.2413,-2.1057 10.3096,-5.5235 14.4442,-9.7405 3.5281,-3.5984 5.8811,-6.8525 8.012,-11.0806 1.2346,-2.4495 2.4543,-5.4177 2.2927,-5.5793 -0.056,-0.056 -0.7597,0.017 -1.5633,0.1623 -6.0404,1.0932 -13.2077,1.5907 -18.4851,1.283 -1.8548,-0.1082 -3.6975,-0.2412 -4.095,-0.2957 l -0.7227,-0.099 0.1313,1.8079 c 0.072,0.9943 0.125,4.2355 0.1174,7.2026 -0.015,5.8643 -0.2638,8.7819 -1.1533,13.5284 -0.5965,3.1823 -0.6312,3.4028 -0.5354,3.4028 0.046,0 0.7468,-0.2663 1.5572,-0.5919 z m -131.6331,0.1354 c -0.2469,-0.8343 -0.9779,-5.0325 -1.2599,-7.2361 -0.6845,-5.3478 -0.8473,-11.228 -0.4374,-15.7953 0.1147,-1.2781 0.1944,-2.345 0.177,-2.3708 -0.017,-0.026 -0.8446,0.03 -1.8382,0.1243 -2.7447,0.2603 -9.9088,0.2133 -12.7822,-0.084 -3.1307,-0.3237 -6.5785,-0.8202 -8.6376,-1.2439 -0.8816,-0.1814 -1.6328,-0.2999 -1.6693,-0.2634 -0.036,0.036 0.2833,0.9523 0.7108,2.035 3.1445,7.9645 8.3334,14.6463 15.3429,19.7571 2.1213,1.5466 6.0051,3.6883 8.7146,4.8055 1.5385,0.6343 1.7992,0.6765 1.6793,0.2714 z m -4.8157,-37.3893 c 2.2591,-0.1748 4.9543,-0.4715 5.3845,-0.5927 0.1411,-0.04 0.3484,-0.4261 0.4617,-0.8604 0.516,-1.9781 1.8129,-5.8412 2.7999,-8.3409 3.38,-8.5594 8.0398,-16.2362 14.4585,-23.8198 1.9292,-2.2793 7.41,-7.6655 9.5434,-9.3786 0.9664,-0.776 1.7618,-1.4544 1.7675,-1.5076 0.035,-0.3201 -5.6652,-1.7554 -8.8701,-2.2337 -2.4448,-0.3649 -8.3872,-0.3682 -11.0613,-0.01 -7.1624,0.9696 -13.0702,3.1939 -18.9833,7.1471 -6.7607,4.5198 -11.9723,10.6079 -15.2885,17.8599 -2.5591,5.5961 -3.7941,10.672 -3.9987,16.4339 l -0.098,2.752 2.4718,0.605 c 4.2275,1.0349 7.0866,1.5339 11.0203,1.9237 2.032,0.2013 7.8926,0.2117 10.392,0.018 z m 149.1265,0 c 1.3238,-0.091 3.512,-0.3175 4.8626,-0.5025 3.15,-0.4314 5.7389,-0.952 9.1223,-1.8344 l 0.6224,-0.1624 v -1.446 c 0,-3.1446 -0.763,-8.1848 -1.7401,-11.5535 -1.0877,-3.7496 -3.1357,-8.2299 -5.2439,-11.4715 -3.9232,-6.0323 -9.302,-11.0516 -15.7035,-14.6539 -8.8411,-4.9749 -19.7999,-6.6259 -30.0064,-4.5205 -2.9439,0.6073 -6.0637,1.5786 -5.8021,1.8065 0.083,0.073 1.0336,0.8637 2.1116,1.7581 10.0242,8.3163 18.5107,19.986 23.4865,32.2959 0.8188,2.0259 2.6576,7.3562 3.013,8.7346 0.2072,0.8034 0.1216,0.7707 2.997,1.1451 4.1087,0.5349 8.3628,0.675 12.2824,0.4045 z m 28.4767,-8.1987 c 14.9251,-7.8994 26.9912,-21.7171 32.9891,-37.7777 0.3239,-0.8674 0.6403,-1.7824 0.7031,-2.0334 l 0.1142,-0.4565 h -29.0666 c -15.9867,0 -29.0651,0.056 -29.0631,0.1245 0,0.068 0.2865,0.3245 0.6323,0.569 0.3458,0.2444 1.558,1.2586 2.6938,2.2538 10.6633,9.343 17.4507,22.3505 18.9248,36.2684 0.1136,1.0727 0.2444,1.9504 0.2907,1.9504 0.046,0 0.848,-0.4043 1.7817,-0.8985 z m -213.4727,-0.72 c 0.1883,-2.1329 0.8784,-5.9607 1.5035,-8.3397 3.1327,-11.9212 10.0427,-22.4577 19.6431,-29.9523 l 1.3958,-1.0896 h -28.844 -28.844 l 0.1089,0.4337 c 0.2607,1.039 2.0633,5.3579 3.3358,7.9925 5.4456,11.2746 13.686,20.816 24.146,27.9583 2.2668,1.5478 6.9299,4.2707 7.331,4.2808 0.061,0 0.1614,-0.5762 0.2239,-1.2837 z m 109.8035,-23.2076 c 4.5446,-0.8621 8.6567,-3.0536 11.9499,-6.3686 4.4021,-4.4311 6.6672,-9.7881 6.6726,-15.7811 0.01,-6.4051 -2.2432,-11.8684 -6.7347,-16.3591 -2.6362,-2.6358 -5.5849,-4.468 -8.9416,-5.556 -13.2925,-4.3085 -27.3291,4.2661 -29.6002,18.082 -0.3636,2.2112 -0.2508,6.2005 0.2351,8.3149 1.4794,6.439 5.4406,11.8277 11.0845,15.0789 2.2993,1.3246 5.6889,2.4419 8.6098,2.8381 1.5243,0.2068 5.0001,0.078 6.7246,-0.2491 z m -88.8078,-28.5883 c 0,-0.072 -0.7982,-0.763 -1.7739,-1.5354 -2.346,-1.8574 -6.6058,-6.0982 -8.4138,-8.3762 -6.7628,-8.521 -10.9816,-18.6045 -12.1401,-29.0157 l -0.1071,-0.963 -0.9414,0.5288 c -12.9879,7.2939 -24.1613,19.6494 -30.0847,33.2677 -0.8769,2.0159 -2.3123,5.7836 -2.3123,6.0692 0,0.096 10.6656,0.1555 27.8867,0.1555 15.3376,0 27.8866,-0.059 27.8866,-0.1309 z m 225.9154,-0.1312 c 0,-0.053 -0.3825,-1.1173 -0.8501,-2.3654 -5.2248,-13.9469 -15.0068,-26.1586 -27.6175,-34.4772 -2.3316,-1.538 -6.3968,-3.8954 -6.7174,-3.8954 -0.094,0 -0.1717,0.2801 -0.1722,0.6225 0,1.0455 -0.6494,5.1423 -1.1879,7.5111 -2.6891,11.8302 -9.3895,22.7219 -18.8133,30.5818 -1.0955,0.9137 -2.1012,1.7642 -2.2349,1.89 -0.2065,0.1943 4.1052,0.2287 28.6751,0.2287 15.905,0 28.9182,-0.043 28.9182,-0.096 z m -186.1939,-1.6358 c 3.0861,-0.4985 7.1685,-1.5674 9.0586,-2.3717 l 0.7252,-0.3086 -0.6422,-0.488 c -0.3533,-0.2683 -1.3146,-1.0857 -2.1363,-1.8163 -8.5459,-7.5992 -15.062,-16.1748 -19.9326,-26.233 -2.091,-4.318 -3.945,-9.1447 -5.0666,-13.1904 -0.1907,-0.688 -0.4078,-1.3154 -0.4823,-1.3943 -0.2914,-0.3081 -5.1764,-0.7843 -9.0448,-0.8816 -7.5336,-0.1896 -13.4181,0.6232 -21.3715,2.9519 l -1.1205,0.3281 v 1.4464 c 0,2.7788 0.6824,7.2774 1.5835,10.4382 1.2104,4.2464 3.2579,8.6837 5.692,12.3362 7.1709,10.7595 18.4291,17.6973 31.4007,19.3501 2.3215,0.2958 9.0886,0.1961 11.3368,-0.167 z m 100.0914,0.1559 c 12.8371,-1.5016 24.3626,-8.6242 31.5203,-19.4789 3.4594,-5.2462 5.6557,-10.9227 6.6817,-17.2699 0.3244,-2.007 0.6483,-6.3937 0.5219,-7.0677 -0.093,-0.4957 -0.1653,-0.5391 -1.4659,-0.8795 -6.4497,-1.6881 -11.577,-2.2891 -18.3491,-2.1509 -3.6014,0.073 -8.8894,0.4767 -9.1273,0.696 -0.026,0.024 -0.3381,1.0064 -0.6931,2.1828 -4.7306,15.6765 -14.0238,29.6653 -26.8141,40.3623 -0.8217,0.6871 -1.5176,1.3086 -1.5464,1.381 -0.1726,0.4333 7.1916,2.0885 10.51,2.3622 1.9553,0.1614 6.8667,0.084 8.762,-0.1374 z m -24.1993,-14.1813 c 3.2439,-2.7515 7.5601,-7.3581 10.2054,-10.8921 13.4611,-17.9833 17.6709,-40.6296 11.4004,-61.3265 -0.2253,-0.7438 -0.2304,-0.7476 -1.1933,-0.9027 -1.3938,-0.2246 -6.4749,0.129 -9.291,0.6466 -15.7137,2.8878 -28.6675,14.1601 -33.6759,29.3047 -0.9266,2.8019 -1.3563,4.5627 -1.8634,7.6357 -0.2458,1.4893 -0.2974,3.2913 -0.3546,12.384 l -0.067,10.6411 1.0493,0.2009 c 7.5966,1.455 15.2508,6.1922 20.3458,12.5921 1.0791,1.3554 1.266,1.521 1.5081,1.3357 0.1519,-0.1164 1.0233,-0.8452 1.9362,-1.6195 z m -58.1987,0 c 1.2744,-1.6179 4.1462,-4.4137 5.919,-5.7621 2.632,-2.0022 5.7245,-3.7565 8.5681,-4.8607 l 1.4382,-0.5585 0.7468,-1.9257 c 3.0503,-7.8647 3.891,-15.3962 2.6055,-23.3437 -2.058,-12.7236 -9.766,-23.9374 -21.1034,-30.7018 -5.9572,-3.5544 -13.3615,-5.7529 -19.9682,-5.9292 l -1.8104,-0.048 -0.561,1.992 c -3.24,11.5037 -3.3153,23.9609 -0.2166,35.8543 3.2226,12.3685 9.705,23.4474 19.1982,32.8108 1.6149,1.5928 3.9911,3.7703 4.1347,3.789 0.01,0 0.4783,-0.5915 1.0491,-1.3161 z m -110.0868,-14.6591 c 7.6068,-9.351 18.1972,-17.6073 28.9071,-22.5361 l 1.7527,-0.8066 0.3662,-1.8777 c 1.7322,-8.882 5.3941,-17.0078 10.7578,-23.8718 l 1.1025,-1.411 -5.2742,-5.1814 -5.2742,-5.1814 -0.7116,0.7826 c -5.6675,6.2336 -11.0581,13.2872 -15.4121,20.1663 -7.7005,12.1668 -13.8595,26.1744 -17.3333,39.4212 -0.281,1.0715 -0.5482,2.079 -0.5938,2.2388 -0.046,0.1597 -0.051,0.2905 -0.012,0.2905 0.039,0 0.8152,-0.9151 1.725,-2.0334 z m 275.1791,-2.9054 c -4.0167,-13.9129 -10.0738,-27.0173 -18.0875,-39.1322 -4.3007,-6.5017 -7.6346,-10.8056 -13.8074,-17.8249 l -0.5278,-0.6002 -5.6124,5.5607 c -3.0868,3.0584 -5.6351,5.5704 -5.663,5.5822 -0.028,0.012 0.573,0.8759 1.3352,1.9201 4.376,5.9952 7.68,13.3636 9.2966,20.7331 l 0.5372,2.4489 1.6599,0.701 c 7.3666,3.111 15.4292,8.2452 21.9944,14.0058 2.1029,1.8452 6.885,6.7501 8.4652,8.6825 0.6847,0.8374 1.2699,1.4501 1.3004,1.3616 0.03,-0.088 -0.3703,-1.6358 -0.8908,-3.4386 z m -226.076,-26.1832 c 5.2087,-0.9611 7.2335,-1.1402 13.0304,-1.1522 2.9671,-0.01 6.3192,0.05 7.449,0.1244 l 2.0542,0.1357 -0.097,-0.3858 c -0.053,-0.2121 -0.1778,-2.1794 -0.2767,-4.3717 -0.289,-6.4066 0.1653,-12.4411 1.4174,-18.8254 0.3121,-1.5919 0.5365,-2.9255 0.4986,-2.9634 -0.1198,-0.1199 -2.2541,0.6437 -4.406,1.5764 -8.9757,3.8901 -16.1902,10.4594 -21.1514,19.2598 -1.2193,2.1628 -3.2494,6.8527 -3.2494,7.5065 0,0.077 0.5415,0 1.2034,-0.1682 0.6619,-0.169 2.2492,-0.5003 3.5273,-0.7361 z m 179.3738,-0.707 c -3.7355,-10.1123 -11.219,-18.6394 -20.7682,-23.6642 -2.0315,-1.069 -4.28,-2.0313 -4.4198,-1.8916 -0.053,0.054 0.094,1.0542 0.3269,2.2238 1.1197,5.6129 1.5327,10.6597 1.3695,16.7338 -0.064,2.3737 -0.1713,4.7878 -0.2389,5.3646 -0.068,0.5769 -0.082,1.0695 -0.033,1.0948 0.05,0.025 0.7998,-0.017 1.6671,-0.094 2.9549,-0.2626 9.997,-0.2162 13.0303,0.086 2.5619,0.2552 8.8649,1.21 9.0328,1.3683 0.038,0.036 0.168,0.065 0.2888,0.065 0.16,0 0.091,-0.3483 -0.2557,-1.2864 z m -97.3312,-60.6883 -0.042,-14.1953 -2.4069,0.9086 c -2.6752,1.0099 -7.1298,3.1296 -9.8939,4.708 -8.9377,5.1038 -17.5524,13.0817 -23.1534,21.442 -2.2119,3.3015 -4.2826,6.8571 -4.0998,7.0399 0.046,0.046 1.122,0.2359 2.3901,0.421 14.1394,2.0637 26.5081,9.1062 35.676,20.3134 l 1.4879,1.8188 0.042,-14.1306 c 0.024,-7.7718 0.024,-20.5184 0,-28.3258 z m 14.1067,38.8926 c 6.9021,-8.0213 16.6694,-14.158 27.099,-17.0263 3.6423,-1.0016 8.7129,-1.8836 10.8665,-1.8902 0.4603,0 0.9286,-0.061 1.0407,-0.132 0.1463,-0.093 -0.1834,-0.7831 -1.1685,-2.4458 -3.9985,-6.7497 -8.5551,-12.2591 -14.4726,-17.4991 -5.2395,-4.6396 -11.4514,-8.6742 -17.5952,-11.4281 -1.9314,-0.8657 -6.3269,-2.5851 -7.0962,-2.7757 l -0.4564,-0.1131 v 27.5866 c 0,15.1725 0.062,27.5616 0.1375,27.5311 0.076,-0.03 0.8159,-0.8438 1.6452,-1.8074 z m 88.766,-17.5821 c 0,-0.3195 -6.389,-5.6964 -10.0425,-8.4515 -12.7495,-9.6144 -26.4255,-16.8286 -41.415,-21.8468 -3.4978,-1.1709 -7.8833,-2.4627 -7.992,-2.3541 -0.039,0.039 0.8101,0.8457 1.8859,1.7936 8.926,7.8639 16.3361,17.707 20.9611,27.8431 l 1.1091,2.4308 2.5584,0.6748 c 3.0698,0.8097 4.2408,1.1909 6.916,2.2517 4.6877,1.8588 9.642,4.6837 13.7356,7.8319 l 1.1619,0.8936 5.5608,-5.4832 c 3.0584,-3.0158 5.5607,-5.5285 5.5607,-5.5839 z m -180.1845,8.7402 c 4.7683,-3.3751 10.6054,-6.2107 16.2672,-7.9027 2.3924,-0.7149 5.3536,-1.4167 6.7403,-1.5973 l 0.8475,-0.1105 0.7042,-1.6002 c 3.0856,-7.0119 8.1491,-14.901 13.4257,-20.918 1.9488,-2.2222 5.8926,-6.0833 8.1254,-7.955 1.0303,-0.8637 1.8479,-1.5957 1.8168,-1.6268 -0.1743,-0.1744 -9.3231,2.61 -13.0688,3.9775 -13.568,4.9533 -25.8282,11.5801 -37.1569,20.0838 -2.7592,2.0712 -6.971,5.5049 -9.3782,7.6456 l -1.1362,1.0105 5.3684,5.2544 5.3683,5.2543 0.4157,-0.3172 c 0.2286,-0.1745 0.9759,-0.7138 1.6606,-1.1984 z m 738.6652,248.442 c -9.763,-1.1512 -15.0662,-6.2281 -19.0812,-18.2673 -2.0045,-6.0103 -2.7703,-7.5375 -4.2292,-8.4338 -0.7493,-0.4604 -0.9385,-0.5019 -2.2409,-0.4921 -1.2292,0.01 -1.6023,0.087 -2.7467,0.5707 -1.5075,0.6375 -4.0872,2.3161 -5.8453,3.8034 -0.6566,0.5555 -1.2282,1.01 -1.27,1.01 -0.042,0 -0.3888,-0.5401 -0.9543,-1.0138 l -0.8783,-1.0137 0.8203,-0.7283 c 3.2951,-2.9256 6.7879,-4.8246 10.3734,-5.6401 1.0921,-0.2484 1.1534,-0.2872 1.1534,-0.7299 0,-0.4619 -0.017,-0.4699 -1.4524,-0.6664 -7.3172,-1.0019 -13.6603,-3.2087 -18.5496,-6.4536 -9.2318,-6.1269 -14.9953,-16.2015 -16.9153,-29.5681 -0.8719,-6.0691 -0.9098,-14.8541 -0.09,-20.915 1.1791,-8.7213 3.6436,-15.8623 7.5327,-21.8269 6.4544,-9.8991 15.8245,-15.83 28.1469,-17.8158 8.3529,-1.3461 18.5381,-0.8583 25.7623,1.2339 5.8559,1.6959 10.7974,4.3686 14.7872,7.9981 9.9042,9.0097 14.6639,23.6198 13.8907,42.6373 -0.5791,14.2437 -3.9692,24.28 -10.8564,32.1401 -5.7109,6.5177 -15.1657,11.128 -25.9733,12.1279 l -1.7583,0.1934 v 0.5767 0.5768 l 1.494,0.2107 c 4.679,0.6601 7.8724,2.0402 10.4269,4.5059 2.334,2.253 3.8114,4.7717 5.416,9.2335 0.5582,1.552 1.453,3.7182 1.9886,4.8138 1.5311,3.1323 2.6896,4.0587 5.2493,4.1981 1.1191,0.061 1.4753,0.013 2.1956,-0.2971 1.4186,-0.6102 2.6492,-2.1853 3.3516,-4.2897 0.4215,-1.2627 1.3816,-3.7044 1.0852,-5.1791 l 0.1136,-1.0859 1.1048,0.123 c 0.6077,0.068 1.2355,0.1268 1.3953,0.1314 0.2392,0.01 0.2899,0.1627 0.2872,0.88 -0.01,2.0204 -0.69,5.1904 -1.5628,7.26 -0.6168,1.4622 -1.722,3.216 -2.7669,4.3901 -2.3461,2.6363 -6.3237,4.7076 -10.5601,5.499 -1.4015,0.2617 -7.4386,0.4685 -8.8438,0.3028 z m -13.1341,-33.6974 c 4.4266,0 7.5204,-3.113 9.4654,-6.9939 1.8209,-3.6333 3.0336,-10.462 3.6774,-20.707 0.2762,-4.3963 0.3904,-25.4913 0.1763,-32.5762 -0.4378,-14.4879 -1.1545,-19.5702 -3.4131,-24.2047 -2.5254,-5.1816 -5.3926,-7.2328 -11.0415,-7.8991 -1.9116,-0.2254 -5.6194,-0.095 -7.2264,0.2548 -3.8265,0.8321 -5.8602,2.1999 -7.9282,5.332 -2.9688,4.4964 -4.2262,9.1395 -4.7667,17.6016 -0.6618,10.3614 -0.6614,36.8103 0,45.6414 0.4704,6.275 1.359,10.8818 2.8397,14.7212 0.9629,2.4969 3.2937,5.4309 5.3431,6.7259 3.5157,2.2214 7.9762,2.104 12.8734,2.104 z m -402.8423,2.9076 c -10.607,-0.6922 -19.6376,-3.8551 -26.4395,-9.2604 -10.0494,-7.9858 -15.0553,-20.8241 -15.0553,-38.6113 0,-13.8527 3.1592,-24.9678 9.4997,-33.4232 1.5471,-2.0632 4.7336,-5.3426 6.8473,-7.047 6.8417,-5.5169 14.9763,-8.6371 24.9818,-9.5823 2.4161,-0.2282 9.1895,-0.229 11.3705,0 3.9367,0.411 6.7177,0.9336 12.0888,2.2713 6.0946,1.518 7.8076,1.8407 8.7882,1.6555 0.7632,-0.144 1.576,-0.8324 2.2818,-1.9322 0.4833,-0.7532 0.5851,-0.8254 1.1631,-0.8254 h 0.6335 l 0.092,1.0374 c 0.05,0.5706 0.2797,6.7144 0.5096,13.6529 0.23,6.9384 0.6365,13.1322 0.5038,13.7359 l 0.086,1.1204 h -1.2349 c -1.1365,0 -1.244,-0.03 -1.3481,-0.3735 -0.062,-0.2054 -0.9213,-2.0168 -1.9091,-4.0253 -4.9053,-9.9734 -9.7956,-16.7855 -14.5883,-20.3212 -4.8435,-3.5731 -10.8959,-4.5789 -16.531,-2.747 -7.8485,2.5513 -12.7026,10.8715 -14.5868,25.0025 -0.7612,5.7091 -0.8467,7.7608 -0.8467,20.3087 0,12.7589 0.1124,15.0897 1.0023,20.7732 2.0645,13.1857 6.8369,21.7045 13.8602,24.741 2.462,1.0644 3.5618,1.2689 6.8825,1.2796 3.2349,0.011 3.8407,-0.092 6.4115,-1.0817 5.2894,-2.0369 10.9319,-7.8878 15.8336,-16.4184 1.4095,-2.4531 4.232,-6.9529 4.9747,-9.8312 l 0.7924,-1.7844 h 1.1407 1.1406 v 1.1205 c 0,0.6162 -0.187,7.0214 -0.4136,14.2338 -0.2265,7.2123 -0.4126,13.5429 -0.4133,14.0678 v 0.9545 h -0.7312 c -0.6844,0 -0.7579,-0.045 -1.1472,-0.7055 -0.5093,-0.8638 -1.2042,-1.539 -1.8258,-1.7738 -1.1224,-0.4241 -2.3539,-0.2305 -9.8242,1.5449 -8.9465,2.1262 -15.8735,2.7746 -23.9859,2.2452 z m 500.8814,0.084 c -0.3669,0 -1.5229,-0.1424 -2.5728,-0.2374 -2.7524,-0.2489 -4.1026,-0.45 -6.7227,-1.0008 -10.609,-2.2306 -17.8172,-7.1801 -21.4355,-14.719 -0.9445,-1.9678 -2.0778,-5.4022 -2.5381,-7.6914 -0.9602,-4.775 -0.5417,-2.576 -1.0006,-38.0013 l -0.091,-32.6175 -3.7764,-0.045 -3.7763,-0.045 v -1.2418 -1.2419 h 21.496 21.496 v 1.2423 1.2422 l -4.4403,0.044 -4.4403,0.044 -0.048,32.0364 c -0.049,32.4182 0,36.0687 0.5604,39.953 0.9312,6.4842 3.3731,11.8647 6.5022,14.3267 1.7496,1.3768 4.4051,2.5729 6.9739,3.1412 1.613,0.3569 6.0666,0.6476 7.9225,0.5172 6.4764,-0.4552 11.5223,-2.7611 15.1172,-6.9083 2.5889,-2.9864 4.181,-6.4807 5.2053,-11.4239 0.8469,-4.0867 1.1943,-3.6845 0.8399,-38.9004 v -32.8249 h -4.3988 -4.3988 v -1.245 -1.2449 h 9.8766 9.8765 v 1.2449 1.245 h -3.7348 -3.7349 v 31.746 c 0,20.0707 -0.063,32.5701 -0.1702,33.9868 -0.5096,6.7232 -1.997,12.2014 -4.4497,16.3896 -4.145,7.0778 -10.5336,10.5797 -21.7724,11.9344 -1.9559,0.2358 -10.7982,0.2936 -12.3665,0.2936 z m -444.776,-2.6397 v -1.411 h 4.0668 4.0668 v -44.9008 -44.9009 h -4.0668 -4.0668 v -1.494 -1.4939 h 24.5668 24.5669 v 1.4939 1.494 h -7.304 -7.304 l 0.042,44.8593 0.042,44.8594 3.6519,-0.02 c 6.3395,-0.035 9.8579,-0.7155 13.7514,-2.6588 2.4743,-1.2348 3.7371,-2.1534 5.9769,-4.3474 4.1228,-4.0384 10.0219,-10.4841 13.2014,-19.9058 l 1.0182,-2.0334 h 1.3267 c 1.3257,0 1.3266,0 1.3266,0.4415 0,0.2429 -0.5602,7.3046 -1.2449,15.6928 -0.6847,8.3881 -1.245,15.3603 -1.245,15.4937 0,0.2119 -4.5597,0.2425 -36.1863,0.2425 h -36.1863 z m 88.1418,0.1691 v -1.2418 l 3.7763,-0.045 3.7764,-0.045 v -45.2328 -45.2329 l -3.7764,-0.045 -3.7763,-0.045 v -1.2418 -1.2419 h 20.749 20.7491 v 1.245 1.2449 h -3.7349 -3.7348 v 45.3159 45.3159 h 3.7348 3.7349 v 1.2449 1.2449 h -20.7491 -20.749 z m 54.6115,0 v -1.2449 h 3.8178 3.8178 v -45.3159 -45.3159 h -3.8178 -3.8178 v -1.2449 -1.2449 h 18.8131 18.8132 l 17.8109,34.1529 c 9.796,18.784 17.8753,34.2238 17.9541,34.3105 0.08,0.088 0.3293,-14.3647 0.1432,-32.9079 v -33.0657 h -3.7348 -3.7349 v -1.2449 -1.2449 h 9.2956 9.2956 v 1.2449 1.2449 h -3.7348 -3.7349 v 46.5622 46.5621 l -9.559,-0.043 -9.5589,-0.043 -12.9842,-24.4838 c -7.1413,-13.4662 -17.6355,-33.2607 -23.3205,-43.988 -5.6851,-10.7272 -10.4052,-19.575 -10.4893,-19.6617 -0.093,-0.096 0.049,16.6024 -0.153,42.7844 v 42.9422 h 3.7348 3.7349 v 1.2449 1.245 h -9.2956 -9.2955 z m 97.7694,0 v -1.2449 h 3.7348 3.7348 v -45.3159 -45.3159 h -3.7348 -3.7348 v -1.2449 -1.2449 h 20.749 20.749 v 1.2449 1.2449 h -3.7348 -3.7349 v 45.3159 45.3159 h 3.7349 3.7348 v 1.2449 1.245 h -20.749 -20.749 z m 261.9356,-0.166 v -1.4109 h 3.9839 3.9838 v -44.9009 -44.9009 h -3.9838 -3.9839 v -1.4939 -1.4939 h 35.4394 35.4393 v 0.4564 c 0,0.2511 0.2989,6.2828 0.6625,13.4039 0.3637,7.121 0.6618,13.0067 0.6626,13.0792 0,0.072 -0.5298,0.1098 -1.179,0.083 l -1.1805,-0.049 -1.1058,-2.4899 c -1.8809,-4.2352 -4.0394,-8.1311 -6.1155,-11.0385 -4.0469,-5.667 -8.1771,-8.3596 -14.8918,-9.7086 -2.7057,-0.5436 -5.2945,-0.7452 -9.5959,-0.7472 h -3.6106 v 21.182 21.182 l 3.6933,-0.082 c 4.2362,-0.094 4.7876,-0.2021 7.3452,-1.4418 4.6124,-2.2359 8.1944,-7.3202 10.1203,-14.3647 l 0.5445,-1.9919 0.9338,-0.05 0.9338,-0.05 v 20.1764 20.1763 h -1.0726 -1.0725 l -0.1848,-0.7055 c -2.4506,-9.3541 -5.4691,-14.267 -10.2025,-16.6056 -2.4189,-1.1951 -4.5927,-1.6121 -8.4044,-1.6121 h -2.6341 v 22.0205 22.0204 l 4.0253,-0.1078 c 5.8962,-0.1579 9.0219,-0.6334 12.8574,-1.9559 4.5367,-1.5643 8.5802,-4.185 12.1716,-7.8885 4.4319,-4.5703 7.6789,-10.0808 9.4008,-15.9538 l 0.3041,-1.0372 h 1.2864 c 1.2237,0 1.2864,0.018 1.2859,0.3733 0,0.2054 -0.2241,6.5359 -0.4974,14.0678 -0.2733,7.5319 -0.4972,14.0492 -0.4974,14.4828 v 0.7885 h -37.4313 -37.4312 v -1.4109 z m -418.0513,-132.5491 c -11.3685,-0.6851 -20.8563,-4.2904 -27.2904,-10.3701 -5.0606,-4.7818 -8.8617,-11.5 -10.8945,-19.2551 -2.4577,-9.3759 -2.8398,-21.7735 -0.9832,-31.9054 2.3873,-13.028 8.7339,-23.2879 18.3361,-29.6421 8.9286,-5.9085 21.5331,-8.2251 35.3563,-6.4984 8.8035,1.0997 16.6241,4.5072 22.3156,9.7232 3.787,3.4706 7.5114,9.0706 9.6366,14.4897 4.9475,12.6155 5.391,31.8062 1.0493,45.4022 -2.3848,7.4678 -6.5097,13.9924 -11.6322,18.3991 -8.4438,7.2638 -20.7342,10.5705 -35.8936,9.6569 z m 8.3291,-2.8317 c 2.7717,-0.3849 5.3125,-1.4854 7.2121,-3.1241 3.8647,-3.3337 5.6465,-9.87 6.6331,-24.3334 0.2755,-4.0383 0.3889,-26.8781 0.1674,-33.739 -0.5069,-15.706 -1.4579,-20.8732 -4.7615,-25.8725 -1.5508,-2.3469 -3.4185,-3.8135 -5.8777,-4.6153 -2.2322,-0.7278 -3.085,-0.8397 -6.3907,-0.8383 -4.7173,0 -7.4107,0.6669 -9.7262,2.401 -1.6591,1.2425 -3.4056,3.6961 -4.8194,6.7709 -1.5094,3.2825 -2.3877,7.8024 -2.7992,14.4046 -0.6394,10.2582 -0.6389,36.1978 0,45.0574 0.4798,6.6447 1.6884,12.583 3.2163,15.8027 2.0833,4.3901 5.8759,7.1835 10.9737,8.0827 1.1986,0.2114 4.6587,0.2132 6.1712,0 z m 126.2906,2.9038 c 0,-5.9628 -9.7315,-1.7539 -12.5928,-4.3239 -2.2683,-2.0375 -3.7397,-5.1247 -4.6564,-9.7701 -0.6718,-3.404 -0.7929,-5.4501 -0.9233,-15.6033 -0.1059,-8.2418 -0.1761,-10.2136 -0.407,-11.4325 -0.7775,-4.1046 -2.0655,-6.3767 -4.2445,-7.4877 -1.7219,-0.878 -2.267,-0.9561 -7.2621,-1.0401 l -4.6893,-0.079 v 23.0085 23.0085 h 4.3988 4.3988 v 1.2449 1.2449 h -22.077 -22.0769 v -1.2449 -1.2449 h 4.3988 4.3987 v -45.3159 -45.3159 h -4.3987 -4.3988 v -1.2449 -1.245 l 20.0435,0.01 c 27.6137,0.01 35.4779,0.2132 41.7881,1.0924 5.9258,0.8256 11.2112,2.5542 14.0893,4.6079 1.8557,1.3242 3.928,3.7884 5.0428,5.9965 1.7171,3.4011 2.577,8.9712 2.1911,14.1923 -0.6383,8.6352 -3.3976,13.3121 -9.7416,16.5115 -2.8843,1.4547 -7.3362,2.6578 -11.4152,3.085 -1.0042,0.1053 -1.8538,0.2176 -1.8879,0.2498 -0.034,0.032 -0.022,0.1633 0.027,0.2914 0.052,0.1367 0.4551,0.28 0.9749,0.347 4.6023,0.5933 9.6816,2.4738 12.5051,4.6298 3.4909,2.6656 5.4484,7.2324 6.0597,14.1365 0.089,1.0077 0.1639,4.6705 0.1661,8.1398 0,8.0829 0.2407,11.7482 0.8648,13.4454 0.5663,1.5399 1.8408,2.3355 3.5249,2.2003 2.6374,-0.2116 4.0434,-2.0139 5.2213,-6.6924 0.2745,-1.0899 0.8042,-2.6454 0.7704,-3.4848 l 0.2714,-1.5032 0.9916,0.1169 c 0.5454,0.064 1.0369,0.1623 1.0923,0.2177 0.2921,0.292 -0.938,6.346 -1.8593,9.1506 -2.1555,6.562 -4.7341,8.6763 -11.9574,9.8046 -1.4751,0.2304 -8.6316,1.916 -8.6316,0.3005 z m -25.5628,-52.6695 c 5.4059,-1.4217 8.5873,-5.2438 9.8612,-11.8471 0.5691,-2.9497 0.7242,-5.7407 0.6368,-11.4615 -0.068,-4.4801 -0.1389,-5.6622 -0.4365,-7.3211 -1.1777,-6.5643 -3.4417,-9.1176 -9.3138,-10.5035 -1.5255,-0.36 -2.2578,-0.4228 -5.852,-0.5016 l -4.1083,-0.09 v 21.1216 21.1216 l 3.9423,-0.084 c 3.2886,-0.071 4.1625,-0.1424 5.2703,-0.4338 z m -293.8892,49.9459 v -1.4939 h 4.0668 4.0668 v -44.8179 -44.8179 h -4.0668 -4.0668 v -1.4939 -1.494 h 35.5223 35.5223 v 0.7742 c 0,0.963 1.1122,24.3629 1.2476,26.2485 l 0.099,1.3769 -1.1867,-0.049 -1.1867,-0.049 -0.8718,-2.3239 c -3.4338,-9.1521 -6.9585,-14.7287 -11.4864,-18.1733 -1.1239,-0.855 -4.5738,-2.6446 -5.7039,-2.9589 -0.3196,-0.089 -1.2533,-0.3597 -2.075,-0.6018 -2.7316,-0.8048 -5.3513,-1.1126 -10.4989,-1.2067 l -4.6893,-0.092 v 22.2837 22.2837 l 4.3573,-0.085 c 4.6095,-0.09 5.0703,-0.1554 7.4719,-1.0569 4.8907,-1.8357 9.1164,-7.623 10.8585,-14.8709 l 0.4682,-1.948 h 0.9544 0.9545 v 20.1756 20.1756 l -1.0914,-0.049 -1.0915,-0.049 -0.6384,-2.4899 c -2.463,-9.6052 -5.9337,-14.2936 -11.7635,-15.8909 -1.105,-0.3026 -1.858,-0.3564 -5.8737,-0.4188 l -4.6063,-0.072 v 20.8476 20.8475 h 8.4656 8.4656 v 1.4939 1.4939 h -25.8118 -25.8118 v -1.4939 z m 87.6439,0.249 v -1.2449 h 3.7348 3.7348 v -45.3159 -45.3159 h -3.7348 -3.7348 v -1.2449 -1.245 h 20.749 20.749 v 1.245 1.2449 h -3.7348 -3.7348 v 45.3159 45.3159 h 3.7348 3.7348 v 1.2449 1.2449 h -20.749 -20.749 z m 266.4174,-0.249 v -1.4939 h 3.9838 3.9839 v -44.8179 -44.8179 h -3.9839 -3.9838 v -1.4939 -1.494 h 35.4239 35.4238 l 0.1049,1.5355 c 0.1345,1.9701 1.2536,24.2671 1.2539,24.9818 v 0.5395 h -1.1342 -1.1341 l -1.2071,-2.7264 c -3.6147,-8.1646 -7.7535,-14.0612 -11.9849,-17.0746 -2.9035,-2.0678 -7.3761,-3.5565 -12.2954,-4.0923 -0.8865,-0.097 -3.4822,-0.1756 -5.7682,-0.1756 h -4.1563 v 21.164 21.164 h 2.8756 c 5.9074,0 8.8756,-1.0736 12.1466,-4.3936 1.6179,-1.642 2.8037,-3.3341 3.9888,-5.6915 0.7979,-1.5872 3.0149,-5.1852 2.5741,-7.1366 l 0.1726,-0.7055 h 0.9065 0.9066 v 20.1681 20.1681 h -1.0587 -1.0588 l -0.2782,-1.1205 c -1.7974,-7.2393 -4.7071,-12.6277 -8.1291,-15.0543 -2.9344,-2.0808 -6.1536,-2.9139 -11.2616,-2.9142 l -1.7843,-2e-4 v 21.994 21.994 h 3.8244 c 6.1423,0 9.9321,-0.5845 14.0033,-2.1596 7.1413,-2.763 13.4779,-8.585 17.5348,-16.111 1.241,-2.3022 1.657,-3.2615 2.658,-6.1303 l 0.7819,-2.2409 1.2648,-0.048 1.2649,-0.049 v 1.0444 c 0,0.5745 -0.224,7.1322 -0.4963,14.5728 -0.2723,7.4406 -0.4959,13.6591 -0.4968,13.8189 0,0.2757 -1.8954,0.2904 -37.4329,0.2904 h -37.4313 v -1.4939 z"
           id="path657"
           sodipodi:nodetypes="csssssssscsssssssssssssssccscsssssssssssssssscssssssssssssssssssssscssssscsssssscssscssssssssssssscsssssscssscssssssssscsssssssssssssssssssssscscssssssssssssssscssssssscssscssccsssccsssssssssssssscsssssssssscccssscssssssssssssssscssssssssscssssssscssssssscsssssssssssscscsssssscssscssssssscsssscssscssscsscccsssssssssscsscscsssssccscssssssscccsssssssssscscsssscscsscscssssscsscsssssscssscssssscssssssscccsssssssssscsssssssssssssscccsssssssscsssssssssssssssscsssscssssscsssscssscsssssssssssssccccsccssssccsssssscccccccccccsssssssscccccccccccssssssccccccccccccccccccsssscssssscccccccccccccccccccccccccccccccccccccccssscccccccccccccccssssccccccccccccccccccccccccccccccccccccccccccccccscscsssscccssscccccccssscccsssscscsccccccssssssssssscssssssssscssccssssssscccccccccccccccccccssssssssssssssssscsssssssssssscccssccccccccccccsscccssssscccssscccccccsssccccccccccccccccccccccccccccccccccccccccccccccccsccccsssscccsssscccccccssscccssssccccsssccc" />
      </g>
      <path
         style="fill:#000000"
         id="path137"
         d="" />
      <path
         style="fill:#000000"
         id="path117"
         d="" />
    </g>
  </g>
</svg>
