<?xml version="1.0" encoding="UTF-8" standalone="no"?>
<!-- Created with Inkscape (http://www.inkscape.org/) -->

<svg
   width="100.08241mm"
   height="100.09225mm"
   viewBox="0 0 100.08241 100.09225"
   version="1.1"
   id="svg5"
   inkscape:version="1.1.1 (3bf5ae0d25, 2021-09-20)"
   sodipodi:docname="logo.svg"
   xmlns:inkscape="http://www.inkscape.org/namespaces/inkscape"
   xmlns:sodipodi="http://sodipodi.sourceforge.net/DTD/sodipodi-0.dtd"
   xmlns="http://www.w3.org/2000/svg"
   xmlns:svg="http://www.w3.org/2000/svg">
  <sodipodi:namedview
     id="namedview7"
     pagecolor="#ffffff"
     bordercolor="#666666"
     borderopacity="1.0"
     inkscape:pageshadow="2"
     inkscape:pageopacity="0.0"
     inkscape:pagecheckerboard="0"
     inkscape:document-units="mm"
     showgrid="false"
     inkscape:zoom="1"
     inkscape:cx="64.5"
     inkscape:cy="75.5"
     inkscape:window-width="1920"
     inkscape:window-height="1017"
     inkscape:window-x="-8"
     inkscape:window-y="-8"
     inkscape:window-maximized="1"
     inkscape:current-layer="g15" />
  <defs
     id="defs2" />
  <g
     inkscape:label="Katman 1"
     inkscape:groupmode="layer"
     id="layer1"
     transform="translate(-53.530796,-131.93715)">
    <g
       inkscape:label="Image"
       id="g15"
       transform="matrix(0.26458333,0,0,0.26458333,-694.00372,-278.61108)">
      <path
         style="fill:#000000"
         id="path137"
         d="" />
      <path
         style="fill:#000000"
         id="path117"
         d="" />
      <path
         style="fill:#aa8800;stroke-width:0.821668"
         d="m 2999.5817,1920.8132 c -31.1507,-3.2476 -59.4276,-13.1864 -83.8103,-29.4576 -43.1963,-28.8258 -70.9321,-72.5887 -79.022,-124.6845 -1.9182,-12.3519 -1.891,-38.5454 0.052,-50.771 6.3776,-40.1167 23.0423,-73.2697 51.0328,-101.5245 39.8433,-40.2195 96.5633,-58.9989 153.4667,-50.8111 71.1454,10.237 130.2207,63.7801 148.0728,134.2061 3.2039,12.6395 4.5856,22.5666 5.0963,36.6171 2.8373,78.0446 -44.3145,148.5838 -117.5022,175.7838 -19.2706,7.1619 -36.6219,10.3411 -58.4881,10.7165 -8.5864,0.1473 -17.0907,0.1137 -18.8984,-0.075 z m 8.6275,-47.1525 c 0,-17.6248 -0.2418,-32.0451 -0.5374,-32.0451 -0.2956,0 -1.7801,1.4519 -3.299,3.2264 -5.4114,6.322 -17.9534,14.4069 -26.7975,17.2744 -1.7095,0.5543 -6.2782,1.6317 -10.1527,2.3943 l -7.0446,1.3866 4.939,7.3738 c 5.5309,8.2576 14.387,17.2269 22.2385,22.5227 5.3045,3.5779 17.7485,9.8482 19.6267,9.8895 0.8046,0.018 1.027,-6.9221 1.027,-32.0226 z m 26.1045,26.7834 c 8.9137,-4.5552 19.9577,-13.8148 27.534,-23.0858 2.1707,-2.6561 7.1651,-10.5597 7.1651,-11.3385 0,-0.2613 -1.7563,-0.7145 -3.9029,-1.0073 -14.7069,-2.0057 -26.5919,-7.8214 -37.2718,-18.2386 -4.8442,-4.725 -5.4808,-5.1122 -5.8822,-3.5772 -0.6543,2.5016 -0.7661,55.018 -0.1258,59.0223 l 0.5415,3.3865 4.0279,-1.5877 c 2.2152,-0.8732 5.7767,-2.4813 7.9142,-3.5737 z m -68.5374,-5.6254 c -8.1128,-8.3974 -10.9497,-12.2333 -17.1178,-23.1444 -3.6514,-6.4594 -4.5171,-7.4548 -7.0226,-8.0743 -6.5822,-1.6279 -14.2798,-5.1182 -20.5638,-9.3244 l -6.6996,-4.4841 -3.4089,3.0442 c -6.3,5.6258 -9.7245,9.274 -9.4416,10.058 0.1546,0.4283 3.239,3.2467 6.8543,6.2634 15.1241,12.6192 34.9985,23.7573 53.4086,29.9312 5.423,1.8188 10.1917,3.3122 10.597,3.3188 0.4054,0.01 -2.5671,-3.4081 -6.6056,-7.5884 z m 103.6474,3.7414 c 11.1506,-3.7952 26.1461,-11.2165 36.5643,-18.0955 8.3053,-5.4841 23.0067,-17.1306 23.0067,-18.226 0,-0.2919 -2.8812,-3.395 -6.4027,-6.8958 l -6.4028,-6.3653 -4.4844,3.3731 c -6.1101,4.596 -13.1452,8.1188 -20.5068,10.2689 l -6.1626,1.7998 -3.1446,5.9918 c -5.061,9.6426 -9.3515,15.462 -17.7379,24.059 -8.9012,9.1244 -9.0902,8.9778 5.2708,4.09 z m -170.9808,-52.7621 6.4613,-6.4996 -1.696,-2.7444 c -3.4532,-5.5876 -6.7213,-12.9467 -8.3341,-18.7662 -0.9122,-3.2925 -1.7602,-6.0752 -1.8841,-6.1838 -0.124,-0.1086 -2.9986,-1.5852 -6.3879,-3.2812 -9.3903,-4.6989 -15.22,-8.9771 -24.4447,-17.9393 -4.6322,-4.5004 -8.4221,-7.8069 -8.4221,-7.3481 0,0.459 1.3175,4.8133 2.9276,9.6766 6.9324,20.9371 17.1636,39.4606 30.5282,55.2716 2.0056,2.3726 3.9038,4.3137 4.2184,4.3137 0.3146,0 3.4795,-2.9247 7.0334,-6.4993 z m 74.499,3.5406 c 15.0905,-4.7346 27.8462,-17.5857 32.9482,-33.1948 1.4369,-4.3955 1.8121,-7.9758 2.1204,-20.2283 l 0.3746,-14.8875 -2.9062,-0.5452 c -5.1904,-0.9738 -14.0113,-6.0197 -18.7623,-10.733 -2.5222,-2.5022 -4.955,-4.5495 -5.406,-4.5495 -1.3107,0 -12.6712,12.3047 -15.9312,17.2551 -4.7036,7.1425 -8.746,15.7669 -11.058,23.5915 -3.5854,12.1343 -3.6887,30.1845 -0.2476,43.2473 l 0.8324,3.1594 5.9043,-0.5807 c 3.2474,-0.3193 8.7066,-1.4598 12.1314,-2.5343 z m 103.5817,-3.4067 c 6.3905,-27.5823 -2.0861,-55.6384 -23.0051,-76.1428 l -4.9586,-4.8603 -5.355,5.0094 c -5.2643,4.9244 -12.9759,9.3116 -18.3569,10.4429 l -2.6703,0.5615 v 13.4518 c 0,15.7909 0.7036,19.8811 4.9517,28.7826 8.0613,16.8917 27.6352,29.5071 44.7437,28.8376 l 3.2711,-0.128 z m 69.8168,-2.7117 c 7.3928,-9.4535 13.2679,-19.03 18.8795,-30.7739 4.3504,-9.1042 11.0433,-27.3666 10.3013,-28.1084 -0.1758,-0.1759 -2.4892,1.9586 -5.1409,4.7434 -6.7366,7.0747 -17.4501,14.932 -26.2657,19.2631 l -7.4761,3.6732 -1.4936,5.5552 c -0.8215,3.0554 -3.3471,9.2024 -5.6128,13.6599 l -4.1192,8.1048 6.8015,6.6659 c 5.7605,5.6458 6.9462,6.4743 7.7479,5.4141 0.5207,-0.6885 3.3908,-4.3773 6.3781,-8.1973 z m -45.7352,0.4757 c 7.9421,-5.1498 15.7577,-14.4281 19.0187,-22.5785 0.748,-1.869 1.171,-3.5873 0.94,-3.8182 -0.2309,-0.2309 -3.5582,-0.01 -7.3939,0.5083 -3.8358,0.5104 -10.1174,0.8071 -13.9592,0.6593 l -6.9852,-0.2688 -0.5285,11.9143 c -0.2908,6.5528 -0.7454,13.4829 -1.0105,15.4001 l -0.4818,3.4861 3.1251,-1.3058 c 1.7187,-0.7181 4.9927,-2.5167 7.2753,-3.9968 z m -160.8794,3.2927 c -1.0236,-2.6673 -2.3384,-19.2372 -1.8771,-23.6551 l 0.4934,-4.7246 h -7.5878 c -4.1733,0 -10.6433,-0.4259 -14.3776,-0.9478 -3.7343,-0.5217 -7.032,-0.7063 -7.3282,-0.4101 -1.3241,1.324 6.0756,13.4487 11.6523,19.0929 7.6364,7.7292 20.7142,15.0454 19.025,10.6436 z m -3.9442,-42.0543 5.0504,-0.5279 0.8967,-3.3301 c 3.4334,-12.7507 13.0632,-28.6027 24.2769,-39.963 4.2314,-4.2867 7.6935,-8.0283 7.6935,-8.3146 0,-1.1477 -10.7094,-2.7943 -17.6659,-2.7162 -13.6131,0.1526 -24.8441,4.9927 -34.9956,15.0816 -9.0773,9.0216 -14.7154,21.5155 -14.7154,32.6095 0,4.802 -0.2922,4.578 7.8058,5.9888 10.266,1.7886 13.8813,1.9843 21.6536,1.1719 z m 182.7369,-1.6332 5.5462,-1.2573 -0.014,-3.0154 c -0.027,-5.7054 -2.4278,-14.5322 -5.8294,-21.4327 -9.2922,-18.8502 -30.9862,-30.2599 -51.7603,-27.2222 -3.6832,0.5384 -7.6329,1.3351 -8.777,1.77 -2.0499,0.7793 -1.9747,0.8958 5.1305,7.9373 11.142,11.0421 18.3678,22.0888 23.5037,35.9322 1.5091,4.0673 2.8773,7.5718 3.0406,7.7878 1.4082,1.863 20.1548,1.5417 29.1599,-0.4997 z m -225.3557,-11.0022 c 0.025,-4.0764 3.4674,-14.4275 7.2257,-21.7259 2.9874,-5.8013 5.4041,-9.0301 11.0415,-14.7518 3.9695,-4.0289 7.2173,-7.4491 7.2173,-7.6006 0,-0.6166 -66.49,-0.2242 -66.8724,0.3946 -0.69,1.1163 4.9593,13.2268 9.0531,19.4072 5.4635,8.2484 15.1218,17.8884 23.6413,23.5967 7.6702,5.1394 8.666,5.2172 8.6935,0.6798 z m 250.1099,1.2754 c 11.2474,-6.7729 19.8146,-15.1622 27.2547,-26.689 3.7905,-5.8726 8.5204,-15.7627 8.567,-17.913 0.018,-0.8053 -7.2514,-1.027 -33.6663,-1.027 -18.5286,0 -33.6884,0.1848 -33.6884,0.4108 0,0.226 2.8655,3.2904 6.3679,6.81 9.6844,9.7319 15.5537,20.7917 18.0793,34.0682 0.7522,3.9542 1.5895,7.1895 1.8607,7.1895 0.2711,0 2.6225,-1.2823 5.2251,-2.8495 z m -117.2759,-27.9296 c 5.5006,-2.4967 10.6005,-7.6666 13.2875,-13.4695 1.7391,-3.7561 2.1426,-5.8354 2.1164,-10.907 -0.042,-8.07 -2.6337,-13.6986 -8.9791,-19.4979 -5.8547,-5.3509 -10.7651,-7.0195 -19.1782,-6.5169 -9.7986,0.5856 -17.1657,5.2805 -21.8814,13.9447 -1.9072,3.5041 -2.4342,5.6426 -2.7166,11.0229 -0.3126,5.9559 -0.1048,7.2225 1.9285,11.753 6.1984,13.8123 21.8251,19.8431 35.4229,13.6707 z m -115.3009,-37.6249 c -7.227,-7.3309 -11.2613,-13.1196 -14.4904,-20.7916 -2.3909,-5.6805 -4.6734,-14.0438 -4.6734,-17.1239 0,-1.1775 -0.3421,-2.141 -0.7601,-2.141 -0.4182,0 -3.376,1.7563 -6.5728,3.903 -12.0704,8.1047 -24.2774,22.6288 -29.6982,35.3355 -1.3005,3.0484 -2.3745,6.0047 -2.3869,6.5697 -0.017,0.8047 7.0424,1.0271 32.6211,1.0271 h 32.6432 z m 268.4208,6.4683 c 0,-0.6747 -2.7431,-6.9279 -5.0466,-11.5045 -7.071,-14.0489 -17.7799,-25.4804 -31.7492,-33.8924 l -4.6081,-2.775 -1.5143,7.4959 c -0.833,4.1225 -2.4611,9.7621 -3.6181,12.5322 -3.1222,7.4748 -10.3569,17.8918 -15.9266,22.932 -2.7028,2.4459 -4.9141,4.689 -4.9141,4.9847 0,0.2956 15.1598,0.5376 33.6884,0.5376 18.5286,0 33.6886,-0.1398 33.6886,-0.3105 z m -209.7142,-3.387 5.1526,-1.4588 -8.0458,-8.3089 c -11.1312,-11.4953 -18.9938,-24.0476 -22.74,-36.3032 -0.8191,-2.68 -2.0706,-5.3349 -2.7811,-5.8998 -2.2173,-1.763 -20.4212,-1.3336 -29.018,0.6847 l -7.2913,1.7119 v 3.4976 c 0,5.1677 2.8727,15.4817 5.9252,21.2735 3.7984,7.207 14.2901,17.5039 21.3349,20.939 12.192,5.9449 25.3278,7.2997 37.4635,3.864 z m 113.9896,0.8221 c 14.8167,-3.1001 28.2439,-13.417 34.8178,-26.7525 3.4131,-6.9238 5.8136,-15.7449 5.8405,-21.4629 0.014,-3.0093 -0.01,-3.0278 -4.7103,-4.1077 -2.7861,-0.6395 -9.774,-1.0849 -17.0312,-1.0853 h -12.3066 l -2.5381,6.9842 c -5.2528,14.4549 -11.4069,24.1294 -22.8703,35.953 -4.4935,4.6349 -7.9946,8.6027 -7.7798,8.8174 0.2146,0.2147 2.585,0.9211 5.2674,1.57 6.3881,1.545 14.1823,1.576 21.3106,0.084 z m -27.4121,-20.7476 c 15.5329,-16.1344 23.1773,-34.7975 23.1382,-56.4899 -0.018,-9.645 -1.7694,-21.1619 -3.4793,-22.8719 -1.0047,-1.0046 -9.8885,-0.7648 -14.8031,0.3996 -2.0555,0.4869 -6.832,2.3543 -10.6146,4.1495 -12.7539,6.0537 -23.0421,18.5901 -26.8372,32.702 -0.6987,2.5979 -1.4411,10.4899 -1.7465,18.5641 l -0.531,14.0449 4.0277,1.0131 c 6.2907,1.5824 13.2831,5.7363 18.3167,10.8811 2.5351,2.5914 4.8339,4.7308 5.1084,4.7543 0.2745,0.024 3.6138,-3.1925 7.4207,-7.1468 z m -68.6873,1.5264 c 2.8465,-2.6626 7.3732,-5.898 10.0596,-7.1895 l 4.8842,-2.3482 1.9592,-6.1508 c 2.7144,-8.5211 2.7744,-21.6787 0.137,-30.0027 -6.1708,-19.476 -23.8901,-34.0882 -43.0963,-35.5397 l -5.4785,-0.4141 -0.8908,3.1868 c -3.1955,11.4324 -3.2579,29.1521 -0.1441,40.9836 2.0124,7.6471 7.8667,20.2352 12.1968,26.226 2.8706,3.9716 14.0361,16.0901 14.8248,16.0901 0.2049,0 2.7016,-2.1787 5.5481,-4.8415 z m -112.9713,-30.431 c 3.365,-2.3749 8.6072,-5.5796 11.6495,-7.1216 4.3449,-2.2021 5.6381,-3.2874 6.0288,-5.0601 2.1803,-9.8905 5.5847,-17.8486 10.7201,-25.0601 1.5294,-2.1476 2.7806,-4.1906 2.7806,-4.5398 0,-0.3492 -2.7084,-3.3254 -6.0189,-6.6137 l -6.0188,-5.9787 -3.2398,3.5343 c -9.062,9.8861 -18.3024,23.9526 -25.3688,38.6185 -4.8085,9.9803 -11.1188,27.0412 -11.1188,30.0618 0,0.6806 3.2552,-2.0834 7.2339,-6.1424 3.9787,-4.0591 9.9871,-9.3232 13.3522,-11.6982 z m 301.5085,16.5161 c 0,-1.4022 -5.1812,-16.1959 -7.9253,-22.6289 -6.8617,-16.0858 -19.4154,-35.6246 -30.3976,-47.3113 -0.4148,-0.4415 -13.4423,12.3976 -13.4423,13.2479 0,0.3269 1.1004,2.2248 2.4453,4.2175 3.5668,5.2849 7.1551,13.2349 8.7595,19.4064 l 1.4039,5.4004 7.0478,3.4788 c 8.7968,4.342 19.6558,12.4489 26.0156,19.4221 4.6684,5.1186 6.0931,6.2332 6.0931,4.7671 z m -257.6243,-33.9434 c 3.1464,-0.4892 9.1699,-0.7387 13.3855,-0.5543 l 7.6646,0.3352 -0.5212,-5.3803 c -0.4746,-4.8989 0.4317,-16.9751 1.7797,-23.7152 l 0.5389,-2.6949 -4.4241,1.6794 c -10.673,4.0514 -21.9748,14.5814 -27.0684,25.2196 -3.1306,6.5383 -3.1045,7.2102 0.2537,6.5361 1.4687,-0.2948 5.2448,-0.9363 8.3913,-1.4256 z m 199.9552,-6.214 c -3.5537,-7.2783 -13.7636,-17.7103 -21.0637,-21.5216 -2.8563,-1.4913 -5.4073,-2.4973 -5.669,-2.2357 -0.2617,0.2616 -0.05,3.0492 0.4688,6.1944 0.5193,3.1454 0.9449,9.7148 0.9455,14.5988 v 8.8801 l 10.0643,0.1315 c 5.5355,0.072 11.7283,0.4576 13.7619,0.8562 4.7951,0.9397 4.9564,0.1936 1.4911,-6.9037 z m -109.9516,-47.9034 c 0,-27.6992 -0.1817,-32.8667 -1.1559,-32.8667 -2.0026,0 -11.817,4.738 -17.7075,8.5485 -3.1139,2.0144 -8.4845,6.3439 -11.9345,9.6211 -6.2755,5.9611 -16.4662,19.9116 -15.5859,21.3362 0.257,0.4158 1.2922,0.7559 2.3004,0.7559 2.4253,0 9.6968,1.9195 15.5074,4.0935 6.8058,2.5465 15.8343,8.7965 22.405,15.5103 3.1587,3.2275 5.8393,5.868 5.9571,5.868 0.1177,0 0.2139,-14.79 0.2139,-32.8668 z m 29.4443,17.4074 c 7.0856,-4.5797 16.1016,-8.1732 23.2615,-9.2717 9.9198,-1.5219 9.6552,-1.0451 4.7534,-8.5624 -5.0378,-7.7258 -14.6686,-17.5801 -22.0297,-22.5409 -4.9086,-3.308 -16.2737,-9.0227 -20.4341,-10.275 l -1.8486,-0.5565 v 30.8008 c 0,16.9404 0.2302,31.4006 0.5116,32.134 0.4058,1.0576 1.5613,0.3251 5.5913,-3.5446 2.7937,-2.6827 7.3813,-6.3653 10.1946,-8.1837 z m 82.1792,-1.3358 c 2.4174,-2.2865 5.0866,-5.1225 5.9313,-6.3021 l 1.5359,-2.1449 -7.1639,-5.7672 c 22.1162,17.8044 4.8878,5.2325 -32.6355,-20.7838 -8.6095,-5.9692 -25.478,-10.6536 -28.1097,-10.6536 -0.6856,0 2.0008,3.4121 5.9696,7.5827 7.3453,7.7189 14.8424,18.2714 18.314,25.7786 1.798,3.888 2.2066,4.2345 6.1624,5.2227 5.4666,1.3657 14.6261,5.6591 19.8486,9.3037 2.2597,1.5769 4.4782,2.6541 4.9301,2.3941 0.452,-0.2601 2.7996,-2.3437 5.2172,-4.6302 z m -193.3796,-2.2893 c 4.1872,-2.0898 12.8084,-5.0575 17.2551,-5.9395 1.9429,-0.3856 2.7732,-1.235 3.9202,-4.011 2.7828,-6.7348 11.2884,-18.7035 18.836,-26.5055 8.5896,-8.879 8.7876,-8.7401 -5.5012,-3.8579 -17.5656,6.0018 -38.1986,17.5744 -52.4738,29.4317 l -5.6387,4.6836 6.3888,6.4264 6.3887,6.4265 3.3583,-2.3019 c 1.8469,-1.266 5.207,-3.2245 7.4666,-4.3524 z"
         id="path954"
         sodipodi:nodetypes="cssssssssscssssscssssssssssscsssssscsssscssssscsscsssscssssssssssssscsssssscsssscsscssscsssssscsscsssssscscsscsscscssssccscssssssssccsssssssscsssssssssssssssssssssssssssssscssscsssscssssssscsssscsssscsssccssssccscssssscsssssscssscssssssssssscssssssssssscssssscsscsssscsssccssccssssssssssssssscsssssscssssssssscssssscccsc" />
    </g>
  </g>
</svg>
