<?xml version="1.0" encoding="UTF-8" standalone="no"?>
<!-- Created with Inkscape (http://www.inkscape.org/) -->

<svg
   width="243.15871mm"
   height="82.321007mm"
   viewBox="0 0 243.15871 82.321007"
   version="1.1"
   id="svg5"
   sodipodi:docname="logo_stripless2.svg"
   inkscape:version="1.1.1 (3bf5ae0d25, 2021-09-20)"
   xmlns:inkscape="http://www.inkscape.org/namespaces/inkscape"
   xmlns:sodipodi="http://sodipodi.sourceforge.net/DTD/sodipodi-0.dtd"
   xmlns="http://www.w3.org/2000/svg"
   xmlns:svg="http://www.w3.org/2000/svg">
  <sodipodi:namedview
     id="namedview7"
     pagecolor="#ffffff"
     bordercolor="#666666"
     borderopacity="1.0"
     inkscape:pageshadow="2"
     inkscape:pageopacity="0.0"
     inkscape:pagecheckerboard="0"
     inkscape:document-units="mm"
     showgrid="false"
     inkscape:zoom="1"
     inkscape:cx="519.5"
     inkscape:cy="96.5"
     inkscape:window-width="1920"
     inkscape:window-height="1017"
     inkscape:window-x="-8"
     inkscape:window-y="-8"
     inkscape:window-maximized="1"
     inkscape:current-layer="g655" />
  <defs
     id="defs2" />
  <g
     inkscape:label="Katman 1"
     inkscape:groupmode="layer"
     id="layer1"
     transform="translate(126.5298,-95.772675)">
    <g
       inkscape:label="Image"
       id="g15"
       transform="matrix(0.26458333,0,0,0.26458333,-694.00372,-278.61108)">
      <g
         id="g655"
         transform="translate(86.824909,-1524.1058)">
        <path
           style="fill:#aa8800;stroke-width:0.165992"
           d="m 2207.9454,3250.0785 c -26.0726,-0.8157 -51.6071,-8.3727 -74.4531,-22.0346 -16.9308,-10.1247 -32.4682,-24.1234 -44.341,-39.95 -6.0241,-8.03 -10.9726,-16.0474 -15.1631,-24.5668 -9.2225,-18.7492 -14.1188,-36.7736 -15.8047,-58.1802 -0.3364,-4.2718 -0.285,-18.2734 0.083,-22.575 1.8049,-21.1014 6.7557,-39.0599 15.7414,-57.1013 7.0474,-14.1496 15.3809,-26.1284 26.1687,-37.6156 7.4468,-7.9296 12.8629,-12.6261 24.3522,-21.1166 5.0173,-3.7079 14.7479,-9.3827 21.8655,-12.7518 18.0272,-8.5334 34.7862,-13.0052 55.4038,-14.7833 4.7445,-0.4092 17.7506,-0.4041 22.9069,0.01 21.4758,1.72 40.3616,6.939 58.6783,16.2155 21.8247,11.0531 40.3395,26.6985 55.1806,46.6288 8.3056,11.1536 15.2011,23.6994 20.2998,36.9338 3.5883,9.3139 6.455,19.8827 8.1025,29.8709 2.3012,13.9515 2.6596,27.0391 1.1436,41.7634 -2.8907,28.0766 -13.3452,54.5863 -30.5051,77.3524 -3.5284,4.6811 -7.3612,9.2273 -10.939,12.9748 -0.9357,0.9803 -1.7014,1.8606 -1.7014,1.9564 0,0.096 -0.088,0.1741 -0.1947,0.1741 -0.1071,0 -1.545,1.3278 -3.1953,2.9506 -3.5156,3.457 -4.9676,4.7649 -9.0859,8.1844 -9.3423,7.7568 -19.5889,14.4027 -30.4331,19.7387 -17.9334,8.8242 -36.2753,13.8863 -56.2713,15.53 -2.7149,0.2232 -11.787,0.5956 -13.1964,0.5417 -0.3195,-0.012 -2.4086,-0.079 -4.6422,-0.1492 z m -0.6696,-41.5223 v -27.5925 l -0.5386,0.6603 c -3.73,4.5719 -8.7863,8.9517 -13.9857,12.1143 -7.2419,4.4049 -15.4443,7.1549 -23.5708,7.9025 -1.1869,0.1092 -2.181,0.2163 -2.2092,0.2381 -0.082,0.063 1.5826,3.0032 2.6444,4.6719 7.7319,12.151 18.5556,21.5093 31.5905,27.3137 1.432,0.6376 5.6814,2.2662 5.945,2.2784 0.068,0 0.1244,-12.4108 0.1244,-27.5867 z m 14.7345,26.4954 c 7.426,-2.6881 14.8125,-6.9694 21.0369,-12.1934 5.4058,-4.537 10.5744,-10.4257 14.268,-16.2561 1.0816,-1.7073 2.7462,-4.5871 2.7462,-4.751 0,-0.035 -0.3197,-0.063 -0.7105,-0.063 -1.1326,0 -4.5257,-0.4581 -6.7692,-0.914 -9.367,-1.9034 -17.0859,-5.5228 -24.5377,-11.5058 -2.0745,-1.6657 -5.609,-5.1105 -7.0738,-6.8944 -0.6391,-0.7783 -1.218,-1.4196 -1.2864,-1.4249 -0.068,-0.01 -0.1245,12.315 -0.1245,27.3788 0,18.4365 0.055,27.3887 0.1686,27.3887 0.093,0 1.1198,-0.3443 2.2824,-0.7651 z m -45.5363,-2.3521 c -0.2796,-0.2484 -1.371,-1.216 -2.4253,-2.1504 -5.0105,-4.44 -10.0553,-10.3553 -14.1232,-16.5604 -2.0138,-3.0717 -3.2607,-5.3027 -5.2415,-9.3785 -0.9539,-1.9629 -1.745,-3.5837 -1.7579,-3.6019 -0.013,-0.018 -0.768,-0.1941 -1.678,-0.3909 -4.6998,-1.0166 -10.2139,-3.0896 -14.4359,-5.4271 -2.4618,-1.363 -6.5844,-4.1372 -8.4221,-5.6674 -0.889,-0.7403 -1.6629,-1.346 -1.7197,-1.346 -0.1355,0 -11.1052,10.8114 -11.1052,10.9449 0,0.3125 7.0005,6.326 10.3745,8.9118 13.029,9.9852 27.0203,17.475 41.996,22.4811 4.2934,1.4352 8.1992,2.6126 8.7146,2.6271 0.2861,0.01 0.2617,-0.053 -0.1763,-0.4423 z m 76.3412,-0.2963 c 11.3308,-3.2017 23.2275,-8.3573 33.9214,-14.7005 3.4975,-2.0746 9.11,-5.8286 12.2499,-8.1936 4.3402,-3.2689 5.4081,-4.1594 12.0877,-10.0785 l 0.6938,-0.6148 -5.4768,-5.4854 c -3.0123,-3.017 -5.5405,-5.4854 -5.6183,-5.4854 -0.078,0 -0.6011,0.399 -1.1629,0.8868 -2.0151,1.7494 -5.6993,4.3484 -8.3345,5.8794 -4.6975,2.7292 -10.3929,4.913 -15.9033,6.0976 l -1.3053,0.2806 -0.5944,1.3539 c -3.1222,7.1113 -7.7018,14.3362 -12.9581,20.443 -1.9898,2.3119 -6.7384,7.0143 -8.8658,8.7797 -0.9783,0.8119 -1.7788,1.5028 -1.7788,1.5354 0,0.1359 0.4948,0.023 3.0454,-0.6982 z m -140.2059,-47.7441 5.6776,-5.6757 -0.9384,-1.3375 c -2.8863,-4.1137 -5.3827,-9.1476 -7.0828,-14.2822 -0.6326,-1.9107 -1.6619,-5.9515 -1.8431,-7.2361 l -0.1072,-0.7598 -2.5565,-1.1286 c -7.8254,-3.4546 -15.4338,-8.4777 -22.1886,-14.6489 -2.3079,-2.1084 -5.8993,-5.8992 -7.7524,-8.1827 -0.5557,-0.6847 -1.0765,-1.2675 -1.1574,-1.295 -0.1572,-0.054 -0.1229,0.083 1.0747,4.2829 4.9652,17.4126 13.9289,34.8533 25.179,48.9909 1.9027,2.3909 5.7847,6.9485 5.9187,6.9485 0.054,0 2.6538,-2.5541 5.7764,-5.6758 z m 209.5551,3.2688 c 13.4978,-15.7714 23.3305,-33.9153 29.035,-53.5774 0.4519,-1.5577 0.7942,-2.8597 0.7606,-2.8933 -0.034,-0.034 -0.8361,0.8192 -1.7833,1.8951 -8.0876,9.1864 -17.9149,16.3637 -29.146,21.2868 l -2.3567,1.033 -0.1863,0.9397 c -1.3409,6.7642 -3.9139,13.184 -7.6597,19.1113 -0.7612,1.2045 -1.496,2.3765 -1.633,2.6047 -0.2478,0.4128 -0.2232,0.4402 5.4574,6.057 3.1385,3.1033 5.761,5.5808 5.8278,5.5057 0.067,-0.075 0.8247,-0.9583 1.6842,-1.9626 z m -152.5688,1.4078 c 16.3934,-2.2505 30.22,-13.8057 35.5038,-29.6712 0.6904,-2.0734 1.2617,-4.37 1.7053,-6.8553 0.3503,-1.9632 0.3712,-2.5889 0.4294,-12.8807 l 0.061,-10.8172 -0.9642,-0.1937 c -7.7526,-1.5575 -15.2921,-6.2238 -20.3263,-12.5801 -0.5576,-0.7041 -1.0684,-1.3014 -1.135,-1.3275 -0.2085,-0.082 -4.1479,3.4762 -6.1496,5.5539 -4.0758,4.2305 -7.4275,8.6201 -10.2727,13.4539 -1.3621,2.3141 -3.8477,7.3759 -4.7092,9.5903 -1.5954,4.1008 -3.2411,9.8425 -3.9286,13.7073 -1.1631,6.5378 -1.313,14.2465 -0.408,20.985 0.5747,4.2795 2.1213,11.0858 2.5912,11.4034 0.3174,0.2145 5.0154,-0.013 7.6026,-0.3681 z m 95.5464,0.2896 c 0.1714,-0.1714 1.5815,-6.1073 1.9607,-8.254 1.258,-7.1207 1.4243,-14.2981 0.4924,-21.247 -2.1879,-16.3142 -10.646,-32.0386 -23.137,-43.0135 -1.2325,-1.0829 -2.3156,-1.9659 -2.4069,-1.9621 -0.091,0 -0.5302,0.4904 -0.9752,1.0814 -2.0127,2.6724 -5.2821,5.676 -8.4478,7.7608 -3.0501,2.0086 -7.7529,4.0154 -11.1156,4.7432 -0.8885,0.1923 -1.659,0.3496 -1.7122,0.3496 -0.053,0 -0.068,4.874 -0.033,10.831 0.06,10.2992 0.082,10.9329 0.4319,12.9059 1.2266,6.9073 3.4439,12.4608 7.1245,17.8442 1.7329,2.5346 2.9525,4.0041 5.1775,6.2386 7.3575,7.3891 16.7344,11.7685 27.3114,12.7556 1.5343,0.1432 5.1758,0.1202 5.3297,-0.034 z m 14.9421,-3.2022 c 5.2413,-2.1057 10.3096,-5.5235 14.4442,-9.7405 3.5281,-3.5984 5.8811,-6.8525 8.012,-11.0806 1.2346,-2.4495 2.4543,-5.4177 2.2927,-5.5793 -0.056,-0.056 -0.7597,0.017 -1.5633,0.1623 -6.0404,1.0932 -13.2077,1.5907 -18.4851,1.283 -1.8548,-0.1082 -3.6975,-0.2412 -4.095,-0.2957 l -0.7227,-0.099 0.1313,1.8079 c 0.072,0.9943 0.125,4.2355 0.1174,7.2026 -0.015,5.8643 -0.2638,8.7819 -1.1533,13.5284 -0.5965,3.1823 -0.6312,3.4028 -0.5354,3.4028 0.046,0 0.7468,-0.2663 1.5572,-0.5919 z m -131.6331,0.1354 c -0.2469,-0.8343 -0.9779,-5.0325 -1.2599,-7.2361 -0.6845,-5.3478 -0.8473,-11.228 -0.4374,-15.7953 0.1147,-1.2781 0.1944,-2.345 0.177,-2.3708 -0.017,-0.026 -0.8446,0.03 -1.8382,0.1243 -2.7447,0.2603 -9.9088,0.2133 -12.7822,-0.084 -3.1307,-0.3237 -6.5785,-0.8202 -8.6376,-1.2439 -0.8816,-0.1814 -1.6328,-0.2999 -1.6693,-0.2634 -0.036,0.036 0.2833,0.9523 0.7108,2.035 3.1445,7.9645 8.3334,14.6463 15.3429,19.7571 2.1213,1.5466 6.0051,3.6883 8.7146,4.8055 1.5385,0.6343 1.7992,0.6765 1.6793,0.2714 z m -4.8157,-37.3893 c 2.2591,-0.1748 4.9543,-0.4715 5.3845,-0.5927 0.1411,-0.04 0.3484,-0.4261 0.4617,-0.8604 0.516,-1.9781 1.8129,-5.8412 2.7999,-8.3409 3.38,-8.5594 8.0398,-16.2362 14.4585,-23.8198 1.9292,-2.2793 7.41,-7.6655 9.5434,-9.3786 0.9664,-0.776 1.7618,-1.4544 1.7675,-1.5076 0.035,-0.3201 -5.6652,-1.7554 -8.8701,-2.2337 -2.4448,-0.3649 -8.3872,-0.3682 -11.0613,-0.01 -7.1624,0.9696 -13.0702,3.1939 -18.9833,7.1471 -6.7607,4.5198 -11.9723,10.6079 -15.2885,17.8599 -2.5591,5.5961 -3.7941,10.672 -3.9987,16.4339 l -0.098,2.752 2.4718,0.605 c 4.2275,1.0349 7.0866,1.5339 11.0203,1.9237 2.032,0.2013 7.8926,0.2117 10.392,0.018 z m 149.1265,0 c 1.3238,-0.091 3.512,-0.3175 4.8626,-0.5025 3.15,-0.4314 5.7389,-0.952 9.1223,-1.8344 l 0.6224,-0.1624 v -1.446 c 0,-3.1446 -0.763,-8.1848 -1.7401,-11.5535 -1.0877,-3.7496 -3.1357,-8.2299 -5.2439,-11.4715 -3.9232,-6.0323 -9.302,-11.0516 -15.7035,-14.6539 -8.8411,-4.9749 -19.7999,-6.6259 -30.0064,-4.5205 -2.9439,0.6073 -6.0637,1.5786 -5.8021,1.8065 0.083,0.073 1.0336,0.8637 2.1116,1.7581 10.0242,8.3163 18.5107,19.986 23.4865,32.2959 0.8188,2.0259 2.6576,7.3562 3.013,8.7346 0.2072,0.8034 0.1216,0.7707 2.997,1.1451 4.1087,0.5349 8.3628,0.675 12.2824,0.4045 z m 28.4767,-8.1987 c 14.9251,-7.8994 26.9912,-21.7171 32.9891,-37.7777 0.3239,-0.8674 0.6403,-1.7824 0.7031,-2.0334 l 0.1142,-0.4565 h -29.0666 c -15.9867,0 -29.0651,0.056 -29.0631,0.1245 0,0.068 0.2865,0.3245 0.6323,0.569 0.3458,0.2444 1.558,1.2586 2.6938,2.2538 10.6633,9.343 17.4507,22.3505 18.9248,36.2684 0.1136,1.0727 0.2444,1.9504 0.2907,1.9504 0.046,0 0.848,-0.4043 1.7817,-0.8985 z m -213.4727,-0.72 c 0.1883,-2.1329 0.8784,-5.9607 1.5035,-8.3397 3.1327,-11.9212 10.0427,-22.4577 19.6431,-29.9523 l 1.3958,-1.0896 h -28.844 -28.844 l 0.1089,0.4337 c 0.2607,1.039 2.0633,5.3579 3.3358,7.9925 5.4456,11.2746 13.686,20.816 24.146,27.9583 2.2668,1.5478 6.9299,4.2707 7.331,4.2808 0.061,0 0.1614,-0.5762 0.2239,-1.2837 z m 109.8035,-23.2076 c 4.5446,-0.8621 8.6567,-3.0536 11.9499,-6.3686 4.4021,-4.4311 6.6672,-9.7881 6.6726,-15.7811 0.01,-6.4051 -2.2432,-11.8684 -6.7347,-16.3591 -2.6362,-2.6358 -5.5849,-4.468 -8.9416,-5.556 -13.2925,-4.3085 -27.3291,4.2661 -29.6002,18.082 -0.3636,2.2112 -0.2508,6.2005 0.2351,8.3149 1.4794,6.439 5.4406,11.8277 11.0845,15.0789 2.2993,1.3246 5.6889,2.4419 8.6098,2.8381 1.5243,0.2068 5.0001,0.078 6.7246,-0.2491 z m -88.8078,-28.5883 c 0,-0.072 -0.7982,-0.763 -1.7739,-1.5354 -2.346,-1.8574 -6.6058,-6.0982 -8.4138,-8.3762 -6.7628,-8.521 -10.9816,-18.6045 -12.1401,-29.0157 l -0.1071,-0.963 -0.9414,0.5288 c -12.9879,7.2939 -24.1613,19.6494 -30.0847,33.2677 -0.8769,2.0159 -2.3123,5.7836 -2.3123,6.0692 0,0.096 10.6656,0.1555 27.8867,0.1555 15.3376,0 27.8866,-0.059 27.8866,-0.1309 z m 225.9154,-0.1312 c 0,-0.053 -0.3825,-1.1173 -0.8501,-2.3654 -5.2248,-13.9469 -15.0068,-26.1586 -27.6175,-34.4772 -2.3316,-1.538 -6.3968,-3.8954 -6.7174,-3.8954 -0.094,0 -0.1717,0.2801 -0.1722,0.6225 0,1.0455 -0.6494,5.1423 -1.1879,7.5111 -2.6891,11.8302 -9.3895,22.7219 -18.8133,30.5818 -1.0955,0.9137 -2.1012,1.7642 -2.2349,1.89 -0.2065,0.1943 4.1052,0.2287 28.6751,0.2287 15.905,0 28.9182,-0.043 28.9182,-0.096 z m -186.1939,-1.6358 c 3.0861,-0.4985 7.1685,-1.5674 9.0586,-2.3717 l 0.7252,-0.3086 -0.6422,-0.488 c -0.3533,-0.2683 -1.3146,-1.0857 -2.1363,-1.8163 -8.5459,-7.5992 -15.062,-16.1748 -19.9326,-26.233 -2.091,-4.318 -3.945,-9.1447 -5.0666,-13.1904 -0.1907,-0.688 -0.4078,-1.3154 -0.4823,-1.3943 -0.2914,-0.3081 -5.1764,-0.7843 -9.0448,-0.8816 -7.5336,-0.1896 -13.4181,0.6232 -21.3715,2.9519 l -1.1205,0.3281 v 1.4464 c 0,2.7788 0.6824,7.2774 1.5835,10.4382 1.2104,4.2464 3.2579,8.6837 5.692,12.3362 7.1709,10.7595 18.4291,17.6973 31.4007,19.3501 2.3215,0.2958 9.0886,0.1961 11.3368,-0.167 z m 100.0914,0.1559 c 12.8371,-1.5016 24.3626,-8.6242 31.5203,-19.4789 3.4594,-5.2462 5.6557,-10.9227 6.6817,-17.2699 0.3244,-2.007 0.6483,-6.3937 0.5219,-7.0677 -0.093,-0.4957 -0.1653,-0.5391 -1.4659,-0.8795 -6.4497,-1.6881 -11.577,-2.2891 -18.3491,-2.1509 -3.6014,0.073 -8.8894,0.4767 -9.1273,0.696 -0.026,0.024 -0.3381,1.0064 -0.6931,2.1828 -4.7306,15.6765 -14.0238,29.6653 -26.8141,40.3623 -0.8217,0.6871 -1.5176,1.3086 -1.5464,1.381 -0.1726,0.4333 7.1916,2.0885 10.51,2.3622 1.9553,0.1614 6.8667,0.084 8.762,-0.1374 z m -24.1993,-14.1813 c 3.2439,-2.7515 7.5601,-7.3581 10.2054,-10.8921 13.4611,-17.9833 17.6709,-40.6296 11.4004,-61.3265 -0.2253,-0.7438 -0.2304,-0.7476 -1.1933,-0.9027 -1.3938,-0.2246 -6.4749,0.129 -9.291,0.6466 -15.7137,2.8878 -28.6675,14.1601 -33.6759,29.3047 -0.9266,2.8019 -1.3563,4.5627 -1.8634,7.6357 -0.2458,1.4893 -0.2974,3.2913 -0.3546,12.384 l -0.067,10.6411 1.0493,0.2009 c 7.5966,1.455 15.2508,6.1922 20.3458,12.5921 1.0791,1.3554 1.266,1.521 1.5081,1.3357 0.1519,-0.1164 1.0233,-0.8452 1.9362,-1.6195 z m -58.1987,0 c 1.2744,-1.6179 4.1462,-4.4137 5.919,-5.7621 2.632,-2.0022 5.7245,-3.7565 8.5681,-4.8607 l 1.4382,-0.5585 0.7468,-1.9257 c 3.0503,-7.8647 3.891,-15.3962 2.6055,-23.3437 -2.058,-12.7236 -9.766,-23.9374 -21.1034,-30.7018 -5.9572,-3.5544 -13.3615,-5.7529 -19.9682,-5.9292 l -1.8104,-0.048 -0.561,1.992 c -3.24,11.5037 -3.3153,23.9609 -0.2166,35.8543 3.2226,12.3685 9.705,23.4474 19.1982,32.8108 1.6149,1.5928 3.9911,3.7703 4.1347,3.789 0.01,0 0.4783,-0.5915 1.0491,-1.3161 z m -110.0868,-14.6591 c 7.6068,-9.351 18.1972,-17.6073 28.9071,-22.5361 l 1.7527,-0.8066 0.3662,-1.8777 c 1.7322,-8.882 5.3941,-17.0078 10.7578,-23.8718 l 1.1025,-1.411 -5.2742,-5.1814 -5.2742,-5.1814 -0.7116,0.7826 c -5.6675,6.2336 -11.0581,13.2872 -15.4121,20.1663 -7.7005,12.1668 -13.8595,26.1744 -17.3333,39.4212 -0.281,1.0715 -0.5482,2.079 -0.5938,2.2388 -0.046,0.1597 -0.051,0.2905 -0.012,0.2905 0.039,0 0.8152,-0.9151 1.725,-2.0334 z m 275.1791,-2.9054 c -4.0167,-13.9129 -10.0738,-27.0173 -18.0875,-39.1322 -4.3007,-6.5017 -7.6346,-10.8056 -13.8074,-17.8249 l -0.5278,-0.6002 -5.6124,5.5607 c -3.0868,3.0584 -5.6351,5.5704 -5.663,5.5822 -0.028,0.012 0.573,0.8759 1.3352,1.9201 4.376,5.9952 7.68,13.3636 9.2966,20.7331 l 0.5372,2.4489 1.6599,0.701 c 7.3666,3.111 15.4292,8.2452 21.9944,14.0058 2.1029,1.8452 6.885,6.7501 8.4652,8.6825 0.6847,0.8374 1.2699,1.4501 1.3004,1.3616 0.03,-0.088 -0.3703,-1.6358 -0.8908,-3.4386 z m -226.076,-26.1832 c 5.2087,-0.9611 7.2335,-1.1402 13.0304,-1.1522 2.9671,-0.01 6.3192,0.05 7.449,0.1244 l 2.0542,0.1357 -0.097,-0.3858 c -0.053,-0.2121 -0.1778,-2.1794 -0.2767,-4.3717 -0.289,-6.4066 0.1653,-12.4411 1.4174,-18.8254 0.3121,-1.5919 0.5365,-2.9255 0.4986,-2.9634 -0.1198,-0.1199 -2.2541,0.6437 -4.406,1.5764 -8.9757,3.8901 -16.1902,10.4594 -21.1514,19.2598 -1.2193,2.1628 -3.2494,6.8527 -3.2494,7.5065 0,0.077 0.5415,0 1.2034,-0.1682 0.6619,-0.169 2.2492,-0.5003 3.5273,-0.7361 z m 179.3738,-0.707 c -3.7355,-10.1123 -11.219,-18.6394 -20.7682,-23.6642 -2.0315,-1.069 -4.28,-2.0313 -4.4198,-1.8916 -0.053,0.054 0.094,1.0542 0.3269,2.2238 1.1197,5.6129 1.5327,10.6597 1.3695,16.7338 -0.064,2.3737 -0.1713,4.7878 -0.2389,5.3646 -0.068,0.5769 -0.082,1.0695 -0.033,1.0948 0.05,0.025 0.7998,-0.017 1.6671,-0.094 2.9549,-0.2626 9.997,-0.2162 13.0303,0.086 2.5619,0.2552 8.8649,1.21 9.0328,1.3683 0.038,0.036 0.168,0.065 0.2888,0.065 0.16,0 0.091,-0.3483 -0.2557,-1.2864 z m -97.3312,-60.6883 -0.042,-14.1953 -2.4069,0.9086 c -2.6752,1.0099 -7.1298,3.1296 -9.8939,4.708 -8.9377,5.1038 -17.5524,13.0817 -23.1534,21.442 -2.2119,3.3015 -4.2826,6.8571 -4.0998,7.0399 0.046,0.046 1.122,0.2359 2.3901,0.421 14.1394,2.0637 26.5081,9.1062 35.676,20.3134 l 1.4879,1.8188 0.042,-14.1306 c 0.024,-7.7718 0.024,-20.5184 0,-28.3258 z m 14.1067,38.8926 c 6.9021,-8.0213 16.6694,-14.158 27.099,-17.0263 3.6423,-1.0016 8.7129,-1.8836 10.8665,-1.8902 0.4603,0 0.9286,-0.061 1.0407,-0.132 0.1463,-0.093 -0.1834,-0.7831 -1.1685,-2.4458 -3.9985,-6.7497 -8.5551,-12.2591 -14.4726,-17.4991 -5.2395,-4.6396 -11.4514,-8.6742 -17.5952,-11.4281 -1.9314,-0.8657 -6.3269,-2.5851 -7.0962,-2.7757 l -0.4564,-0.1131 v 27.5866 c 0,15.1725 0.062,27.5616 0.1375,27.5311 0.076,-0.03 0.8159,-0.8438 1.6452,-1.8074 z m 88.766,-17.5821 c 0,-0.3195 -6.389,-5.6964 -10.0425,-8.4515 -12.7495,-9.6144 -26.4255,-16.8286 -41.415,-21.8468 -3.4978,-1.1709 -7.8833,-2.4627 -7.992,-2.3541 -0.039,0.039 0.8101,0.8457 1.8859,1.7936 8.926,7.8639 16.3361,17.707 20.9611,27.8431 l 1.1091,2.4308 2.5584,0.6748 c 3.0698,0.8097 4.2408,1.1909 6.916,2.2517 4.6877,1.8588 9.642,4.6837 13.7356,7.8319 l 1.1619,0.8936 5.5608,-5.4832 c 3.0584,-3.0158 5.5607,-5.5285 5.5607,-5.5839 z m -180.1845,8.7402 c 4.7683,-3.3751 10.6054,-6.2107 16.2672,-7.9027 2.3924,-0.7149 5.3536,-1.4167 6.7403,-1.5973 l 0.8475,-0.1105 0.7042,-1.6002 c 3.0856,-7.0119 8.1491,-14.901 13.4257,-20.918 1.9488,-2.2222 5.8926,-6.0833 8.1254,-7.955 1.0303,-0.8637 1.8479,-1.5957 1.8168,-1.6268 -0.1743,-0.1744 -9.3231,2.61 -13.0688,3.9775 -13.568,4.9533 -25.8282,11.5801 -37.1569,20.0838 -2.7592,2.0712 -6.971,5.5049 -9.3782,7.6456 l -1.1362,1.0105 5.3684,5.2544 5.3683,5.2543 0.4157,-0.3172 c 0.2286,-0.1745 0.9759,-0.7138 1.6606,-1.1984 z"
           id="path657"
           sodipodi:nodetypes="ssssssssscsssssssssssssssccsssssssssssssssssscssssssssssssssssssscscssssscsssssscssscssssssssssssscsssssscssscssssssssscsssssssssssssssssssssscscssssssssssssssscsssscsscssscssccsssccsssssssssssssscscssssssssccsssscsssssscssssssssccsssssssscssssssscssssssscsssssssssssscscsssssscssscssssssscsscscssscssscsscccsssssssssscsscscsssssccscssssssscccssssssscsscscsssscsccscscssssscsscsssssscssscssssscssssscscccssssssssssc" />
        <path
           d="m 2801.5375,3205.0463 c -7.8413,-0.9246 -12.1006,-5.0022 -15.3254,-14.6716 -1.6099,-4.8273 -2.225,-6.0539 -3.3967,-6.7738 -0.6018,-0.3698 -0.7538,-0.4031 -1.7998,-0.3952 -0.9873,0.01 -1.2869,0.07 -2.2061,0.4584 -1.2107,0.512 -3.2826,1.8602 -4.6947,3.0547 -0.5273,0.4462 -0.9864,0.8112 -1.02,0.8112 -0.034,0 -0.3123,-0.4338 -0.7665,-0.8142 l -0.7054,-0.8142 0.6588,-0.585 c 2.6466,-2.3497 5.4518,-3.8749 8.3316,-4.5299 0.8771,-0.1995 0.9264,-0.2307 0.9264,-0.5862 0,-0.371 -0.014,-0.3774 -1.1666,-0.5352 -5.8769,-0.8047 -10.9714,-2.5772 -14.8983,-5.1833 -7.4147,-4.9209 -12.0437,-13.0125 -13.5858,-23.7481 -0.7003,-4.8745 -0.7307,-11.9303 -0.072,-16.7982 0.947,-7.0046 2.9264,-12.74 6.05,-17.5305 5.184,-7.9506 12.7097,-12.7141 22.6066,-14.3091 6.7087,-1.0811 14.8891,-0.6893 20.6914,0.9911 4.7032,1.3621 8.672,3.5087 11.8765,6.4238 7.9547,7.2362 11.7775,18.9705 11.1565,34.2447 -0.4651,11.44 -3.1879,19.5008 -8.7195,25.8138 -4.5867,5.2348 -12.1805,8.9376 -20.8608,9.7407 l -1.4122,0.1553 v 0.4632 0.4633 l 1.1999,0.1692 c 3.7581,0.5302 6.3229,1.6386 8.3746,3.619 1.8745,1.8095 3.0611,3.8324 4.3499,7.416 0.4483,1.2465 1.167,2.9863 1.5972,3.8663 1.2297,2.5157 2.1602,3.2598 4.216,3.3717 0.8988,0.049 1.1849,0.01 1.7634,-0.2386 1.1394,-0.4901 2.1278,-1.7552 2.6919,-3.4453 0.3386,-1.0142 1.1097,-2.9753 0.8716,-4.1597 l 0.091,-0.8722 0.8873,0.099 c 0.4881,0.055 0.9923,0.1019 1.1207,0.1056 0.1921,0.01 0.2328,0.1306 0.2306,0.7068 -0.01,1.6227 -0.5542,4.1687 -1.2552,5.8309 -0.4954,1.1744 -1.383,2.583 -2.2222,3.526 -1.8843,2.1174 -5.079,3.781 -8.4815,4.4166 -1.1257,0.2102 -5.9744,0.3763 -7.1031,0.2432 z m -10.5489,-27.0646 c 3.5553,0 6.0402,-2.5002 7.6023,-5.6172 1.4625,-2.9181 2.4365,-8.4027 2.9536,-16.6311 0.2218,-3.531 0.3135,-20.4737 0.1416,-26.1641 -0.3517,-11.6361 -0.9273,-15.718 -2.7413,-19.4403 -2.0283,-4.1617 -4.3312,-5.8091 -8.8681,-6.3443 -1.5354,-0.181 -4.5133,-0.076 -5.804,0.2047 -3.0733,0.6683 -4.7067,1.7668 -6.3677,4.2824 -2.3844,3.6114 -3.3943,7.3406 -3.8284,14.137 -0.5316,8.3219 -0.5312,29.5647 0,36.6575 0.3778,5.0399 1.0915,8.7399 2.2807,11.8236 0.7734,2.0054 2.6454,4.3619 4.2914,5.402 2.8237,1.7841 6.4062,1.6898 10.3395,1.6898 z m -323.5484,2.3353 c -8.5192,-0.5559 -15.7723,-3.0963 -21.2353,-7.4376 -8.0713,-6.4139 -12.0919,-16.7252 -12.0919,-31.0112 0,-11.126 2.5374,-20.0532 7.6298,-26.8443 1.2426,-1.6571 3.8019,-4.291 5.4995,-5.6599 5.4951,-4.431 12.0285,-6.937 20.0645,-7.6962 1.9406,-0.1833 7.3807,-0.1839 9.1324,0 3.1618,0.3301 5.3954,0.7499 9.7093,1.8242 4.895,1.2193 6.2708,1.4784 7.0584,1.3297 0.6129,-0.1157 1.2658,-0.6686 1.8326,-1.5519 0.3882,-0.6049 0.47,-0.6629 0.9342,-0.6629 h 0.5088 l 0.074,0.8332 c 0.04,0.4583 0.2246,5.3927 0.4093,10.9655 0.1847,5.5727 0.5112,10.5473 0.4046,11.0322 l 0.069,0.8999 h -0.9918 c -0.9128,0 -0.9992,-0.024 -1.0828,-0.3 -0.05,-0.165 -0.7399,-1.6199 -1.5333,-3.233 -3.9398,-8.0103 -7.8675,-13.4815 -11.7168,-16.3213 -3.8901,-2.8698 -8.7512,-3.6776 -13.2771,-2.2063 -6.3037,2.0492 -10.2023,8.7316 -11.7156,20.0812 -0.6114,4.5853 -0.6801,6.2331 -0.6801,16.3112 0,10.2475 0.09,12.1195 0.8051,16.6843 1.6581,10.5902 5.4911,17.4322 11.132,19.871 1.9774,0.8549 2.8607,1.0192 5.5278,1.0278 2.5981,0.01 3.0847,-0.074 5.1494,-0.8688 4.2483,-1.636 8.7801,-6.3352 12.717,-13.1867 1.1321,-1.9702 3.399,-5.5843 3.9955,-7.896 l 0.6364,-1.4332 h 0.9162 0.9161 v 0.8999 c 0,0.4949 -0.1502,5.6394 -0.3322,11.4321 -0.1819,5.7927 -0.3314,10.8772 -0.3319,11.2988 v 0.7666 h -0.5873 c -0.5497,0 -0.6087,-0.036 -0.9214,-0.5666 -0.409,-0.6938 -0.9672,-1.2361 -1.4664,-1.4247 -0.9015,-0.3406 -1.8906,-0.1851 -7.8905,1.2408 -7.1855,1.7077 -12.749,2.2285 -19.2646,1.8033 z m 402.2899,0.068 c -0.2946,0 -1.2231,-0.1144 -2.0663,-0.1907 -2.2107,-0.1999 -3.2951,-0.3614 -5.3995,-0.8038 -8.5207,-1.7915 -14.3101,-5.7668 -17.2162,-11.8218 -0.7586,-1.5804 -1.6688,-4.3388 -2.0385,-6.1774 -0.7712,-3.8351 -0.4351,-2.069 -0.8037,-30.5213 l -0.073,-26.1972 -3.0331,-0.036 -3.033,-0.036 v -0.9974 -0.9974 h 17.2648 17.2648 v 0.9978 0.9977 l -3.5663,0.035 -3.5663,0.035 -0.038,25.7305 c -0.039,26.0372 0,28.9691 0.4501,32.0888 0.7479,5.2079 2.7091,9.5293 5.2223,11.5067 1.4052,1.1058 3.538,2.0665 5.6012,2.5229 1.2955,0.2867 4.8725,0.5202 6.3631,0.4154 5.2016,-0.3656 9.2543,-2.2176 12.1416,-5.5485 2.0793,-2.3985 3.358,-5.205 4.1807,-9.1752 0.6802,-3.2823 0.9592,-2.9593 0.6746,-31.2434 v -26.364 h -3.533 -3.533 v -1 -0.9998 h 7.9326 7.9324 v 0.9998 1 h -2.9996 -2.9998 v 25.4972 c 0,16.1201 -0.051,26.1592 -0.1367,27.297 -0.4093,5.3998 -1.6039,9.7997 -3.5738,13.1635 -3.3291,5.6847 -8.4602,8.4973 -17.4868,9.5853 -1.5709,0.1894 -8.6727,0.2358 -9.9323,0.2358 z m -357.2281,-2.1201 v -1.1333 h 3.2663 3.2663 v -36.0627 -36.0628 h -3.2663 -3.2663 v -1.1999 -1.1999 h 19.7312 19.7312 v 1.1999 1.1999 h -5.8663 -5.8663 l 0.034,36.0294 0.034,36.0295 2.933,-0.016 c 5.0917,-0.028 7.9176,-0.5747 11.0447,-2.1355 1.9872,-0.9917 3.0015,-1.7295 4.8004,-3.4916 3.3113,-3.2435 8.0492,-8.4205 10.6029,-15.9877 l 0.8178,-1.6331 h 1.0655 c 1.0648,0 1.0655,0 1.0655,0.3546 0,0.1951 -0.4499,5.8668 -0.9998,12.6039 -0.55,6.737 -1,12.3368 -1,12.444 0,0.1701 -3.6622,0.1947 -29.0635,0.1947 h -29.0636 z m 70.7923,0.1358 v -0.9974 l 3.033,-0.036 3.0331,-0.036 v -36.3293 -36.3295 l -3.0331,-0.036 -3.033,-0.036 v -0.9974 -0.9975 h 16.6649 16.6649 v 1 0.9998 h -2.9997 -2.9997 v 36.3961 36.3961 h 2.9997 2.9997 v 0.9999 0.9999 h -16.6649 -16.6649 z m 43.862,0 v -0.9999 h 3.0664 3.0663 v -36.3961 -36.3961 h -3.0663 -3.0664 v -0.9998 -0.9999 h 15.11 15.1101 l 14.3051,27.4304 c 7.8678,15.0866 14.3568,27.4873 14.4201,27.557 0.064,0.071 0.2645,-11.5373 0.115,-26.4305 v -26.5572 h -2.9997 -2.9997 v -0.9998 -0.9999 h 7.4659 7.4659 v 0.9999 0.9998 h -2.9997 -2.9997 v 37.3971 37.397 l -7.6774,-0.034 -7.6774,-0.035 -10.4285,-19.6646 c -5.7356,-10.8155 -14.1642,-26.7138 -18.7301,-35.3295 -4.5661,-8.6157 -8.3571,-15.722 -8.4247,-15.7916 -0.075,-0.077 0.039,13.3344 -0.1229,34.3629 v 34.4896 h 2.9997 2.9997 v 0.9999 0.9999 h -7.4659 -7.4658 z m 78.5249,0 v -0.9999 h 2.9997 2.9996 v -36.3961 -36.3961 h -2.9996 -2.9997 v -0.9998 -0.9999 h 16.6649 16.6648 v 0.9999 0.9998 h -2.9996 -2.9998 v 36.3961 36.3961 h 2.9998 2.9996 v 0.9999 0.9999 h -16.6648 -16.6649 z m 210.3773,-0.1333 v -1.1332 h 3.1997 3.1997 v -36.0628 -36.0628 h -3.1997 -3.1997 v -1.1998 -1.1999 h 28.4636 28.4636 v 0.3666 c 0,0.2016 0.2401,5.0461 0.5321,10.7655 0.2921,5.7193 0.5316,10.4465 0.5322,10.5047 0,0.058 -0.4255,0.088 -0.9469,0.067 l -0.9482,-0.039 -0.8881,-1.9998 c -1.5107,-3.4016 -3.2443,-6.5307 -4.9118,-8.8658 -3.2502,-4.5515 -6.5674,-6.7141 -11.9604,-7.7976 -2.1732,-0.4366 -4.2525,-0.5985 -7.7072,-0.6001 h -2.8999 v 17.0126 17.0127 l 2.9663,-0.066 c 3.4024,-0.075 3.8452,-0.1623 5.8994,-1.158 3.7046,-1.7958 6.5815,-5.8793 8.1284,-11.5372 l 0.4373,-1.5998 0.75,-0.04 0.75,-0.04 v 16.205 16.2049 h -0.8615 -0.8614 l -0.1484,-0.5667 c -1.9683,-7.5128 -4.3926,-11.4587 -8.1944,-13.337 -1.9428,-0.9598 -3.6887,-1.2948 -6.7501,-1.2948 h -2.1156 v 17.6861 17.686 l 3.233,-0.087 c 4.7356,-0.1268 7.2461,-0.5087 10.3267,-1.5709 3.6437,-1.2564 6.8912,-3.3612 9.7757,-6.3357 3.5595,-3.6707 6.1674,-8.0966 7.5503,-12.8136 l 0.2443,-0.833 h 1.0332 c 0.9828,0 1.0332,0.014 1.0328,0.2998 0,0.165 -0.18,5.2494 -0.3995,11.2988 -0.2195,6.0493 -0.3994,11.2838 -0.3995,11.632 v 0.6333 h -30.0635 -30.0634 v -1.1331 z m -335.7638,-106.4587 c -9.1308,-0.5503 -16.7511,-3.4459 -21.9187,-8.3289 -4.0645,-3.8406 -7.1174,-9.2364 -8.7501,-15.465 -1.9739,-7.5304 -2.2808,-17.4877 -0.7896,-25.6253 1.9174,-10.4636 7.0147,-18.704 14.7269,-23.8075 7.1711,-4.7455 17.2946,-6.6061 28.3969,-5.2192 7.0706,0.8832 13.3519,3.62 17.9231,7.8093 3.0415,2.7874 6.0328,7.2852 7.7397,11.6376 3.9737,10.1323 4.3299,25.5456 0.8428,36.4654 -1.9154,5.9979 -5.2284,11.2382 -9.3426,14.7775 -6.7817,5.834 -16.6529,8.4899 -28.8284,7.7561 z m 6.6896,-2.2743 c 2.2261,-0.3092 4.2668,-1.1931 5.7925,-2.5092 3.104,-2.6775 4.5351,-7.9272 5.3275,-19.5437 0.2213,-3.2434 0.3123,-21.5875 0.1344,-27.098 -0.4071,-12.6145 -1.1709,-16.7646 -3.8242,-20.7798 -1.2456,-1.885 -2.7457,-3.0629 -4.7208,-3.7069 -1.7928,-0.5845 -2.4778,-0.6744 -5.1328,-0.6733 -3.7887,0 -5.952,0.5357 -7.8117,1.9284 -1.3325,0.998 -2.7353,2.9686 -3.8708,5.4382 -1.2123,2.6364 -1.9177,6.2666 -2.2482,11.5692 -0.5135,8.239 -0.5131,29.0728 0,36.1885 0.3854,5.3368 1.3561,10.1062 2.5832,12.6922 1.6733,3.526 4.7193,5.7695 8.8137,6.4917 0.9627,0.1698 3.7417,0.1713 4.9565,0 z m 101.4321,2.3322 c 0,-4.7891 -7.816,-1.4087 -10.1141,-3.4728 -1.8218,-1.6365 -3.0036,-4.116 -3.7398,-7.847 -0.5396,-2.734 -0.6369,-4.3773 -0.7416,-12.532 -0.085,-6.6195 -0.1414,-8.2032 -0.3269,-9.1822 -0.6245,-3.2967 -1.6589,-5.1215 -3.409,-6.0138 -1.383,-0.7052 -1.8208,-0.7679 -5.8327,-0.8354 l -3.7663,-0.063 v 18.4796 18.4796 h 3.533 3.533 v 0.9999 0.9999 h -17.7315 -17.7314 v -0.9999 -0.9999 h 3.533 3.5329 v -36.3961 -36.3961 h -3.5329 -3.533 v -0.9998 -1 l 16.0982,0.01 c 22.1784,0.01 28.4946,0.1712 33.5627,0.8773 4.7594,0.6631 9.0045,2.0515 11.3161,3.7009 1.4904,1.0636 3.1548,3.0427 4.0502,4.8162 1.3791,2.7317 2.0697,7.2054 1.7598,11.3988 -0.5127,6.9354 -2.7289,10.6918 -7.8241,13.2614 -2.3166,1.1684 -5.8922,2.1347 -9.1683,2.4778 -0.8065,0.084 -1.4889,0.1747 -1.5163,0.2006 -0.027,0.026 -0.018,0.1312 0.022,0.234 0.042,0.1098 0.3655,0.2249 0.783,0.2787 3.6964,0.4766 7.7759,1.9869 10.0436,3.7185 2.8038,2.1409 4.376,5.8088 4.867,11.354 0.072,0.8093 0.1316,3.7511 0.1334,6.5376 0,6.4918 0.1933,9.4357 0.6946,10.7988 0.4548,1.2368 1.4784,1.8758 2.831,1.7672 2.1183,-0.1699 3.2475,-1.6175 4.1936,-5.3751 0.2205,-0.8753 0.6459,-2.1247 0.6187,-2.7988 l 0.218,-1.2074 0.7964,0.094 c 0.4381,0.051 0.8328,0.1304 0.8773,0.1749 0.2346,0.2345 -0.7533,5.0969 -1.4933,7.3494 -1.7312,5.2704 -3.8022,6.9685 -9.6037,7.8747 -1.1848,0.1851 -6.9326,1.5389 -6.9326,0.2414 z m -20.5311,-42.3023 c 4.3418,-1.1418 6.897,-4.2116 7.9201,-9.5151 0.4571,-2.3691 0.5817,-4.6108 0.5115,-9.2055 -0.055,-3.5982 -0.1116,-4.5477 -0.3506,-5.88 -0.9459,-5.2722 -2.7642,-7.323 -7.4805,-8.4361 -1.2252,-0.2891 -1.8134,-0.3395 -4.7001,-0.4028 l -3.2997,-0.072 v 16.9641 16.9641 l 3.1664,-0.068 c 2.6412,-0.057 3.3431,-0.1143 4.2329,-0.3484 z m -236.0413,40.1148 v -1.1999 h 3.2663 3.2663 v -35.9961 -35.9961 h -3.2663 -3.2663 v -1.1999 -1.1999 h 28.5302 28.5303 v 0.6218 c 0,0.7735 0.8933,19.5674 1.002,21.0819 l 0.08,1.1059 -0.9531,-0.039 -0.9531,-0.039 -0.7002,-1.8664 c -2.7579,-7.3507 -5.5888,-11.8296 -9.2255,-14.5962 -0.9027,-0.6867 -3.6735,-2.124 -4.5811,-2.3765 -0.2567,-0.071 -1.0067,-0.2889 -1.6666,-0.4833 -2.1939,-0.6464 -4.298,-0.8936 -8.4324,-0.9692 l -3.7662,-0.074 v 17.8975 17.8975 l 3.4996,-0.068 c 3.7022,-0.072 4.0723,-0.1248 6.0012,-0.8489 3.928,-1.4743 7.3219,-6.1225 8.7211,-11.9437 l 0.3761,-1.5646 h 0.7665 0.7666 v 16.2043 16.2043 l -0.8766,-0.039 -0.8766,-0.039 -0.5127,-1.9998 c -1.9782,-7.7145 -4.7658,-11.4801 -9.4481,-12.763 -0.8875,-0.243 -1.4922,-0.2862 -4.7175,-0.3363 l -3.6996,-0.058 v 16.7441 16.7439 h 6.7992 6.7993 v 1.1999 1.1998 h -20.7311 -20.7311 v -1.1998 z m 70.3924,0.2 v -0.9999 h 2.9997 2.9997 v -36.3961 -36.3961 h -2.9997 -2.9997 v -0.9998 -1 h 16.6649 16.6648 v 1 0.9998 h -2.9996 -2.9997 v 36.3961 36.3961 h 2.9997 2.9996 v 0.9999 0.9998 h -16.6648 -16.6649 z m 213.9769,-0.2 v -1.1999 h 3.1997 3.1997 v -35.9961 -35.9961 h -3.1997 -3.1997 v -1.1999 -1.1999 h 28.4512 28.4512 l 0.084,1.2333 c 0.1081,1.5823 1.0069,19.4904 1.0071,20.0645 v 0.4333 h -0.9109 -0.9109 l -0.9695,-2.1898 c -2.9032,-6.5575 -6.2273,-11.2934 -9.6258,-13.7137 -2.332,-1.6608 -5.9243,-2.8564 -9.8753,-3.2868 -0.712,-0.078 -2.7967,-0.141 -4.6328,-0.141 h -3.3382 v 16.9982 16.9981 h 2.3096 c 4.7446,0 7.1286,-0.8623 9.7557,-3.5288 1.2995,-1.3188 2.2519,-2.6778 3.2037,-4.5712 0.6408,-1.2748 2.4214,-4.1645 2.0674,-5.7318 l 0.1386,-0.5667 h 0.7281 0.7281 v 16.1983 16.1983 h -0.8503 -0.8504 l -0.2234,-0.8999 c -1.4436,-5.8144 -3.7806,-10.1421 -6.529,-12.0911 -2.3568,-1.6712 -4.9423,-2.3403 -9.0449,-2.3406 l -1.4331,-1e-4 v 17.6648 17.6647 h 3.0716 c 4.9333,0 7.9771,-0.4694 11.247,-1.7345 5.7356,-2.2191 10.8249,-6.8951 14.0833,-12.9397 0.9967,-1.8491 1.3308,-2.6196 2.1348,-4.9237 l 0.628,-1.7998 1.0158,-0.039 1.016,-0.039 v 0.8388 c 0,0.4614 -0.1799,5.7284 -0.3986,11.7044 -0.2187,5.976 -0.3983,10.9705 -0.3991,11.0988 0,0.2215 -1.5223,0.2333 -30.0647,0.2333 h -30.0635 v -1.1999 z"
           style="fill:#aa8800;stroke-width:0.133319"
           id="path2306" />
      </g>
      <path
         style="fill:#000000"
         id="path137"
         d="" />
      <path
         style="fill:#000000"
         id="path117"
         d="" />
    </g>
  </g>
</svg>
