<?xml version="1.0" encoding="UTF-8" standalone="no"?>
<!-- Created with Inkscape (http://www.inkscape.org/) -->

<svg
   version="1.1"
   id="svg9"
   width="736.96149"
   height="227.91551"
   viewBox="0 0 736.96147 227.91551"
   sodipodi:docname="suki-ds.svg"
   inkscape:version="1.1.1 (3bf5ae0d25, 2021-09-20)"
   xmlns:inkscape="http://www.inkscape.org/namespaces/inkscape"
   xmlns:sodipodi="http://sodipodi.sourceforge.net/DTD/sodipodi-0.dtd"
   xmlns="http://www.w3.org/2000/svg"
   xmlns:svg="http://www.w3.org/2000/svg">
  <defs
     id="defs13" />
  <sodipodi:namedview
     id="namedview11"
     pagecolor="#ffffff"
     bordercolor="#666666"
     borderopacity="1.0"
     inkscape:pageshadow="2"
     inkscape:pageopacity="0.0"
     inkscape:pagecheckerboard="0"
     showgrid="false"
     inkscape:zoom="1"
     inkscape:cx="469.5"
     inkscape:cy="129.5"
     inkscape:window-width="1920"
     inkscape:window-height="1017"
     inkscape:window-x="-8"
     inkscape:window-y="-8"
     inkscape:window-maximized="1"
     inkscape:current-layer="g15"
     showguides="false" />
  <g
     inkscape:groupmode="layer"
     inkscape:label="Image"
     id="g15"
     transform="translate(-118.2868,-707.60394)">
    <g
       id="g655"
       transform="matrix(0.1109216,0,0,0.1109216,105.83177,629.11538)">
      <path
         style="fill:#b9b9b9;fill-opacity:1"
         d="m 2340.0064,2761.4558 c -8.6528,-2.0385 -15.8994,-7.5676 -20.0231,-15.2774 l -2.2114,-4.1345 v -1007.5 -1007.50002 l 2.743,-4.66604 c 6.0368,-10.26922 15.8489,-15.4551 27.6408,-14.60859 10.9636,0.78704 19.5349,6.87607 24.3168,17.27463 l 2.2994,5 0.2912,1001.00002 c 0.2124,729.9168 -0.01,1002.6249 -0.818,1007 -2.1476,11.616 -10.4609,20.4655 -21.713,23.1133 -6.4779,1.5243 -7.2455,1.5427 -12.5257,0.2986 z m -1329.2345,-89.5769 c -142.43491,-5.748 -283.93046,-44.9736 -409.30053,-113.4667 -152.84699,-83.5046 -278.44424,-206.4941 -365.96672,-358.3683 -10.9589,-19.0165 -35.56854,-67.4817 -43.66903,-86 -46.46474,-106.2215 -71.47342,-209.2372 -78.53471,-323.5 -1.55506,-25.1634 -1.26872,-93.8342 0.49621,-119 9.84083,-140.3188 48.65848,-271.1967 116.56155,-393 61.59671,-110.491 150.59076,-213.203 249.91327,-288.43608 43.00677,-32.576 76.59622,-54.69478 115.4173,-76.00274 125.80896,-69.05353 254.50227,-106.26999 399.9718,-115.66674 24.08966,-1.5561 103.93876,-0.60744 127.61086,1.51611 94.1235,8.44352 170.7729,25.28635 252,55.3741 106.7797,39.55283 212.3209,103.07184 295.9623,178.12225 13.9017,12.4738 39.7515,36.9347 45.4038,42.9642 2.9022,3.0959 10.3754,11.0289 16.607,17.6289 81.4211,86.2337 149.0854,193.6029 191.4201,303.7435 36.7845,95.7009 56.6892,191.1091 61.7316,295.8946 1.2832,26.6661 -0.019,83.4431 -2.6572,115.8619 -12.2255,150.227 -59.1844,293.0445 -137.7684,419 -116.4898,186.7112 -293.5643,326.7757 -499.9946,395.4915 -77.1901,25.6948 -144.6441,39.2319 -229.7046,46.0987 -18.1543,1.4656 -85.0176,2.5714 -105.5,1.7448 z m 1.4651,-250.085 -0.035,-165.75 -4.2151,4.9849 c -40.69959,48.1326 -93.84825,84.1559 -153.21506,103.8467 -23.29191,7.7254 -52.86296,13.854 -74.17246,15.3723 -4.49485,0.3202 -8.71197,0.9157 -9.37138,1.3232 -2.32097,1.4344 18.90346,35.9998 35.82738,58.3473 48.69774,64.3037 116.54245,114.8126 191.71646,142.7286 7.14996,2.6551 13.11246,4.8432 13.24996,4.8623 0.1375,0.019 0.2343,-74.5528 0.2151,-165.7153 z m 110.5349,150.0754 c 83.1982,-35.5057 154.4541,-99.0371 200.4301,-178.7023 6.9936,-12.1182 6.9515,-12.5815 -1.1457,-12.6078 -11.2155,-0.036 -42.3525,-5.5871 -62.2844,-11.1033 -66.4129,-18.3798 -126.2977,-57.3639 -170.3756,-110.912 l -2.0579,-2.5 -0.033,164.7297 -0.033,164.7296 10.25,-3.6162 c 5.6375,-1.9889 17,-6.4969 25.25,-10.0177 z m -305.74455,-13.0367 c -25.41222,-22.2105 -50.53595,-49.5262 -71.54654,-77.7887 -20.65071,-27.7784 -32.96048,-48.0076 -48.37692,-79.5 -6.05793,-12.375 -11.35737,-23.171 -11.77653,-23.9911 -0.46657,-0.9128 -5.18163,-2.4967 -12.15877,-4.0845 -39.64483,-9.0216 -75.56575,-24.5105 -110.89665,-47.8181 -9.44872,-6.2332 -26.6471,-19.2202 -34.13339,-25.775 -1.46444,-1.2823 -5.0588,1.9484 -34.75,31.2343 -18.21414,17.9654 -33.11661,33.0047 -33.11661,33.4205 0,0.955 20.7397,19.4819 36.5,32.6057 83.16016,69.2487 178.05003,122.4822 278,155.9588 19.04804,6.3799 51.49158,16.2825 53.75541,16.4076 0.41548,0.023 -4.75952,-4.7783 -11.5,-10.6695 z m 468.65745,6.1341 c 59.3477,-16.8862 123.0239,-43.193 179.0871,-73.9869 60.2056,-33.0691 121.5448,-77.3298 169.8274,-122.5426 l 6.8275,-6.3933 -33.375,-32.6335 -33.375,-32.6334 -8.7207,7.2525 c -26.5429,22.0742 -58.6934,41.384 -89.0699,53.4963 -20.0554,7.9968 -34.8082,12.4228 -58.9433,17.6835 -3.5651,0.7771 -4.0339,1.315 -6.8017,7.8048 -18.5873,43.5821 -48.6512,90.573 -81.9111,128.0298 -12.627,14.2204 -38.7559,39.8542 -51.2764,50.3049 -5.4,4.5073 -9.4892,8.1951 -9.0871,8.1951 0.4022,0 7.9704,-2.0598 16.8182,-4.5772 z M 441.02146,2277.8075 c 18.42209,-18.0051 33.69945,-33.27 33.94969,-33.9221 0.25024,-0.6521 -2.00435,-4.7082 -5.01018,-9.0136 -23.80039,-34.09 -41.94915,-75.9327 -51.10639,-117.8279 -1.4426,-6.6 -2.82509,-12.9235 -3.07221,-14.0523 -0.33232,-1.518 -3.3864,-3.3234 -11.72987,-6.9342 -41.1271,-17.7984 -83.42883,-44.1853 -121.28056,-75.6524 -14.00987,-11.6468 -41.77274,-39.1168 -53.84303,-53.2751 -14.70817,-17.2525 -15.87053,-18.475 -15.29443,-16.086 5.23969,21.7281 21.56777,72.1375 31.90508,98.5 35.27969,89.9714 85.97207,174.0934 148.99425,247.25 6.51486,7.5625 12.10344,13.75 12.41907,13.75 0.31563,0 15.64649,-14.7314 34.06858,-32.7364 z m 1263.88684,17.9864 c 65.1508,-76.0222 117.3316,-163.7225 151.8711,-255.25 10.6622,-28.2539 27.5173,-81.3085 26.2378,-82.588 -0.2218,-0.2218 -2.8365,2.6323 -5.8106,6.3424 -8.7774,10.9497 -45.3611,46.9279 -59.7675,58.7783 -35.9001,29.5306 -74.4518,53.5321 -115.4646,71.886 l -18.1358,8.116 -0.8663,3.9826 c -10.8771,50.0045 -28.0739,91.034 -53.396,127.3963 l -4.4663,6.4137 33.8254,33.8363 c 18.6039,18.61 34.1,33.8364 34.4357,33.8364 0.3357,0 5.5274,-5.7375 11.5371,-12.75 z m -922.42461,9.7676 c 47.88609,-6.2094 91.95132,-24.9546 130.21002,-55.3908 12.2684,-9.76 31.78122,-29.1097 40.96919,-40.6268 29.7848,-37.3352 49.047,-81.9934 56.2877,-130.5 1.5716,-10.5286 1.7931,-19.5874 1.8063,-73.878 l 0.015,-61.878 -13.02259,-3.2705 c -28.21509,-7.0859 -53.25545,-19.0662 -76.97737,-36.8291 -10.39158,-7.7812 -28.82644,-25.8124 -37.71691,-36.8911 l -7.01908,-8.7467 -5.66291,4.9058 c -37.6297,32.5992 -66.47309,66.5177 -90.57575,106.5131 -9.13127,15.1522 -24.41688,45.8278 -30.18423,60.5745 -22.86135,58.4549 -32.73622,116.5837 -29.51826,173.7604 1.95347,34.7092 5.40601,57.0522 13.90561,89.9896 l 3.67727,14.25 h 14.25888 c 8.40882,0 20.53127,-0.8133 29.54713,-1.9824 z m 578.79291,-0.5299 c 1.7962,-4.7244 8.9299,-34.9723 10.9636,-46.4877 12.3898,-70.1519 7.759,-136.5353 -14.1609,-203 -23.4696,-71.1635 -66.81,-136.4377 -123.7996,-186.4523 -6.6102,-5.8012 -12.1686,-10.5477 -12.3518,-10.5477 -0.1832,0 -3.2768,3.7125 -6.8745,8.25 -28.9963,36.5701 -72.962,64.3386 -117.0284,73.9146 l -10.7469,2.3354 0.01,56 c 0,30.8 0.4563,61.175 1.0073,67.5 4.3551,49.9862 22.4868,96.9286 53.2468,137.8536 3.9721,5.2848 13.0747,15.6377 20.2281,23.0065 39.1697,40.3498 86.512,65.8858 141.0061,76.0576 15.218,2.8406 25.5494,3.7945 42.7748,3.9494 l 14.7747,0.1329 0.9552,-2.5123 z m 109.1183,-26.5852 c 24.5997,-12.4821 45.8968,-27.8509 64.9367,-46.8609 28.311,-28.2667 46.3811,-55.6073 61.0804,-92.4165 2.1689,-5.4312 3.7808,-10.0376 3.582,-10.2363 -0.1988,-0.1988 -3.8674,0.3094 -8.1525,1.1292 -13.8519,2.6503 -43.6233,6.3151 -61.4135,7.5597 -16.5776,1.1599 -51.251,0.8092 -72.0163,-0.7284 -7.8669,-0.5825 -8.3275,-0.5078 -7.8057,1.2658 0.305,1.0367 1.0787,11.3349 1.7194,22.8849 2.1091,38.0243 -1.1783,81.2912 -9.1449,120.3601 -1.0497,5.148 -1.9086,9.4962 -1.9086,9.6625 0,0.8988 16.9883,-6.4628 29.123,-12.6201 z m -815.02121,-0.114 c -6.25591,-31.5622 -8.2036,-50.1137 -8.82798,-84.0854 -0.33947,-18.4706 -0.0998,-33.835 0.66845,-42.8467 0.65875,-7.7274 0.99937,-14.2481 0.75694,-14.4906 -0.24243,-0.2424 -11.47302,0.065 -24.95687,0.6834 -36.54195,1.6757 -70.81546,-0.7294 -108.50351,-7.6138 -7.90933,-1.4448 -14.62815,-2.3794 -14.9307,-2.0768 -0.95296,0.9529 6.68439,19.5897 13.8553,33.8099 25.08868,49.7519 63.78651,89.0996 112.83662,114.7315 14.8242,7.7467 30.37086,14.3439 30.82051,13.0788 0.17627,-0.496 -0.59717,-5.5317 -1.71876,-11.1903 z m -12.60175,-216.3503 c 8.8,-0.9281 16.95632,-2.0489 18.12516,-2.4906 1.434,-0.542 2.35611,-2.0463 2.83528,-4.6254 1.28061,-6.8929 14.21764,-44.532 20.0461,-58.3222 16.33843,-38.657 35.772,-72.8484 59.96368,-105.5 22.18595,-29.9444 51.40133,-61.377 77.52978,-83.4136 7.425,-6.2622 13.62493,-11.6933 13.77761,-12.069 0.45819,-1.1274 -20.32657,-7.1204 -34.99453,-10.0902 -20.93478,-4.2385 -34.31037,-5.2922 -58.78308,-4.6309 -41.7994,1.1297 -76.83157,10.049 -112.80522,28.7207 -31.72535,16.4667 -59.55887,38.7459 -82.43289,65.983 -36.30158,43.226 -58.0315,99.8878 -60.46418,157.6632 l -0.59635,14.1632 6.89932,2.047 c 22.82798,6.7732 50.58553,11.4422 86.39932,14.5328 9.72387,0.8392 49.34672,-0.3698 64.5,-1.968 z m 883.99996,1.0609 c 22.3597,-1.567 40.0813,-3.9358 59.4228,-7.9429 17.8778,-3.7038 27.2781,-6.2783 28.273,-7.743 0.4907,-0.7222 0.6268,-6.0382 0.3026,-11.8132 -2.3454,-41.7751 -10.4006,-73.8726 -26.9785,-107.5 -13.5001,-27.3844 -28.65,-48.6899 -49.476,-69.5789 -36.4172,-36.5273 -81.3803,-61.2961 -130.5439,-71.9127 -22.6441,-4.8898 -29.1886,-5.5115 -57.5,-5.4626 -22.9551,0.04 -28.239,0.35 -39.5,2.3206 -17.893,3.131 -44.5729,10.0198 -46.792,12.0817 -0.4356,0.4048 2.9394,3.7675 7.5,7.4727 62.3001,50.6153 114.6126,121.4763 145.1228,196.5792 6.0606,14.9186 16.7079,45.6206 18.6018,53.6393 l 1.2138,5.1393 7.1768,1.0637 c 15.291,2.2661 26.3601,3.3433 41.9639,4.0838 8.9171,0.4232 17.1129,0.8313 18.2129,0.907 1.1,0.076 11.45,-0.5246 23,-1.334 z m 173.3552,-50.0712 c 24.3841,-12.9058 57.1813,-35.8732 80.1448,-56.1241 52.0462,-45.8983 95.0963,-109.1737 118.1708,-173.6886 2.1411,-5.9866 3.7274,-11.0503 3.525,-11.2528 -0.2025,-0.2024 -79.0577,-0.2543 -175.2339,-0.1152 l -174.8659,0.2528 6.952,5.4298 c 68.6585,53.6255 115.1376,134.6036 126.488,220.3738 2.54,19.1933 2.8048,20.6964 3.6467,20.6964 0.3545,0 5.3821,-2.5075 11.1725,-5.5721 z m -1287.85055,-0.2369 c 0.013,-10.4557 6.99288,-47.0378 12.37635,-64.8658 12.47672,-41.3181 32.40657,-79.3502 59.64749,-113.8252 12.26468,-15.5217 36.41428,-39.9111 50.97155,-51.4777 5.775,-4.5886 10.9275,-8.7208 11.45,-9.1826 0.5225,-0.4618 -77.02032,-0.8397 -172.31739,-0.8397 H 201.13716 l 0.69241,2.25 c 6.16292,20.0267 27.98542,65.6775 42.28425,88.4552 38.70253,61.652 91.97971,112.3496 155.15812,147.6455 6.325,3.5336 11.8375,6.2237 12.25,5.978 0.4125,-0.2457 0.75207,-2.1077 0.75461,-4.1377 z m 659.61435,-142.7114 c 4.8846,-0.8362 13.156,-2.893 18.381,-4.5707 47.7581,-15.3348 83.1065,-54.5431 93.6795,-103.9089 2.5093,-11.7159 2.5085,-39.8987 0,-52 -11.813,-56.9555 -55.2329,-99.7251 -111.1781,-109.5129 -11.8481,-2.0729 -35.1747,-2.0616 -46.9956,0.023 -46.86389,8.2632 -88.23185,42.7997 -104.79601,87.4902 -6.32519,17.0655 -8.07933,27.2112 -8.03966,46.5 0.0391,19.0019 1.84548,30.2357 7.42715,46.1884 3.83602,10.9636 11.83587,26.2837 18.33205,35.1067 12.69649,17.2443 34.56085,35.3007 52.8224,43.6228 10.09427,4.6001 25.26047,9.3568 35.10627,11.0106 11.2821,1.8952 34.3387,1.9212 45.2624,0.051 z M 538.27194,1697.1531 c 0,-0.215 -4.207,-3.7746 -9.3489,-7.9103 -49.99218,-40.2095 -87.41741,-93.6166 -108.40584,-154.6989 -7.69374,-22.391 -13.74166,-48.8677 -15.83926,-69.3415 -0.37521,-3.6622 -1.01065,-6.6585 -1.4121,-6.6585 -1.0102,0 -22.87281,13.2065 -31.9939,19.3264 -74.72647,50.1392 -134.21648,126.1013 -164.40248,209.9236 l -3.51116,9.75 h 167.45682 c 92.10125,0 167.45682,-0.1759 167.45682,-0.3908 z m 1358.44056,-9.3592 c -34.6885,-95.9881 -104.8957,-178.4009 -194.9406,-228.8312 -14.8313,-8.3064 -13.801,-8.5883 -14.9177,4.0812 -2.4061,27.2959 -12.7776,66.2462 -25.6038,96.1546 -21.4529,50.0244 -58.029,97.7985 -100.3161,131.0283 -3.9393,3.0956 -7.5899,6.0083 -8.1124,6.4727 -0.5225,0.4644 77.4319,0.8444 173.232,0.8444 h 174.1821 z m -1120.94056,-0.7276 c 6.05,-0.8707 16.05892,-2.7161 22.24204,-4.1011 10.65643,-2.3869 33.46312,-9.3175 36.79212,-11.1805 1.21236,-0.6785 -1.10147,-3.1345 -10.74453,-11.4047 -73.50142,-63.0374 -128.78824,-149.9254 -155.31186,-244.0861 -0.89083,-3.1625 -2.15026,-5.7553 -2.79873,-5.7618 -0.64847,-0.01 -8.3302,-0.9038 -17.07051,-1.994 -52.59688,-6.5607 -100.42642,-2.3318 -160.4594,14.1874 l -11.43097,3.1454 0.67777,13.0865 c 3.3734,65.135 30.32663,126.0931 76.10407,172.1189 43.95517,44.1936 102.01765,71.6974 163.5,77.4487 13.22767,1.2374 45.32632,0.437 58.5,-1.4587 z m 614.21316,-0.4246 c 43.1953,-6.5218 84.1201,-23.7603 119.5741,-50.3674 13.611,-10.2145 36.8019,-32.7138 47.1362,-45.7304 36.0347,-45.3874 57.5765,-104.5774 57.5765,-158.2015 v -10.7138 l -6.75,-1.9831 c -10.0902,-2.9643 -38.2561,-8.7865 -50.75,-10.4906 -29.8412,-4.07 -66.3647,-4.5 -97.5,-1.1479 -20.3409,2.1899 -18.5803,1.3685 -20.998,9.796 -26.7796,93.3482 -82.0371,178.8201 -157.7708,244.0383 l -15.2688,13.1488 5.2688,1.7601 c 14.8056,4.9461 39.7878,9.9786 58.6834,11.8215 13.785,1.3444 45.8542,0.3264 60.7986,-1.93 z m -137.5612,-99.9081 c 57.5312,-55.4669 98.5887,-126.1727 117.7424,-202.7662 17.8161,-71.2447 16.7922,-142.2663 -3.0374,-210.6735 l -3.1162,-10.75 -6.1204,-0.1367 c -30.5399,-0.682 -56.8201,2.6857 -83.0865,10.6474 -99.937,30.2923 -171.5274,114.6748 -186.2154,219.4893 -1.5092,10.7701 -1.7563,20.9268 -1.7851,73.3921 l -0.033,60.8921 10.2279,2.2949 c 45.1412,10.1288 88.3477,37.337 117.3473,73.8967 l 8.2421,10.3908 9.0208,-7.6534 c 4.9614,-4.2094 14.3277,-12.7699 20.8139,-19.0235 z m -367.55789,15.5603 c 21.899,-27.2828 52.18817,-49.5169 86.83368,-63.7415 l 8.92775,-3.6655 3.28769,-7.8163 c 10.0494,-23.892 16.64267,-50.0584 19.40867,-77.0267 1.6662,-16.2457 0.68,-47.934 -2.0229,-65 -5.88485,-37.1554 -20.44996,-74.9817 -40.04548,-104 -38.22539,-56.6067 -94.3185,-96.0869 -158.48348,-111.546 -14.36029,-3.4598 -37.4809,-6.754 -50.25226,-7.1599 l -9.25227,-0.2941 -1.44275,5 c -7.59818,26.3323 -13.09069,55.3127 -15.54105,82 -1.30534,14.2167 -1.28326,54.5932 0.0383,70 8.02582,93.5668 46.28861,179.9427 111.47176,251.6405 11.2582,12.3834 38.88391,38.8046 40.61565,38.8447 0.35055,0.01 3.25607,-3.2477 6.45671,-7.2352 z m -649.51028,-104.25 c 12.03362,-13.6221 33.95858,-35.1547 48.02702,-47.1677 33.08848,-28.254 75.93288,-55.9329 111.88919,-72.2841 5.225,-2.3761 9.84937,-4.6308 10.27637,-5.0105 0.42701,-0.3798 2.12575,-7.2641 3.77498,-15.2986 10.20736,-49.7265 31.13539,-96.31 61.16328,-136.1429 l 8.97367,-11.9039 -31.14918,-31.0961 -31.14918,-31.0962 -5.43587,5.7869 c -22.97819,24.4618 -57.72527,68.6865 -79.12971,100.7131 -52.89196,79.1401 -92.47515,165.7974 -116.77096,255.64 -1.95437,7.227 -3.5534,13.6845 -3.5534,14.35 0,0.6654 3.00746,-2.5476 6.68323,-7.14 3.67578,-4.5925 11.05603,-13.3 16.40056,-19.35 z m 1644.86447,1.4514 c -30.7767,-107.8015 -83.7036,-210.8945 -153.4785,-298.9514 -10.1849,-12.8535 -28.3444,-34.3691 -36.7116,-43.4965 l -5.4971,-5.9966 -26.8805,26.1705 c -35.9535,35.0038 -40.7387,39.9342 -39.9682,41.1809 0.3611,0.5842 4.2936,6.1425 8.739,12.3519 26.2704,36.6946 46.3018,82.4265 55.0469,125.6721 2.179,10.7758 2.4616,11.4536 5.3017,12.7182 1.65,0.7347 8.625,3.845 15.5,6.9118 38.6221,17.2284 79.1233,42.9139 116.4059,73.8238 14.6987,12.1861 42.5125,39.934 56.0289,55.8959 5.464,6.4526 10.0608,11.6058 10.2151,11.4514 0.1544,-0.1543 -1.9614,-8.1337 -4.7016,-17.732 z M 503.73475,1341.5879 c 25.55515,-5.5856 54.0358,-9.3198 81.03719,-10.6252 12.46092,-0.6024 52.66095,0.8184 62.90825,2.2234 l 4.90825,0.673 -0.67256,-7.4076 c -1.45872,-16.0662 -1.88299,-56.7462 -0.75517,-72.4076 1.5544,-21.5852 4.5836,-44.1913 8.54481,-63.7677 1.80649,-8.9278 3.18775,-16.355 3.06945,-16.505 -0.46923,-0.5949 -18.18074,6.1321 -29.69956,11.2801 -59.0626,26.3968 -108.21967,75.8615 -134.17718,135.0169 -4.77234,10.8758 -9.84853,24.4757 -9.13564,24.4757 0.24622,0 6.53369,-1.3302 13.97216,-2.956 z m 1096.53715,-0.6194 c 0,-2.0728 -9.4502,-24.0895 -14.9906,-34.9246 -12.7461,-24.9268 -27.3403,-44.9314 -47.4588,-65.0525 -18.6132,-18.6158 -32.2799,-29.3667 -53.5506,-42.1258 -13.2369,-7.9401 -36.5783,-19.0768 -37.678,-17.9771 -0.1877,0.1878 0.5795,4.7995 1.7049,10.2484 3.3224,16.086 5.8404,32.8478 7.4973,49.907 1.8218,18.7576 2.0643,60.9875 0.4558,79.3655 -0.5953,6.8011 -0.8744,12.5734 -0.6204,12.8275 0.2541,0.254 7.8146,-0.022 16.8012,-0.6139 36.925,-2.4312 75.3741,-0.2172 110.8392,6.3822 13.2358,2.4629 17,2.8977 17,1.9633 z M 1011.8043,884.74293 c -1.0897,-1.08966 -30.45579,10.93275 -48.68963,19.9334 -29.05901,14.3442 -50.89837,27.88032 -73.84273,45.76798 -33.36771,26.01383 -67.71361,62.32589 -89.95039,95.09959 -11.79836,17.389 -26.82207,42.6373 -25.86937,43.475 0.17587,0.1546 5.94476,1.0308 12.81976,1.947 52.95635,7.0576 104.85922,27.8111 150.74196,60.2746 21.64837,15.3169 47.78922,39.9585 65.2629,61.5198 l 9.4951,11.7164 0.2529,-169.6302 c 0.1391,-93.29659 0.04,-169.8432 -0.2205,-170.10357 z m 92.6272,310.01267 c 28.0917,-30.2941 67.799,-59.0044 104.7449,-75.7358 36.9513,-16.7338 72.5701,-25.9165 116.4189,-30.0133 5.807,-0.5425 6.73,-0.8852 6.1963,-2.3001 -1.5529,-4.1163 -19.6659,-33.1654 -27.3411,-43.8487 -52.9069,-73.64239 -121.7934,-125.61354 -207.9286,-156.87076 l -9.25,-3.3567 0.035,165.70686 0.035,165.7068 4.2151,-4.9749 c 2.3183,-2.7362 8.1119,-9.1773 12.8747,-14.3134 z m 493.877,-64.1999 33.4634,-32.9881 -5.5,-5.0697 c -8.8767,-8.1822 -38.6238,-32.9582 -50,-41.6444 -73.9624,-56.47305 -150.2777,-98.09847 -237.761,-129.68434 -25.0419,-9.04138 -61.2697,-20.16569 -63.2492,-19.42167 -0.4338,0.16301 4.367,4.79639 10.6684,10.29639 23.3225,20.35659 50.9617,50.02465 69.8652,74.99366 21.1405,27.92386 37.6164,54.95626 53.4728,87.73416 l 9.4008,19.433 11.5515,2.7493 c 42.8787,10.2053 88.5404,31.7867 122.5515,57.9226 6.05,4.6491 11.2415,8.5012 11.5366,8.5601 0.2952,0.059 15.5952,-14.7375 34,-32.881 z m -1057.99912,23.4594 c 10.10381,-7.7747 31.67019,-21.1749 44.83807,-27.8599 30.73511,-15.6036 57.50684,-25.0051 89.99783,-31.605 7.90533,-1.6058 14.52262,-3.0689 14.70508,-3.2514 0.18247,-0.1825 2.62644,-5.4895 5.43104,-11.7933 16.81121,-37.7863 42.27792,-78.1887 71.83306,-113.96162 11.57594,-14.0113 44.06049,-46.70526 57.4757,-57.84623 5.40001,-4.48458 9.38902,-8.15377 8.86445,-8.15377 -1.63621,0 -34.93247,9.62966 -51.18267,14.80262 -59.31855,18.88298 -131.35761,52.28782 -185.5,86.0172 -41.42706,25.808 -86.37199,59.2377 -118.32868,88.0118 l -8.32869,7.4993 31.32273,31.3345 c 17.22751,17.234 31.69709,31.3346 32.15464,31.3346 0.45755,0 3.4804,-2.038 6.71744,-4.5288 z M 5444.3224,2647.4369 c -21.5826,-1.7294 -41.0778,-7.4416 -56.5505,-16.5696 -10.3429,-6.1017 -27.7091,-23.3512 -36.3784,-36.134 -9.1809,-13.5371 -17.9465,-32.6701 -26.4298,-57.6894 -4.1027,-12.1 -8.4088,-24.3715 -9.569,-27.27 -8.879,-22.1825 -17.9721,-29.1558 -34.1904,-26.2196 -12.1149,2.1933 -28.149,11.2161 -45.9324,25.8474 l -8.5,6.9934 -4.5,-5.078 c -7.1581,-8.0775 -7.1847,-7.4122 0.5825,-14.5602 16.8355,-15.4934 41.1775,-28.3108 61.2754,-32.2648 5.7143,-1.1242 6.1421,-1.3971 6.1421,-3.918 0,-2.6797 -0.1076,-2.7227 -9.75,-3.8964 -36.7996,-4.4795 -76.0783,-17.4193 -103.915,-34.2334 -54.512,-32.9268 -90.552,-88.3105 -105.3542,-161.9004 -12.2726,-61.0143 -10.3336,-136.4713 5.0178,-195.2708 18.2593,-69.9372 58.1569,-125.6675 113.6173,-158.7044 43.3928,-25.8484 102.4128,-38.9337 165.3841,-36.6672 66.9185,2.4086 117.9046,18.3994 159.5,50.0243 47.7787,36.326 80.435,98.3985 91.464,173.8531 5.9364,40.6136 6.4964,91.8326 1.4571,133.265 -11.7467,96.5785 -51.7915,162.54 -120.4211,198.3569 -21.1234,11.0241 -44.1756,18.9712 -70,24.1323 -12.8137,2.5608 -19.4556,3.6031 -35.75,5.6099 -3.8941,0.4796 -4.25,0.7644 -4.25,3.4009 0,2.6744 0.3352,2.9236 4.75,3.5308 11.1062,1.5276 25.4053,4.7913 34.408,7.8533 14.2288,4.8396 23.8257,10.6837 33.8543,20.6159 14.3086,14.1709 22.4098,28.076 32.3347,55.5 15.3224,42.3382 23.1164,52.4046 41.935,54.1619 21.8948,2.0445 34.7126,-15.1423 40.2283,-53.9404 0.7992,-5.6218 1.4613,-10.5629 1.4714,-10.9802 0.017,-0.7107 7.2769,-0.2836 14.8634,0.8744 l 3.3452,0.5106 -0.692,7.1869 c -2.4023,24.9513 -8.4201,43.3547 -19.5314,59.7308 -8.7832,12.9449 -26.7227,26.921 -43.5439,33.9237 -20.0343,8.3403 -49.067,12.1134 -76.3725,9.9253 z m -84.9767,-203.4955 c 23.3923,-3.977 41.7643,-15.4547 53.4583,-33.3975 15.0759,-23.1319 23.7939,-68.1901 27.4548,-141.8966 1.3168,-26.5102 1.3122,-182.7403 -0.01,-213.1175 -1.8286,-42.133 -5.3554,-75.5569 -10.0226,-94.9859 -2.6522,-11.0406 -10.7663,-29.3626 -17.5472,-39.6226 -5.5357,-8.3758 -14.5928,-17.5696 -21.7975,-22.1264 -14.0823,-8.9068 -41.7484,-13.673 -65.6134,-11.3035 -38.3814,3.8108 -54.5769,15.5441 -72.5384,52.5525 -10.5304,21.697 -15.1811,44.8583 -18.5737,92.5 -1.6296,22.8832 -2.3643,212.4551 -0.9419,243 2.41,51.7492 7.3043,84.0849 16.678,110.1878 8.8331,24.5975 25.5328,43.128 47.0051,52.1582 6.0727,2.5539 19.0907,6.1962 24.8709,6.9586 8.0841,1.0664 28.9253,0.5632 37.5738,-0.9071 z m -2434.5738,17.1131 c -43.8443,-4.2862 -74.3296,-12.4826 -108,-29.0372 -24.7786,-12.1829 -42.3377,-24.478 -59.5858,-41.723 -41.3842,-41.3765 -64.2215,-96.7497 -71.4161,-173.161 -1.7542,-18.6311 -1.9956,-62.7948 -0.4517,-82.6395 5.5376,-71.1753 27.8149,-130.7788 65.2309,-174.5264 38.8226,-45.3924 93.7127,-75.3694 156.2227,-85.3177 39.4641,-6.2806 75.1177,-6.5841 115.4711,-0.983 16.6375,2.3092 17.5642,2.5096 57.0289,12.3277 16.225,4.0365 32.8844,7.8815 37.0209,8.5445 12.3948,1.9867 18.4934,-0.7212 24.4791,-10.8692 2.9331,-4.9727 3.1059,-5.0866 7.75,-5.106 l 4.75,-0.02 0.01,6.25 c 0.01,3.4375 1.351,42.7 2.9897,87.25 1.6387,44.55 2.9841,82.0322 2.9897,83.2938 0.01,2.206 -0.2634,2.2826 -7.1349,2 -5.1218,-0.2106 -7.3619,-0.7186 -7.9101,-1.7938 -0.4207,-0.825 -6.3985,-12.975 -13.2841,-27 -34.543,-70.3589 -68.8458,-113.5736 -104.1606,-131.2214 -15.5235,-7.7575 -29.3799,-10.9057 -48,-10.9057 -43.1515,0 -74.7963,20.908 -96.2262,63.5774 -12.4538,24.7971 -20.4014,54.0119 -25.8418,94.9935 -6.0988,45.9403 -7.168,165.2365 -1.9454,217.0562 7.2797,72.23 26.0384,123.8832 55.9755,154.132 14.3281,14.4773 28.7191,22.7057 48.2309,27.5773 12.4541,3.1094 37.1996,3.1193 48.4824,0.019 20.7309,-5.6956 37.0188,-15.3455 56.1165,-33.2465 29.0452,-27.2252 59.2783,-75.03 85.5248,-135.2322 l 2.0708,-4.75 h 7.5144 7.5144 l -0.488,9.75 c -0.2685,5.3625 -1.366,40.35 -2.439,77.75 -1.073,37.4 -2.2352,74.1875 -2.5826,81.75 l -0.6316,13.75 -4.6375,-0.045 c -4.5706,-0.045 -4.6918,-0.132 -8.387,-6.0486 -2.821,-4.517 -4.8018,-6.4812 -8,-7.9329 -7.38,-3.3499 -11.0401,-2.8248 -59.2506,8.5 -27.8049,6.5315 -42.8253,9.35 -64.5,12.1032 -17.431,2.2142 -71.6779,2.7741 -90.5,0.9341 z m 3021.5,0.8539 c -60.3506,-5.2584 -99.3669,-17.4258 -134.8534,-42.0545 -34.2888,-23.7976 -55.6438,-63.5486 -63.5583,-118.31 -3.2453,-22.4548 -3.579,-43.4288 -3.5837,-225.25 v -181.75 h -22.5 -22.5 v -8 -8 h 129.5 129.5 v 8 8 h -26.5249 -26.5248 l 0.3184,209.25 c 0.2939,193.1272 0.453,210.1325 2.0653,220.7041 6.4605,42.3607 18.2517,69.7701 37.4806,87.1258 11.085,10.0052 25.5387,16.8412 44.5084,21.0506 11.9262,2.6465 44.0963,3.6913 58.3988,1.8966 35.966,-4.513 64.9981,-20.5102 84.5844,-46.6075 14.9648,-19.9395 24.0554,-44.5383 29.3498,-79.4196 1.6079,-10.5937 1.7715,-27.3603 2.075,-212.75 l 0.3295,-201.25 h -26.5303 -26.5302 v -8 -8 h 60.0421 60.042 l -0.292,7.75 -0.2921,7.75 -22.7242,0.2687 -22.7242,0.2687 -0.3204,201.2313 c -0.3484,218.8871 -0.02,205.5664 -5.7575,233.8245 -7.3096,36.0033 -22.0873,65.9028 -42.9737,86.9482 -22.8932,23.0674 -58.1029,37.5235 -106,43.5205 -12.8502,1.609 -71.7229,2.8723 -84,1.8026 z m -2674,-16.3645 v -9 h 24.5018 24.5019 l -0.2519,-269.75 -0.2518,-269.75 -24.25,-0.2678 -24.25,-0.2678 v -8.9822 -8.9822 h 148 148 v 9 9 h -43.5 -43.5 v 270 270 l 21.75,-0.019 c 44.2364,-0.04 71.4035,-6.9982 98.5835,-25.2509 28.776,-19.3245 62.8934,-65.4627 94.6665,-128.0208 l 10.5,-20.6734 8.7309,-0.018 8.7308,-0.018 -0.5065,4.25 c -0.2786,2.3375 -3.6496,43.625 -7.4911,91.75 -3.8415,48.125 -7.2325,89.4125 -7.5356,91.75 l -0.551,4.25 h -217.9388 -217.9387 v -9 z m 531,1.5 v -7.5 h 22.5 22.5 v -272.5 -272.5 h -22.5 -22.5 v -8 -8 h 125.5 125.5 v 8 8 h -23.0018 -23.0018 l 0.2518,272.25 0.2518,272.25 22.75,0.2688 22.75,0.2687 v 7.4813 7.4812 h -125.5 -125.5 z m 329,0 v -7.5 h 22.5 22.5 v -272.5 -272.5 h -22.5 -22.5 v -8.0043 -8.0042 l 113.6704,0.2542 113.6704,0.2543 107.0796,205.1775 c 58.8938,112.8477 107.4171,205.5102 107.8296,205.9167 0.4125,0.4065 0.75,-88.4359 0.75,-197.4275 v -198.1667 h -22.5 -22.5 v -8 -8 h 56 56 v 8 8 h -22.5 -22.5 v 280 280 l -57.75,-0.031 -57.75,-0.031 -83,-156.6673 c -170.5884,-321.9956 -197.517,-372.6883 -198.4981,-373.6694 -0.6743,-0.6743 -0.9227,83.9964 -0.7538,256.9462 l 0.2519,257.9519 22.75,0.2688 22.75,0.2687 v 7.4813 7.4812 h -56.5 -56.5 v -7.5 z m 588,0.019 v -7.4813 l 22.75,-0.2687 22.75,-0.2688 0.2518,-272.2312 0.2518,-272.2312 -22.7518,-0.2688 -22.7518,-0.2688 -0.2921,-7.75 -0.292,-7.75 h 125.542 125.5421 v 8 8 h -22.5018 -22.5018 l 0.2518,272.25 0.2518,272.25 22.25,0.2691 22.25,0.2692 v 7.4808 7.4809 h -125.5 -125.5 z m 1578,-1.519 v -9 h 24.5 24.5 v -270 -270 h -24.5 -24.5 v -9 -9 h 213.9147 213.9147 l 0.5945,7.25 c 0.7082,8.636 7.5893,146.5933 7.5815,152 l -0.01,3.75 -7.25,-0.023 -7.25,-0.023 -4.4083,-10.2275 c -6.8839,-15.9707 -21.3946,-44.1418 -28.873,-56.0539 -31.2706,-49.8101 -59.4238,-68.6076 -114.2187,-76.2622 -5.775,-0.8067 -22.7642,-1.7483 -37.7538,-2.0923 l -27.2539,-0.6256 0.2539,127.4033 0.2538,127.4032 20,-0.1605 c 21.0741,-0.1691 28.5561,-1.2195 39.5,-5.5453 30.5055,-12.0581 56.1354,-46.4939 67.6663,-90.9151 l 2.8241,-10.8791 h 6.2548 6.2548 v 121.5 121.5 h -7.2589 -7.259 l -2.8468,-11.25 c -5.5506,-21.9345 -16.8058,-49.2781 -25.6887,-62.4086 -19.3185,-28.5619 -44.3769,-40.3404 -85.8203,-40.3404 h -14.1217 v 132 132 l 20.25,-0.01 c 34.8569,-0.018 55.791,-2.8982 80.0781,-11.0185 36.753,-12.2883 70.3753,-37.9259 96.353,-73.4712 14.1731,-19.3929 27.0535,-45.5064 34.8974,-70.75 l 1.7867,-5.75 h 7.8174 7.8174 v 7.1516 c 0,8.3985 -4.6548,141.703 -5.5729,159.5984 l -0.6285,12.25 h -225.8993 -225.8993 v -9 z m -2524.1488,-798.102 c -46.4325,-3.5762 -91.8935,-16.9547 -124.4302,-36.6181 -33.1231,-20.0178 -59.8852,-49.4762 -78.3827,-86.2799 -17.6089,-35.0356 -27.1724,-70.9243 -32.2438,-121 -1.9196,-18.955 -1.6077,-73.7402 0.5295,-93 8.6014,-77.5133 32.7835,-134.6688 76.017,-179.67 42.2318,-43.9585 97.7063,-68.2665 169.659,-74.3419 25.3876,-2.1436 61.1913,-0.9187 88.7972,3.0378 44.739,6.4122 88.348,24.3564 118.2028,48.638 26.0064,21.1516 49.9683,53.0866 64.1766,85.5305 18.0222,41.1529 27.1097,87.336 28.4937,144.8056 2.4906,103.4246 -22.4466,183.8334 -73.5611,237.1933 -19.1395,19.9803 -35.7215,32.1218 -60.6092,44.3783 -30.6789,15.1087 -66.3158,24.1066 -108.4499,27.3826 -15.3344,1.1923 -52.3845,1.1618 -68.1989,-0.056 z m 56.1488,-17.3623 c 19.2279,-2.6099 33.1765,-8.9596 45.5946,-20.7555 12.2988,-11.6827 18.86,-24.1208 24.9735,-47.3427 11.9626,-45.4395 16.3468,-115.7817 15.048,-241.4375 -1.1893,-115.0594 -5.1149,-159.5914 -16.7047,-189.5 -9.6947,-25.018 -23.0178,-41.3746 -40.4114,-49.6125 -14.3071,-6.7761 -37.3153,-9.9356 -58.3565,-8.0135 -32.7739,2.9939 -47.9789,11.0244 -62.6773,33.1032 -21.127,31.7352 -27.3783,60.0481 -30.4744,138.0228 -1.2698,31.9792 -1.2553,187.0531 0.02,216 2.3625,53.616 7.8204,88.1876 18.091,114.5928 9.8464,25.3144 29.4421,44.0479 53.821,51.4527 15.8583,4.8169 32.7824,5.9733 51.076,3.4902 z m 750.5,17.3644 c -19.4623,-2.0287 -38.6441,-7.7404 -51.7399,-15.4064 -22.0744,-12.9219 -34.2472,-32.9852 -41.2488,-67.9868 -4.1901,-20.947 -4.6953,-29.2975 -5.5054,-91.0069 -0.6204,-47.2626 -1.1285,-62.1229 -2.3932,-70 -4.3327,-26.9869 -12.623,-41.3983 -27.9374,-48.5648 -9.2674,-4.3367 -14.5199,-4.9352 -43.3118,-4.9352 h -26.3635 v 138 138 h 27 27 v 7.5 7.5 h -134 -134 v -7.4837 -7.4836 l 26.75,-0.2664 26.75,-0.2663 v -272.5 -272.5 l -26.75,-0.2663 -26.75,-0.2664 v -7.4836 -7.4837 l 136.75,0.022 c 161.0635,0.025 192.1902,0.7737 231.75,5.5703 38.7446,4.6978 76.1124,16.9171 92.5,30.2475 30.1241,24.5043 43.6398,61.0378 41.6793,112.6605 -1.4528,38.2536 -10.2138,65.0041 -27.818,84.9387 -13.3958,15.1692 -42.6919,29.9236 -72.3613,36.4433 -8.5078,1.8695 -27.9395,4.8127 -35.423,5.3653 -4.8188,0.3558 -5.0729,2.4903 -0.3912,3.2873 15.693,2.6717 30.5502,6.1384 40.4355,9.4351 39.9179,13.3121 59.3037,33.452 68.9449,71.6273 4.9209,19.4846 5.9946,33.809 6.9634,92.903 0.8683,52.9666 1.318,60.0089 4.4295,69.3769 4.1972,12.6367 17.4942,17.3137 30.7488,10.8155 11.9123,-5.84 18.0749,-19.1481 25.2749,-54.5799 1.3845,-6.8132 2.5172,-12.5438 2.5172,-12.7347 0,-0.5842 12.4558,0.8375 13.1499,1.501 1.4085,1.3462 -4.4228,32.9021 -8.9971,48.6879 -7.7799,26.848 -16.9538,42.47 -30.2376,51.4909 -11.478,7.7946 -31.1442,13.7196 -52.7712,15.8989 -11.9165,1.2008 -42.8899,1.1688 -54.644,-0.056 z m -153.5,-315.3642 c 19.106,-2.9208 32.0801,-8.8199 43.7266,-19.8819 22.9884,-21.8344 31.5294,-57.2304 29.9582,-124.154 -0.8785,-37.4188 -4.0605,-56.3784 -12.2607,-73.0541 -6.3185,-12.8492 -19.4201,-23.508 -35.4241,-28.8195 -12.1823,-4.0431 -23.9297,-5.5724 -48.25,-6.2814 l -22.75,-0.6632 v 127.1591 127.1591 l 17.75,-0.01 c 10.4597,0 21.6519,-0.6024 27.25,-1.4582 z m -1760,299.4641 v -9 h 24.5 24.5 v -270 -270 h -24.5 -24.5 v -9 -9 h 214 c 117.7,0 214.0006,0.3375 214.0014,0.75 7e-4,0.4125 1.8001,37.875 3.9986,83.25 2.1985,45.375 3.9979,83.5125 3.9986,84.75 0,2.128 -0.3944,2.25 -7.3011,2.25 h -7.3024 l -1.8183,-5.25 c -5.2458,-15.1467 -14.6357,-37.5587 -21.5847,-51.5188 -27.1689,-54.5805 -54.9544,-78.4435 -104.9921,-90.1704 -15.637,-3.6646 -30.867,-5.1845 -57.75,-5.763 l -26.25,-0.5649 v 134.1336 134.1335 l 16.75,-0.01 c 38.1471,-0.019 55.2221,-4.0989 72.9568,-17.4302 21.6974,-16.3102 40.2019,-48.3774 47.7868,-82.8112 l 1.7072,-7.75 h 5.8996 5.8996 v 121.5 121.5 h -6.7924 -6.7923 l -2.8672,-12.1454 c -3.8493,-16.3055 -10.3253,-35.3573 -16.3859,-48.2057 -10.4922,-22.2436 -22.94,-35.9444 -40.4327,-44.5029 -15.378,-7.5238 -20.6037,-8.4294 -51.4795,-8.9218 l -26.25,-0.4186 v 125.5972 125.5972 h 51 51 v 9 9 h -155.5 -155.5 v -9 z m 528,1.5 v -7.5 h 22.5 22.5 v -273 -273 h -22.5 -22.5 v -7.5 -7.5 h 125.5 125.5 v 7.4812 7.4813 l -22.75,0.2687 -22.75,0.2688 v 272.5 272.5 l 22.75,0.2688 22.75,0.2687 v 7.4813 7.4812 h -125.5 -125.5 z m 1604,-1.5 v -9 h 24.5 24.5 v -270 -270 h -24.5 -24.5 v -9 -9 h 213.9809 213.981 l 0.454,2.25 c 0.2497,1.2375 2.0612,36 4.0254,77.25 1.9642,41.25 3.7874,76.9313 4.0516,79.2918 l 0.4803,4.2918 -7.5978,-0.2918 -7.5978,-0.2918 -6.6621,-15 c -11.3328,-25.516 -24.3354,-48.9854 -36.8427,-66.5 -24.3867,-34.1499 -49.3909,-50.4446 -89.7133,-58.464 -16.5135,-3.2843 -32.5149,-4.536 -57.9854,-4.536 h -21.5817 l 0.2538,127.25 0.2538,127.25 19,-0.1079 c 27.1509,-0.1541 40.1877,-3.2311 55.2873,-13.0493 8.1191,-5.2792 23.8779,-21.4359 30.0833,-30.8428 9.91,-15.023 19.3384,-37.2208 23.6794,-55.75 l 1.8157,-7.75 h 6.3171 6.3172 v 121.5 121.5 h -6.9224 -6.9225 l -1.0282,-3.25 c -0.5654,-1.7875 -1.7635,-6.175 -2.6624,-9.75 -5.2765,-20.9859 -16.1439,-46.7837 -25.8574,-61.3822 -14.3871,-21.6224 -34.4283,-34.3741 -60.6071,-38.5627 -3.575,-0.572 -13.8125,-1.0434 -22.75,-1.0475 l -16.25,-0.01 v 132.1366 132.1365 l 27.75,-0.5528 c 29.6925,-0.5915 43.2009,-2.1716 61.75,-7.2229 35.4239,-9.6467 68.987,-31.4634 95.1259,-61.8336 20.874,-24.2531 36.2271,-52.1439 46.4672,-84.4138 l 2.3006,-7.25 h 8.3719 8.3718 l -0.5671,7.75 c -0.312,4.2625 -1.7094,42.175 -3.1054,84.25 -1.396,42.075 -2.7791,78.8625 -3.0735,81.75 l -0.5353,5.25 h -225.9281 -225.928 z"
         id="path661" />
      <path
         style="fill:#a3a3a3;fill-opacity:1"
         d="m 2333.7719,2759.1879 c -6.6086,-3.0882 -12.0771,-8.8978 -14.519,-15.4244 -1.9744,-5.277 -1.9828,-10.1497 -1.7325,-1010.5111 0.25,-999.1154 0.2635,-1005.23277 2.229,-1009.20852 2.4358,-4.92731 9.2017,-11.64537 14.041,-13.94174 12.8776,-6.11082 29.6611,-0.61555 37.1784,12.17298 l 2.8031,4.76876 0.252,1006.40582 0.252,1006.4058 -2.335,5.1003 c -4.8692,10.6356 -14.2399,16.5686 -26.169,16.5686 -5.2428,0 -8.2552,-0.5866 -12,-2.3365 z m -1322.5,-87.6848 c -61.43235,-2.1604 -127.78672,-11.6402 -189.49996,-27.0733 -25.89746,-6.4764 -36.35841,-9.5054 -62.5,-18.0973 -175.81206,-57.7836 -326.57602,-162.4688 -442.5461,-307.2886 -23.43715,-29.2676 -42.10078,-55.7411 -66.70202,-94.6138 -15.5428,-24.5594 -44.57142,-79.8688 -58.19752,-110.8862 -46.37546,-105.5655 -71.91655,-211.7181 -78.52482,-326.3609 -1.30371,-22.6174 -1.31672,-82.8621 -0.0227,-105.1391 7.24972,-124.8064 37.65637,-242.3098 91.73484,-354.5 42.30537,-87.7659 100.97966,-171.8876 168.4445,-241.5 45.57512,-47.0259 80.03263,-76.8762 132.31382,-114.62261 133.12731,-96.11639 291.68955,-155.08309 458,-170.32272 35.49734,-3.25274 52.73486,-3.8347 95.99996,-3.24104 59.0434,0.81015 95.147,3.99576 149.5,13.19117 90.5055,15.31166 173.9262,42.72436 259,85.10945 108.1674,53.89067 204.2901,128.33905 286.4839,221.88575 126.0007,143.4043 205.1962,322.1186 226.4447,511 7.9978,71.094 7.2971,148.8632 -2.0093,223 -23.0408,183.5494 -100.1749,356.2626 -221.5816,496.1503 -6.7545,7.7827 -16.638,18.8077 -21.9635,24.5 -5.3254,5.6923 -11.5257,12.3404 -13.7784,14.7734 -7.8374,8.465 -45.096,43.3951 -59.5487,55.8274 -62.1815,53.4886 -126.4046,96.1949 -198.0471,131.6948 -99.7416,49.4236 -207.5635,80.8094 -316,91.9842 -50.7896,5.2341 -84.8931,6.3615 -137,4.5291 z m 0.9641,-249.7092 -0.036,-165.75 -5.1328,6 c -9.37525,10.9591 -36.15107,37.0308 -46.29526,45.0779 -32.70417,25.9433 -66.68739,44.4451 -105.21703,57.2842 -24.37249,8.1217 -53.00072,14.0497 -76.03297,15.7443 -5.94793,0.4376 -9.25,1.0938 -9.25,1.8382 0,3.4564 21.41288,37.5022 35.60805,56.6156 26.56103,35.7638 66.45737,73.5532 103.89195,98.4054 31.08971,20.64 56.82418,33.6945 94.49996,47.9378 3.575,1.3515 6.8375,2.4886 7.25,2.5269 0.4125,0.038 0.7338,-74.5178 0.7141,-165.6803 z m 88.0359,159.254 c 38.4326,-13.7682 82.1482,-37.9956 115.5,-64.0106 37.3165,-29.1075 69.8919,-64.6783 95.6941,-104.4934 8.6196,-13.301 17.8059,-29.2264 17.8059,-30.8687 0,-0.7037 -2.0656,-1.1313 -5.4656,-1.1313 -7.4734,0 -25.2106,-2.5492 -42.0517,-6.0436 -74.4259,-15.4431 -140.4582,-54.8431 -190.1978,-113.4868 l -4.2151,-4.9696 -0.035,164.857 c -0.028,131.4834 0.2181,164.761 1.2151,164.3828 0.6875,-0.2609 5.975,-2.167 11.75,-4.2358 z m -275.06996,-15.2524 c -17.12612,-14.4909 -42.98308,-40.0182 -56.47175,-55.7516 -32.07282,-37.4103 -61.78307,-84.0074 -79.41849,-124.5588 l -4.15703,-9.5588 -12.40623,-2.7107 c -47.13201,-10.298 -96.47573,-34.3761 -135.4765,-66.1081 -5.775,-4.6987 -10.72756,-8.5477 -11.00568,-8.5533 -0.27813,-0.01 -15.35313,14.8725 -33.5,33.0626 l -32.99432,33.0729 7.5,7.0271 c 16.41322,15.3783 50.4969,43.187 73.99271,60.3702 77.45136,56.6427 165.9353,101.0495 255.74204,128.3474 35.80482,10.8833 34.40771,10.6177 28.19525,5.3611 z m 463.95826,-1.7089 c 49.6214,-14.55 94.4705,-32.0309 140.1477,-54.6254 63.7133,-31.5162 118.3064,-66.8388 170.464,-110.293 12.8927,-10.7413 35.5409,-30.8463 39.2978,-34.8849 l 2.2979,-2.4701 -33.2034,-32.6048 c -32.9052,-32.3119 -33.2232,-32.5893 -35.4117,-30.8846 -1.2145,0.9461 -6.432,5.1623 -11.5944,9.3694 -12.3052,10.0281 -37.4292,26.7603 -51.9907,34.6249 -23.9454,12.9329 -53.5955,24.0785 -80.8008,30.3734 l -14.4053,3.3331 -2.0486,5.0097 c -3.9708,9.7103 -20.4385,42.147 -27.1661,53.5096 -13.7376,23.202 -29.882,45.9516 -48.6115,68.5 -10.7239,12.9105 -44.6315,46.9009 -56.8632,57.002 -5.225,4.3149 -9.9275,8.2172 -10.45,8.6717 -1.8766,1.6323 1.947,0.7617 20.3383,-4.631 z m -842.74128,-291.4175 29.64697,-29.4067 -5.09214,-7.1093 c -23.8471,-33.2933 -44.0779,-80.1525 -52.47576,-121.546 l -2.72605,-13.4368 -7,-3.0529 c -12.58031,-5.4866 -40.75227,-19.6379 -52.5,-26.3718 -51.65301,-29.6076 -98.6772,-69.5526 -137.78126,-117.0391 -2.87031,-3.4856 -5.21874,-5.6863 -5.21874,-4.8905 0,2.1061 10.29064,37.6782 15.65691,54.122 34.33986,105.227 92.68045,208.7692 164.12686,291.2907 6.44393,7.4428 12.15889,14.1505 12.69991,14.906 1.20411,1.6815 1.09492,1.7821 40.6633,-37.4656 z m 1259.11178,22.6248 c 70.1685,-81.4589 125.8347,-178.7353 161.0842,-281.4941 7.5192,-21.9197 18.1219,-57.2559 17.1798,-57.2559 -0.1923,0 -2.6844,2.8125 -5.5378,6.25 -9.1934,11.0751 -30.1549,32.8135 -42.485,44.0597 -43.0166,39.2352 -91.8526,70.51 -144.8218,92.7445 l -7.2798,3.0559 -3.2842,14.6388 c -3.7143,16.5564 -11.1649,40.3179 -17.2202,54.9193 -8.3084,20.0343 -24.1353,49.0799 -34.6956,63.6737 l -3.5036,4.8419 33.8971,33.9081 c 18.6434,18.6495 34.2022,33.9081 34.5752,33.9081 0.373,0 5.8143,-5.9625 12.0917,-13.25 z m -924.1005,10.6829 c 40.27712,-5.114 80.20254,-20.0669 113.34174,-42.4487 20.71724,-13.9921 47.05607,-38.3048 60.64984,-55.9842 32.50217,-42.2707 50.65962,-87.445 55.81222,-138.856 0.5855,-5.8424 1.0379,-35.5006 1.0379,-68.0488 v -57.6929 l -9.9683,-2.2481 c -27.95593,-6.3046 -56.01326,-19.3449 -79.7118,-37.0479 -14.35447,-10.7229 -34.5179,-31.1294 -43.67113,-44.1974 l -1.58558,-2.2638 -6.28158,5.3932 c -46.70035,40.0957 -83.77024,87.9347 -108.85924,140.4838 -17.07486,35.7634 -30.1586,76.6925 -36.39662,113.8574 -9.6106,57.258 -6.25038,120.0126 9.57767,178.8705 l 3.15981,11.75 h 15.27666 c 8.40217,0 20.83045,-0.7052 27.61841,-1.5671 z m 579.939,-1.1829 c 2.05,-5.3806 8.9569,-34.8847 11.402,-48.7061 20.2241,-114.321 -8.4434,-230.3198 -80.2791,-324.8371 -12.9802,-17.0786 -31.8213,-38.2122 -44.4919,-49.9054 -13.3134,-12.2864 -25.2995,-22.8014 -25.9915,-22.8014 -0.2726,0 -3.6471,3.9467 -7.499,8.7705 -14.0423,17.5853 -36.8479,37.4439 -56.903,49.5498 -15.9384,9.6209 -40.6413,19.3855 -60.2029,23.797 l -10.1319,2.285 v 57.6252 c 0,33.8204 0.4458,62.1377 1.0792,68.5488 11.8179,119.624 101.3064,215.6129 219.4208,235.3593 14.8856,2.4886 17.2356,2.6733 36.7748,2.8897 l 15.7747,0.1747 z m 102.2539,-22.6457 c 51.5139,-23.9616 96.8276,-68.3507 123.1161,-120.6043 5.036,-10.01 13.9271,-31.9389 13.2317,-32.6343 -0.266,-0.266 -4.1648,0.2147 -8.6641,1.0682 -38.5958,7.3215 -85.8056,10.0574 -123.5349,7.1591 -9.35,-0.7183 -17.1024,-1.2306 -17.2275,-1.1386 -0.1251,0.092 0.2392,5.3149 0.8096,11.6064 1.3728,15.1421 1.3522,58.1268 -0.036,74.4392 -1.8851,22.156 -4.8785,42.7306 -9.6391,66.2524 l -0.6583,3.2524 6.3755,-2.4091 c 3.5065,-1.325 10.8085,-4.4711 16.2267,-6.9914 z m -807.51605,-0.8543 c -2.75251,-13.3577 -5.57901,-31.2507 -7.3849,-46.75 -2.2635,-19.4267 -3.00801,-60.3242 -1.47546,-81.051 0.69325,-9.3759 1.09504,-17.1764 0.89286,-17.3345 -0.20219,-0.158 -4.41761,0.083 -9.36761,0.5365 -16.38731,1.5 -63.71652,1.1519 -79.5,-0.5846 -18.61957,-2.0486 -39.49829,-5.1025 -50.96695,-7.4548 -8.23227,-1.6885 -9.03262,-1.7091 -9.02814,-0.2322 0.009,3.138 10.82701,28.2115 16.97709,39.3505 20.59738,37.3058 46.70487,67.0122 79.518,90.4795 9.62382,6.8827 29.60121,18.5391 40.20144,23.4567 8.32875,3.8638 20.06788,8.6786 21.41916,8.785 0.34132,0.027 -0.23714,-4.1136 -1.28549,-9.2011 z m -29.33511,-217.7434 c 20.21767,-1.6204 33.54072,-3.3113 34.94477,-4.4352 0.73615,-0.5893 3.01657,-6.9214 5.06762,-14.0714 14.91707,-52.0014 43.48232,-109.0127 77.22439,-154.1266 22.53052,-30.1238 55.67755,-65.4534 81.01322,-86.3476 5.6375,-4.6492 10.25,-8.7861 10.25,-9.1931 0,-2.3429 -38.95578,-11.6884 -57.5,-13.7943 -11.6915,-1.3276 -43.43499,-1.3255 -56.64405,0 -34.082,3.43 -71.1032,15.274 -101.35595,32.4265 -64.74013,36.7058 -109.99844,96.594 -127.36135,168.5313 -4.45539,18.4594 -6.41543,33.6029 -6.53369,50.4801 l -0.10496,14.9801 14.5,3.715 c 23.16276,5.9345 49.90838,10.3209 74,12.1363 10.23832,0.7715 41.32206,0.591 52.5,-0.3049 z m 911.99996,-1.0888 c 20.9901,-1.9913 49.8425,-7.0675 68.8947,-12.1209 l 7.8946,-2.0941 -0.6816,-13.5821 c -2.873,-57.2476 -20.227,-105.6782 -54.0894,-150.9498 -9.4622,-12.6504 -31.2076,-34.8222 -44.5183,-45.3914 -40.5755,-32.2185 -88.3567,-51.8408 -138.4368,-56.8517 -18.9485,-1.896 -52.6595,-0.7246 -70.6678,2.4555 -16.5866,2.929 -43.8954,10.3835 -43.8954,11.982 0,0.2281 5.0625,4.6156 11.25,9.75 14.6444,12.1519 42.1359,39.0815 56.0298,54.8847 19.2225,21.864 41.5202,53.0007 56.1755,78.4439 18.4545,32.039 37.202,75.5895 46.5887,108.2258 l 3.2125,11.1697 6.1218,1.0569 c 26.979,4.6582 65.9547,5.8833 96.1217,3.0215 z m 177,-58.2501 c 60.2221,-36.0258 110.6466,-86.2649 147.1465,-146.6057 9.5694,-15.8198 20.8262,-37.5361 26.7712,-51.6463 4.5792,-10.8685 12.5823,-32.1529 12.5823,-33.4628 0,-0.6004 -64.8318,-0.9412 -175.25,-0.9213 l -175.25,0.032 2.6191,2.2184 c 1.4405,1.2201 7.4137,6.2359 13.2736,11.1463 38.7299,32.4535 72.0588,77.0491 92.6119,123.9186 13.5717,30.949 23.7801,69.8648 26.5346,101.1535 0.3874,4.4 0.9053,8.3443 1.1509,8.7651 0.4977,0.8527 12.6151,-5.5077 27.8099,-14.5974 z m -1302.63104,1.4149 c 2.63057,-25.5245 11.28364,-60.3205 21.22415,-85.3471 9.10815,-22.931 24.27257,-50.9708 38.05026,-70.3569 17.14397,-24.1228 41.31238,-49.9212 63.1625,-67.4225 l 11.80584,-9.4561 -172.71966,-0.2528 c -94.99582,-0.1391 -172.89615,-0.076 -173.11187,0.1393 -0.21571,0.2157 1.60491,5.7295 4.04583,12.2529 17.58044,46.9836 40.93782,87.1751 74.01589,127.3606 10.36224,12.5887 42.40635,44.1289 56.29764,55.4122 16.51517,13.4146 34.28737,25.9977 49.8605,35.3023 13.29425,7.9431 24.55153,14.2222 25.57036,14.2628 0.31369,0.013 1.12305,-5.3401 1.79856,-11.8947 z m 659.75004,-135.6283 c 30.2257,-5.2605 60.2125,-22.2693 80.0468,-45.4033 21.9116,-25.5567 33.3294,-55.8967 33.3243,-88.551 -0.01,-37.949 -13.8508,-71.41 -40.5969,-98.117 -47.5651,-47.4954 -120.6522,-53.4121 -175.8412,-14.235 -27.97753,19.8605 -47.53259,49.9411 -55.1876,84.8925 -2.83592,12.9483 -2.57629,39.8883 0.5199,53.9464 6.15104,27.9284 19.23431,51.242 39.95762,71.2022 20.11572,19.3749 43.32249,31.2026 71.15808,36.2669 10.5039,1.911 35.6343,1.9101 46.619,0 z M 528.62695,1688.8204 c -67.33777,-54.1155 -113.15842,-135.9886 -123.41862,-220.5265 -0.65083,-5.3625 -1.59287,-9.75 -2.09342,-9.75 -1.25283,0 -19.13508,10.8462 -31.84297,19.3139 -74.48008,49.6286 -134.44823,125.9709 -164.12269,208.9361 l -3.84499,10.75 h 168.08885 168.08885 z m 1371.64495,8.3591 c 0,-0.8735 -8.5307,-22.9761 -12.2101,-31.6356 -32.4774,-76.4372 -89.6359,-144.6173 -159.7899,-190.6014 -15.9115,-10.4296 -38.9883,-23.5239 -40.1701,-22.7934 -0.4565,0.282 -0.8347,2.3988 -0.8405,4.7038 -0.027,10.6154 -6.0713,42.2946 -12.057,63.191 -19.3591,67.5841 -61.3157,128.6735 -119.987,174.703 l -3.4454,2.7031 174.25,0.047 c 95.8375,0.026 174.25,-0.117 174.25,-0.3174 z M 777.77194,1687.0599 c 20.819,-3.2954 57.40709,-13.419 58.13257,-16.0847 0.13941,-0.5122 -3.15897,-3.6313 -7.32974,-6.9313 -11.93433,-9.4427 -42.39431,-39.5871 -56.08097,-55.5 -29.38445,-34.164 -51.60955,-67.7538 -71.12863,-107.5 -12.20245,-24.8475 -24.09347,-55.5286 -30.61792,-79 -1.52886,-5.5 -3.09461,-10.3609 -3.47943,-10.8019 -1.35712,-1.5554 -33.74602,-4.7835 -53.99588,-5.3816 -44.23377,-1.3066 -83.73601,4.4046 -134.39759,19.4311 -1.78203,0.5286 -1.85896,1.3682 -1.26334,13.7875 2.6502,55.2596 22.9289,108.3797 58.20374,152.4649 14.02823,17.5319 38.42181,39.8973 57.45719,52.68 36.32415,24.3923 78.65701,39.8103 121.51388,44.2564 12.92362,1.3407 50.96187,0.4829 62.98612,-1.4204 z m 602.26946,0.9823 c 40.7395,-4.5514 79.8007,-18.4875 113.7305,-40.5762 15.9255,-10.3678 26.3695,-18.748 40.3535,-32.3798 41.7068,-40.6561 67.663,-89.9975 77.0891,-146.5423 2.3581,-14.1456 4.2077,-42.3999 2.9886,-45.6514 -0.6812,-1.8168 -3.1114,-2.699 -15.619,-5.6705 -39.6722,-9.4251 -67.1044,-12.3944 -105.2827,-11.3959 -23.7001,0.6199 -50.9184,3.234 -52.616,5.0534 -0.5975,0.6404 -1.6374,3.1894 -2.3108,5.6644 -11.9154,43.7938 -36.9156,98.0097 -64.452,139.7714 -16.4918,25.0115 -37.4236,50.7949 -60.1507,74.0926 -13.5945,13.9357 -38.4118,36.5898 -45.6118,41.636 -1.5695,1.1 -2.8614,2.2666 -2.8709,2.5924 -0.022,0.7412 14.8391,5.3188 25.5332,7.8652 9.2727,2.2078 31.6085,5.8453 38.9495,6.3429 13.5624,0.9195 38.4077,0.523 50.2695,-0.8022 z m -122.2191,-106.99 c 26.6249,-26.5689 44.1119,-48.5286 62.3832,-78.3387 33.3128,-54.3509 53.6118,-113.743 60.724,-177.6696 2.0345,-18.2869 2.2989,-61.4568 0.4839,-79 -2.5195,-24.3521 -8.6005,-55.1085 -15.1581,-76.6668 l -2.028,-6.6667 -7.2277,-0.6617 c -10.1763,-0.9316 -36.8754,1.0566 -53.097,3.954 -53.9643,9.6387 -99.9543,33.8298 -139.7185,73.493 -42.0042,41.8976 -66.6838,91.3757 -75.5919,151.5482 -1.5514,10.4796 -1.7793,19.8414 -1.7984,73.8899 l -0.022,61.8899 13,3.2516 c 17.515,4.3809 28.6852,8.4373 43,15.6152 29.1304,14.607 52.1197,33.2521 72.8122,59.053 l 6.9771,8.6996 7.6054,-6.1913 c 4.1829,-3.4053 16.628,-15.1951 27.6557,-26.1996 z m -373.55036,22.3571 c 6.00349,-8.0769 21.8957,-24.032 32.18014,-32.3074 16.44812,-13.2352 31.83986,-22.3991 52.31986,-31.1501 l 12,-5.1276 5.16528,-12.8902 c 6.72678,-16.7869 11.74071,-34.2233 15.04248,-52.3117 2.4553,-13.4515 2.6661,-16.7428 2.7266,-42.5784 0.052,-22.3584 -0.2989,-30.3171 -1.7435,-39.5 -9.14214,-58.1117 -34.68552,-108.417 -75.65733,-149 -33.82031,-33.4993 -76.75823,-57.7241 -122.06727,-68.8682 -14.40347,-3.5426 -35.97892,-6.739 -50.68691,-7.5093 l -10.22064,-0.5353 -1.97262,6.7064 c -25.91592,88.1072 -21.36911,183.0615 12.93679,270.1688 6.32484,16.0597 21.41695,46.527 30.48283,61.5376 22.54641,37.3305 50.0647,70.8232 81.46493,99.1515 6.30885,5.6917 11.93385,10.3304 12.5,10.3083 0.56615,-0.022 3.05436,-2.7646 5.52936,-6.0944 z m -642.65247,-112.076 c 40.63774,-44.0393 87.5919,-79.3252 142.11895,-106.8021 l 22.96649,-11.5731 2.18153,-11.4571 c 9.57563,-50.2898 31.16326,-98.8808 62.11039,-139.8026 l 8.58006,-11.3455 -31.10365,-31.1037 -31.10365,-31.1036 -2.17852,1.9491 c -3.82274,3.4203 -22.18034,24.4678 -34.38185,39.4197 -57.6582,70.6551 -102.87715,147.9729 -136.2863,233.0295 -11.30197,28.7738 -28.88351,83.8183 -31.862,99.7539 -0.65266,3.492 -0.0788,2.9856 8.4591,-7.4645 5.0376,-6.1658 14.26235,-16.7408 20.49945,-23.5 z m 1638.71593,8.1157 c -35.8849,-125.9345 -103.5599,-247.633 -190.8204,-343.1485 l -5.2568,-5.7542 -33.4932,33.138 c -18.4212,18.2259 -33.4931,33.5241 -33.4931,33.9961 0,0.4719 3.0882,5.0218 6.8628,10.1108 18.434,24.8536 35.5211,57.6184 46.2524,88.6898 4.4289,12.8234 10.1262,34.043 11.9458,44.4917 l 1.183,6.7936 5.628,2.4935 c 46.0964,20.423 83.4222,42.7341 118.3015,70.7133 24.8263,19.9151 49.9237,44.3675 69.9659,68.168 3.9214,4.6568 7.2995,8.2972 7.5068,8.09 0.2073,-0.2073 -1.8549,-8.2092 -4.5827,-17.7821 z M 506.3516,1341.1131 c 36.49493,-7.8649 72.44003,-10.9711 110.43501,-9.5433 12.64193,0.475 25.93133,1.1663 29.532,1.5362 l 6.54667,0.6724 -0.73036,-8.3672 c -3.76442,-43.1259 -1.02097,-91.6187 7.60511,-134.4271 1.87299,-9.295 3.25671,-17.0487 3.07493,-17.2305 -0.69068,-0.6907 -16.21292,5.0578 -28.3758,10.5086 -38.51211,17.2594 -74.12399,44.5664 -99.48125,76.2817 -15.74276,19.6901 -33.89905,51.2447 -41.42826,72 -1.6959,4.675 -3.4232,9.3589 -3.83842,10.4086 -0.66636,1.6845 -0.41251,1.835 2.16287,1.2823 1.60481,-0.3444 8.12869,-1.7492 14.4975,-3.1217 z m 1089.5004,-12.3699 c -13.8549,-34.4741 -34.3943,-65.1675 -60.7051,-90.7156 -15.1462,-14.7072 -22.7962,-20.9316 -39.1368,-31.844 -16.238,-10.8439 -47.7609,-26.9503 -49.4467,-25.2645 -0.2467,0.2467 0.4746,4.9033 1.6029,10.3481 2.8068,13.5451 5.7458,32.3953 7.2932,46.7767 1.4527,13.5007 1.7724,66.5604 0.5078,84.2641 l -0.8046,11.2642 17.3046,-0.7642 c 42.198,-1.8633 74.3627,-0.076 109.3046,6.0728 11.7836,2.0737 18.099,2.8008 18.2867,2.1053 0.1578,-0.5843 -1.7352,-6.0936 -4.2066,-12.2429 z m -583.8245,-359.50609 -0.2556,-85.46491 -15.99996,6.19287 c -77.56613,30.0223 -145.15246,82.94926 -194.20063,152.07883 -10.31664,14.5405 -28.29937,44.3464 -28.29937,46.9055 0,0.2596 2.1375,0.747 4.75,1.0832 51.77795,6.6629 94.80211,21.3354 136.16614,46.4367 33.59995,20.3897 63.14414,46.0265 87.65912,76.0658 l 9.9247,12.1612 0.2556,-84.9971 c 0.1406,-46.7485 0.1406,-123.4564 0,-170.46209 z m 98.2071,219.95679 c 49.3848,-50.6164 113.6817,-84.1634 184.2082,-96.111 8.0289,-1.3601 18.3625,-2.7361 22.9636,-3.0577 10.7805,-0.7535 14.8655,-1.3907 14.8655,-2.3186 0,-1.4108 -10.2208,-18.6765 -18.6885,-31.5701 -15.714,-23.9273 -31.2251,-43.2535 -51.3575,-63.9896 -46.3035,-47.6919 -101.721,-83.37329 -164.204,-105.72514 l -10.75,-3.84556 0.036,165.7339 0.036,165.7338 5.1767,-6 c 2.8472,-3.3 10.8186,-11.7825 17.7141,-18.85 z m 488.3955,-58.6859 33.1418,-33.0358 -6,-5.5837 c -3.3,-3.071 -13.65,-11.977 -23,-19.7911 -64.4661,-53.8765 -136.578,-98.21117 -213.5,-131.26042 -30.1977,-12.97433 -79.2652,-30.34711 -105.0003,-37.17629 l -11.4997,-3.0516 3.5,3.10171 c 28.898,25.60941 43.01,39.59672 60.7011,60.16447 17.4697,20.31034 35.1084,44.67643 49.3475,68.16863 7.496,12.3671 24.6245,45.291 29.2024,56.1319 l 2.5894,6.1318 7.7198,1.7175 c 30.9736,6.891 64.6603,20.1747 94.0305,37.0792 11.3752,6.5471 30.36,19.3442 38.4093,25.8904 3.025,2.4601 5.8862,4.4901 6.3582,4.5111 0.4719,0.021 15.7719,-14.828 34,-32.9978 z m -1047.85816,16.303 c 21.8581,-14.6818 42.22227,-25.4203 66.607,-35.1234 20.06682,-7.9849 50.86027,-16.6113 66.88616,-18.7372 l 5.08139,-0.6741 10.27197,-21.1162 c 20.19224,-41.5094 39.30126,-71.25792 68.48522,-106.61622 11.43712,-13.85682 44.12355,-46.60751 56.88816,-57 5.06655,-4.125 8.7858,-7.64715 8.265,-7.827 -0.5208,-0.17985 -6.69296,1.30595 -13.7159,3.30179 -61.48355,17.47289 -110.45384,36.54788 -162.269,63.20732 -46.80351,24.0809 -83.03516,46.70511 -124,77.42971 -25.14037,18.8558 -63,50.4056 -63,52.5002 0,0.2925 14.2875,14.627 31.75,31.8544 l 31.75,31.3226 4,-3.2384 c 2.2,-1.7811 8.05,-5.9587 13,-9.2835 z M 5448.2719,2647.3568 c -22.5992,-1.2421 -37.3117,-4.9188 -54.7277,-13.6765 -21.2276,-10.6743 -39.9301,-31.4159 -53.7735,-59.6364 -5.9928,-12.2166 -9.5443,-21.4072 -16.0943,-41.6481 -5.0337,-15.5555 -11.367,-31.2482 -14.8166,-36.7127 -2.9995,-4.7515 -8.6575,-9.7236 -13.2473,-11.6413 -12.4893,-5.2184 -33.0592,3.2245 -59.1464,24.2767 l -9.3057,7.5097 -3.5312,-3.3922 c -1.9422,-1.8656 -4.4456,-4.6617 -5.5631,-6.2134 l -2.0319,-2.8212 2.8689,-3.0369 c 4.6672,-4.9407 18.2422,-15.2165 27.3688,-20.7172 9.8112,-5.9133 25.088,-12.0991 36.25,-14.6783 7.289,-1.6843 7.75,-1.9499 7.75,-4.4659 0,-2.6189 -0.1946,-2.701 -9.25,-3.9036 -104.273,-13.8473 -172.381,-69.3964 -201.7593,-164.5556 -21.4214,-69.386 -21.2111,-166.1317 0.5179,-238.3125 19.0669,-63.3376 55.7025,-113.303 105.9914,-144.5562 52.9807,-32.926 128.7724,-46.1062 207.5,-36.0842 42.3672,5.3934 80.2732,18.8678 110.6203,39.3221 43.498,29.3182 74.8922,74.863 91.8985,133.3212 16.546,56.876 19.8984,136.5264 8.5419,202.9544 -15.5632,91.0353 -60.6837,153.41 -133.2717,184.2352 -24.0875,10.2289 -56.0971,18.4484 -82.289,21.1303 -10.9231,1.1184 -11.5,1.3423 -11.5,4.4622 0,2.9957 1.4646,4.0275 5.7171,4.0275 5.127,0 27.9921,5.264 35.6353,8.2039 19.9703,7.6816 32.9924,18.1551 45.5204,36.6112 5.5288,8.145 12.2833,22.0357 16.6229,34.1849 13.3756,37.4472 20.4056,49.7498 31.881,55.7925 4.5215,2.381 6.2391,2.6981 14.6233,2.6999 7.8922,0 10.2011,-0.3724 13.6426,-2.2107 11.8061,-6.3062 20.1302,-24.0778 23.9622,-51.1581 l 1.691,-11.9499 3.1021,0.3845 c 1.7061,0.2114 5.6542,0.6503 8.7734,0.9752 l 5.6714,0.5909 -0.4709,5.6878 c -2.7382,33.0742 -12.5973,56.6989 -30.9284,74.1117 -24.6681,23.4322 -58.4328,33.4181 -104.4434,30.8891 z m -81.5,-204.6139 c 31.4994,-8.7652 48.9794,-26.9805 58.8895,-61.3669 11.6236,-40.3318 16.6254,-104.8223 16.5847,-213.8321 -0.046,-124.0441 -4.7091,-189.4729 -15.5971,-218.8659 -11.8167,-31.9002 -29.2096,-50.6526 -53.3771,-57.5494 -26.4423,-7.546 -62.027,-5.406 -83.8782,5.0441 -19.5956,9.3716 -39.5298,40.3111 -47.2191,73.2884 -8.2504,35.3836 -10.26,74.3009 -10.2805,199.0828 -0.015,90.837 0.6175,114.8132 3.9302,149 2.376,24.5209 7.144,48.5367 13.0587,65.7745 10.7666,31.3786 31.3354,51.3186 60.8889,59.0276 11.5114,3.0027 12.189,3.0596 32,2.6851 13.9798,-0.2643 19.5634,-0.7753 25,-2.2882 z m -2440.5,18.2507 c -42.2614,-3.7908 -76.2953,-12.7064 -108.3406,-28.381 -23.7889,-11.636 -39.8869,-22.6606 -57.0476,-39.0687 -51.6762,-49.4097 -76.6257,-121.0774 -76.6077,-220.0566 0.012,-63.9739 9.9564,-114.4501 31.4136,-159.4434 26.1076,-54.7447 71.319,-97.7937 127.0823,-121.0042 51.0827,-21.2623 115.0589,-28.2736 177.5,-19.4526 18.3169,2.5876 26.0148,4.2314 60.157,12.8464 33.1777,8.3717 42.1595,9.9314 47.6751,8.2789 5.2756,-1.5807 8.2807,-4.1249 12.654,-10.7135 3.592,-5.4115 3.8035,-5.5532 7.8526,-5.2582 l 4.1613,0.3032 2.6266,74 c 1.4446,40.7 2.913,80.8625 3.263,89.25 l 0.6365,15.25 h -6.9112 -6.9113 l -11.9933,-24.4002 c -37.738,-76.7771 -71.6326,-119.4728 -108.8752,-137.146 -25.5477,-12.1234 -58.6342,-13.2964 -84.8351,-3.0077 -43.6763,17.1512 -70.9248,65.4157 -82.4571,146.0539 -3.9838,27.8559 -5.1423,49.1088 -5.7236,105 -0.7615,73.2062 1.0123,112.0423 6.7483,147.7526 10.385,64.6539 32.3323,110.9961 63.9324,134.995 8.7992,6.6826 24.5706,14.2146 35.5,16.9537 7.6496,1.9172 11.5507,2.2467 26,2.1955 20.3369,-0.072 26.963,-1.5425 43.9635,-9.7569 29.6639,-14.3333 58.7057,-45.0827 86.5509,-91.6399 7.6453,-12.7829 25.9632,-48.6346 32.189,-63 l 4.5505,-10.5 7.1231,-0.2938 7.123,-0.2938 -0.01,9.7938 c -0.01,5.3866 -1.1267,45.3438 -2.4917,88.7938 -1.3649,43.45 -2.4855,80.2375 -2.4901,81.75 -0.01,2.5831 -0.276,2.75 -4.4197,2.75 -4.2492,0 -4.5553,-0.2112 -8.3303,-5.75 -4.9024,-7.1928 -9.8997,-10.2112 -16.9429,-10.2335 -6.0902,-0.019 -10.7233,0.9106 -47.4439,9.5229 -37.5761,8.8129 -55.5287,11.8682 -84.8715,14.4442 -15.4543,1.3567 -54.1194,1.07 -72,-0.5339 z m 3023,0.9334 c -60.7426,-5.2 -99.1768,-16.467 -133.1218,-39.0247 -45.4858,-30.2268 -67.4332,-78.2938 -70.899,-155.2756 -0.5097,-11.3205 -0.9385,-99.8953 -0.9529,-196.8328 l -0.026,-176.25 h -22.5 -22.5 v -8 -8 h 129.5 129.5 v 8 8 h -26.5 -26.5 l 0.011,204.25 c 0.012,221.0108 -0.072,217.2494 5.3979,243.697 6.3489,30.6992 17.3369,53.162 33.3015,68.0782 11.4744,10.7209 26.1777,18.0036 44.6707,22.1259 11.8227,2.6354 47.2728,3.7199 60.9937,1.8658 29.914,-4.042 53.2123,-15.2287 72.6527,-34.8843 17.4699,-17.6631 27.6969,-37.0624 34.8643,-66.1326 6.8947,-27.9643 6.4906,-13.9469 6.8399,-237.25 l 0.3156,-201.75 h -26.5235 -26.5235 v -8 -8 h 60.0421 60.042 l -0.292,7.75 -0.2921,7.75 -22.75,0.2688 -22.75,0.2687 -0.01,192.7313 c -0.01,118.3248 -0.3897,197.1709 -0.9958,204.2312 -2.3654,27.5517 -7.1935,51.0327 -14.4962,70.5 -22.6221,60.3054 -62.7526,88.1748 -141.2434,98.0894 -12.1099,1.5296 -67.6561,2.7868 -79.256,1.7937 z m -2677,-16.3831 v -9 h 24.5 24.5 v -270 -270 h -24.5 -24.5 v -9 -9 h 148 148 v 9 9 h -43.5 -43.5 v 270 270 l 22.75,-0.018 c 14.6018,-0.012 26.4688,-0.5469 33.133,-1.4941 50.7226,-7.2094 79.9866,-27.3984 117.8308,-81.2906 14.1784,-20.1907 39.6284,-64.5252 48.7636,-84.947 l 2.7957,-6.25 h 8.6627 8.6626 l -0.3186,3.25 c -0.3377,3.4442 -15.2798,187.6119 -15.2798,188.3294 0,0.2313 -98.1,0.4206 -218,0.4206 h -218 v -9 z m 531,1.5 v -7.5 h 22.5 22.5 v -272.5 -272.5 h -22.5 -22.5 v -8 -8 h 125.5421 125.542 l -0.292,7.75 -0.2921,7.75 -22.75,0.2688 -22.75,0.2687 v 272.4813 272.4812 h 23 23 v 7.5 7.5 h -125.5 -125.5 z m 329,0.019 v -7.4813 l 22.75,-0.2687 22.75,-0.2688 0.2518,-272.25 0.2518,-272.25 h -23.0018 -23.0018 v -8.0043 -8.0042 l 113.5801,0.2542 113.5802,0.2543 106.2248,203.5 c 58.4237,111.925 106.9696,204.85 107.8798,206.5 1.5446,2.7999 1.6577,-10.2564 1.6951,-195.75 l 0.04,-198.7502 h -22.5 -22.5 v -8 -8 h 56 56 v 8 8 h -22.5 -22.5 v 280.0081 280.0081 l -57.7033,-0.2581 -57.7034,-0.2581 -49.5762,-93.5 c -27.267,-51.425 -90.4673,-170.675 -140.4452,-265 -49.9779,-94.325 -91.2521,-171.9275 -91.7204,-172.45 -0.4689,-0.5232 -0.8515,115.2821 -0.8515,257.75 v 258.7 h 23 23 v 7.5 7.5 h -56.5 -56.5 v -7.4812 z m 589,-0.019 v -7.5 h 22.5 22.5 v -272.5 -272.5 h -22.5 -22.5 v -8 -8 h 125 125 v 8 8 h -22.5 -22.5 v 272.5 272.5 h 22.5 22.5 v 7.5 7.5 h -125 -125 z m 1577.2111,-1.25 0.2889,-8.75 24.25,-0.2678 24.25,-0.2678 v -269.9822 -269.9822 h -24.5 -24.5 v -9 -9 h 214 c 117.7,0 214.0007,0.3375 214.0017,0.75 9e-4,0.4125 1.8009,36.048 4,79.1899 2.199,43.142 3.9983,79.4992 3.9983,80.7938 0,2.2807 -0.2234,2.3448 -7.1852,2.0601 l -7.1851,-0.2938 -5.8157,-13 c -18.5084,-41.3724 -36.2636,-70.0136 -55.6751,-89.8103 -14.9847,-15.2821 -29.7335,-24.6131 -49.1674,-31.1063 -22.0211,-7.3576 -37.5325,-9.5347 -73.2215,-10.277 l -28.75,-0.5979 v 127.7574 127.7575 l 21.25,-0.4752 c 17.5555,-0.3926 22.6315,-0.8482 29.196,-2.6209 27.1259,-7.325 48.6983,-27.2355 64.6047,-59.6273 4.9934,-10.1687 13.1651,-33.5297 14.4292,-41.25 l 0.6959,-4.25 h 5.9121 5.9121 v 121.5457 121.5457 l -6.6247,-0.2957 -6.6247,-0.2957 -3.2988,-12 c -16.2469,-59.1003 -39.0427,-88.4189 -76.3628,-98.2135 -8.1653,-2.143 -12.5212,-2.5927 -29.339,-3.0292 l -19.75,-0.5126 v 132.1277 132.1276 h 22.7561 c 33.4704,0 53.6897,-2.8465 78.2439,-11.0154 38.9052,-12.9433 75.668,-42.6047 101.8751,-82.1961 10.7959,-16.3094 23.9176,-44.4918 28.6525,-61.5385 l 1.736,-6.25 h 7.8682 7.8682 v 4.75 c 0,2.6125 -1.3503,41.875 -2.9967,87.25 -1.6464,45.375 -2.9949,83.5125 -2.9967,84.75 v 2.25 h -226.0389 -226.039 l 0.289,-8.75 z M 3777.0754,1647.5356 c -106.7451,-7.8987 -177.3662,-54.183 -213.601,-139.9917 -22.8127,-54.0233 -31.3126,-130.9591 -22.6718,-205.21 12.3676,-106.2752 65.498,-186.2756 147.7158,-222.4212 43.5273,-19.1361 99.4883,-27.5306 155.7535,-23.3643 73.092,5.4124 126.5126,27.5975 166.5342,69.1602 40.712,42.2797 63.6099,97.9845 72.0731,175.3353 2.1672,19.8068 2.4982,74.2284 0.5718,94 -7.6916,78.9437 -30.9869,137.4833 -71.8345,180.5159 -37.2582,39.2513 -84.828,61.2569 -151.3446,70.0116 -17.7857,2.3409 -63.5153,3.4206 -83.1965,1.9642 z m 51.7984,-17.001 c 26.2904,-3.2965 45.2955,-14.5168 58.2804,-34.4079 14.5122,-22.2303 22.8363,-63.8304 27.3301,-136.5828 1.7001,-27.5234 1.6851,-191.5657 -0.02,-223 -2.1758,-40.1031 -4.555,-63.6831 -8.3214,-82.4721 -2.708,-13.509 -4.9295,-19.9026 -11.864,-34.1451 -9.4117,-19.3305 -20.0098,-31.0596 -34.5066,-38.1889 -25.0875,-12.3378 -70.728,-12.1563 -96.2962,0.3828 -13.5237,6.6323 -24.9838,19.8913 -35.6339,41.2273 -5.5537,11.126 -9.9339,23.8286 -12.5645,36.4375 -7.3825,35.3841 -9.0171,70.5254 -9.0129,193.7585 0,100.1196 0.8634,127.7813 5.0675,163 2.661,22.2925 10.9784,54.2295 17.4657,67.0647 10.4097,20.5959 30.1802,37.4357 50.9743,43.4184 14.9853,4.3114 32.6357,5.5723 49.1019,3.5076 z m 753.3981,16.9573 c -25.8565,-2.8251 -46.1194,-9.814 -61.6514,-21.264 -18.6415,-13.7423 -30.7569,-40.7348 -35.3167,-78.684 -0.6278,-5.225 -1.3682,-10.625 -1.6454,-12 -0.2772,-1.375 -0.874,-29.95 -1.3261,-63.5 -0.8866,-65.7837 -1.2899,-71.0881 -6.7135,-88.3031 -4.4019,-13.9719 -13.0745,-24.9771 -23.2193,-29.4647 -9.6993,-4.2904 -13.4478,-4.708 -42.3776,-4.7203 l -27.75,-0.012 v 138 138 h 27 27 v 7.5 7.5 h -134 -134 v -7.5 -7.5 h 27 27 v -273 -273 h -27 -27 v -7.5 -7.5 l 131.75,0.026 c 160.0448,0.032 196.4898,0.8924 235.25,5.5566 28.4697,3.426 55.0831,10.2569 75.3001,19.3277 19.9478,8.95 35.7306,24.5159 46.225,45.5897 10.0768,20.2353 13.841,39.367 13.871,70.5 0.058,60.2641 -17.8706,94.8531 -59.6395,115.0599 -17.406,8.4206 -44.5618,15.6644 -67.9413,18.1233 -8.222,0.8647 -11.8153,1.6282 -11.8153,2.5106 0,0.6975 1.0125,1.4752 2.25,1.7283 1.2375,0.2531 8.2288,1.6142 15.5361,3.0247 24.1051,4.653 43.588,11.9601 58.701,22.0159 22.4196,14.9175 33.8981,36.2181 40.1199,74.4503 1.1815,7.2604 1.7645,22.8132 2.4024,64.087 0.9367,60.6083 1.9434,73.2953 6.565,82.7416 4.4748,9.1462 13.3715,12.9102 24.3111,10.2859 14.7998,-3.5505 22.7835,-17.8613 30.2026,-54.1388 l 3.1927,-15.6114 4.6096,0.4201 c 9.6152,0.8763 9.0243,0.082 7.4621,10.0375 -6.5637,41.8321 -17.0532,70.7361 -30.6811,84.543 -10.4452,10.5825 -25.9304,17.1312 -50.3824,21.3067 -10.6704,1.8221 -51.1164,2.6934 -63.289,1.3634 z M 4428.991,1332.0407 c 38.6977,-6.2763 60.9553,-30.9752 68.7227,-76.261 0.8241,-4.8047 2.0174,-15.0358 2.6518,-22.7358 1.5228,-18.484 0.6152,-69.3504 -1.481,-83 -4.2917,-27.9453 -12.0776,-44.0221 -26.2001,-54.0997 -16.5186,-11.7874 -36.8784,-16.3465 -73.1625,-16.383 l -17.25,-0.017 v 127 127 h 18.75 c 11.8435,0 22.1458,-0.5548 27.9691,-1.4992 z m -1761.7191,299.5032 v -9 h 24.5 24.5 v -270 -270 h -24.5 -24.5 v -9 -9 h 214 214 v 2.75 c 0,1.5125 1.799,39.65 3.9927,84.75 2.1936,45.1 3.9917,82.3375 3.9957,82.75 0,0.4125 -3.2965,0.75 -7.3344,0.75 h -7.3417 l -1.2503,-4.25 c -2.6235,-8.9181 -14.5684,-37.8422 -21.2685,-51.501 -23.4083,-47.7197 -49.907,-73.933 -87.0607,-86.1234 -23.8085,-7.8118 -40.0138,-10.14 -75.4871,-10.8455 l -27.25,-0.5419 v 134.2658 134.2658 l 25.75,-0.5387 c 22.035,-0.4609 26.9042,-0.8476 33.75,-2.6808 28.1341,-7.5335 49.8516,-27.3928 65.0629,-59.496 5.4184,-11.4356 11.4687,-29.1434 13.5201,-39.5707 l 1.1772,-5.9836 h 5.8699 5.8699 v 121.5 121.5 h -6.7591 -6.7591 l -1.8539,-8.25 c -10.9016,-48.5122 -28.6273,-80.0514 -53.1375,-94.5468 -15.2028,-8.9935 -26.8636,-11.2032 -59.1171,-11.2032 h -23.369 v 125.5 125.5 h 51 51 v 9 9 h -155.5 -155.5 z m 528,1.5 v -7.5 h 22.5 22.5 v -273 -273 h -22.5 -22.5 v -7.5 -7.5 h 125 125 v 7.5 7.5 h -22.5 -22.5 v 273 273 h 22.5 22.5 v 7.5 7.5 h -125 -125 z m 1605,-1.5 v -9 h 24 24 v -270 -270 h -24 -24 v -9 -9 h 213.428 213.4281 l 0.5502,5.25 c 0.642,6.1261 7.6329,147.1869 7.6095,153.5438 l -0.016,4.2938 -7.044,-0.2938 -7.044,-0.2938 -5.2766,-12 c -28.098,-63.9001 -57.3961,-101.2004 -91.8066,-116.8818 -16.014,-7.2978 -36.6528,-12.4323 -58.6848,-14.5995 -5.6957,-0.5603 -20.8832,-1.0187 -33.75,-1.0187 h -23.394 v 127.6242 127.6243 l 20.75,-0.5367 c 26.9412,-0.6969 36.8705,-2.9602 52.0195,-11.8572 7.749,-4.551 25.7533,-22.5755 32.2161,-32.2523 9.6949,-14.5161 17.8519,-33.4768 23.3873,-54.3633 l 2.316,-8.739 6.1556,-0.2977 6.1555,-0.2977 v 121.5477 121.5477 h -6.9615 -6.9614 l -1.1006,-4.25 c -14.6707,-56.6539 -33.0734,-86.6209 -61.6283,-100.3552 -14.8105,-7.1236 -22.289,-8.6223 -45.5982,-9.1379 l -20.75,-0.459 v 132.2294 132.2293 l 28.25,-0.5303 c 29.4385,-0.5526 41.9259,-1.9459 59.8934,-6.6829 47.1283,-12.4249 89.6789,-45.412 118.0833,-91.5434 10.2578,-16.6596 20.9719,-40.4181 25.3664,-56.25 l 1.7348,-6.25 h 8.1334 8.1335 l -0.3044,6.25 c -0.1674,3.4375 -1.4219,39.1 -2.7878,79.25 -1.3658,40.15 -2.756,77.6125 -3.0892,83.25 l -0.6059,10.25 h -225.4037 -225.4038 v -9 z"
         id="path659" />
      <path
         style="fill:#aa8800"
         d="m 2336.7719,2760.3264 c -8.2273,-2.9058 -16.1718,-11.3398 -18.4675,-19.6052 -0.692,-2.4915 -1.0231,-327.021 -1.0269,-1006.3898 -0.01,-999.73606 3e-4,-1002.72834 1.9912,-1008.04943 2.3992,-6.41234 8.7559,-13.22144 15.0032,-16.07095 6.1756,-2.8168 16.815,-2.81086 23.0894,0.0129 5.9703,2.68688 11.5456,8.33996 14.5153,14.7178 l 2.3758,5.10217 0.01,1004.07191 c 0.01,915.6968 -0.1303,1004.4831 -1.5822,1008.7442 -2.3489,6.8935 -9.3041,14.1272 -15.9878,16.6279 -5.9725,2.2346 -14.9032,2.6105 -19.9202,0.8385 z M 1016.3053,2671.462 c -157.07121,-4.9138 -310.90067,-50.44 -448.53336,-132.7447 -101.99754,-60.9947 -195.60128,-145.3287 -267.12759,-240.6734 -36.29132,-48.3764 -66.10281,-96.6763 -91.34805,-148 -55.55939,-112.9526 -85.05667,-221.5382 -95.21336,-350.5 -2.02679,-25.7346 -1.71671,-110.0854 0.49994,-136 10.87371,-127.1231 40.69865,-235.3117 94.83241,-344 42.45622,-85.2425 92.66024,-157.4071 157.6502,-226.6109 44.86183,-47.7705 77.491,-76.0644 146.70645,-127.21437 30.22677,-22.33747 88.84753,-56.52467 131.72611,-76.82173 108.60266,-51.40827 209.56576,-78.34797 333.77389,-89.05992 28.58266,-2.46504 106.93606,-2.43494 137.99996,0.053 129.378,10.36203 243.1534,41.8035 353.5,97.6886 131.4802,66.58824 243.0203,160.84202 332.4291,280.90942 50.0361,67.1938 91.5771,142.7744 122.2936,222.5036 21.617,56.1101 38.8877,119.7805 48.8128,179.9536 13.8632,84.0489 16.0222,162.8935 6.8894,251.5987 -17.4146,169.1439 -80.3965,328.8482 -183.7744,466 -21.2561,28.2005 -44.3468,55.5887 -65.9005,78.1653 -5.6375,5.9051 -10.25,11.2086 -10.25,11.7856 0,0.577 -0.5278,1.0491 -1.1729,1.0491 -0.6452,0 -9.3077,7.9991 -19.25,17.7758 -21.1793,20.8263 -29.9265,28.7055 -54.7368,49.3055 -56.2811,46.7301 -118.0107,86.7675 -183.3403,118.9134 -108.0377,53.1606 -218.5367,83.6566 -339,93.5588 -16.3554,1.3444 -71.0091,3.5881 -79.5,3.2637 -1.925,-0.074 -14.51,-0.4782 -27.9666,-0.8991 z m -4.0334,-250.1459 v -166.2279 l -3.2452,3.9779 c -22.47058,27.5432 -52.93211,53.9289 -84.25476,72.9812 -43.62799,26.537 -93.04246,43.1041 -142,47.6078 -7.15,0.6578 -13.13889,1.3032 -13.30865,1.4344 -0.4917,0.3798 9.53412,18.0927 15.93069,28.1452 46.58002,73.2025 111.78611,129.5808 190.31321,164.5482 8.62679,3.8414 34.22661,13.6527 35.81471,13.7263 0.4125,0.019 0.75,-74.7678 0.75,-166.1931 z m 88.766,159.6184 c 44.7372,-16.1937 89.2361,-41.9861 126.734,-73.4574 32.5668,-27.3327 63.7041,-62.8086 85.9561,-97.9332 6.5158,-10.2852 16.5439,-27.6342 16.5439,-28.6217 0,-0.2081 -1.9259,-0.3783 -4.2799,-0.3783 -6.8235,0 -27.2649,-2.7601 -40.7807,-5.5065 -56.4302,-11.4665 -102.9318,-33.2712 -147.8241,-69.3152 -12.498,-10.0347 -33.7908,-30.7875 -42.6153,-41.5346 -3.85,-4.6888 -7.3375,-8.5518 -7.75,-8.5844 -0.4125,-0.033 -0.75,74.1907 -0.75,164.9407 0,111.0685 0.3321,165 1.016,165 0.5588,0 6.7463,-2.0742 13.75,-4.6094 z m -274.32828,-14.1699 c -1.68428,-1.4964 -8.25925,-7.3259 -14.61106,-12.9546 -30.18505,-26.7483 -60.57643,-62.3843 -85.0834,-99.7661 -12.13183,-18.5053 -19.64329,-31.9456 -31.57648,-56.5 -5.74684,-11.825 -10.51242,-21.5896 -10.59018,-21.6991 -0.0778,-0.1095 -4.6268,-1.1693 -10.10897,-2.3551 -28.3136,-6.1242 -61.53234,-18.6126 -86.96759,-32.695 -14.83044,-8.211 -39.66681,-24.9238 -50.73784,-34.1424 -5.35581,-4.4596 -10.01797,-8.1084 -10.36034,-8.1084 -0.81602,0 -66.90182,65.1318 -66.90182,65.9361 0,1.8826 42.17384,38.1102 62.5,53.6879 78.49154,60.1549 162.78021,105.2759 253,135.4346 25.86518,8.6463 49.39514,15.7396 52.5,15.8267 1.72367,0.048 1.57689,-0.3198 -1.06232,-2.6646 z m 459.90848,-1.7851 c 68.2613,-19.2879 139.9316,-50.3476 204.3555,-88.5612 21.0705,-12.4982 54.8824,-35.1139 73.7983,-49.3613 26.1465,-19.6935 32.5801,-25.0577 72.8205,-60.7168 l 4.1795,-3.7037 -32.9943,-33.0463 c -18.1469,-18.1755 -33.3777,-33.0463 -33.8463,-33.0463 -0.4686,0 -3.6212,2.4041 -7.0057,5.3425 -12.1397,10.5394 -34.335,26.1967 -50.2103,35.42 -28.2996,16.4417 -62.6111,29.5972 -95.8074,36.734 l -7.864,1.6906 -3.581,8.1565 c -18.8089,42.8411 -46.398,86.3668 -78.0639,123.1564 -11.9879,13.9277 -40.5951,42.2568 -53.4114,52.8923 -5.8936,4.8907 -10.7157,9.0532 -10.7157,9.25 0,0.8184 2.9806,0.135 18.3462,-4.2067 z m -844.65334,-287.6284 34.20353,-34.1927 -5.6531,-8.0573 c -17.38813,-24.7829 -32.42709,-55.1086 -42.66919,-86.0415 -3.81135,-11.5109 -10.01197,-35.8546 -11.10363,-43.593 l -0.64572,-4.5773 -15.40158,-6.7993 c -47.14272,-20.8118 -92.97884,-51.0727 -133.67267,-88.2504 -13.90339,-12.7021 -35.53926,-35.539 -46.70316,-49.2957 -3.34754,-4.125 -6.48519,-7.6359 -6.97256,-7.8019 -0.94705,-0.3227 -0.74056,0.5003 6.47418,25.8019 29.91214,104.8999 83.91324,209.9698 151.68844,295.14 11.4618,14.4035 34.84886,41.86 35.65581,41.86 0.32786,0 15.9877,-15.3867 34.79965,-34.1928 z m 1262.43914,19.6928 c 81.3164,-95.0135 140.552,-204.3193 174.918,-322.7713 2.7226,-9.384 4.7845,-17.2275 4.5822,-17.4299 -0.2024,-0.2024 -5.0368,4.9351 -10.7431,11.4166 -48.723,55.3422 -107.9264,98.5814 -175.5867,128.2397 l -14.1977,6.2234 -1.1221,5.6607 c -8.0781,40.7507 -23.5789,79.4257 -46.1453,115.1343 -4.5855,7.256 -9.0123,14.317 -9.8373,15.6912 -1.4932,2.4873 -1.3449,2.652 32.877,36.49 18.9073,18.6952 34.7063,33.621 35.1089,33.1683 0.4025,-0.4526 4.9683,-5.773 10.1461,-11.823 z m -919.13196,8.481 c 98.75993,-13.5578 182.05682,-83.1709 213.88806,-178.751 4.1597,-12.4905 7.6014,-26.3264 10.2733,-41.2989 2.1105,-11.8272 2.2362,-15.5967 2.5873,-77.598 l 0.3691,-65.1669 -5.8089,-1.167 c -46.70462,-9.3832 -92.1253,-37.4944 -122.45305,-75.7872 -3.35934,-4.2416 -6.43624,-7.8404 -6.83755,-7.9972 -1.25668,-0.4913 -24.98897,20.9417 -37.04816,33.4587 -24.55391,25.4861 -44.74547,51.9306 -61.88618,81.051 -8.20606,13.9412 -23.17984,44.4354 -28.36992,57.7755 -9.61174,24.705 -19.52555,59.2951 -23.66759,82.5781 -7.00686,39.3865 -7.9097,85.8265 -2.45778,126.4219 3.46238,25.7811 12.77946,66.7848 15.60994,68.6981 1.9123,1.2926 30.21516,-0.077 45.80143,-2.2171 z m 575.60776,1.7446 c 1.0327,-1.0328 9.5274,-36.793 11.8121,-49.7256 7.5782,-42.8973 8.5801,-86.137 2.966,-128 -13.1805,-98.283 -64.1355,-193.0125 -139.3859,-259.1297 -7.425,-6.5238 -13.95,-11.8429 -14.5,-11.8202 -0.55,0.023 -3.194,2.9544 -5.8755,6.515 -12.1245,16.0993 -31.8211,34.194 -50.8925,46.7535 -18.3747,12.1007 -46.7065,24.1903 -66.9646,28.5749 -5.3529,1.1586 -9.9946,2.1065 -10.3149,2.1065 -0.3202,0 -0.4105,29.3625 -0.2006,65.25 0.363,62.0462 0.4907,65.8638 2.6015,77.75 7.3896,41.6118 20.7477,75.0685 42.9211,107.5 10.4398,15.2695 17.7869,24.1225 31.1909,37.584 44.3244,44.5144 100.8146,70.8976 164.5346,76.8443 9.2433,0.8626 31.1809,0.7241 32.1078,-0.2027 z m 90.0165,-19.2914 c 31.5759,-12.6858 62.1094,-33.2761 87.018,-58.6808 21.2544,-21.6777 35.4294,-41.2818 48.267,-66.7534 7.4374,-14.757 14.7854,-32.6386 13.8119,-33.6121 -0.3383,-0.3384 -4.5765,0.1018 -9.4182,0.9781 -36.389,6.586 -79.5681,9.5828 -111.3609,7.7291 -11.1738,-0.6516 -22.2753,-1.4532 -24.6698,-1.7814 l -4.3537,-0.5967 0.7907,10.8915 c 0.4349,5.9903 0.7532,25.5165 0.7074,43.3915 -0.091,35.329 -1.589,52.9057 -6.9482,81.5 -3.5932,19.1714 -3.8022,20.5 -3.225,20.5 0.2778,0 4.4992,-1.6046 9.3808,-3.5658 z m -793.00742,0.8158 c -1.48755,-5.0262 -5.89141,-30.3179 -7.5905,-43.5929 -4.12358,-32.2175 -5.10447,-67.6419 -2.63485,-95.1571 0.69111,-7.7 1.17094,-14.1273 1.06629,-14.2829 -0.10466,-0.1556 -5.08797,0.1815 -11.07403,0.7491 -16.53519,1.568 -59.69439,1.2851 -77.00446,-0.5047 -18.86066,-1.9502 -39.63157,-4.9414 -52.03649,-7.4938 -5.31125,-1.0929 -9.83681,-1.807 -10.0568,-1.587 -0.21999,0.22 1.70706,5.7368 4.28234,12.2596 18.94354,47.9814 50.20358,88.2349 92.43166,119.024 12.77935,9.3176 36.17699,22.2199 52.5,28.9502 9.26844,3.8216 10.83899,4.0755 10.11684,1.6355 z m -29.01206,-225.2476 c 13.61019,-1.053 29.84648,-2.8403 32.43827,-3.5708 0.85033,-0.2397 2.09916,-2.5667 2.7818,-5.1833 3.10887,-11.9167 10.92135,-35.1897 16.86776,-50.2483 20.36251,-51.5656 48.43448,-97.8133 87.10337,-143.5 11.62217,-13.7314 44.64095,-46.1797 57.49338,-56.5 5.82203,-4.675 10.61366,-8.7621 10.64807,-9.0825 0.20713,-1.9283 -34.12942,-10.575 -53.43743,-13.4567 -14.72817,-2.1982 -50.52733,-2.2182 -66.63727,-0.037 -43.14885,5.8413 -78.73979,19.241 -114.36273,43.0565 -40.72876,27.229 -72.1253,63.9062 -92.10363,107.5949 -15.41673,33.7133 -22.85719,64.292 -24.08984,99.0041 l -0.58873,16.5789 14.8911,3.6451 c 25.46848,6.2343 42.69287,9.2409 66.3911,11.589 12.24163,1.213 47.54815,1.2752 62.60478,0.1104 z m 898.39518,-0.023 c 7.975,-0.5504 21.1573,-1.9126 29.294,-3.027 18.9765,-2.5992 34.5729,-5.7356 54.956,-11.0515 l 3.75,-0.978 -0.011,-8.7114 c -0.023,-18.9442 -4.5966,-49.3081 -10.4834,-69.6028 -6.5523,-22.5892 -18.8904,-49.5801 -31.591,-69.1087 -23.6347,-36.3409 -56.0387,-66.5789 -94.604,-88.2801 -53.2618,-29.9711 -119.2817,-39.9173 -180.7696,-27.2336 -17.7357,3.6585 -36.5303,9.5103 -34.9541,10.8831 0.502,0.4373 6.2264,5.2034 12.7208,10.5913 60.3897,50.1009 111.5158,120.4035 141.4916,194.563 4.9333,12.2046 16.0103,44.3162 18.1518,52.6204 1.2481,4.8401 0.7321,4.643 18.055,6.8983 24.7524,3.2227 50.3806,4.0668 73.9936,2.437 z m 171.554,-49.3921 c 89.9147,-47.5892 162.6058,-130.8319 198.739,-227.5873 1.9513,-5.225 3.8574,-10.7375 4.2358,-12.25 l 0.688,-2.75 h -175.1084 c -96.3096,0 -175.0988,0.3375 -175.087,0.75 0.012,0.4125 1.7259,1.955 3.8092,3.4277 2.0833,1.4728 9.3862,7.5829 16.2286,13.5781 64.2397,56.2856 105.1293,134.6482 114.0101,218.4942 0.6845,6.4625 1.4726,11.75 1.7512,11.75 0.2787,0 5.1088,-2.4357 10.7335,-5.4127 z m -1286.0405,-4.3373 c 1.13424,-12.8495 5.29168,-35.9099 9.05783,-50.2418 18.87238,-71.8177 60.50067,-135.2935 118.33757,-180.4438 l 8.40886,-6.5644 H 374.82239 201.05512 l 0.65576,2.6128 c 1.57101,6.2593 12.43053,32.278 20.09649,48.1499 32.80611,67.9226 82.44925,125.4038 145.46457,168.4317 13.65603,9.3245 41.74796,25.7281 44.16468,25.7889 0.36557,0.01 0.97253,-3.4708 1.34878,-7.7333 z m 661.4981,-139.8117 c 27.3784,-5.1936 52.1512,-18.3959 71.9909,-38.3665 26.5201,-26.6951 40.1655,-58.9673 40.1985,-95.0718 0.035,-38.5866 -13.5144,-71.4995 -40.5727,-98.5533 -15.8817,-15.879 -33.6454,-26.9167 -53.8678,-33.4714 -80.0788,-25.956 -164.64066,25.7006 -178.3231,108.9327 -2.18983,13.3211 -1.51023,37.3542 1.41649,50.092 8.91289,38.7912 32.77674,71.2547 66.77725,90.8413 13.85183,7.9796 34.27266,14.7111 51.86886,17.0979 9.183,1.2456 30.1228,0.4698 40.5116,-1.5009 z M 539.27194,1697.7555 c 0,-0.4337 -4.80924,-4.5962 -10.6872,-9.25 -14.13279,-11.1896 -39.79537,-36.7378 -50.68748,-50.4616 -40.74173,-51.3335 -66.15792,-112.0799 -73.13657,-174.8012 l -0.64547,-5.8013 -5.67164,3.1852 c -78.24375,43.9413 -145.5564,118.3758 -181.24152,200.4173 -5.28256,12.1448 -13.93012,34.8427 -13.93012,36.5634 0,0.5784 64.25343,0.9366 168,0.9366 92.4,0 168,-0.3548 168,-0.7884 z m 1360.99996,-0.7905 c 0,-0.3184 -2.3047,-6.7309 -5.1215,-14.25 -31.476,-84.0215 -90.4067,-157.5895 -166.3785,-207.7038 -14.0463,-9.2655 -38.5364,-23.4673 -40.468,-23.4673 -0.5676,0 -1.0344,1.6875 -1.0374,3.75 -0.01,6.299 -3.9122,30.9792 -7.1561,45.25 -16.2005,71.2693 -56.566,136.8851 -113.3385,184.2362 -6.6,5.5048 -12.6589,10.6285 -13.4643,11.3862 -1.2441,1.1705 24.7316,1.3776 172.75,1.3776 95.8179,0 174.2143,-0.2605 174.2143,-0.5789 z m -1121.70261,-9.8549 c 18.59148,-3.0031 43.18529,-9.4421 54.57182,-14.2877 l 4.36916,-1.8593 -3.86916,-2.9395 c -2.12805,-1.6167 -7.91917,-6.5407 -12.86917,-10.9423 -51.48413,-45.7803 -90.73938,-97.4434 -120.0818,-158.0374 -12.597,-26.0136 -23.76611,-55.0914 -30.52299,-79.4639 -1.1491,-4.1448 -2.45683,-7.9248 -2.90607,-8.3999 -1.75515,-1.8562 -31.18409,-4.7248 -54.48914,-5.3113 -45.38547,-1.1421 -80.83537,3.7544 -128.75,17.7834 l -6.75,1.9764 v 8.7138 c 0,16.7407 4.11104,43.8416 9.53908,62.8836 7.29228,25.582 19.62698,52.3143 34.29138,74.3179 43.19958,64.8198 111.02365,106.6154 189.16954,116.5727 13.98533,1.7821 54.75342,1.1812 68.29735,-1.0065 z m 602.98851,0.9396 c 77.3353,-9.0464 146.7695,-51.9553 189.8902,-117.3481 20.8409,-31.6054 34.0719,-65.803 40.253,-104.0406 1.9545,-12.091 3.9059,-38.5178 3.1441,-42.5787 -0.5603,-2.9863 -0.9956,-3.2475 -8.8313,-5.2983 -38.8554,-10.1697 -69.7439,-13.7905 -110.5417,-12.9581 -21.696,0.4427 -53.5532,2.8723 -54.9866,4.1935 -0.1575,0.1452 -2.0363,6.0626 -4.1749,13.1498 -28.499,94.4412 -84.4853,178.715 -161.5387,243.1574 -4.95,4.1399 -9.1422,7.8838 -9.3159,8.3199 -1.0401,2.6104 43.3249,12.5821 63.3159,14.2312 11.7796,0.9718 41.3678,0.5076 52.7859,-0.828 z m -145.7859,-85.4338 c 19.5422,-16.5756 45.5448,-44.3277 61.481,-65.6176 81.0947,-108.3385 106.4566,-244.7682 68.6805,-369.4544 -1.3575,-4.4808 -1.3882,-4.504 -7.1889,-5.4385 -8.3966,-1.3527 -39.0075,0.7777 -55.9726,3.8954 -94.6655,17.3972 -172.7038,85.3062 -202.8763,176.5431 -5.5821,16.8794 -8.1709,27.4873 -11.2259,46 -1.4806,8.9722 -1.7915,19.8279 -2.1362,74.6059 l -0.4034,64.106 6.3209,1.2106 c 45.7651,8.7655 91.8768,37.3041 122.5709,75.8593 6.5008,8.1657 7.6272,9.1633 9.0854,8.0467 0.9155,-0.701 6.1646,-5.0915 11.6646,-9.7565 z m -350.61075,-0.01 c 7.6773,-9.7468 24.97807,-26.5893 35.65775,-34.7131 15.85631,-12.0617 34.4868,-22.6307 51.61736,-29.2825 l 8.66431,-3.3644 4.49953,-11.6012 c 18.3762,-47.3798 23.4404,-92.7526 15.6962,-140.6313 -12.3982,-76.6521 -58.8339,-144.2083 -127.13469,-184.9597 -35.88865,-21.4128 -80.49473,-34.6576 -120.29612,-35.7193 l -10.90644,-0.2909 -3.37983,12 c -19.51927,69.3029 -19.97261,144.3501 -1.30478,216 19.41374,74.5128 58.46654,141.2564 115.65703,197.6649 9.72878,9.5958 24.04398,22.714 24.90896,22.8262 0.0377,0 2.882,-3.563 6.32072,-7.9287 z m -663.20538,-88.312 c 45.82658,-56.3339 109.62732,-106.073 174.14748,-135.7656 l 10.55899,-4.8593 2.20629,-11.3125 c 10.43562,-53.5079 32.49619,-102.4608 64.80898,-143.8126 l 6.642,-8.5 -31.77379,-31.2148 -31.77378,-31.2148 -4.28665,4.7148 c -34.14328,37.5535 -66.61887,80.0469 -92.84851,121.4897 -46.39068,73.2972 -83.49552,157.6844 -104.42265,237.4875 -1.6929,6.4557 -3.30277,12.5251 -3.57748,13.4876 -0.27472,0.9625 -0.30746,1.75 -0.0728,1.75 0.2347,0 4.91105,-5.5125 10.39188,-12.25 z m 1657.78383,-17.5032 c -24.1985,-83.8163 -60.6884,-162.7619 -108.966,-235.7468 -25.9094,-39.1692 -45.9937,-65.0975 -83.1813,-107.3844 l -3.1795,-3.6156 -33.8109,33.5 c -18.596,18.425 -33.9483,33.5581 -34.1163,33.6292 -0.168,0.071 3.4517,5.2763 8.0436,11.5673 26.3631,36.117 46.2674,80.5072 56.0064,124.9038 l 3.2363,14.7535 10,4.2231 c 44.3792,18.7417 92.9513,49.6718 132.5028,84.3762 12.6686,11.116 41.4776,40.6648 50.9972,52.3066 4.125,5.0447 7.6505,8.736 7.8344,8.203 0.1839,-0.533 -2.2311,-9.8552 -5.3667,-20.7159 z M 517.77194,1339.0533 c 31.37926,-5.7899 43.57718,-6.8685 78.5,-6.9415 17.875,-0.037 38.06892,0.3 44.87537,0.7497 l 12.37537,0.8175 -0.58328,-2.3239 c -0.32081,-1.2782 -1.07076,-13.1299 -1.66657,-26.3372 -1.74112,-38.5953 0.99592,-74.9496 8.53851,-113.4112 1.88075,-9.5904 3.23253,-17.6242 3.00395,-17.8528 -0.72189,-0.7219 -13.57915,3.8784 -26.54335,9.4971 -54.07296,23.4354 -97.53606,63.0114 -127.4242,116.0282 -7.34552,13.0298 -19.5758,41.283 -19.5758,45.2221 0,0.4611 3.2625,0.01 7.25,-1.0133 3.9875,-1.0183 13.55,-3.014 21.25,-4.4347 z m 1080.61606,-4.2594 c -22.5043,-60.9203 -67.588,-112.2904 -125.1161,-142.5621 -12.2382,-6.4399 -25.7841,-12.2372 -26.6259,-11.3953 -0.3226,0.3225 0.5635,6.3511 1.969,13.3969 6.7453,33.8139 9.2336,64.2177 8.2503,100.8105 -0.3843,14.3 -1.032,28.8434 -1.4394,32.3187 -0.4074,3.4752 -0.4963,6.4432 -0.1974,6.5954 0.2989,0.1522 4.8184,-0.1033 10.0434,-0.5678 17.8015,-1.5824 60.2262,-1.3026 78.5,0.5178 15.4339,1.5374 53.4049,7.2894 54.4167,8.2431 0.2291,0.216 1.0119,0.3928 1.7395,0.3928 0.9646,0 0.5476,-2.0986 -1.5401,-7.75 z m -586.3605,-365.60954 -0.2556,-85.51766 -14.49996,5.47373 c -16.11691,6.0841 -42.95315,18.85409 -59.60473,28.36283 -53.8442,30.74725 -105.74236,78.80921 -139.48502,129.17464 -13.32543,19.8899 -25.79966,41.3099 -24.69862,42.411 0.28011,0.2801 6.75958,1.4215 14.39883,2.5365 85.18121,12.4326 159.69481,54.8595 214.9261,122.3757 l 8.9634,10.9572 0.2556,-85.1281 c 0.1406,-46.8205 0.1406,-123.6111 0,-170.64584 z m 84.9839,234.30394 c 41.5814,-48.3232 100.4232,-85.2933 163.2548,-102.5723 21.943,-6.0344 52.4898,-11.348 65.4642,-11.3874 2.7728,-0.01 5.594,-0.3663 6.2694,-0.7954 0.8814,-0.5599 -1.105,-4.7178 -7.0391,-14.7346 -24.089,-40.6627 -51.5394,-73.8533 -87.1888,-105.42101 -31.5647,-27.95067 -68.9877,-52.25701 -106,-68.84727 -11.636,-5.2157 -38.116,-15.5734 -42.75,-16.72177 l -2.75,-0.68149 v 166.19174 c 0,91.4055 0.3727,166.0418 0.8283,165.8584 0.4555,-0.1833 4.9155,-5.0833 9.9112,-10.8889 z m 534.7605,-105.9209 c 0,-1.9251 -38.49,-34.3172 -60.5,-50.9151 -76.8074,-57.92087 -159.1973,-101.38218 -249.5,-131.61328 -21.0718,-7.0543 -47.4919,-14.83661 -48.1464,-14.18203 -0.2325,0.2325 4.8801,5.09467 11.3613,10.80481 53.7734,47.37565 98.415,106.6744 126.2774,167.7378 l 6.6821,14.6443 15.4128,4.0652 c 18.4936,4.8778 25.548,7.1746 41.6642,13.565 28.2408,11.1979 58.0873,28.2161 82.7486,47.1823 l 7,5.3835 33.5,-33.033 c 18.425,-18.1682 33.5,-33.306 33.5,-33.6395 z m -1085.49996,52.6539 c 28.72579,-20.3322 63.89084,-37.4155 98,-47.6085 14.41231,-4.3069 32.25211,-8.5348 40.6058,-9.6231 l 5.1058,-0.6652 4.24225,-9.6403 c 18.58895,-42.2424 49.093,-89.76954 80.88137,-126.0179 11.74025,-13.38744 35.4995,-36.64857 48.95037,-47.92412 6.20708,-5.20325 11.13253,-9.61351 10.94546,-9.80058 -1.05044,-1.05045 -56.16571,15.72392 -78.73105,23.96185 -81.73882,29.84037 -155.59912,69.76291 -223.84767,120.99285 -16.62264,12.4776 -41.99582,33.1632 -56.49767,46.0599 l -6.84533,6.0877 32.34127,31.6543 32.34127,31.6542 2.50407,-1.9113 c 1.37723,-1.0512 5.87906,-4.3001 10.00406,-7.2198 z M 5440.2719,2646.9306 c -58.8162,-6.9349 -90.7647,-37.5206 -114.9527,-110.0491 -12.0755,-36.2086 -16.6891,-45.4091 -25.4781,-50.8085 -4.5145,-2.7734 -5.6542,-3.0237 -13.5,-2.9647 -7.4051,0.056 -9.653,0.5227 -16.5473,3.4383 -9.0814,3.8404 -24.6228,13.9527 -35.2143,22.9128 -3.9559,3.3465 -7.3989,6.0845 -7.6511,6.0845 -0.2522,0 -2.8394,-2.7482 -5.7493,-6.1071 l -5.2907,-6.1072 4.9417,-4.3875 c 19.8509,-17.6245 40.8929,-29.0652 62.4935,-33.9782 6.579,-1.4963 6.9483,-1.73 6.9483,-4.3969 0,-2.7828 -0.1047,-2.8309 -8.75,-4.0146 -44.0814,-6.0357 -82.2947,-19.3306 -111.75,-38.8792 -55.6156,-36.9104 -90.337,-97.6036 -101.9042,-178.1293 -5.2521,-36.5628 -5.4804,-89.4869 -0.5434,-126 7.1039,-52.5401 21.9507,-95.5605 45.38,-131.4937 38.8838,-59.6359 95.3328,-95.3656 169.5676,-107.3287 50.3214,-8.1095 111.6807,-5.1707 155.2024,7.4333 35.2779,10.2166 65.0472,26.3183 89.0833,48.1837 59.6664,54.2778 88.3413,142.2945 83.6832,256.8631 -3.4887,85.8095 -23.9121,146.2722 -65.4033,193.6246 -34.4047,39.2648 -91.4782,65.9144 -156.4729,73.0627 l -10.5927,1.165 v 3.4746 3.4745 l 9,1.2697 c 28.1886,3.977 47.4269,12.2907 62.8158,27.1454 14.0607,13.5725 22.961,28.7462 32.6281,55.6258 3.3627,9.35 8.7537,22.4 11.9801,29 9.2243,18.87 16.2031,24.4512 31.6238,25.2912 6.7421,0.3673 8.888,0.077 13.227,-1.7897 8.5462,-3.6764 15.96,-13.1654 20.1915,-25.8432 2.539,-7.6068 5.5942,-22.1881 6.5375,-31.2004 l 0.6847,-6.5422 6.6557,0.7408 c 3.6607,0.4074 7.4433,0.7639 8.4058,0.7921 1.4405,0.042 1.7465,0.9798 1.7302,5.3014 -0.046,12.1713 -4.1572,31.2691 -9.4154,43.7367 -3.7152,8.8092 -10.3739,19.3745 -16.6686,26.448 -14.1334,15.8821 -38.0964,28.3603 -63.6179,33.1276 -8.443,1.5771 -44.8131,2.8225 -53.2783,1.8244 z m -79.1249,-203.0062 c 26.254,-4.6768 45.3057,-18.7538 57.0229,-42.1335 10.9698,-21.8883 18.2756,-63.0272 22.1538,-124.747 1.6642,-26.485 2.3522,-153.569 1.0624,-196.2515 -2.6373,-87.2807 -6.9547,-117.8983 -20.5618,-145.818 -15.2138,-31.2163 -32.487,-43.5735 -66.5185,-47.5871 -11.5159,-1.3581 -33.8528,-0.5707 -43.5339,1.5346 -23.0524,5.0133 -35.3042,13.253 -47.7628,32.122 -17.8854,27.0882 -25.4605,55.06 -28.7165,106.0392 -3.9867,62.4209 -3.9845,221.7591 0,274.9608 2.834,37.8033 8.1874,65.5558 17.1074,88.686 5.801,15.0424 19.8429,32.7181 32.1893,40.5192 21.1799,13.3827 48.509,17.8493 77.5538,12.6753 z m -2426.8751,17.5165 c -63.9008,-4.1698 -118.3044,-23.2244 -159.2819,-55.7878 -60.5409,-48.1096 -90.6983,-125.4528 -90.6983,-232.6092 0,-83.4539 19.0321,-150.4155 57.2297,-201.3544 9.3203,-12.4292 28.5169,-32.1855 41.2505,-42.4534 41.2171,-33.2358 90.2232,-52.0331 150.5,-57.7274 14.5553,-1.375 55.3612,-1.3799 68.5,-0.01 23.7161,2.476 40.4704,5.6239 72.8276,13.6831 36.7164,9.145 47.0362,11.089 52.9438,9.9737 4.5974,-0.868 9.4945,-5.0151 13.7463,-11.641 2.9115,-4.5371 3.5249,-4.9724 7.007,-4.9724 h 3.8161 l 0.5519,6.25 c 0.3035,3.4375 1.6852,40.45 3.0703,82.25 1.3852,41.8 2.7508,79.0375 3.0348,82.75 l 0.5162,6.75 h -7.4396 c -6.8466,0 -7.4939,-0.1793 -8.1209,-2.25 -0.3747,-1.2375 -5.5505,-12.15 -11.5017,-24.25 -29.5514,-60.0838 -59.0123,-101.1221 -87.8854,-122.4223 -29.1791,-21.5258 -65.6411,-27.5851 -99.589,-16.5496 -47.2821,15.37 -76.5252,65.4945 -87.8762,150.6253 -4.5858,34.3936 -5.1012,46.7537 -5.1012,122.3466 0,76.8648 0.6775,90.9065 6.0385,125.1461 12.4374,79.4355 41.1878,130.7563 83.4989,149.0491 14.8323,6.4126 21.458,7.6445 41.4626,7.7088 19.4886,0.063 23.1386,-0.5531 38.6256,-6.5169 31.8656,-12.271 65.8579,-47.5186 95.3877,-98.9103 8.4918,-14.7785 22.7017,-42.8605 29.9696,-59.2268 l 4.7739,-10.75 h 6.8716 6.8716 l -0.01,6.75 c -0.01,3.7125 -1.1267,42.3 -2.4917,85.75 -1.3649,43.45 -2.4855,81.5875 -2.4901,84.75 l -0.01,5.75 h -4.405 c -4.1226,0 -4.5656,-0.2725 -6.9108,-4.25 -3.0684,-5.2042 -7.255,-9.2717 -10.9993,-10.6864 -6.7619,-2.5548 -14.181,-1.3881 -59.1849,9.3073 -53.8971,12.809 -95.628,16.7153 -144.5,13.5261 z m 3017.5,0.5057 c -2.2,-0.2147 -9.175,-0.8583 -15.5,-1.4303 -16.5812,-1.4996 -24.7153,-2.7105 -40.5,-6.0292 -63.9127,-13.4376 -107.3377,-43.2559 -129.1356,-88.6727 -5.6898,-11.8548 -12.5174,-32.545 -15.2905,-46.3358 -5.7846,-28.7669 -5.4353,-15.5016 -6.0281,-228.9347 l -0.5458,-196.5 -22.75,-0.2688 -22.75,-0.2687 v -7.4813 -7.4812 h 129.5 129.5 v 7.4837 7.4836 l -26.75,0.2664 -26.75,0.2663 -0.2893,193 c -0.2927,195.2996 0.016,217.2911 3.3763,240.6914 5.61,39.0638 20.3209,71.4779 39.1712,86.3101 10.5407,8.2939 26.5385,15.4995 42.0138,18.9235 9.7174,2.15 36.5478,3.9015 47.728,3.1157 39.0163,-2.7424 69.4151,-16.6339 91.0723,-41.6179 15.5959,-17.9917 25.1876,-39.0423 31.3585,-68.8219 5.1018,-24.6201 5.0492,-22.1864 5.0596,-234.3509 l 0.01,-197.75 h -26.5 -26.5 v -7.5 -7.5 h 59.5 59.5 v 7.5 7.5 h -22.5 -22.5 v 191.25 c 0,120.9136 -0.3788,196.2149 -1.0257,204.75 -3.07,40.5024 -12.0303,73.5058 -26.8064,98.7366 -24.9714,42.6395 -63.4585,63.736 -131.1655,71.8977 -11.7828,1.4203 -65.0966,2.6858 -74.5,1.7684 z m -2679.5,-15.9027 v -8.5 h 24.5 24.5 v -270.5 -270.5 h -24.5 -24.5 v -9 -9 h 148 148 v 9 9 h -44.0018 -44.0018 l 0.2518,270.25 0.2518,270.25 22,-0.1223 c 38.1918,-0.2124 59.3877,-4.3103 82.844,-16.017 14.9061,-7.4393 22.5139,-12.973 36.0073,-26.1904 24.8369,-24.3291 52.7085,-66.3556 79.5301,-119.9203 l 6.134,-12.25 h 7.9923 c 7.9865,0 7.9923,0 7.9923,2.6598 0,1.463 -3.375,44.0055 -7.5,94.539 -4.125,50.5334 -7.5,92.5365 -7.5,93.3401 0,1.277 -27.4695,1.4611 -218,1.4611 h -218 z m 531,1.0188 v -7.4813 l 22.75,-0.2687 22.75,-0.2688 v -272.5 -272.5 l -22.75,-0.2688 -22.75,-0.2687 v -7.4813 -7.4812 h 125 125 v 7.5 7.5 h -22.5 -22.5 v 273 273 h 22.5 22.5 v 7.5 7.5 h -125 -125 z m 329,-0.019 v -7.5 h 23 23 v -273 -273 h -23 -23 v -7.5 -7.5 h 113.3378 113.3378 l 107.2996,205.75 c 59.0148,113.1625 107.6877,206.1775 108.1622,206.7 0.4838,0.5328 0.8626,-86.5333 0.8626,-198.25 v -199.2 h -22.5 -22.5 v -7.5 -7.5 h 56 56 v 7.5 7.5 h -22.5 -22.5 v 280.5081 280.5081 l -57.5869,-0.2581 -57.5869,-0.2581 -78.2214,-147.5 c -43.0218,-81.125 -106.2432,-200.375 -140.4919,-265 -34.2488,-64.625 -62.685,-117.9275 -63.1917,-118.45 -0.5617,-0.5792 -0.9212,100.0146 -0.9212,257.75 v 258.7 h 22.5 22.5 v 7.5 7.5 h -56 -56 z m 589,0 v -7.5 h 22.5 22.5 v -273 -273 h -22.5 -22.5 v -7.5 -7.5 h 125 125 v 7.5 7.5 h -22.5 -22.5 v 273 273 h 22.5 22.5 v 7.5 7.5 h -125 -125 z m 1578,-1 v -8.5 h 24 24 v -270.5 -270.5 h -24 -24 v -9 -9 h 213.5 213.5 l 0.01,2.75 c 0,1.5125 1.8008,37.85 3.9917,80.75 2.1909,42.9 3.9871,78.3572 3.9917,78.7938 0,0.4366 -3.1919,0.6616 -7.1032,0.5 l -7.1115,-0.2938 -6.6618,-15 c -11.3315,-25.5142 -24.3346,-48.9847 -36.8424,-66.5 -24.3795,-34.1399 -49.2615,-50.3616 -89.7133,-58.4883 -16.3002,-3.2747 -31.8961,-4.4891 -57.8095,-4.5014 l -21.7517,-0.01 v 127.6085 127.6085 l 22.25,-0.4926 c 25.52,-0.565 28.8424,-1.2172 44.25,-8.686 27.7868,-13.4695 49.3664,-44.0995 60.9686,-86.5384 l 3.2807,-12 5.6253,-0.2999 5.6254,-0.2999 v 121.5499 121.5499 h -6.4615 -6.4614 l -1.1134,-4.25 c -14.7629,-56.3525 -32.9475,-85.9499 -61.4637,-100.0387 -14.572,-7.1994 -27.6679,-9.7113 -50.631,-9.7113 h -15.869 v 132.6595 132.6594 l 24.25,-0.6494 c 35.5207,-0.9512 54.3515,-3.8158 77.4576,-11.7831 27.331,-9.4241 51.691,-25.212 73.3265,-47.5233 26.6992,-27.5332 46.2609,-60.7308 56.6339,-96.1117 l 1.832,-6.2486 h 7.75 c 7.3718,0 7.7498,0.1084 7.7467,2.2486 0,1.2375 -1.3503,39.375 -2.9967,84.75 -1.6464,45.375 -2.9949,84.6375 -2.9967,87.25 v 4.75 h -225.5 -225.5 v -8.5 z m -2518.5,-798.5261 c -68.4883,-4.1273 -125.6463,-25.8468 -164.408,-62.4737 -30.4865,-28.8075 -53.386,-69.2804 -65.6325,-116 -14.8061,-56.4839 -17.1075,-131.1719 -5.9228,-192.21 14.3819,-78.4857 52.6161,-140.2951 110.4633,-178.5752 53.7894,-35.5949 129.7234,-49.5513 213,-39.1488 53.0355,6.625 100.1497,27.1531 134.4377,58.576 22.8145,20.9081 45.2515,54.6446 58.0546,87.2913 29.8052,76.0005 32.4771,191.613 6.3211,273.5202 -14.3666,44.9891 -39.2167,84.2952 -70.0769,110.8431 -50.8686,43.7602 -124.9103,63.6806 -216.2365,58.1771 z m 50.1776,-17.0597 c 16.6979,-2.3183 32.0044,-8.9486 43.4486,-18.8205 23.2823,-20.0836 34.0163,-59.4606 39.9606,-146.5935 1.6597,-24.3283 2.3422,-161.9237 1.0082,-203.2567 -3.0539,-94.6187 -8.7828,-125.7481 -28.6849,-155.8659 -9.3429,-14.1384 -20.5948,-22.9735 -35.4101,-27.8042 -13.4474,-4.3846 -18.5845,-5.0585 -38.5,-5.05 -28.4186,0.012 -44.6443,4.0174 -58.5943,14.4644 -9.9949,7.4852 -20.516,22.2667 -29.0335,40.7903 -9.0929,19.7751 -14.3844,47.005 -16.8636,86.7792 -3.8519,61.799 -3.8489,218.0691 0.01,271.4429 2.8906,40.0301 10.1718,75.8047 19.3763,95.2013 12.5505,26.4477 35.3984,43.2763 66.1097,48.6931 7.2212,1.2737 28.0657,1.2846 37.1776,0.02 z m 760.8224,17.4936 c -35.818,-2.7346 -58.626,-10.566 -75.8634,-26.0487 -13.6654,-12.2743 -22.5295,-30.8729 -28.0523,-58.8589 -4.0468,-20.5069 -4.7762,-32.8331 -5.5622,-94 -0.6381,-49.6517 -1.061,-61.5304 -2.4519,-68.8736 -4.684,-24.7278 -12.4431,-38.4157 -25.5702,-45.1089 -10.3736,-5.2892 -13.6577,-5.7596 -43.75,-6.2659 l -28.25,-0.4754 v 138.6119 138.6119 h 26.5 26.5 v 7.5 7.5 h -133 -133 v -7.5 -7.5 h 26.5 26.5 v -273 -273 h -26.5 -26.5 v -7.5 -7.5 l 120.75,0.034 c 166.3554,0.046 213.732,1.285 251.7471,6.5812 35.6997,4.9736 67.5411,15.3874 84.8796,27.7599 11.1793,7.9773 23.6637,22.8229 30.3796,36.1252 10.3444,20.4893 15.525,54.0455 13.2001,85.5 -3.8452,52.0211 -20.4685,80.1968 -58.6869,99.4715 -17.3765,8.7636 -44.196,16.0117 -68.7695,18.5854 -6.05,0.6337 -11.1681,1.3107 -11.3735,1.5045 -0.2055,0.1938 -0.1313,0.9837 0.1648,1.7553 0.3161,0.8237 2.7414,1.687 5.8735,2.0908 27.7255,3.5741 58.3253,14.9032 75.3352,27.8918 21.0302,16.0584 32.8233,43.5702 36.5057,85.1636 0.5375,6.0704 0.9877,28.1371 1.0006,49.0371 0.03,48.6948 1.4503,70.7758 5.2101,81 3.4116,9.2772 11.09,14.0703 21.2354,13.2559 15.8883,-1.2753 24.3589,-12.1326 31.4553,-40.318 1.6531,-6.5658 3.7415,-16.013 4.6408,-20.9936 l 1.6351,-9.0557 5.9739,0.7044 c 3.2856,0.3874 6.2469,0.9775 6.5806,1.3112 1.7595,1.7594 -5.6513,38.2307 -11.2014,55.1269 -12.9856,39.5317 -28.5199,52.2691 -72.0361,59.0664 -8.8862,1.388 -42.2958,2.551 -52,1.8101 z m -154,-317.3005 c 32.5674,-8.565 51.7336,-31.591 59.4081,-71.372 3.4281,-17.7699 4.3623,-34.5838 3.8362,-69.0481 -0.412,-26.99 -0.8366,-34.1113 -2.6296,-44.1052 -7.095,-39.546 -20.7344,-54.9274 -56.1103,-63.2767 -9.1898,-2.169 -13.6018,-2.5472 -35.2544,-3.0222 l -24.75,-0.543 v 127.2448 127.2448 l 23.75,-0.5092 c 19.8117,-0.4248 25.0766,-0.8581 31.75,-2.6132 z m -1770.5,300.8929 v -9 h 24.5 24.5 v -270 -270 h -24.5 -24.5 v -9 -9 h 214 214 v 4.6638 c 0,5.8015 6.7003,146.7716 7.516,158.1311 l 0.5956,8.295 -7.149,-0.295 -7.149,-0.2949 -5.2526,-14 c -20.6864,-55.136 -41.9203,-88.7316 -69.1983,-109.4831 -6.7704,-5.1505 -27.554,-15.9319 -34.3627,-17.8255 -1.925,-0.5354 -7.55,-2.1667 -12.5,-3.6251 -16.4566,-4.8488 -32.2394,-6.6628 -63.25,-7.2699 l -28.25,-0.553 v 134.2455 134.2455 l 26.25,-0.5139 c 27.77,-0.5436 30.5453,-0.9361 45.0135,-6.3669 29.4636,-11.0595 54.9211,-45.9241 65.4159,-89.5887 l 2.8206,-11.7352 5.75,-0.015 5.75,-0.015 v 121.5457 121.5457 l -6.5751,-0.2957 -6.5751,-0.2957 -3.8463,-15 c -14.8379,-57.8652 -35.7468,-86.1101 -70.8678,-95.7323 -6.6568,-1.8237 -11.1933,-2.1472 -35.3857,-2.5233 l -27.75,-0.4313 v 125.5934 125.5935 h 51 51 v 9 9 h -155.5 -155.5 v -9 z m 528,1.5 v -7.5 h 22.5 22.5 v -273 -273 h -22.5 -22.5 v -7.5 -7.5 h 125 125 v 7.5 7.5 h -22.5 -22.5 v 273 273 h 22.5 22.5 v 7.5 7.5 h -125 -125 z m 1605,-1.5 v -9 h 24 24 v -270 -270 h -24 -24 v -9 -9 h 213.4067 213.4067 l 0.6316,9.25 c 0.8105,11.869 7.5526,146.1944 7.554,150.5 v 3.25 h -6.8324 -6.8325 l -7.2718,-16.4248 c -21.7765,-49.1868 -46.7105,-84.7097 -72.2015,-102.8636 -17.4922,-12.4575 -44.4371,-21.4257 -74.0724,-24.6538 -5.3408,-0.5818 -20.9783,-1.0578 -34.75,-1.0578 h -25.0394 v 127.5 127.5 h 17.3238 c 35.5888,0 53.47,-6.4679 73.1762,-26.469 9.7463,-9.8921 16.8901,-20.0854 24.0299,-34.2878 4.8067,-9.5613 12.6427,-31.2863 15.5073,-42.9932 l 1.0399,-4.25 h 5.4614 5.4615 v 121.5 121.5 h -6.3784 -6.3785 l -1.6759,-6.75 c -10.8285,-43.6121 -28.3576,-76.0742 -48.9729,-90.6927 -17.6779,-12.5355 -37.0713,-17.5541 -67.8443,-17.5565 l -10.749,-8e-4 v 132.5 132.5 h 23.0394 c 37.0035,0 59.835,-3.5211 84.3613,-13.0103 43.022,-16.645 81.1962,-51.7195 105.6365,-97.0588 7.4761,-13.8689 9.982,-19.6484 16.0125,-36.9309 l 4.7107,-13.5 7.6198,-0.2921 7.6198,-0.292 -0.01,6.292 c 0,3.4607 -1.3493,42.9671 -2.9897,87.7921 -1.6404,44.825 -2.9872,82.2875 -2.9928,83.25 -0.01,1.6615 -11.419,1.75 -225.5103,1.75 h -225.5 v -9 z"
         id="path657" />
    </g>
    <path
       style="fill:#000000"
       id="path137"
       d="" />
    <path
       style="fill:#000000"
       id="path117"
       d="" />
  </g>
</svg>
